<?xml version="1.0" encoding="UTF-8"?>
<svg id="_レイヤー_2" data-name="レイヤー 2" xmlns="http://www.w3.org/2000/svg" width="343.22" height="307.66" viewBox="0 0 343.22 307.66">
  <defs>
    <style>
      .cls-1 {
        fill: #e8fcee;
      }

      .cls-2 {
        fill: #d3e6f5;
      }

      .cls-3 {
        fill: #ceebd5;
      }

      .cls-4 {
        fill: #e4f6f7;
      }

      .cls-5 {
        fill: #ceeaeb;
      }
    </style>
  </defs>
  <g id="_レイヤー_1-2" data-name="レイヤー 1">
    <g>
      <rect class="cls-1" x="35.31" y="34.44" width="152.54" height="89.06"/>
      <rect class="cls-2" y="34.44" width="32.34" height="89.06"/>
      <g>
        <path d="M55.68,63.15c.31.06.57.07,1.08.07h2.8c.55,0,.74-.01,1.08-.06v1.37c-.27-.03-.45-.04-1.02-.04h-2.86c-.48,0-.76.01-1.08.06v-1.4ZM56.08,73.36c.04-.39.07-.84.07-1.29v-2c0-.43-.01-.71-.06-1.06.29.03.62.04,1.02.04h2.24c.55,0,.66,0,.9-.04-.03.29-.03.49-.03.98v2.16c0,.55.01.78.03,1.04h-1.3v-.45h-1.53v.63h-1.34ZM56.12,61.27c.34.04.56.06,1.12.06h1.96c.55,0,.78-.01,1.12-.06v1.29c-.34-.03-.63-.04-1.12-.04h-1.96c-.49,0-.81.01-1.12.04v-1.29ZM56.16,65.21c.24.03.45.04.88.04h2.37c.43,0,.63-.01.85-.04v1.26c-.29-.03-.48-.04-.85-.04h-2.37c-.43,0-.6.01-.88.04v-1.26ZM56.16,67.07c.27.03.45.04.88.04h2.35c.45,0,.62-.01.87-.04v1.26c-.29-.04-.43-.04-.88-.04h-2.35c-.42,0-.63.01-.87.04v-1.26ZM57.42,71.56h1.53v-1.34h-1.53v1.34ZM63.99,62.87h-1.51c-.64,0-1.11.03-1.54.08v-1.53c.41.06.87.08,1.54.08h3.99c.66,0,1.12-.03,1.54-.08v1.53c-.41-.06-.88-.08-1.54-.08h-1.08v3.28h1.11c.64,0,.9-.01,1.32-.07v1.5c-.42-.06-.7-.07-1.32-.07h-1.11v3.95h1.29c.59,0,1.05-.03,1.5-.08v1.55c-.45-.06-.91-.08-1.53-.08h-4.55c-.66,0-1.12.03-1.5.07v-1.51c.25.04.45.06.83.06v-5.15c0-.69-.01-1-.07-1.49h1.51c-.06.39-.07.76-.07,1.49v5.15h1.19v-8.59Z"/>
        <path d="M74.46,65.6c.29-.45.46-.74.67-1.18h-1.91c-.64,0-1.05.01-1.49.06v-1.43c.39.07.76.08,1.49.08h.18c-.22-.48-.52-.92-.95-1.51l1.4-.42c.42.62.76,1.22,1.08,1.93h.7c.22-.69.42-1.75.42-2.2,0-.01,0-.06-.01-.1l1.62.18c-.06.18-.1.39-.18.76-.08.38-.24.95-.38,1.36h1.34c.57-.73.85-1.19,1.21-1.97l1.53.42c-.71,1.08-.76,1.15-1.09,1.55h.64c.76,0,1.11-.01,1.51-.08v1.43c-.43-.04-.85-.06-1.51-.06h-1.95c.27.55.39.77.64,1.18h2.1c.78,0,1.11-.01,1.5-.08v1.44c-.42-.04-.85-.07-1.5-.07h-1.07c.85.85,1.62,1.34,2.94,1.83-.42.5-.56.73-.84,1.43-.94-.5-1.32-.76-2.07-1.37-.1,1.9-.22,2.96-.45,3.52-.25.66-.71.85-1.99.85-.32,0-.59-.01-1.16-.04-.08-.71-.14-.95-.34-1.44.66.1,1.16.14,1.57.14.35,0,.53-.08.59-.28.13-.38.2-.92.27-2.23h-2.17c-.25,1.11-.53,1.71-1.15,2.38-.76.83-1.75,1.37-3.19,1.75-.24-.6-.45-.94-.81-1.33.83-.18,1.21-.31,1.7-.53,1.13-.56,1.68-1.21,1.95-2.27h-.41c-.63,0-1.04.01-1.43.07v-.67c-.69.56-1.11.85-1.98,1.34-.2-.5-.42-.8-.92-1.23,1.37-.64,2.02-1.08,2.84-1.92h-1.02c-.69,0-1.06.01-1.48.07v-1.44c.38.07.74.08,1.48.08h2.07ZM75.22,66.89c-.36.46-.62.76-1.01,1.15h5.46c-.38-.39-.63-.7-.95-1.15h-3.5ZM77.92,65.6c-.24-.45-.29-.59-.53-1.18h-.74c-.18.43-.34.73-.57,1.18h1.85Z"/>
        <path d="M91.57,71.92c0,.7.03,1.12.07,1.46h-1.57c.06-.42.08-.92.08-1.44v-1.26c-1.19.36-2.28.66-2.86.77-.5.1-.88.2-1.08.28l-.38-1.53c.34-.03.55-.06,1.04-.14v-7.34c-.48.01-.57.01-.9.06v-1.46c.38.04.76.07,1.21.07h4.1c.53,0,.84-.01,1.22-.07v.84c.34.03.5.03.85.03h3.53c.36,0,.73-.03,1.09-.07-.03.17-.06.45-.1.85-.2,2.3-.87,4.51-1.92,6.37.74,1.04,1.36,1.6,2.59,2.37-.35.52-.63,1.04-.81,1.51-1.37-1-1.92-1.53-2.65-2.55-.85,1.11-1.42,1.62-2.72,2.56-.24-.63-.43-.98-.81-1.5v.18ZM88.29,64.2h1.86v-1.48h-1.86v1.48ZM88.29,66.84h1.86v-1.43h-1.86v1.43ZM88.29,69.79q.95-.2,1.86-.43v-1.3h-1.86v1.74ZM91.57,71.71c1.34-.83,1.88-1.3,2.69-2.37-.48-.88-.74-1.53-1.01-2.41-.29-1.01-.39-1.53-.6-3.39-.24.01-.36.03-.56.06v-.87c-.15-.01-.24-.01-.52-.01v8.99ZM94.01,63.53c.31,2.34.49,3.04,1.13,4.4.62-1.25.94-2.4,1.25-4.4h-2.38Z"/>
        <path d="M106.62,67.34c.49,0,.77-.01,1.11-.06-.04.32-.04.38-.06.7-.07,1.79-.36,3.38-.8,4.22-.34.66-.92.9-2.21.9-.62,0-1.27-.03-2.11-.11-.07-.62-.15-.95-.36-1.54,1.04.18,1.78.25,2.51.25.52,0,.74-.08.87-.34.27-.53.43-1.37.53-2.73h-3.71c-.38,0-.66.01-.99.04.35-1.36.59-2.96.63-4.27.32.03.59.04,1.07.04h3v-1.64h-3.17c-.5,0-.97.03-1.41.08v-1.5c.45.06.88.08,1.44.08h3.36c.53,0,.98-.01,1.32-.06-.03.35-.04.64-.04,1.09v2.2c0,.45.01.71.04,1.05-.38-.03-.77-.04-1.21-.04h-3c-.1.63-.17,1.08-.29,1.62h3.5ZM112,61.13c-.07.5-.08.8-.08,1.5v8.94c0,.8.01,1.18.08,1.72h-1.7c.07-.59.08-.95.08-1.72v-8.94c0-.7-.01-.95-.08-1.5h1.7Z"/>
        <path d="M121.64,67.45c0,.62,0,.73.03,1.09-.13,0-.56-.01-1.32-.03h-2.21c-.11,2.24-.41,3.42-1.19,4.79-.42-.52-.7-.77-1.21-1.06.84-1.44,1.06-2.77,1.06-6.54,0-.88-.03-1.29-.07-1.78.43.03.8.04,1.41.04h2.17c.6,0,.94-.01,1.34-.04-.03.29-.03.7-.03,1.22v2.31ZM116.22,61.48c.38.06.73.07,1.46.07h2.9c.81,0,1.11-.01,1.47-.07v1.5c-.34-.04-.71-.06-1.4-.06h-3.05c-.62,0-1,.01-1.37.07v-1.51ZM120.27,67.23v-1.99h-2.09v.97c0,.5-.01.63-.01,1.02h2.1ZM123.95,66.44c-.1,1.67-.27,2.7-.6,3.68-.42,1.22-.85,1.9-2.03,3.18-.36-.48-.63-.76-1.11-1.11,1.02-.98,1.57-1.82,1.91-2.98.31-1.02.43-2.49.43-5,0-1.29-.01-1.64-.06-2.09,1.65-.01,3.98-.53,5.03-1.13l.77,1.37c-.25.06-.35.08-.63.17-1.43.45-2.23.63-3.67.83v1.68h3.05c.63,0,.92-.01,1.32-.07v1.53c-.36-.04-.7-.06-1.21-.06h-.2v5.34c0,.71.01,1.04.07,1.46h-1.58c.06-.42.08-.81.08-1.47v-5.32h-1.58Z"/>
        <path d="M133.44,64.82c-.36.08-.49.13-.99.31-.18.07-.28.1-.36.1-.31,0-.59-.57-.84-1.78.9-.04,1.22-.08,2.77-.32,1.68-.25,3.81-.57,4.93-.71,1.26-.17,2.27-.34,2.8-.45.1-.03.14-.03.21-.03.18,0,.25.08.38.43.11.29.2.71.2.91,0,.17-.06.22-.25.22-.29,0-.56.03-.83.07-2.37.39-4.26,2.46-4.26,4.65,0,1.64,1.29,2.72,3.47,2.91.2.01.27.08.27.25,0,.35-.14,1.02-.27,1.33-.07.15-.18.22-.36.22s-.6-.08-1.04-.21c-2.38-.7-3.63-2.21-3.63-4.36,0-1.16.38-2.24,1.11-3.17.39-.5.73-.78,1.53-1.33-1.83.31-3.77.67-4.83.94ZM140.61,65.18c.2,0,1.39,1.33,1.39,1.54,0,.07-.08.15-.34.38-.27.22-.28.22-.39.27q-.07.03-.1.03c-.06,0-.07-.01-.32-.41-.22-.35-.46-.66-.91-1.12-.03-.03-.07-.1-.07-.11.03-.07.04-.11.06-.11.04-.06.28-.25.34-.29.14-.07.22-.13.24-.14.01-.03.04-.03.04-.03h.07ZM143.01,66.15c-.21.15-.34.24-.41.24-.06,0-.08-.03-.15-.14-.42-.63-.63-.9-1.08-1.33-.03-.04-.06-.08-.06-.11,0-.07.08-.15.28-.29.2-.14.36-.22.43-.22.1,0,.27.13.56.42.41.42.78.94.78,1.06,0,.08-.1.18-.36.38Z"/>
        <path d="M146.08,63.22c.31.06.57.07,1.08.07h2.63c.55,0,.78-.01,1.08-.06v1.37c-.32-.04-.49-.04-1.02-.04h-2.69c-.48,0-.77.01-1.08.06v-1.4ZM146.53,61.34c.34.04.55.06,1.09.06h1.85c.55,0,.74-.01,1.09-.06v1.32c-.34-.03-.62-.04-1.09-.04h-1.85c-.48,0-.74.01-1.09.04v-1.32ZM146.53,73.36c.04-.41.07-.88.07-1.3v-1.97c0-.45-.01-.67-.06-1.05.34.03.56.04,1.05.04h2.09c.46,0,.7-.01.9-.04-.03.29-.03.46-.03.98v2.13c0,.52.01.71.04,1.04h-1.3v-.45h-1.37v.63h-1.39ZM155.96,68.54h.84c.53,0,.84-.01,1.11-.06v1.32c-.2-.04-.59-.06-1.11-.06h-.84v1.6h1.05c.64,0,1.02-.01,1.33-.07v1.43c-.38-.04-.81-.07-1.36-.07h-4.03v.73h-1.44c.06-.43.07-.78.07-1.4v-4.86c0-.06.01-.17.01-.29,0-.2,0-.27.01-.42-.17.25-.24.34-.48.62-.21-.39-.35-.63-.6-.99v.5c-.27-.03-.43-.04-.83-.04h-2.27c-.42,0-.59.01-.85.04v-1.26c.24.03.46.04.85.04h2.27c.42,0,.6-.01.83-.04v.2c1.01-1.19,1.71-2.8,1.97-4.52l1.54.32c-.07.15-.18.46-.34.94-.14.38-.31.85-.39,1.06h1.44c.43-.88.66-1.47.87-2.27l1.44.39c-.45,1.04-.6,1.37-.87,1.88h.56c.57,0,1.02-.03,1.36-.07v1.43c-.36-.04-.73-.06-1.36-.06h-.8v1.37h.84c.55,0,.83-.01,1.11-.06v1.32c-.28-.04-.52-.06-1.09-.06h-.85v1.42ZM146.57,67.13c.24.03.46.04.85.04h2.27c.41,0,.6-.01.83-.04v1.26c-.24-.03-.45-.04-.85-.04h-2.25c-.39,0-.59.01-.84.04v-1.26ZM147.89,71.56h1.4v-1.34h-1.4v1.34ZM154.61,65.92v-1.37h-1.67v1.37h1.67ZM152.94,68.54h1.67v-1.42h-1.67v1.42ZM152.94,71.35h1.67v-1.6h-1.67v1.6Z"/>
        <path d="M163.54,64.82c-.36.08-.49.13-.99.31-.18.07-.28.1-.36.1-.31,0-.59-.57-.84-1.78.9-.04,1.22-.08,2.77-.32,1.68-.25,3.81-.57,4.93-.71,1.26-.17,2.27-.34,2.8-.45.1-.03.14-.03.21-.03.18,0,.25.08.38.43.11.29.2.71.2.91,0,.17-.06.22-.25.22-.29,0-.56.03-.83.07-2.37.39-4.26,2.46-4.26,4.65,0,1.64,1.29,2.72,3.47,2.91.2.01.27.08.27.25,0,.35-.14,1.02-.27,1.33-.07.15-.18.22-.36.22s-.6-.08-1.04-.21c-2.38-.7-3.63-2.21-3.63-4.36,0-1.16.38-2.24,1.11-3.17.39-.5.73-.78,1.53-1.33-1.83.31-3.77.67-4.83.94ZM170.71,65.18c.2,0,1.39,1.33,1.39,1.54,0,.07-.08.15-.34.38-.27.22-.28.22-.39.27q-.07.03-.1.03c-.06,0-.07-.01-.32-.41-.22-.35-.46-.66-.91-1.12-.03-.03-.07-.1-.07-.11.03-.07.04-.11.06-.11.04-.06.28-.25.34-.29.14-.07.22-.13.24-.14.01-.03.04-.03.04-.03h.07ZM173.11,66.15c-.21.15-.34.24-.41.24-.06,0-.08-.03-.15-.14-.42-.63-.63-.9-1.08-1.33-.03-.04-.06-.08-.06-.11,0-.07.08-.15.28-.29.2-.14.36-.22.43-.22.1,0,.27.13.56.42.41.42.78.94.78,1.06,0,.08-.1.18-.36.38Z"/>
        <path d="M59.63,86.67c-1-.2-1.75-.49-2.27-.85-.25-.17-.31-.24-.31-.36,0-.15.11-.43.5-1.22.69.43,1.46.74,2.34.92.2-.98.28-1.79.29-2.7.71.13,1.34.34,1.7.53.15.08.21.17.2.28,0,.06-.03.11-.1.25-.21.43-.22.48-.52,1.85.14.01.32.01.43.01h.1c.34-.01.59-.01.71-.01h.04c.13,0,.17.06.17.24,0,.62-.04,1.12-.1,1.22-.04.07-.22.1-.81.1-.27,0-.48-.01-.87-.03q-.29,1.44-.42,2.2c.48.04.57.04.81.04h.79c.14-.01.21.01.25.08.06.08.1.53.1,1.04,0,.25-.01.32-.1.36-.07.03-.38.04-.91.04-.25,0-.63-.01-1.12-.04-.01.25-.01.42-.01.53,0,1.29.6,1.88,1.92,1.88,1.47,0,2.35-.71,2.35-1.92,0-.43-.1-.83-.32-1.26-.28-.53-.55-.84-1.22-1.37h.13c.22,0,.7-.07,1.12-.15.22-.04.31-.06.38-.06.21,0,.35.1.63.45.64.78.97,1.61.97,2.48,0,1.97-1.6,3.28-4.02,3.28-2.27,0-3.4-1.13-3.4-3.43,0-.2,0-.35.03-.59-1.39-.29-2.14-.98-2.14-1.98,0-.52.15-.9.55-1.29.04-.06.1-.07.15-.07.08,0,.18.07.5.34.25.21.29.25.29.32q0,.06-.08.18c-.06.1-.11.25-.11.34,0,.18.11.34.32.43.2.1.25.11.7.21l.36-2.27Z"/>
        <path d="M76.15,89.38c-.04.17-.06.27-.08.58-.11,1.27-.58,2.34-1.3,3.08-.42.42-1.01.83-1.58,1.11-.36.17-.7.29-1.46.52-.31-.66-.5-.98-.97-1.5.83-.11,1.26-.24,1.83-.5.94-.42,1.47-.95,1.72-1.67.13-.36.22-.88.22-1.25,0-.13-.01-.31-.03-.45l1.64.08ZM71.03,90.43c.04-.32.06-.6.06-.97v-.94c0-.41-.01-.67-.06-.99.42.04.8.06,1.44.06h8.88c.66,0,.98-.01,1.47-.06-.04.28-.06.53-.06.95v.97c0,.41.01.69.06.98h-1.57v-1.54h-8.68v1.54h-1.54ZM76.1,83.22c0-.48-.01-.73-.07-1.04h1.64c-.06.28-.07.53-.07,1.04v.15h3.63c.74,0,1.26-.03,1.61-.08v1.43c-.42-.04-.9-.07-1.58-.07h-3.66v.88h2.98c.67,0,1.04-.01,1.37-.07v1.39c-.39-.04-.7-.06-1.37-.06h-7.34c-.63,0-.95.01-1.36.06v-1.39c.34.06.7.07,1.36.07h2.86v-.88h-3.45c-.7,0-1.15.01-1.6.07v-1.43c.34.06.87.08,1.62.08h3.42v-.15ZM78.9,92.59c0,.35.13.41.99.41,1,0,1.28-.04,1.4-.24.13-.15.18-.53.25-1.65.45.22.85.35,1.43.45-.11,1.37-.32,2.1-.67,2.42-.32.29-.95.39-2.51.39-2.02,0-2.4-.18-2.4-1.15v-2.76c0-.55-.01-.83-.06-1.12h1.62c-.06.32-.07.53-.07,1.05v2.2Z"/>
        <path d="M88.58,92.39c-.56,0-.98.01-1.44.06.04-.38.06-.84.06-1.58v-3.1c0-.66-.01-1.11-.06-1.51.42.03.71.04,1.4.04h6.82c.78,0,1.09-.01,1.48-.04-.04.43-.06.81-.06,1.53v3.12c0,.74.01,1.23.06,1.54-.43-.04-.85-.06-1.43-.06h-.99c.95.53,2.21.87,3.85,1.05-.31.41-.48.7-.73,1.32-1.2-.18-1.79-.34-2.65-.67-.81-.34-1.26-.56-1.97-1.04l.8-.66h-3.77l.84.66c-.66.49-1.08.73-1.83,1.04-.85.35-1.44.52-2.47.71-.17-.48-.38-.78-.81-1.23,1.72-.27,2.93-.66,3.68-1.18h-.79ZM97.61,84.75c0,.5.01.76.06,1.08-.34-.03-.67-.04-1.39-.04h-8.59c-.67,0-1.11.01-1.4.04.04-.34.06-.57.06-1.08v-1.05c0-.52-.01-.76-.06-1.13.38.04.76.06,1.51.06h8.35c.76,0,1.13-.01,1.51-.06-.04.36-.06.62-.06,1.13v1.05ZM89.59,83.77h-1.86v.87h1.86v-.87ZM88.65,88.01h6.68v-.59h-6.68v.59ZM88.65,89.61h6.68v-.57h-6.68v.57ZM88.65,91.26h6.68v-.63h-6.68v.63ZM92.81,83.77h-1.86v.87h1.86v-.87ZM96.18,84.63v-.87h-2v.87h2Z"/>
        <path d="M102.75,84.13c-.59,0-1.11.03-1.65.08v-1.53c.46.06,1,.08,1.62.08h8.81c.6,0,1.18-.03,1.65-.08v1.53c-.48-.06-.85-.07-1.5-.08v8.91c0,1.25-.36,1.49-2.27,1.49-.39,0-.9-.01-1.5-.04-.04-.5-.17-1.02-.38-1.49.81.1,1.47.14,2.02.14.52,0,.62-.07.62-.41v-8.6h-7.42ZM108.34,90.07c0,.41.01.7.06,1.08-.22-.03-.29-.03-.53-.04h-.34c-.18-.01-.29-.01-.36-.01h-3.17v1.12h-1.54c.06-.42.08-.81.08-1.22v-4.24c0-.52-.01-.85-.07-1.23.32.04.71.06,1.25.06h3.4c.53,0,.92-.01,1.27-.06-.04.35-.06.6-.06,1.15v3.4ZM103.99,89.79h2.91v-2.91h-2.91v2.91Z"/>
        <path d="M115.88,84.66c.2.03.52.04.63.04.03,0,.08,0,.18-.01h.2c.62-1.05.94-1.82,1.13-2.61l1.55.28c-.11.17-.17.29-.27.5-.14.32-.66,1.29-.95,1.75.91-.06,1.29-.1,2.03-.18-.24-.45-.32-.59-.63-1.08l1.08-.52c.62.85,1.04,1.57,1.67,2.8l-1.2.71c-.14-.35-.21-.52-.31-.73-.87.14-3.21.39-4.08.43-.34.01-.67.06-.88.08l-.15-1.48ZM116.65,87.76c0-.46-.01-.8-.04-1.23.28.03.53.04.97.04h2.94c.56,0,.85-.01,1.22-.04-.03.36-.04.6-.04,1.25v5.35c0,.59-.11.88-.38,1.05-.28.17-.71.25-1.4.25-.13,0-.32,0-.58-.01-.04-.46-.11-.83-.29-1.36.25.06.6.08.9.08s.35-.04.36-.22v-1.12h-2.25v1.33c0,.62.01,1.05.07,1.49h-1.54c.06-.45.07-.81.07-1.47v-5.38ZM118.04,88.63h2.27v-.84h-2.27v.84ZM118.04,90.63h2.27v-.84h-2.27v.84ZM124.04,84c1.26-.39,2.31-.9,3.05-1.5l.99,1.22q-.29.13-.94.45c-.84.43-1.97.87-3.11,1.19v.85c0,.32.13.36.97.36,1.09,0,1.4-.03,1.57-.18.15-.13.21-.41.24-1.39.45.21.87.34,1.34.41-.1,1.26-.22,1.72-.55,2.03-.34.34-.85.42-2.62.42-1.08,0-1.5-.04-1.85-.18-.36-.14-.52-.41-.52-.88v-3.36c0-.52-.01-.83-.07-1.15h1.55c-.06.29-.07.58-.07,1.09v.62ZM124.04,90.03c1.29-.35,2.27-.81,3.11-1.44l1.02,1.19c-.39.2-1.71.78-2.13.95-.64.24-.81.29-2,.62v1.27c0,.35.24.42,1.3.42.88,0,1.2-.07,1.34-.27.1-.17.18-.79.2-1.54.41.2.9.36,1.37.46-.1,1.25-.24,1.76-.59,2.16-.36.39-.83.49-2.51.49-1.34,0-1.76-.06-2.12-.28-.31-.18-.42-.41-.42-.85v-3.54c0-.63-.01-.85-.06-1.19h1.53c-.04.28-.06.55-.06,1.12v.43Z"/>
      </g>
      <rect class="cls-1" x="35.31" y="126.52" width="152.54" height="89.06"/>
      <rect class="cls-2" y="126.52" width="32.34" height="89.06"/>
      <g>
        <path d="M61.57,156.39c.39,0,.71-.01.85-.04v1.23c-.21-.03-.45-.04-.87-.04h-.9c.25.29.53.49,1.19.87-.35.38-.41.46-.77,1.11-.69-.57-.85-.77-1.19-1.29.01.22.03.45.03.55v.5c0,.17.01.34.06.49h-1.44c.03-.14.04-.31.04-.45v-.5c0-.14.01-.29.04-.59-.71.98-1.16,1.42-2.2,2.12-.28-.49-.43-.69-.87-1.11,1.08-.56,1.71-1.05,2.16-1.7h-.73c-.48,0-.84.01-1.12.06v-1.26c.32.04.63.06,1.13.06h1.6v-1.58c0-.41-.01-.64-.06-.91h1.46c-.04.27-.06.49-.06.88v1.61h1.64ZM60.88,165.53c-.49-.39-.69-.52-1.25-.81-.84.74-1.67,1.16-3.22,1.6-.2-.48-.41-.84-.7-1.25,1.21-.25,1.95-.52,2.68-.98-.63-.29-.99-.43-1.99-.8.42-.59.55-.77.87-1.33h-.39c-.49,0-.76.01-1.06.07v-1.36c.31.06.56.07,1.06.07h1.01c.13-.28.2-.45.36-.95l1.39.27c-.13.34-.17.43-.28.69h2.13c.48,0,.73-.01.99-.06v1.33c-.28-.04-.5-.06-1.09-.06-.27.85-.39,1.13-.81,1.72.52.24.63.31,1.09.6l-.78,1.25ZM57.34,154.03c.5.74.67,1.05.94,1.78l-1.18.43c-.27-.74-.49-1.18-.91-1.78l1.15-.43ZM58.71,161.96c-.18.31-.22.38-.48.76.59.21.8.28,1.15.43.29-.39.46-.71.62-1.19h-1.29ZM62.34,154.5c-.53,1.06-.59,1.19-1.01,1.81l-1.15-.52c.43-.59.73-1.13.95-1.79l1.21.5ZM68.21,157.54c-.24-.04-.41-.04-.95-.06-.08,2.17-.5,3.8-1.36,5.27.76.95,1.5,1.57,2.56,2.1-.32.42-.55.83-.78,1.43-1.02-.6-1.89-1.37-2.63-2.31-.84.97-1.88,1.79-3.05,2.41-.25-.7-.38-.92-.71-1.34.59-.29.76-.39,1.06-.59.77-.5,1.39-1.04,1.91-1.68-.62-1.11-.9-1.89-1.13-3.15-.24.38-.34.52-.62.88-.29-.38-.59-.69-.97-.97.84-1.06,1.4-2.24,1.82-3.88.17-.63.29-1.43.31-1.82l1.5.29c-.06.15-.1.28-.2.74-.1.38-.24.91-.36,1.33h2.35c.63,0,.94-.01,1.26-.07v1.42ZM64.16,157.49q-.11.28-.17.41c.22,1.53.49,2.41,1.07,3.54.55-1.16.77-2.24.84-3.95h-1.74Z"/>
        <path d="M76.06,156.37c-2.02.22-2.38.25-3.95.31-.1-.53-.24-.88-.55-1.4,2.94-.01,5.74-.34,7.79-.91.73-.2,1.08-.34,1.48-.57l1,1.36c-.41.1-.43.11-.84.22-1.44.42-2.18.59-3.35.77v2.82h3.81c.69,0,1.15-.03,1.57-.08v1.55c-.48-.06-.92-.08-1.55-.08h-3.82v4.36c0,.83.03,1.23.08,1.65h-1.75c.07-.45.08-.85.08-1.68v-4.33h-3.61c-.6,0-1.04.03-1.53.08v-1.55c.46.06.9.08,1.54.08h3.6v-2.59Z"/>
        <path d="M85.56,160.11c.52-.63.77-.85,1.39-1.25.85-.53,1.49-.73,2.3-.73.64,0,1.2.13,1.81.42q.36.18,1.27.77c1.06.69,1.81.98,2.48.98.29,0,.7-.11,1.04-.27.6-.31.97-.62,1.46-1.27l1.12,1.12c-.57.73-.87,1.02-1.33,1.36-.71.53-1.51.8-2.42.8-.42,0-.85-.07-1.23-.2-.55-.18-.83-.32-1.92-1.04-1.23-.78-1.67-.95-2.41-.95-.91,0-1.55.34-2.44,1.29l-1.11-1.04Z"/>
        <path d="M106.72,156.39c.39,0,.71-.01.85-.04v1.23c-.21-.03-.45-.04-.87-.04h-.9c.25.29.53.49,1.19.87-.35.38-.41.46-.77,1.11-.69-.57-.85-.77-1.19-1.29.01.22.03.45.03.55v.5c0,.17.01.34.06.49h-1.44c.03-.14.04-.31.04-.45v-.5c0-.14.01-.29.04-.59-.71.98-1.16,1.42-2.2,2.12-.28-.49-.43-.69-.87-1.11,1.08-.56,1.71-1.05,2.16-1.7h-.73c-.48,0-.84.01-1.12.06v-1.26c.32.04.63.06,1.13.06h1.6v-1.58c0-.41-.01-.64-.06-.91h1.46c-.04.27-.06.49-.06.88v1.61h1.64ZM106.03,165.53c-.49-.39-.69-.52-1.25-.81-.84.74-1.67,1.16-3.22,1.6-.2-.48-.41-.84-.7-1.25,1.21-.25,1.95-.52,2.68-.98-.63-.29-.99-.43-1.99-.8.42-.59.55-.77.87-1.33h-.39c-.49,0-.76.01-1.06.07v-1.36c.31.06.56.07,1.06.07h1.01c.13-.28.2-.45.36-.95l1.39.27c-.13.34-.17.43-.28.69h2.13c.48,0,.73-.01.99-.06v1.33c-.28-.04-.5-.06-1.09-.06-.27.85-.39,1.13-.81,1.72.52.24.63.31,1.09.6l-.78,1.25ZM102.49,154.03c.5.74.67,1.05.94,1.78l-1.18.43c-.27-.74-.49-1.18-.91-1.78l1.15-.43ZM103.86,161.96c-.18.31-.22.38-.48.76.59.21.8.28,1.15.43.29-.39.46-.71.62-1.19h-1.29ZM107.49,154.5c-.53,1.06-.59,1.19-1.01,1.81l-1.15-.52c.43-.59.73-1.13.95-1.79l1.21.5ZM113.36,157.54c-.24-.04-.41-.04-.95-.06-.08,2.17-.5,3.8-1.36,5.27.76.95,1.5,1.57,2.56,2.1-.32.42-.55.83-.78,1.43-1.02-.6-1.89-1.37-2.63-2.31-.84.97-1.88,1.79-3.05,2.41-.25-.7-.38-.92-.71-1.34.59-.29.76-.39,1.06-.59.77-.5,1.39-1.04,1.91-1.68-.62-1.11-.9-1.89-1.13-3.15-.24.38-.34.52-.62.88-.29-.38-.59-.69-.97-.97.84-1.06,1.4-2.24,1.82-3.88.17-.63.29-1.43.31-1.82l1.5.29c-.06.15-.1.28-.2.74-.1.38-.24.91-.36,1.33h2.35c.63,0,.94-.01,1.26-.07v1.42ZM109.31,157.49q-.11.28-.17.41c.22,1.53.49,2.41,1.07,3.54.55-1.16.77-2.24.84-3.95h-1.74Z"/>
        <path d="M117.73,155.69c-.59,0-1.11.03-1.65.08v-1.53c.48.06.98.08,1.65.08h8.73c.62,0,1.18-.03,1.65-.08v1.53c-.5-.06-1.08-.08-1.65-.08h-3.5c-.17.56-.45,1.27-.66,1.75h3.21c.52,0,.95-.01,1.36-.07-.04.39-.07.9-.07,1.39v5.86c0,.55.03,1.12.08,1.69h-1.58v-.73h-6.39v.73h-1.58c.06-.56.08-1.05.08-1.69v-5.88c0-.48-.03-.95-.07-1.36.38.04.8.07,1.28.07h2.13c.22-.49.42-1.02.63-1.75h-3.64ZM118.91,160.72h6.39v-1.96h-6.39v1.96ZM118.91,164.27h6.39v-2.25h-6.39v2.25Z"/>
        <path d="M132.85,156.04c-.6,0-1.19.03-1.74.08v-1.6c.5.06,1.06.08,1.72.08h8.66c.66,0,1.19-.03,1.72-.08v1.6c-.5-.06-1.11-.08-1.71-.08h-5.04c-.03,1.08-.04,1.29-.13,2.07h3.87c.78,0,1.32-.03,1.72-.07-.04.31-.04.32-.08,1.53-.08,2.37-.36,4.5-.7,5.32-.35.83-.92,1.12-2.25,1.12-.43,0-.94-.03-1.92-.1-.06-.6-.15-1-.36-1.53.78.15,1.6.25,2.12.25.67,0,.9-.11,1.05-.49.27-.66.46-2.25.55-4.62h-4.19c-.28,1.6-.71,2.79-1.48,4.02-.71,1.13-1.43,1.88-2.65,2.73-.31-.52-.63-.9-1.12-1.3.98-.63,1.49-1.06,2.07-1.82.94-1.22,1.53-2.66,1.79-4.45.13-.87.14-1.01.18-2.66h-2.07Z"/>
        <path d="M147.36,155.82c0-.71-.03-1.12-.1-1.6h1.71c-.06.39-.07.76-.07,1.3v.31l.06,6.42c1.25-.55,2.58-1.25,3.46-1.82l.32,1.4c-1.68,1.05-2.76,1.6-5.28,2.69-.49.22-.6.27-.94.42l-.43-1.64c.48-.11.66-.17,1.34-.43l-.07-7.05ZM157.26,154.21q-.03.15-.13,1.86c-.08,1.23-.35,2.73-.66,3.77-.22.7-.48,1.29-.85,1.95.67,1.19,1.64,2.13,2.94,2.9-.39.46-.66.91-.94,1.54-1.18-.84-2.1-1.82-2.9-3.11-1.05,1.34-2.49,2.37-4.5,3.21-.31-.59-.55-.95-.87-1.33,1.16-.45,1.88-.81,2.66-1.36,2.48-1.72,3.6-4.4,3.6-8.56,0-.43-.01-.57-.06-.88h1.69ZM151.35,155.01c1.06,1.08,1.67,1.81,2.68,3.29l-1.4.95c-1.01-1.68-1.34-2.13-2.56-3.42l1.29-.83Z"/>
        <path d="M62.32,185.57h3.89c.69,0,1.32-.03,1.81-.08v1.62c-.56-.07-1.12-.1-1.79-.1h-8.54c-.63,0-1.25.03-1.85.1v-1.62c.52.06,1.09.08,1.85.08h3.07v-8.68c0-.62-.03-1.01-.08-1.55h1.74c-.06.5-.08.95-.08,1.55v2.3h3.17c.59,0,1.09-.03,1.57-.08v1.61c-.5-.06-1.01-.08-1.57-.08h-3.17v4.94Z"/>
        <path d="M74.68,179.6c-1-.2-1.75-.49-2.27-.85-.25-.17-.31-.24-.31-.36,0-.15.11-.43.5-1.22.69.43,1.46.74,2.34.92.2-.98.28-1.79.29-2.7.71.13,1.34.34,1.7.53.15.08.21.17.2.28,0,.06-.03.11-.1.25-.21.43-.22.48-.52,1.85.14.01.32.01.43.01h.1c.34-.01.59-.01.71-.01h.04c.13,0,.17.06.17.24,0,.62-.04,1.12-.1,1.22-.04.07-.22.1-.81.1-.27,0-.48-.01-.87-.03q-.29,1.44-.42,2.2c.48.04.57.04.81.04h.79c.14-.01.21.01.25.08.06.08.1.53.1,1.04,0,.25-.01.32-.1.36-.07.03-.38.04-.91.04-.25,0-.63-.01-1.12-.04-.01.25-.01.42-.01.53,0,1.29.6,1.88,1.92,1.88,1.47,0,2.35-.71,2.35-1.92,0-.43-.1-.83-.32-1.26-.28-.53-.55-.84-1.22-1.37h.13c.22,0,.7-.07,1.12-.15.22-.04.31-.06.38-.06.21,0,.35.1.63.45.64.78.97,1.61.97,2.48,0,1.97-1.6,3.28-4.02,3.28-2.27,0-3.4-1.13-3.4-3.43,0-.2,0-.35.03-.59-1.39-.29-2.14-.98-2.14-1.98,0-.52.15-.9.55-1.29.04-.06.1-.07.15-.07.08,0,.18.07.5.34.25.21.29.25.29.32q0,.06-.08.18c-.06.1-.11.25-.11.34,0,.18.11.34.32.43.2.1.25.11.7.21l.36-2.27Z"/>
      </g>
      <g>
        <path d="M13.01,56.02c-.52,0-.91.01-1.34.05.04-.35.05-.78.05-1.47v-2.87c0-.61-.01-1.03-.05-1.4.39.03.66.04,1.3.04h6.33c.73,0,1.01-.01,1.38-.04-.04.4-.05.75-.05,1.42v2.9c0,.69.01,1.14.05,1.43-.4-.04-.79-.05-1.33-.05h-.92c.88.49,2.05.81,3.58.98-.29.38-.44.65-.68,1.22-1.12-.17-1.66-.31-2.46-.62-.75-.31-1.17-.52-1.83-.96l.74-.61h-3.5l.78.61c-.61.46-1,.68-1.7.96-.79.33-1.34.48-2.29.66-.16-.44-.35-.73-.75-1.14,1.6-.25,2.72-.61,3.42-1.09h-.73ZM21.38,48.93c0,.47.01.7.05,1-.31-.03-.62-.04-1.29-.04h-7.97c-.62,0-1.03.01-1.3.04.04-.31.05-.53.05-1v-.98c0-.48-.01-.7-.05-1.05.35.04.7.05,1.4.05h7.75c.7,0,1.05-.01,1.4-.05-.04.34-.05.57-.05,1.05v.98ZM13.95,48.02h-1.73v.81h1.73v-.81ZM13.07,51.95h6.2v-.55h-6.2v.55ZM13.07,53.44h6.2v-.53h-6.2v.53ZM13.07,54.97h6.2v-.58h-6.2v.58ZM16.94,48.02h-1.73v.81h1.73v-.81ZM20.06,48.82v-.81h-1.86v.81h1.86Z"/>
        <path d="M15.58,66.7c.3-.09.52-.13.74-.13.9,0,1.31.53,1.48,1.87.09.77.13.91.31,1.07.16.16.4.21.86.21.61,0,.91-.05,1.98-.34.04-.01.07-.01.09-.01.08,0,.12.03.17.12.09.21.19.9.19,1.27,0,.12-.03.17-.14.2-.35.09-1.59.2-2.34.2-1.13,0-1.73-.21-2.08-.74-.22-.35-.32-.74-.4-1.55-.09-1-.25-1.25-.77-1.25-.47,0-.83.23-1.6,1-.74.74-1.38,1.52-1.81,2.2-.08.13-.17.21-.25.21-.09,0-.18-.08-.59-.51-.39-.43-.53-.6-.53-.68,0-.09.03-.12.26-.33q.31-.26,5.15-5.41c-2.09.38-3.42.65-3.73.77-.14.05-.2.06-.26.06-.12,0-.14-.04-.22-.3-.13-.43-.19-.77-.25-1.29.27.01.36.01.46.01.57,0,2.17-.16,3.61-.36,1.09-.14,1.26-.18,1.55-.33.08-.04.16-.07.21-.07.33,0,1.07.85,1.07,1.22,0,.16-.05.22-.22.31-.2.08-.47.26-.7.46-.13.1-.52.47-.7.64l-1.53,1.47ZM14.04,60.2c.05-.16.09-.22.16-.21.06.01.1.01.13.03.53.18,1.03.3,1.59.4.81.16.92.17,2.31.23.16.01.17.05.17.36,0,.39-.05.87-.12.98-.04.08-.09.12-.16.12s-1.47-.16-1.68-.18c-.94-.14-1.75-.34-2.48-.6-.12-.05-.16-.09-.16-.18,0-.12.09-.51.23-.95Z"/>
        <path d="M17.52,77.81c1.83,0,3.13,1.25,3.13,3.02,0,1.21-.64,2.3-1.7,2.94-.74.44-1.65.66-2.68.66-1.65,0-2.61-.66-2.61-1.79,0-1.03.86-1.75,2.08-1.75,1.1,0,1.9.56,2.43,1.7.66-.48.94-.99.94-1.69,0-1.12-.79-1.85-2.04-1.85s-2.64.64-3.77,1.77c-.21.21-.4.43-.64.73-.09.13-.16.18-.23.18-.23,0-1.16-.91-1.16-1.14,0-.12.05-.18.34-.39.3-.23.73-.61,1.27-1.13,1.26-1.2,2.18-2.2,3.55-3.86-1.62.21-2.72.39-3.12.53-.07.01-.1.03-.14.03-.1,0-.17-.07-.25-.26-.16-.39-.23-.82-.27-1.39.35.05.6.07.88.07.62,0,1.68-.09,3.04-.25.48-.05.64-.09,1-.23.12-.05.18-.06.26-.06.18,0,.36.16.7.68.25.34.33.51.33.61,0,.17-.04.22-.33.4-.23.14-.38.26-.68.55-.65.62-.66.62-1.47,1.44-.57.58-.64.65-1.16,1.17.84-.47,1.51-.66,2.29-.66ZM16.27,82.31c-.2-.13-.42-.2-.66-.2-.4,0-.66.2-.66.51,0,.38.4.61,1.03.61.29,0,.53-.03.86-.12-.16-.43-.29-.62-.56-.81Z"/>
        <path d="M15.48,94.2c-.49.44-.79.65-1.52,1.07-.16-.27-.21-.36-.48-.66-.78.47-1.27.73-2.48,1.31-.01.01-.08.04-.17.09l-.12.06-.31-1.46c.32-.08.77-.23,1.4-.51v-3.29h-.36c-.36,0-.64.01-.96.07v-1.33c.29.04.57.05.98.05h.35v-1.55c0-.65-.03-1.03-.08-1.39h1.46c-.06.4-.08.74-.08,1.39v1.55h.23c.4,0,.64-.01.87-.04v1.29c-.27-.03-.52-.04-.87-.04h-.23v2.68c.29-.16.43-.23.85-.47v.87c.68-.42,1.1-.79,1.48-1.27h-.29c-.52,0-.87.03-1.14.07v-1.25c.27.05.58.06,1.16.06h5.46c.6,0,.99-.03,1.3-.06v1.24c-.38-.04-.73-.05-1.29-.05h-3.82c-.1.18-.17.29-.34.52h3.97c.61,0,.83-.01,1.22-.04-.03.21-.04.39-.05.74-.07,1.53-.25,2.82-.51,3.38-.26.57-.66.74-1.76.74-.31,0-.55-.01-1.05-.04-.05-.46-.14-.79-.34-1.14-.66.58-1.2.94-2.05,1.37-.29-.4-.48-.62-.9-.95,1.08-.47,1.61-.78,2.28-1.34.51-.44.91-.96,1.29-1.66h-.74c-.78,1.17-1.85,2-3.47,2.73-.21-.39-.39-.6-.78-.94,1.42-.55,2.24-1.04,2.89-1.79h-.97ZM15.86,90.98c-.51,0-.88.01-1.14.04.04-.35.05-.69.05-1.2v-1.82c0-.52-.01-.75-.05-1.13.39.05.66.06,1.26.06h3.64c.65,0,.95-.01,1.34-.06-.04.33-.05.6-.05,1.24v1.73c0,.53.01.92.05,1.17-.3-.01-.61-.03-1.13-.03h-3.96ZM16.05,88.56h3.54v-.53h-3.54v.53ZM16.05,89.98h3.54v-.51h-3.54v.51ZM19.85,94.2c-.48,1.04-.98,1.74-1.74,2.44.53.08.92.1,1.29.1.46,0,.58-.13.7-.66.09-.44.16-.99.22-1.88h-.47Z"/>
        <path d="M15.75,105.9c0,.57,0,.68.03,1.01-.12,0-.52-.01-1.22-.03h-2.05c-.1,2.08-.38,3.17-1.1,4.45-.39-.48-.65-.71-1.12-.99.78-1.34.99-2.57.99-6.07,0-.82-.03-1.2-.06-1.65.4.03.74.04,1.31.04h2.02c.56,0,.87-.01,1.25-.04-.03.27-.03.65-.03,1.13v2.14ZM10.72,100.37c.35.05.68.07,1.35.07h2.69c.75,0,1.03-.01,1.37-.07v1.39c-.31-.04-.66-.05-1.3-.05h-2.83c-.57,0-.92.01-1.27.07v-1.4ZM14.48,105.7v-1.85h-1.94v.9c0,.47-.01.58-.01.95h1.95ZM17.9,104.97c-.09,1.55-.25,2.51-.56,3.42-.39,1.13-.79,1.77-1.88,2.95-.34-.44-.58-.7-1.03-1.03.95-.91,1.46-1.69,1.77-2.77.29-.95.4-2.31.4-4.64,0-1.2-.01-1.52-.05-1.94,1.53-.01,3.69-.49,4.67-1.05l.71,1.27c-.23.05-.33.08-.58.16-1.33.42-2.07.59-3.41.77v1.56h2.83c.58,0,.86-.01,1.22-.06v1.42c-.34-.04-.65-.05-1.12-.05h-.18v4.95c0,.66.01.96.07,1.35h-1.47c.05-.39.08-.75.08-1.37v-4.94h-1.47Z"/>
      </g>
      <g>
        <path d="M18.65,148.54h1.85c.58,0,.95-.03,1.34-.08v1.42c-.42-.04-.81-.07-1.35-.07h-1.4c.74,1.3,1.82,2.38,3.11,3.11-.42.42-.6.68-.86,1.3-.53-.38-.91-.74-1.4-1.3-.64-.74-.91-1.14-1.33-1.92.03.47.04.87.04,1.25v1.57c0,.58.03,1.04.08,1.44h-1.44c.05-.4.08-.87.08-1.46v-1.48c0-.35.01-.77.04-1.29-.79,1.43-1.68,2.39-2.94,3.24-.33-.61-.51-.87-.78-1.18,1.34-.77,2.43-1.88,3.19-3.28h-.82c-.56,0-.96.03-1.37.08v-.52c-.22.31-.38.6-.53,1.05-.33-.51-.52-.91-.77-1.56.03.4.05,1.1.05,1.65v3.2c0,.66.03,1.14.08,1.53h-1.44c.05-.4.08-.88.08-1.53v-2.69c0-.49.01-.81.09-1.61-.38,1.26-.75,2.11-1.31,2.95-.16-.58-.33-.96-.58-1.39.62-.79,1.27-2.26,1.66-3.77h-.49c-.38,0-.6.01-.83.05v-1.33c.21.04.44.05.83.05h.62v-1c0-.66-.01-.99-.06-1.3h1.43c-.05.34-.07.69-.07,1.3v1h.38c.31,0,.47-.01.68-.05v1.24c.49-.88.91-2.18.95-3.03l1.26.33c-.05.14-.09.3-.18.69-.06.23-.09.35-.16.6h1v-.86c0-.53-.03-.86-.08-1.18h1.46c-.05.31-.08.66-.08,1.18v.86h1.47c.62,0,.99-.03,1.34-.08v1.36c-.36-.04-.78-.06-1.34-.06h-1.47v1.57ZM15.93,146.97c-.22.53-.34.78-.7,1.39q-.31-.32-1.01-.82c.1-.14.14-.21.21-.3-.17-.03-.38-.04-.61-.04h-.33c.3.69.61,1.21,1.18,1.98v-.71c.39.05.75.08,1.35.08h1.33v-1.57h-1.42Z"/>
        <path d="M11.45,163.4c0-.49.01-.86.03-1.37-.22.44-.49.86-.82,1.29-.17-.61-.3-.96-.55-1.5.79-.87,1.38-1.87,1.87-3.24.27-.75.39-1.17.47-1.72l1.34.55c-.09.27-.13.38-.23.69q-.25.77-.81,2.05v6.97c0,.69.01,1.07.05,1.44h-1.43c.06-.49.08-.86.08-1.46v-3.72ZM20.5,160.63c.47,0,.85-.01,1.13-.05-.04.33-.05.66-.05,1.17v5.19c0,.62.03,1.05.08,1.56h-1.43v-.69h-5.29v.68h-1.38c.04-.42.07-.91.07-1.37v-5.34c0-.44-.03-.86-.05-1.2.35.04.62.05,1.13.05h1.18v-1.68h-.62c-.6,0-1.07.03-1.47.06v-1.39c.36.05.79.08,1.47.08h5.23c.69,0,1.14-.03,1.52-.08v1.39c-.36-.04-.88-.06-1.48-.06h-1.29v1.68h1.26ZM14.88,161.83v4.77h1v-4.77h-1ZM18.04,158.96h-.96v1.68h.96v-1.68ZM17.08,166.6h.96v-4.77h-.96v4.77ZM19.24,166.6h1.04v-4.77h-1.04v4.77Z"/>
        <path d="M19.84,174.19v7.01c0,2.04-1.4,3.29-3.69,3.29-1.14,0-2.16-.35-2.79-.97-.57-.57-.86-1.34-.86-2.31v-7.01h1.7v6.6c0,.73.12,1.25.36,1.56.31.39.94.65,1.6.65s1.29-.25,1.6-.66c.26-.35.39-.84.39-1.55v-6.6h1.69Z"/>
        <path d="M16.49,187.52c2.31,0,3.42.94,3.42,2.92,0,.87-.34,1.68-.91,2.18-.6.53-1.43.79-2.51.79h-1.87v4.23h-1.68v-10.13h3.55ZM16.08,192.04c1.47,0,2.13-.49,2.13-1.6s-.62-1.53-2.13-1.53h-1.47v3.13h1.47Z"/>
      </g>
      <rect class="cls-2" y="126.52" width="32.34" height="89.06"/>
      <g>
        <path d="M11.55,145.03c0-.46,0-.9.03-1.39-.36.64-.53.88-.87,1.3-.13-.52-.31-1.01-.56-1.48.83-.92,1.38-1.86,1.85-3.11.3-.78.39-1.16.48-1.78l1.42.34q-.61,1.85-1.05,2.81v7.01c0,.55.01.97.07,1.44h-1.43c.05-.51.08-.85.08-1.46v-3.68ZM13.69,150.19c.05-.44.06-.77.06-1.53v-5.5c0-.62-.03-1.04-.08-1.4h1.39c-.04.39-.05.77-.05,1.42v5.24h5.5c.62,0,1-.01,1.38-.07v1.34c-.43-.05-.83-.08-1.39-.08h-5.49v.58h-1.33ZM15.12,140.89c-.51,0-.81.01-1.17.05v-1.31c.33.05.66.06,1.31.06h2.22c.05-.44.06-.56.09-1.04l1.38.08q-.12.69-.17.96h1.9c.6,0,.88-.01,1.3-.08v1.33c-.36-.04-.73-.05-1.14-.05h-2.27c-.05.26-.12.53-.18.82h1.79c.52,0,.82-.01,1.05-.03-.04.4-.04.61-.04,1.2v3.78c0,.52,0,.71.04,1.1-.39-.01-.71-.03-1.07-.03h-3.21c-.36,0-.66.01-1.05.03.03-.27.04-.6.04-.99v-4.08c0-.47-.01-.81-.04-1.01.31.03.49.03,1,.03h.18c.09-.3.13-.51.2-.82h-2.16ZM17.2,143.41h2.73v-.65h-2.73v.65ZM17.2,145.01h2.73v-.66h-2.73v.66ZM17.2,146.68h2.73v-.73h-2.73v.73Z"/>
        <path d="M17.66,153.64c-.03.84-.1,1.26-.31,1.78-.25.62-.53,1.01-1.22,1.62-.35-.44-.49-.58-.88-.87-.47-.04-.53-.04-1.05-.04h-1.78v1.21h1.75c.62,0,.81-.01,1.17-.05v1.26c-.34-.03-.62-.04-1.16-.04h-1.77v1.5c1.37-.17,1.59-.21,3.05-.51l.03,1.21c-1.31.3-1.99.43-3.08.6v.82c0,.49.03.87.08,1.33h-1.47c.05-.49.08-.84.08-1.31v-.65c-.21.04-.34.06-.42.08-.12.01-.13.01-.19.04l-.16-1.44c.14.01.18.01.22.01.13,0,.35-.01.55-.03v-6.06c0-.53-.01-.77-.06-1.14,1.22-.1,2.56-.39,3.35-.72.31-.12.33-.13.64-.32l.75,1.27q-.22.05-.77.23c-1.14.36-1.42.43-2.6.65v.9h1.77c.62,0,.81-.01,1.17-.05v.97c.82-.65,1.08-1.34,1.08-2.85,0-.29-.01-.51-.04-.71.26.03.51.04.91.04h1.89c.48,0,.69-.01.99-.04-.03.32-.04.58-.04,1.04v1.81c0,.17.08.21.4.21.26,0,.34-.07.39-.31.05-.29.08-.57.09-1.17.38.23.65.35,1.08.49-.08,1.03-.17,1.47-.36,1.78-.2.3-.49.39-1.33.39-.57,0-1.01-.05-1.2-.16-.22-.12-.29-.29-.29-.71v-2.05h-1.26ZM21.49,157.86c-.13.2-.23.36-.34.56-.58,1.08-1.09,1.82-1.73,2.52.82.56,1.65.92,2.83,1.2-.31.46-.42.65-.66,1.3-1.38-.47-2.25-.92-3.13-1.61-.92.71-2.01,1.25-3.5,1.69-.18-.51-.36-.84-.69-1.27,1.42-.33,2.31-.69,3.26-1.34-.61-.77-.92-1.33-1.31-2.43-.22.01-.34.03-.57.05v-1.38c.23.04.42.05.81.05h3.45c.47,0,.64-.01.88-.05l.7.71ZM17.47,158.47c.3.74.52,1.11,1,1.62.61-.62.79-.86,1.21-1.62h-2.21Z"/>
        <path d="M15.52,173.67c-.62,1.08-1.48,1.68-2.37,1.68-1.35,0-2.31-1.33-2.31-3.17,0-2.05,1.04-3.82,2.82-4.76.87-.47,1.81-.68,3.04-.68,2.72,0,4.73,1.92,4.73,4.5,0,2.27-1.12,3.91-3.28,4.84-.43.18-.77.29-.94.29-.16,0-.22-.05-.39-.3-.22-.34-.47-.58-.82-.82,2.68-.69,3.89-1.95,3.89-4.06,0-1.08-.46-1.99-1.26-2.56-.46-.31-.82-.44-1.53-.56-.36,2.74-.79,4.24-1.59,5.6ZM13.65,169.06c-.87.77-1.37,1.86-1.37,3.08,0,1,.33,1.59.87,1.59.65,0,1.31-.9,1.81-2.44.31-.98.47-1.72.66-3.16-.92.2-1.38.42-1.98.94Z"/>
        <path d="M13.19,180.13c-.65.05-1.24.09-2.13.14-.1-.35-.19-.56-.44-1,2.42,0,4.58-.26,5.43-.66l.74,1.01c-.06.01-.09.01-.17.03q-.1.01-.3.05s-.1.01-.21.04c-.49.09-1.11.18-1.7.26v.7h1.3c.57,0,.88-.01,1.14-.05v1.12c-.2-.03-.36-.04-.9-.04h-1.55v.53h1.22c.56,0,.81-.01,1.05-.03-.03.22-.04.47-.04,1.09v1.69c.01.58.03.96.04,1.13-.29-.03-.53-.03-1.13-.03h-1.14v.56h1.09c.62,0,.88-.01,1.17-.04v1.14c-.23-.04-.39-.05-.87-.05h-1.39v.61c.62-.05,1.03-.1,2.24-.27v.53c.55-.82.95-1.81,1.17-2.87.2-.91.27-1.62.34-3.28-.52,0-.71.01-1.04.05v-1.35c.26.04.46.05.88.05h.2v-.91c0-1.04-.01-1.25-.08-1.59h1.44c-.05.27-.07.52-.08,1.03,0,.09,0,.65-.01,1.47h1.08c.53,0,.82-.01,1.17-.05-.05.46-.05.55-.09,2.34-.05,3.21-.22,4.98-.53,5.69-.22.55-.64.74-1.53.74-.2,0-.82-.03-1.01-.04-.04-.56-.09-.81-.29-1.35-.31.64-.51.98-1.01,1.64-.25-.38-.57-.7-.96-.99-1.81.26-2.59.35-4.9.53-.25.03-.44.04-.74.09l-.22-1.33c.29.03.38.03.66.03.55,0,.75-.01,2.11-.09v-.69h-1.27c-.4,0-.83.01-1.17.05v-1.16c.35.04.61.05,1.17.05h1.27v-.56h-1.08c-.56,0-.82.01-1.21.03.03-.31.04-.57.04-1.17v-1.62c0-.57-.01-.85-.04-1.13.31.03.69.04,1.22.04h1.07v-.53h-1.52c-.52,0-.79.01-1.16.05v-1.14c.34.05.65.07,1.17.07h1.51v-.57ZM12.11,183.19v.53h1.08v-.53h-1.08ZM12.11,184.64v.55h1.08v-.55h-1.08ZM14.41,183.73h1.08v-.53h-1.08v.53ZM14.41,185.18h1.08v-.55h-1.08v.55ZM19.43,182.45c-.13,2.99-.4,4.46-1.17,6.08.56.09.84.12,1.1.12.56,0,.65-.16.79-1.31.09-.65.12-1.18.17-2.57q.03-.44.04-1.47c0-.36.01-.46.01-.84h-.95Z"/>
        <path d="M15.47,195.04c-1.12.2-2.27.33-2.98.33-.21,0-.3-.04-.33-.16-.05-.19-.1-.58-.13-1.07,1.05,0,1.86-.07,3.02-.25q-.06-.2-.23-.68c-.12-.31-.22-.57-.36-.84.56-.12,1.07-.18,1.53-.18.12,0,.18.08.18.21v.18c0,.23.05.55.18,1.05.97-.22,1.81-.49,2.47-.78.1-.04.13-.05.17-.05.07,0,.1.07.22.34.12.3.23.64.23.7s-.03.09-.1.13c-.77.32-1.12.44-2.63.82.18.46.23.57.46,1.04.72-.19,1.07-.31,1.33-.44l1.22-.61s.04-.03.04-.03c.01,0,.04.01.05.01.05,0,.1.08.22.32.16.31.29.66.29.74q0,.09-.27.23c-.71.39-1.27.61-2.21.87.52.77,1.26,1.6,1.7,1.91.44.31.46.34.46.47,0,.12-.13.39-.38.82-.22.38-.33.48-.47.48-.08,0-.09,0-.29-.14-.66-.51-2-.86-3.29-.86-1.12,0-1.82.39-1.82,1.04,0,.4.31.73.87.94.51.18,1.62.3,2.83.3.29,0,.53-.01,1.04-.04-.23.34-.35.57-.51,1.12-.08.27-.17.33-.57.33-1.39,0-2.63-.16-3.46-.46-1.1-.39-1.69-1.12-1.69-2.09,0-1.39,1.14-2.24,3.04-2.24,1.17,0,1.91.13,2.73.49-.73-.69-1.12-1.16-1.5-1.77-.62.13-.94.18-1.35.25-.74.1-2.09.21-2.64.21-.42,0-.43-.01-.55-1.24.29.01.51.01.64.01.83,0,2.42-.17,3.29-.35-.16-.33-.33-.7-.47-1.08Z"/>
      </g>
      <rect class="cls-1" x="35.31" y="218.61" width="152.54" height="89.06"/>
      <rect class="cls-2" y="218.61" width="32.34" height="89.06"/>
      <g>
        <path d="M18.65,240.63h1.85c.58,0,.95-.03,1.34-.08v1.42c-.42-.04-.81-.07-1.35-.07h-1.4c.74,1.3,1.82,2.38,3.11,3.11-.42.42-.6.68-.86,1.3-.53-.38-.91-.74-1.4-1.3-.64-.74-.91-1.14-1.33-1.92.03.47.04.87.04,1.25v1.57c0,.58.03,1.04.08,1.44h-1.44c.05-.4.08-.87.08-1.46v-1.48c0-.35.01-.77.04-1.29-.79,1.43-1.68,2.39-2.94,3.24-.33-.61-.51-.87-.78-1.18,1.34-.77,2.43-1.88,3.19-3.28h-.82c-.56,0-.96.03-1.37.08v-.52c-.22.31-.38.6-.53,1.05-.33-.51-.52-.91-.77-1.56.03.4.05,1.1.05,1.65v3.2c0,.66.03,1.14.08,1.53h-1.44c.05-.4.08-.88.08-1.53v-2.69c0-.49.01-.81.09-1.61-.38,1.26-.75,2.11-1.31,2.95-.16-.58-.33-.96-.58-1.39.62-.79,1.27-2.26,1.66-3.77h-.49c-.38,0-.6.01-.83.05v-1.33c.21.04.44.05.83.05h.62v-1c0-.66-.01-.99-.06-1.3h1.43c-.05.34-.07.69-.07,1.3v1h.38c.31,0,.47-.01.68-.05v1.24c.49-.88.91-2.18.95-3.03l1.26.33c-.05.14-.09.3-.18.69-.06.23-.09.35-.16.6h1v-.86c0-.53-.03-.86-.08-1.18h1.46c-.05.31-.08.66-.08,1.18v.86h1.47c.62,0,.99-.03,1.34-.08v1.36c-.36-.04-.78-.06-1.34-.06h-1.47v1.57ZM15.93,239.05c-.22.53-.34.78-.7,1.39q-.31-.32-1.01-.82c.1-.14.14-.21.21-.3-.17-.03-.38-.04-.61-.04h-.33c.3.69.61,1.21,1.18,1.98v-.71c.39.05.75.08,1.35.08h1.33v-1.57h-1.42Z"/>
        <path d="M11.45,255.48c0-.49.01-.86.03-1.37-.22.44-.49.86-.82,1.29-.17-.61-.3-.96-.55-1.5.79-.87,1.38-1.87,1.87-3.24.27-.75.39-1.17.47-1.72l1.34.55c-.09.27-.13.38-.23.69q-.25.77-.81,2.05v6.97c0,.69.01,1.07.05,1.44h-1.43c.06-.49.08-.86.08-1.46v-3.72ZM20.5,252.71c.47,0,.85-.01,1.13-.05-.04.33-.05.66-.05,1.17v5.19c0,.62.03,1.05.08,1.56h-1.43v-.69h-5.29v.68h-1.38c.04-.42.07-.91.07-1.37v-5.34c0-.44-.03-.86-.05-1.2.35.04.62.05,1.13.05h1.18v-1.68h-.62c-.6,0-1.07.03-1.47.06v-1.39c.36.05.79.08,1.47.08h5.23c.69,0,1.14-.03,1.52-.08v1.39c-.36-.04-.88-.06-1.48-.06h-1.29v1.68h1.26ZM14.88,253.91v4.77h1v-4.77h-1ZM18.04,251.04h-.96v1.68h.96v-1.68ZM17.08,258.68h.96v-4.77h-.96v4.77ZM19.24,258.68h1.04v-4.77h-1.04v4.77Z"/>
        <path d="M19.84,266.27v7.01c0,2.04-1.4,3.29-3.69,3.29-1.14,0-2.16-.35-2.79-.97-.57-.57-.86-1.34-.86-2.31v-7.01h1.7v6.6c0,.73.12,1.25.36,1.56.31.39.94.65,1.6.65s1.29-.25,1.6-.66c.26-.35.39-.84.39-1.55v-6.6h1.69Z"/>
        <path d="M16.49,279.6c2.31,0,3.42.94,3.42,2.92,0,.87-.34,1.68-.91,2.18-.6.53-1.43.79-2.51.79h-1.87v4.23h-1.68v-10.13h3.55ZM16.08,284.12c1.47,0,2.13-.49,2.13-1.6s-.62-1.53-2.13-1.53h-1.47v3.13h1.47Z"/>
      </g>
      <rect class="cls-2" y="218.61" width="32.34" height="89.06"/>
      <g>
        <path d="M15.6,246.1c-1.68.16-2.25.18-3.91.22q-.13-.51-.45-1.29h.56c1.83,0,4.13-.17,5.67-.43,1.16-.19,1.64-.31,2.3-.58l1.01,1.25c-1.09.27-2.69.57-3.77.69v1.62h2.59c.69,0,1.14-.03,1.55-.08v1.39c-.42-.04-.9-.06-1.53-.06h-2.6v1.51h3.19c.7,0,1.12-.03,1.52-.08v1.42c-.44-.05-.83-.08-1.52-.08h-3.19v2.44c0,.56-.17.94-.48,1.07-.3.13-.83.21-1.42.21-.38,0-.95-.03-1.69-.08-.07-.56-.14-.84-.38-1.37.9.12,1.57.17,2.08.17.36,0,.48-.09.48-.38v-2.07h-3.5c-.68,0-1.09.03-1.52.08v-1.42c.4.05.82.08,1.52.08h3.5v-1.51h-2.79c-.55,0-1.13.03-1.56.06v-1.39c.4.05.86.08,1.55.08h2.81v-1.48Z"/>
        <path d="M15.87,259.72c.36,0,.66-.01.79-.04v1.14c-.2-.03-.42-.04-.81-.04h-.83c.23.27.49.46,1.1.81-.32.35-.38.43-.71,1.03-.64-.53-.79-.71-1.1-1.2.01.21.03.42.03.51v.47c0,.16.01.31.05.46h-1.34c.03-.13.04-.29.04-.42v-.47c0-.13.01-.27.04-.55-.66.91-1.08,1.31-2.04,1.96-.26-.46-.4-.64-.81-1.03,1-.52,1.59-.98,2-1.57h-.68c-.44,0-.78.01-1.04.05v-1.17c.3.04.58.05,1.05.05h1.48v-1.47c0-.38-.01-.6-.05-.85h1.35c-.04.25-.05.46-.05.82v1.5h1.52ZM15.23,268.19c-.46-.36-.64-.48-1.16-.75-.78.69-1.55,1.08-2.99,1.48-.18-.44-.38-.78-.65-1.16,1.12-.23,1.81-.48,2.48-.91-.58-.27-.92-.4-1.85-.74.39-.55.51-.71.81-1.24h-.36c-.46,0-.7.01-.99.07v-1.26c.29.05.52.07.99.07h.94c.12-.26.18-.42.34-.88l1.29.25c-.12.31-.16.4-.26.64h1.98c.44,0,.68-.01.92-.05v1.23c-.26-.04-.47-.05-1.01-.05-.25.79-.36,1.05-.75,1.6.48.22.58.29,1.01.56l-.73,1.16ZM11.94,257.52c.47.69.62.98.87,1.65l-1.09.4c-.25-.69-.46-1.09-.84-1.65l1.07-.4ZM13.22,264.88c-.17.29-.21.35-.44.7.55.2.74.26,1.07.4.27-.36.43-.66.57-1.11h-1.2ZM16.58,257.96c-.49.99-.55,1.1-.94,1.68l-1.07-.48c.4-.55.68-1.05.88-1.66l1.12.47ZM22.03,260.78c-.22-.04-.38-.04-.88-.05-.08,2.02-.47,3.52-1.26,4.89.7.88,1.39,1.46,2.38,1.95-.3.39-.51.77-.73,1.33-.95-.56-1.75-1.27-2.44-2.15-.78.9-1.74,1.66-2.83,2.24-.23-.65-.35-.86-.66-1.25.55-.27.7-.36.99-.55.71-.47,1.29-.96,1.77-1.56-.57-1.03-.83-1.75-1.05-2.92-.22.35-.31.48-.57.82-.27-.35-.55-.64-.9-.9.78-.99,1.3-2.08,1.69-3.6.16-.59.27-1.33.29-1.69l1.39.27c-.05.14-.09.26-.18.69-.09.35-.22.84-.34,1.24h2.18c.58,0,.87-.01,1.17-.07v1.31ZM18.27,260.73q-.1.26-.16.38c.21,1.42.46,2.24.99,3.29.51-1.08.71-2.08.78-3.67h-1.61Z"/>
        <path d="M15.28,278.83c-.07.17-.08.22-.14.42-.52-.56-.87-1.07-1.26-1.75.07.87.08,1.04.08,1.42v2.07c0,.6.01.94.07,1.3h-1.43c.05-.4.08-.75.08-1.33v-1.61c0-.49.03-1.07.05-1.48-.56,1.35-.96,2.07-1.62,2.79-.14-.49-.35-.92-.64-1.29.82-.84,1.34-1.68,2.02-3.25h-.65c-.55,0-.83.01-1.13.06v-1.33c.3.05.53.07,1.12.07h.84v-2.95c0-.56-.01-.92-.07-1.22h1.43c-.05.33-.07.61-.07,1.21v2.96h.58c.48,0,.69-.01.96-.05v1.3c-.29-.04-.55-.05-.99-.05h-.44c.47.81.92,1.35,1.6,1.91-.16.29-.21.39-.34.7.29-.03.73-.09,1.14-.18l2.92-.65v-5.69c0-.73-.01-1.07-.08-1.46h1.51c-.06.42-.08.75-.08,1.44v5.41c.55-.13.74-.18,1.05-.31l.27,1.43c-.32.04-.62.09-1.21.21l-.12.03v1.83c0,.69.01,1.07.08,1.47h-1.51c.07-.43.08-.71.08-1.48v-1.51l-2.65.6c-.53.12-.9.21-1.18.31l-.29-1.34ZM11.67,271.42c.4,1.12.58,1.75.77,2.69l-1.05.46c-.19-1.16-.42-1.91-.78-2.67l1.07-.48ZM15.95,271.86c-.31,1.14-.48,1.59-.99,2.7l-.92-.47c.42-.84.61-1.5.86-2.7l1.05.47ZM16.57,274.68c.99.69,1.53,1.14,2.18,1.83l-.86,1.03c-.87-.95-1.29-1.31-2.2-1.92l.87-.94ZM16.97,271.56c1.05.75,1.46,1.09,2.17,1.85l-.84,1.05c-.94-1-.95-1.01-2.21-1.94l.88-.96Z"/>
      </g>
      <g>
        <path d="M60.99,246.96c0-.38-.04-.78-.08-1h1.68c-.06.29-.08.62-.08.98v.67h3.82c.71,0,1.2-.03,1.69-.08v1.5c-.43-.06-.84-.07-1.67-.07h-8.91c-.62,0-1.15.03-1.65.07v-1.5c.52.06,1.01.08,1.68.08h3.52v-.66ZM60.99,250.26c0-.35-.01-.67-.06-.98h1.61c-.04.15-.06.49-.06.98v.17h3.14c.6,0,.9-.01,1.32-.06-.04.34-.06.67-.06,1.16v3.96c0,1.22-.39,1.53-1.99,1.53-.31,0-.53-.01-1.11-.06-.07-.62-.11-.8-.35-1.44.59.1,1.02.14,1.3.14.57,0,.69-.07.69-.42v-3.5h-2.94v5c0,.66.03,1.11.1,1.64h-1.7c.07-.53.1-1.04.1-1.64v-5h-2.66v3.87c0,.74.01,1.13.07,1.58h-1.64c.06-.5.08-.95.08-1.57v-4.09c0-.42-.01-.77-.06-1.16.42.04.83.06,1.39.06h2.82v-.17Z"/>
        <path d="M76.2,254.22c-.53.48-.85.7-1.64,1.15-.17-.29-.22-.39-.52-.71-.84.5-1.37.78-2.68,1.41-.01.01-.08.04-.18.1l-.13.07-.34-1.57c.35-.08.83-.25,1.51-.55v-3.54h-.39c-.39,0-.69.01-1.04.07v-1.43c.31.04.62.06,1.05.06h.38v-1.67c0-.7-.03-1.11-.08-1.5h1.57c-.07.43-.08.8-.08,1.5v1.67h.25c.43,0,.69-.01.94-.04v1.39c-.29-.03-.56-.04-.94-.04h-.25v2.88c.31-.17.46-.25.91-.5v.94c.73-.45,1.19-.85,1.6-1.37h-.31c-.56,0-.94.03-1.23.07v-1.34c.29.06.63.07,1.25.07h5.88c.64,0,1.07-.03,1.4-.07v1.33c-.41-.04-.78-.06-1.39-.06h-4.12c-.11.2-.18.31-.36.56h4.27c.66,0,.9-.01,1.32-.04-.03.22-.04.42-.06.8-.07,1.65-.27,3.04-.55,3.64-.28.62-.71.8-1.89.8-.34,0-.59-.01-1.13-.04-.06-.49-.15-.85-.36-1.23-.71.63-1.29,1.01-2.21,1.47-.31-.43-.52-.67-.97-1.02,1.16-.5,1.74-.84,2.45-1.44.55-.48.98-1.04,1.39-1.79h-.8c-.84,1.26-1.99,2.16-3.74,2.94-.22-.42-.42-.64-.84-1.01,1.53-.59,2.41-1.12,3.11-1.93h-1.05ZM76.6,250.75c-.55,0-.95.01-1.23.04.04-.38.06-.74.06-1.29v-1.96c0-.56-.01-.81-.06-1.22.42.06.71.07,1.36.07h3.92c.7,0,1.02-.01,1.44-.07-.04.35-.06.64-.06,1.33v1.86c0,.58.01,1,.06,1.26-.32-.01-.66-.03-1.22-.03h-4.27ZM76.81,248.14h3.81v-.57h-3.81v.57ZM76.81,249.67h3.81v-.55h-3.81v.55ZM80.9,254.22c-.52,1.12-1.05,1.88-1.88,2.63.57.08,1,.11,1.39.11.49,0,.63-.14.76-.71.1-.48.17-1.06.24-2.03h-.5Z"/>
        <path d="M88.29,249.84c-.36.08-.49.13-.99.31-.18.07-.28.1-.36.1-.31,0-.59-.57-.84-1.78.9-.04,1.22-.08,2.77-.32,1.68-.25,3.81-.57,4.93-.71,1.26-.17,2.27-.34,2.8-.45.1-.03.14-.03.21-.03.18,0,.25.08.38.43.11.29.2.71.2.91,0,.17-.06.22-.25.22-.29,0-.56.03-.83.07-2.37.39-4.26,2.46-4.26,4.65,0,1.64,1.29,2.72,3.47,2.91.2.01.27.08.27.25,0,.35-.14,1.02-.27,1.33-.07.15-.18.22-.36.22s-.6-.08-1.04-.21c-2.38-.7-3.63-2.21-3.63-4.36,0-1.16.38-2.24,1.11-3.17.39-.5.73-.78,1.53-1.33-1.83.31-3.77.67-4.83.94ZM95.46,250.2c.2,0,1.39,1.33,1.39,1.54,0,.07-.08.15-.34.38-.27.22-.28.22-.39.27q-.07.03-.1.03c-.06,0-.07-.01-.32-.41-.22-.35-.46-.66-.91-1.12-.03-.03-.07-.1-.07-.11.03-.07.04-.11.06-.11.04-.06.28-.25.34-.29.14-.07.22-.13.24-.14.01-.03.04-.03.04-.03h.07ZM97.86,251.17c-.21.15-.34.24-.41.24-.06,0-.08-.03-.15-.14-.42-.63-.63-.9-1.08-1.33-.03-.04-.06-.08-.06-.11,0-.07.08-.15.28-.29.2-.14.36-.22.43-.22.1,0,.27.13.56.42.41.42.78.94.78,1.06,0,.08-.1.18-.36.38Z"/>
        <path d="M102.36,253.32c-.57,0-1.02.01-1.42.04v-1.34c.42.04.91.07,1.42.07h9.37c.53,0,.95-.03,1.36-.07v1.34c-.38-.03-.77-.04-1.36-.04h-4.12c-.11.24-.18.36-.34.6h3.75c.57,0,.92-.01,1.23-.04-.04.29-.06.6-.06.98v2.14c0,.98-.31,1.26-1.33,1.26-.22,0-.35,0-1.09-.04-.07-.64-.13-.9-.31-1.33.39.07.73.1,1.01.1s.34-.06.34-.28v-1.58h-1.83v1.7c0,.66.01.9.07,1.29h-1.44c.06-.36.07-.7.07-1.29v-1.7h-1.55v1.7c0,.62.01.91.07,1.29h-1.43c.06-.35.07-.71.07-1.29v-1.7h-1.57v1.88c0,.55.01.91.06,1.3h-1.51c.06-.45.08-.85.08-1.37v-1.98c0-.41-.01-.74-.06-1.08.39.03.63.04,1.33.04h2.59c.14-.22.21-.35.34-.6h-3.74ZM103.37,247.48c-.59,0-.97.01-1.42.04v-1.36c.41.06.9.08,1.54.08h7.09c.69,0,1.13-.03,1.51-.08v1.36c-.43-.03-.76-.04-1.37-.04h-3.07v.5h3.6c.9,0,1.22-.01,1.65-.06-.04.35-.06.59-.06,1.11v.98c0,.49.01.71.07,1.09h-1.39v-1.98h-3.88v1.3c0,.67.01.88.06,1.29h-1.55c.06-.36.07-.74.07-1.29v-1.3h-3.73v1.98h-1.39c.06-.36.07-.6.07-1.09v-.98c0-.5-.01-.74-.06-1.11.43.04.76.06,1.67.06h3.43v-.5h-2.86ZM103.08,249.5c.24.03.32.03.7.03h1.2c.35,0,.48,0,.69-.03v.9c-.2-.03-.36-.04-.69-.04h-1.2c-.31,0-.5.01-.7.04v-.9ZM103.08,250.73c.2.01.35.03.7.03h1.2c.31,0,.53-.01.69-.03v.9c-.2-.03-.36-.04-.69-.04h-1.2c-.31,0-.5.01-.7.04v-.9ZM108.23,249.5c.25.03.32.03.7.03h1.39c.35,0,.46,0,.67-.03v.9c-.2-.03-.36-.04-.67-.04h-1.39c-.31,0-.5.01-.7.04v-.9ZM108.23,250.73c.2.01.35.03.7.03h1.39c.32,0,.5-.01.67-.03v.9c-.2-.03-.36-.04-.67-.04h-1.39c-.31,0-.5.01-.7.04v-.9Z"/>
        <path d="M117.58,253.73c-.11,1.86-.24,2.84-.53,4.03l-1.22-.48c.32-1.11.46-2.1.55-3.75l1.2.2ZM115.88,251.69c.27.03.57.04.84.04.06,0,.11,0,.21-.01.25-.32.43-.57.66-.9-.73-1.01-1.04-1.37-1.75-2.07l.74-1.11c.2.22.27.29.42.46.48-.81.9-1.74,1.01-2.23l1.29.48c-.07.11-.13.2-.22.42-.39.81-.83,1.61-1.27,2.28.31.39.35.45.52.69.7-1.09,1.19-1.99,1.34-2.47l1.23.64c-.08.13-.18.28-.36.59-.5.85-1.39,2.16-2.14,3.15.71-.03.98-.04,1.47-.1-.14-.35-.21-.53-.48-1.08l.98-.39c.5.98.84,1.76,1.15,2.66l-1.15.48q-.07-.28-.14-.56-.48.06-.95.1v4.26c0,.66.01,1.01.08,1.41h-1.47c.07-.48.08-.8.08-1.41v-4.16q-.48.04-1.33.1c-.28.01-.42.03-.62.07l-.14-1.34ZM120.62,253.48c.25.99.39,1.83.57,3.25l-1.11.25c-.11-1.3-.25-2.2-.5-3.22l1.04-.28ZM122.09,250.31c-.31.25-.43.36-.83.63-.21-.52-.36-.76-.77-1.2.83-.53,1.13-.8,1.69-1.39.62-.64,1.08-1.36,1.47-2.25h1.47c.48.95,1.01,1.67,1.86,2.42.52.46.98.78,1.64,1.16-.34.48-.52.84-.69,1.36-.48-.34-.64-.45-.94-.69v.94c-.29-.04-.64-.06-1.21-.06h-2.49c-.55,0-.9.01-1.22.06v-.98ZM123,258.35h-1.44c.04-.45.07-.9.07-1.39v-3.28c0-.69,0-.87-.04-1.25.29.03.63.04,1.13.04h3.81c.5,0,.87-.01,1.11-.04-.04.36-.06.62-.06,1.22v3.17c0,.66.03,1.19.07,1.51h-1.51v-.74h-3.14v.76ZM125.91,249.98c.32,0,.46,0,.62-.01-.91-.78-1.51-1.5-2.1-2.44-.59,1.01-1.13,1.69-1.93,2.44.22.01.35.01.7.01h2.72ZM123,256.31h3.15v-2.56h-3.15v2.56Z"/>
        <path d="M133.44,249.84c-.36.08-.49.13-.99.31-.18.07-.28.1-.36.1-.31,0-.59-.57-.84-1.78.9-.04,1.22-.08,2.77-.32,1.68-.25,3.81-.57,4.93-.71,1.26-.17,2.27-.34,2.8-.45.1-.03.14-.03.21-.03.18,0,.25.08.38.43.11.29.2.71.2.91,0,.17-.06.22-.25.22-.29,0-.56.03-.83.07-2.37.39-4.26,2.46-4.26,4.65,0,1.64,1.29,2.72,3.47,2.91.2.01.27.08.27.25,0,.35-.14,1.02-.27,1.33-.07.15-.18.22-.36.22s-.6-.08-1.04-.21c-2.38-.7-3.63-2.21-3.63-4.36,0-1.16.38-2.24,1.11-3.17.39-.5.73-.78,1.53-1.33-1.83.31-3.77.67-4.83.94ZM140.61,250.2c.2,0,1.39,1.33,1.39,1.54,0,.07-.08.15-.34.38-.27.22-.28.22-.39.27q-.07.03-.1.03c-.06,0-.07-.01-.32-.41-.22-.35-.46-.66-.91-1.12-.03-.03-.07-.1-.07-.11.03-.07.04-.11.06-.11.04-.06.28-.25.34-.29.14-.07.22-.13.24-.14.01-.03.04-.03.04-.03h.07ZM143.01,251.17c-.21.15-.34.24-.41.24-.06,0-.08-.03-.15-.14-.42-.63-.63-.9-1.08-1.33-.03-.04-.06-.08-.06-.11,0-.07.08-.15.28-.29.2-.14.36-.22.43-.22.1,0,.27.13.56.42.41.42.78.94.78,1.06,0,.08-.1.18-.36.38Z"/>
        <path d="M146.77,249.39c.97.53,1.47.9,2.42,1.7l-.85,1.26c-.92-.85-1.44-1.26-2.42-1.85l.85-1.11ZM149.15,253.95c-.52,1.58-.98,2.68-1.61,3.8q-.1.18-.17.32t-.11.2l-1.29-1.12c.76-.91,1.32-2.02,2-4.03l1.18.84ZM147.34,246.07c.95.56,1.48.97,2.37,1.79l-.94,1.2c-.85-.88-1.27-1.23-2.35-1.92l.92-1.08ZM154.33,253.07c.8,1.75,2.12,2.94,4.12,3.74-.36.48-.52.79-.79,1.53-2.02-1.02-3.53-2.54-4.23-4.2-.66,1.92-1.81,3.18-3.91,4.3-.24-.55-.46-.87-.92-1.36,2.13-.9,3.24-2.1,3.67-4.01h-1.29c-.63,0-1.09.03-1.51.08v-1.58c.42.04.9.07,1.5.07h1.51c.06-.79.08-1.54.1-2.3h-1.11c-.57,0-1.08.03-1.43.07v-1.53c.43.06.84.07,1.43.07h1.09v-.71c0-.63-.03-.9-.08-1.28h1.62c-.07.39-.08.63-.08,1.25v.74h2.07c.62,0,.94-.01,1.25-.06-.04.27-.06.56-.06,1.08v2.66q.56-.01,1.12-.08v1.6c-.43-.06-.9-.08-1.48-.08h-2.59ZM155.87,251.64v-2.3h-1.86c-.01,1.06-.04,1.7-.1,2.3h1.96Z"/>
        <path d="M61.17,272.47q-.03-.69-.04-1.55c-.13.01-.25.01-.31.01-.92,0-2.12-.1-2.61-.22-.14-.04-.17-.07-.17-.21,0-.31.04-.69.14-1.23.78.15,1.75.25,2.59.25.07,0,.2,0,.35-.01v-.92c0-.49-.01-.71-.04-1.2.7.04,1.18.08,1.51.17.28.06.36.13.36.28,0,.07-.01.1-.11.32-.1.24-.11.29-.17,1.26.84-.1,1.51-.24,2.17-.43.04-.01.06-.01.07-.01.1,0,.1.01.25.46.1.29.2.66.2.77,0,.1-.04.15-.18.2-.46.15-1.67.36-2.55.46,0,1,0,1.04.01,1.53.98-.13,1.51-.27,2.62-.67.07-.03.1-.04.14-.04.08,0,.11.04.25.38.14.35.27.74.27.88,0,.07-.06.13-.15.17-.77.28-2.17.62-3.05.71.03.53.06.83.14,1.92.78.24,1.11.36,1.71.69.67.34,1.04.57,1.64,1.05.11.08.15.15.15.27,0,.1-.13.34-.39.76-.31.46-.46.64-.56.64-.04,0-.08-.01-.13-.06-.84-.8-1.39-1.19-2.33-1.65-.06.67-.21,1.05-.59,1.4-.48.46-1.27.71-2.27.71-1.72,0-2.79-.76-2.79-1.97,0-.53.22-1.05.6-1.4.55-.5,1.37-.77,2.42-.77.34,0,.63.03.98.07-.07-.91-.1-1.23-.11-1.53-.32.01-.5.01-.67.01-.97,0-2.14-.15-2.8-.35-.14-.04-.2-.11-.2-.22,0-.21.08-.66.21-1.23.87.21,1.98.34,3.01.34h.41ZM60.21,276.74c-.9,0-1.39.27-1.39.74,0,.42.41.64,1.19.64.91,0,1.33-.32,1.33-1.02v-.24c-.36-.1-.64-.13-1.13-.13Z"/>
        <path d="M78.4,272.17c1.97,0,3.38,1.34,3.38,3.25,0,1.3-.69,2.48-1.83,3.17-.8.48-1.78.71-2.88.71-1.78,0-2.82-.71-2.82-1.93,0-1.11.92-1.89,2.24-1.89,1.19,0,2.04.6,2.62,1.83.71-.52,1.01-1.06,1.01-1.82,0-1.2-.85-1.99-2.2-1.99s-2.84.69-4.06,1.91c-.22.22-.43.46-.69.78-.1.14-.17.2-.25.2-.25,0-1.25-.98-1.25-1.23,0-.13.06-.2.36-.42.32-.25.78-.66,1.37-1.22,1.36-1.29,2.35-2.37,3.82-4.16-1.75.22-2.93.42-3.36.57-.07.01-.11.03-.15.03-.11,0-.18-.07-.27-.28-.17-.42-.25-.88-.29-1.5.38.06.64.07.95.07.67,0,1.81-.1,3.28-.27.52-.06.69-.1,1.08-.25.13-.06.2-.07.28-.07.2,0,.39.17.76.73.27.36.35.55.35.66,0,.18-.04.24-.35.43-.25.15-.41.28-.73.59-.7.67-.71.67-1.58,1.55-.62.63-.69.7-1.25,1.26.91-.5,1.62-.71,2.47-.71ZM77.05,277.02c-.21-.14-.45-.21-.71-.21-.43,0-.71.21-.71.55,0,.41.43.66,1.11.66.31,0,.57-.03.92-.13-.17-.46-.31-.67-.6-.87Z"/>
        <path d="M92.49,276.91c1.15,0,2.42-.17,3.68-.49.07-.03.11-.03.15-.03.08,0,.13.06.15.18.04.31.07.76.07,1.22,0,.28-.03.36-.15.42-.42.22-2.31.43-3.94.43-2.12,0-3.32-.35-4.29-1.26-.46-.43-.92-1.19-.92-1.5,0-.21.13-.29,1.27-.95.5,1.39,1.67,1.97,3.96,1.97ZM92.62,268.85c.81,0,1.29-.03,2.24-.17h.1c.11,0,.15.04.18.13.03.17.06.59.06,1.09,0,.32-.03.43-.11.49-.11.07-1.33.15-2.27.15-1.25,0-2.28-.1-3.45-.32-.8-.15-.84-.2-.84-.69,0-.32.03-.85.07-1.25,1.22.38,2.55.56,4.02.56Z"/>
        <path d="M105.12,271.94c-.18-.62-.24-.99-.41-2.72-.06-.67-.11-1.01-.25-1.48.85.01,1.4.06,1.78.15.21.06.31.15.31.31,0,.06-.01.13-.04.24-.1.34-.14.59-.14.95,0,.69.14,1.81.29,2.3.08.27.17.36.32.36.34,0,1.57-.64,2.24-1.16.18-.14.21-.15.28-.15.13,0,.25.1.46.36.35.48.63,1,.63,1.19,0,.15-.1.25-.34.32-.87.24-2.3.8-3.26,1.26-1.71.84-2.48,1.61-2.48,2.48s.71,1.21,2.52,1.21c1.05,0,2-.1,3.29-.31.06-.01.15-.03.18-.03.11,0,.18.06.24.17.04.14.14.99.14,1.33,0,.2-.06.27-.24.32-.31.07-2,.17-3.07.17-1.79,0-2.98-.24-3.73-.74-.63-.43-.97-1.12-.97-1.96,0-.64.18-1.22.56-1.78.49-.73,1.02-1.19,2.2-1.89-.29-.27-.41-.46-.53-.9Z"/>
        <path d="M119.83,271.68c-1-.2-1.75-.49-2.27-.85-.25-.17-.31-.24-.31-.36,0-.15.11-.43.5-1.22.69.43,1.46.74,2.34.92.2-.98.28-1.79.29-2.7.71.13,1.34.34,1.7.53.15.08.21.17.2.28,0,.06-.03.11-.1.25-.21.43-.22.48-.52,1.85.14.01.32.01.43.01h.1c.34-.01.59-.01.71-.01h.04c.13,0,.17.06.17.24,0,.62-.04,1.12-.1,1.22-.04.07-.22.1-.81.1-.27,0-.48-.01-.87-.03q-.29,1.44-.42,2.2c.48.04.57.04.81.04h.79c.14-.01.21.01.25.08.06.08.1.53.1,1.04,0,.25-.01.32-.1.36-.07.03-.38.04-.91.04-.25,0-.63-.01-1.12-.04-.01.25-.01.42-.01.53,0,1.29.6,1.88,1.92,1.88,1.47,0,2.35-.71,2.35-1.92,0-.43-.1-.83-.32-1.26-.28-.53-.55-.84-1.22-1.37h.13c.22,0,.7-.07,1.12-.15.22-.04.31-.06.38-.06.21,0,.35.1.63.45.64.78.97,1.61.97,2.48,0,1.97-1.6,3.28-4.02,3.28-2.27,0-3.4-1.13-3.4-3.43,0-.2,0-.35.03-.59-1.39-.29-2.14-.98-2.14-1.98,0-.52.15-.9.55-1.29.04-.06.1-.07.15-.07.08,0,.18.07.5.34.25.21.29.25.29.32q0,.06-.08.18c-.06.1-.11.25-.11.34,0,.18.11.34.32.43.2.1.25.11.7.21l.36-2.27Z"/>
      </g>
      <rect class="cls-4" x="190.68" y="34.44" width="152.54" height="89.06"/>
      <rect class="cls-3" x="35.31" width="152.54" height="31.42"/>
      <rect class="cls-5" x="190.68" width="152.54" height="31.42"/>
      <g>
        <path d="M217.31,73.96c0-.41-.01-.59-.06-1.25.22.03.5.04.98.04h1.97c.55,0,.83-.01.98-.07l.77.95c-.08.15-.14.29-.41,1.02-.29.76-.6,1.44-1.05,2.3.88,1.19,1.18,1.97,1.18,3.15,0,.81-.32,1.32-.95,1.53-.34.11-.67.14-1.49.14-.03-.64-.08-.95-.28-1.42.2.04.43.06.59.06.52,0,.7-.15.7-.59,0-.46-.1-.94-.29-1.37-.2-.45-.41-.76-.94-1.37.59-1.15.74-1.53,1.25-3.03h-1.56v9.13c0,.56.01,1.07.06,1.54h-1.54c.06-.41.08-.92.08-1.54v-9.23ZM223.48,78.84v3.85c1.37-.31,1.51-.34,2.23-.57l.03,1.36c-1,.31-1.39.41-2.63.7-.56.14-.62.15-1.34.31q-.31.07-.43.11c-.28.06-.41.1-.55.15l-.28-1.53c.28,0,.76-.07,1.6-.22v-8.75c0-.63-.01-.92-.06-1.44.27.06.57.07,1.29.07h3.84c.67,0,.88-.01,1.26-.06-.03.29-.04.62-.04,1.48v3.12c0,.76,0,1.01.04,1.44q-.28-.01-.36-.01l1.08.92c-.06.03-.27.2-.38.28-.38.35-1.25,1.01-1.81,1.4.67.83,1.43,1.4,2.48,1.92-.35.39-.57.74-.85,1.36-1.29-.81-2.13-1.58-2.82-2.61-.63-.95-.98-1.81-1.33-3.29h-.95ZM223.48,75.25h3.53v-1.09h-3.53v1.09ZM223.48,77.62h3.53v-1.18h-3.53v1.18ZM225.73,78.84c.15.67.27.99.52,1.53.8-.57,1.5-1.18,1.75-1.51-.2-.01-.43-.01-.66-.01h-1.61Z"/>
        <path d="M239.72,77.61c1.92,0,3.17,1.13,3.17,2.86s-1.05,2.82-3.15,3.49c-.76.24-2,.46-2.56.46-.29,0-.36-.07-.56-.48-.15-.32-.32-.52-.74-.81,3.52-.28,5.25-1.18,5.25-2.7,0-.85-.6-1.36-1.61-1.36-1.27,0-2.59.66-3.67,1.82-.2.2-.38.43-.5.64-.13.21-.21.28-.34.28-.21,0-.7-.21-1.04-.46-.17-.13-.22-.22-.22-.45q0-.11.04-.45s0-.14.01-.29c.07-.9.11-1.27.28-2.54q.03-.15.13-.81s.04-.31.11-.83c.01-.13.03-.24.03-.46.67.1,1.3.25,1.57.41.11.06.17.13.15.21,0,.06-.03.1-.07.18-.15.24-.2.36-.32.9s-.32,1.76-.35,2.23c1.43-1.32,2.67-1.83,4.4-1.83ZM239.47,73.61c.55.32.71.48.71.63,0,.13-.22.55-.46.9-.22.32-.31.39-.42.39-.07,0-.11-.03-.28-.15-.94-.71-1.68-1.12-2.73-1.49-.21-.08-.25-.11-.25-.22,0-.14.11-.38.36-.74.22-.34.32-.42.48-.42.34,0,1.71.59,2.59,1.11Z"/>
        <path d="M249.63,76.61c-.63.13-1.23.28-1.62.42-.1.04-.18.06-.25.06-.13,0-.2-.07-.28-.31-.1-.31-.2-.8-.25-1.29.21.01.31.03.43.03.53,0,1.11-.07,1.99-.24l.03-.84c.01-.2.01-.34.01-.38,0-.6-.01-.97-.07-1.34.74.03,1.21.08,1.65.2.18.04.27.13.27.25,0,.06-.01.1-.08.25-.13.27-.14.43-.24,1.6.31.21.57.5.57.64,0,.08-.04.15-.17.31-.21.22-.28.32-.55.71q-.03.36-.03.46c.46-.41.77-.67,1.25-1.02.53-.41,1.12-.78,1.54-1,.55-.29.92-.39,1.43-.39.74,0,1.27.28,1.57.81.17.34.24.66.24,1.2,0,.48-.03.92-.11,1.95-.11,1.21-.17,2.1-.17,2.65s.13.71.52.71c.56,0,1.25-.41,1.85-1.09.01.55.06.71.24,1.27.04.11.06.18.06.24,0,.15-.07.28-.31.46-.57.46-1.4.76-2.14.76-1.23,0-1.79-.64-1.79-2.06,0-.64.04-1.47.18-3.43.04-.46.06-.85.06-1.05,0-.57-.2-.84-.62-.84s-1.25.45-2.35,1.3c-.56.42-.88.71-1.47,1.32v.64c0,1.05.07,3.47.13,4.33v.17c0,.11-.01.15-.04.2-.07.08-.48.14-1.12.14-.41,0-.49-.06-.49-.29,0-.08,0-.22.01-.38v-.32q.01-.49.07-3.15-.8,1.04-1.28,1.81c-.13.2-.21.27-.32.27s-.36-.22-.8-.7c-.27-.31-.36-.43-.36-.52,0-.07.03-.13.13-.22.88-.91,1.62-1.78,2.68-3.1l.03-1.19Z"/>
        <path d="M262.98,76.88h-.08c-.07.01-.13.01-.15.01-.13,0-.2-.06-.24-.24-.08-.35-.14-.78-.17-1.32.2.01.35.01.45.01.76,0,1.64-.06,2.38-.15.14-.92.21-1.64.21-2.21v-.32c1.62.21,1.93.31,1.92.56,0,.07-.03.11-.08.24-.17.32-.18.36-.41,1.47.55-.1,1.25-.28,1.53-.38.06-.03.07-.03.11-.03.13,0,.15.06.27.55.06.28.11.67.11.78,0,.1-.04.15-.17.18q-.25.08-2.17.42c-.64,2.84-1.32,4.94-2.4,7.47-.07.18-.14.25-.22.25-.18,0-.67-.2-1.15-.46-.24-.13-.31-.2-.31-.27,0-.06.04-.15.11-.29,1.07-2.02,1.83-4.16,2.37-6.47-.62.08-1.05.13-1.9.2ZM268.97,82.2c.41.27.99.39,1.82.39.91,0,1.7-.08,2.14-.22.11-.03.14-.04.2-.04.13,0,.18.04.22.17.1.29.17.87.17,1.3,0,.18-.06.25-.24.29-.46.1-1.25.15-2.07.15-1.75,0-2.73-.28-3.38-.95-.24-.25-.43-.57-.55-.92-.08-.2-.14-.43-.14-.52,0-.24.42-.49,1.15-.73.15.59.32.84.67,1.08ZM272.9,78.13c-.28-.04-.87-.07-1.36-.07-1.04,0-1.47.04-2.7.25-.03.01-.07.01-.1.01-.08,0-.13-.03-.15-.11-.04-.1-.1-.78-.1-1.08,0-.18.03-.27.14-.31.06-.03.14-.04.43-.1.95-.17,1.75-.24,2.73-.24.81,0,1.23.03,1.33.1.07.06.08.17.08.63,0,.41-.03.77-.06.85-.01.04-.07.07-.14.07-.03,0-.07,0-.11-.01Z"/>
        <path d="M283.97,72.54c-.04.22-.08.88-.08,1.39,0,2.19.35,3.59,1.32,5.31.56,1,1.16,1.71,2.12,2.55.8.69,1.2.98,2.07,1.44-.5.53-.73.85-1.04,1.5-1.62-1.13-2.46-1.92-3.42-3.17-.83-1.09-1.33-2.14-1.78-3.68-.27,1.08-.5,1.69-1.07,2.72-.53.98-1.12,1.71-2.06,2.58-.71.64-1.15.98-2.09,1.55-.31-.63-.57-.97-1.05-1.39,1.39-.74,2.1-1.27,2.94-2.25,1.74-1.99,2.47-4.19,2.47-7.41,0-.52-.01-.77-.07-1.13h1.74Z"/>
        <path d="M297.48,81.36c-.67,1.16-1.6,1.81-2.55,1.81-1.46,0-2.49-1.43-2.49-3.42,0-2.21,1.12-4.12,3.04-5.13.94-.5,1.95-.73,3.28-.73,2.93,0,5.1,2.07,5.1,4.85,0,2.45-1.2,4.22-3.53,5.21-.46.2-.83.31-1.01.31-.17,0-.24-.06-.42-.32-.24-.36-.5-.63-.88-.88,2.89-.74,4.19-2.1,4.19-4.37,0-1.16-.49-2.14-1.36-2.76-.49-.34-.88-.48-1.65-.6-.39,2.96-.85,4.57-1.71,6.04ZM295.46,76.4c-.94.83-1.47,2-1.47,3.32,0,1.08.35,1.71.94,1.71.7,0,1.42-.97,1.95-2.63.34-1.05.5-1.85.71-3.4-.99.21-1.48.45-2.13,1.01Z"/>
        <path d="M312.53,79.26c-.5.94-1.08,1.86-1.6,2.62-.58.83-1.23,1.25-1.92,1.25-1.01,0-1.69-.83-1.69-2.06,0-1.06.53-1.97,1.53-2.56.66-.38,1.65-.64,2.45-.64h.14c.71-1.46.9-1.85,1.37-2.94-1.29.06-2.07.17-2.65.36-.03.01-.07.01-.1.01-.24,0-.46-.73-.53-1.78.31.06.6.08.98.08.48,0,1.29-.04,2.14-.13q.8-.07.98-.18c.11-.06.18-.08.25-.08.18,0,.46.22.77.6.22.29.36.53.36.63,0,.11-.06.21-.22.38-.21.22-.85,1.43-1.67,3.14,1.33.27,1.83.42,2.8.84.07-.49.13-1.07.13-1.46,0-.18-.01-.39-.04-.63.6.08,1.11.18,1.51.28.25.07.34.14.34.25,0,.1-.03.2-.11.36-.13.27-.17.45-.27,1.02-.04.29-.08.49-.17.9.71.45,1.33.88,1.61,1.15.07.07.11.14.11.21,0,.39-.6,1.3-.85,1.3-.07,0-.14-.04-.25-.13-.38-.34-.84-.73-1.12-.94-.48,1.01-.97,1.65-1.74,2.31-.66.55-1.57,1.05-1.91,1.05-.11,0-.24-.06-.34-.14-.04-.04-.04-.06-.22-.31-.21-.32-.39-.48-.73-.63,1.12-.39,1.67-.67,2.27-1.19.6-.53,1.06-1.18,1.37-1.93-.95-.52-1.89-.84-3-1.02ZM308.75,80.94c0,.34.13.55.35.55.31,0,.85-.69,1.74-2.2-1.33.14-2.09.74-2.09,1.65Z"/>
      </g>
      <rect class="cls-4" x="190.68" y="126.52" width="152.54" height="89.06"/>
      <g>
        <path d="M229.74,156.39c.39,0,.71-.01.85-.04v1.23c-.21-.03-.45-.04-.87-.04h-.9c.25.29.53.49,1.19.87-.35.38-.41.46-.77,1.11-.69-.57-.85-.77-1.19-1.29.01.22.03.45.03.55v.5c0,.17.01.34.06.49h-1.44c.03-.14.04-.31.04-.45v-.5c0-.14.01-.29.04-.59-.71.98-1.16,1.42-2.2,2.12-.28-.49-.43-.69-.87-1.11,1.08-.56,1.71-1.05,2.16-1.7h-.73c-.48,0-.84.01-1.12.06v-1.26c.32.04.63.06,1.13.06h1.6v-1.58c0-.41-.01-.64-.06-.91h1.46c-.04.27-.06.49-.06.88v1.61h1.64ZM229.06,165.53c-.49-.39-.69-.52-1.25-.81-.84.74-1.67,1.16-3.22,1.6-.2-.48-.41-.84-.7-1.25,1.21-.25,1.95-.52,2.68-.98-.63-.29-.99-.43-1.99-.8.42-.59.55-.77.87-1.33h-.39c-.49,0-.76.01-1.06.07v-1.36c.31.06.56.07,1.06.07h1.01c.13-.28.2-.45.36-.95l1.39.27c-.13.34-.17.43-.28.69h2.13c.48,0,.73-.01.99-.06v1.33c-.28-.04-.5-.06-1.09-.06-.27.85-.39,1.13-.81,1.72.52.24.63.31,1.09.6l-.78,1.25ZM225.51,154.03c.5.74.67,1.05.94,1.78l-1.18.43c-.27-.74-.49-1.18-.91-1.78l1.15-.43ZM226.89,161.96c-.18.31-.22.38-.48.76.59.21.8.28,1.15.43.29-.39.46-.71.62-1.19h-1.29ZM230.51,154.5c-.53,1.06-.59,1.19-1.01,1.81l-1.15-.52c.43-.59.73-1.13.95-1.79l1.21.5ZM236.38,157.54c-.24-.04-.41-.04-.95-.06-.08,2.17-.5,3.8-1.36,5.27.76.95,1.5,1.57,2.56,2.1-.32.42-.55.83-.78,1.43-1.02-.6-1.89-1.37-2.63-2.31-.84.97-1.88,1.79-3.05,2.41-.25-.7-.38-.92-.71-1.34.59-.29.76-.39,1.06-.59.77-.5,1.39-1.04,1.91-1.68-.62-1.11-.9-1.89-1.13-3.15-.24.38-.34.52-.62.88-.29-.38-.59-.69-.97-.97.84-1.06,1.4-2.24,1.82-3.88.17-.63.29-1.43.31-1.82l1.5.29c-.06.15-.1.28-.2.74-.1.38-.24.91-.36,1.33h2.35c.63,0,.94-.01,1.26-.07v1.42ZM232.33,157.49q-.11.28-.17.41c.22,1.53.49,2.41,1.07,3.54.55-1.16.77-2.24.84-3.95h-1.74Z"/>
        <path d="M245.95,154.07c-.04.22-.08.88-.08,1.39,0,2.19.35,3.59,1.32,5.31.56,1,1.16,1.71,2.12,2.55.8.69,1.2.98,2.07,1.44-.5.53-.73.85-1.04,1.5-1.62-1.13-2.46-1.92-3.42-3.17-.83-1.09-1.33-2.14-1.78-3.68-.27,1.08-.5,1.69-1.07,2.72-.53.98-1.12,1.71-2.06,2.58-.71.64-1.15.98-2.09,1.55-.31-.63-.57-.97-1.05-1.39,1.39-.74,2.1-1.27,2.94-2.25,1.74-1.99,2.47-4.19,2.47-7.41,0-.52-.01-.77-.07-1.13h1.74Z"/>
        <path d="M253.73,160.11c.52-.63.77-.85,1.39-1.25.85-.53,1.49-.73,2.3-.73.64,0,1.2.13,1.81.42q.36.18,1.27.77c1.06.69,1.81.98,2.48.98.29,0,.7-.11,1.04-.27.6-.31.97-.62,1.46-1.27l1.12,1.12c-.57.73-.87,1.02-1.33,1.36-.71.53-1.51.8-2.42.8-.42,0-.85-.07-1.23-.2-.55-.18-.83-.32-1.92-1.04-1.23-.78-1.67-.95-2.41-.95-.91,0-1.55.34-2.44,1.29l-1.11-1.04Z"/>
        <path d="M274.89,156.39c.39,0,.71-.01.85-.04v1.23c-.21-.03-.45-.04-.87-.04h-.9c.25.29.53.49,1.19.87-.35.38-.41.46-.77,1.11-.69-.57-.85-.77-1.19-1.29.01.22.03.45.03.55v.5c0,.17.01.34.06.49h-1.44c.03-.14.04-.31.04-.45v-.5c0-.14.01-.29.04-.59-.71.98-1.16,1.42-2.2,2.12-.28-.49-.43-.69-.87-1.11,1.08-.56,1.71-1.05,2.16-1.7h-.73c-.48,0-.84.01-1.12.06v-1.26c.32.04.63.06,1.13.06h1.6v-1.58c0-.41-.01-.64-.06-.91h1.46c-.04.27-.06.49-.06.88v1.61h1.64ZM274.21,165.53c-.49-.39-.69-.52-1.25-.81-.84.74-1.67,1.16-3.22,1.6-.2-.48-.41-.84-.7-1.25,1.21-.25,1.95-.52,2.68-.98-.63-.29-.99-.43-1.99-.8.42-.59.55-.77.87-1.33h-.39c-.49,0-.76.01-1.06.07v-1.36c.31.06.56.07,1.06.07h1.01c.13-.28.2-.45.36-.95l1.39.27c-.13.34-.17.43-.28.69h2.13c.48,0,.73-.01.99-.06v1.33c-.28-.04-.5-.06-1.09-.06-.27.85-.39,1.13-.81,1.72.52.24.63.31,1.09.6l-.78,1.25ZM270.66,154.03c.5.74.67,1.05.94,1.78l-1.18.43c-.27-.74-.49-1.18-.91-1.78l1.15-.43ZM272.04,161.96c-.18.31-.22.38-.48.76.59.21.8.28,1.15.43.29-.39.46-.71.62-1.19h-1.29ZM275.66,154.5c-.53,1.06-.59,1.19-1.01,1.81l-1.15-.52c.43-.59.73-1.13.95-1.79l1.21.5ZM281.53,157.54c-.24-.04-.41-.04-.95-.06-.08,2.17-.5,3.8-1.36,5.27.76.95,1.5,1.57,2.56,2.1-.32.42-.55.83-.78,1.43-1.02-.6-1.89-1.37-2.63-2.31-.84.97-1.88,1.79-3.05,2.41-.25-.7-.38-.92-.71-1.34.59-.29.76-.39,1.06-.59.77-.5,1.39-1.04,1.91-1.68-.62-1.11-.9-1.89-1.13-3.15-.24.38-.34.52-.62.88-.29-.38-.59-.69-.97-.97.84-1.06,1.4-2.24,1.82-3.88.17-.63.29-1.43.31-1.82l1.5.29c-.06.15-.1.28-.2.74-.1.38-.24.91-.36,1.33h2.35c.63,0,.94-.01,1.26-.07v1.42ZM277.48,157.49q-.11.28-.17.41c.22,1.53.49,2.41,1.07,3.54.55-1.16.77-2.24.84-3.95h-1.74Z"/>
        <path d="M285.91,155.69c-.59,0-1.11.03-1.65.08v-1.53c.48.06.98.08,1.65.08h8.73c.62,0,1.18-.03,1.65-.08v1.53c-.5-.06-1.08-.08-1.65-.08h-3.5c-.17.56-.45,1.27-.66,1.75h3.21c.52,0,.95-.01,1.36-.07-.04.39-.07.9-.07,1.39v5.86c0,.55.03,1.12.08,1.69h-1.58v-.73h-6.39v.73h-1.58c.06-.56.08-1.05.08-1.69v-5.88c0-.48-.03-.95-.07-1.36.38.04.8.07,1.28.07h2.13c.22-.49.42-1.02.63-1.75h-3.64ZM287.09,160.72h6.39v-1.96h-6.39v1.96ZM287.09,164.27h6.39v-2.25h-6.39v2.25Z"/>
        <path d="M306.16,154.07c-.04.22-.08.88-.08,1.39,0,2.19.35,3.59,1.32,5.31.56,1,1.16,1.71,2.12,2.55.8.69,1.2.98,2.07,1.44-.5.53-.73.85-1.04,1.5-1.62-1.13-2.46-1.92-3.42-3.17-.83-1.09-1.33-2.14-1.78-3.68-.27,1.08-.5,1.69-1.07,2.72-.53.98-1.12,1.71-2.06,2.58-.71.64-1.15.98-2.09,1.55-.31-.63-.57-.97-1.05-1.39,1.39-.74,2.1-1.27,2.94-2.25,1.74-1.99,2.47-4.19,2.47-7.41,0-.52-.01-.77-.07-1.13h1.74Z"/>
        <path d="M225.81,177.16c-.42.1-.63.14-1.37.28-.13-.55-.25-.85-.52-1.27,1.7-.2,3.35-.67,3.99-1.13l.88,1.2q-.25.1-.52.2c-.39.17-.77.29-1.09.39v1.78h.57c.39,0,.59-.01.85-.06v1.4c-.28-.04-.53-.06-.88-.06h-.48c.36.81.71,1.29,1.46,1.96v-1.06c.35.04.74.06,1.41.06h4.37c.67,0,1.05-.01,1.51-.07v1.41c-.52-.06-.83-.07-1.51-.07h-1.57v1.13h1.42c.64,0,.99-.01,1.39-.06v1.39c-.41-.04-.76-.06-1.39-.06h-1.42v1.26h1.76c.7,0,1.12-.03,1.53-.07v1.46c-.46-.06-.9-.08-1.53-.08h-5.1c-.63,0-1.08.03-1.51.08v-1.46c.35.06.77.07,1.51.07h1.92v-1.26h-1.33c-.62,0-.97.01-1.36.06v-1.39c.36.04.66.06,1.36.06h1.33v-1.13h-1.4c-.64,0-.99.01-1.37.06-.22.25-.39.56-.59,1.01-.45-.5-.74-.94-1.04-1.53.04.34.07,1.01.07,1.44v2.9c0,.76.01,1.2.07,1.58h-1.53c.06-.45.08-.92.08-1.58v-2.33c0-.21.03-.9.06-1.54-.34,1.05-.76,1.82-1.53,2.8-.22-.56-.42-.91-.73-1.33.46-.49.88-1.12,1.28-1.89.34-.66.64-1.39.74-1.82h-.71c-.38,0-.59.01-.94.07v-1.43c.32.06.53.07.98.07h.85v-1.44ZM229.1,176.72c0-.42-.03-.77-.06-1.08.31.04.66.06,1.16.06h4.22c.52,0,.84-.01,1.15-.06-.03.32-.04.63-.04,1.08v2.23c0,.53,0,.78.04,1.09-.34-.03-.67-.04-1.16-.04h-4.19c-.49,0-.83.01-1.18.04.04-.31.06-.56.06-1.08v-2.24ZM230.5,178.75h3.6v-1.77h-3.6v1.77Z"/>
        <path d="M241.36,179.53c-.06,4.08-.42,6-1.53,7.97-.38-.55-.64-.84-1.12-1.25.98-1.83,1.22-3.5,1.22-8.6,0-.64-.01-1.16-.06-1.6.48.04.95.07,1.53.07h3.35v-.29c0-.29-.03-.52-.08-.77h1.62c-.06.22-.07.45-.07.79v.28h3.33c.74,0,1.23-.03,1.62-.08v1.4c-.41-.04-.79-.06-1.42-.06h-1.04v.94h1.3c.55,0,.83-.01,1.19-.06v1.32c-.32-.04-.56-.06-1.19-.06h-1.3v1.29c0,.32.01.59.04.84q-.31-.01-.87-.01h-3.75c-.55,0-.7,0-.92.01.03-.21.04-.56.04-.84v-1.29h-1.9ZM249.84,183.13q-.15.15-.25.28c-.7.8-1.44,1.47-2.23,2.02,1.16.41,2.34.59,3.98.63-.25.48-.42.91-.57,1.51-2.24-.28-3.57-.63-4.85-1.3-1.41.67-2.56,1.01-4.59,1.32-.11-.5-.22-.8-.52-1.39,1.67-.13,2.73-.34,3.84-.76-.78-.6-1.12-.95-1.83-1.91-.41.01-.66.03-.95.06v-1.26c.34.04.74.06,1.44.06h4.69c.55,0,.77-.01,1.11-.04l.74.78ZM243.26,178.33v-.94h-1.89v.94h1.89ZM244.43,183.54c.42.5.85.85,1.57,1.26.7-.41,1.06-.67,1.67-1.26h-3.24ZM247.31,178.33v-.94h-2.65v.94h2.65ZM244.67,180.47h2.65v-.94h-2.65v.94Z"/>
      </g>
      <rect class="cls-4" x="190.68" y="218.61" width="152.54" height="89.06"/>
      <g>
        <path d="M204.96,247.29c0-.56-.03-.95-.08-1.33h1.68c-.06.34-.08.76-.08,1.33v3.6h3.42c.45,0,.71-.01,1.08-.07-.04.36-.06.66-.06,1.13v4.96c0,.69.03,1.11.08,1.54h-1.55v-.66h-7.77c-.63-.01-1.09.01-1.46.07v-1.53c.39.06.73.07,1.4.07h7.84v-1.43h-7.44c-.59,0-.94.01-1.29.06v-1.5c.32.04.63.06,1.3.06h7.42v-1.3h-7.76c-.59,0-.95.01-1.37.06v-1.53c.43.06.78.07,1.39.07h3.25v-3.6ZM201.65,246.59c1.01,1.3,1.54,2.16,2.1,3.31l-1.33.77c-.6-1.32-1.16-2.21-2.06-3.33l1.29-.74ZM211.06,247.22c-.8,1.64-1.23,2.34-2.1,3.46l-1.25-.77c.88-1.11,1.34-1.91,1.92-3.36l1.43.67Z"/>
        <path d="M219.91,252.74h-3.18c-.49,0-.87.01-1.23.06v-1.18c.31.04.67.06,1.26.06h3.15v-.52h-2.84c-.48,0-.81.01-1.13.04.03-.29.04-.56.04-.91v-.88c0-.38-.01-.59-.04-.94.38.03.64.04,1.15.04h2.83v-.5h-3.68c-.67,0-1.09.01-1.57.07v-1.33c.42.06.87.08,1.65.08h3.6c-.01-.48-.03-.62-.08-.92h1.61c-.06.29-.07.42-.08.92h3.78c.79,0,1.22-.03,1.65-.08v1.33c-.45-.04-.92-.07-1.57-.07h-3.87v.5h3.05c.52,0,.78-.01,1.12-.04-.03.31-.04.52-.04.94v.88c0,.42.01.62.04.91-.31-.03-.63-.04-1.06-.04h-3.11v.52h3.04c.78,0,1.01-.01,1.43-.04-.04.35-.04.52-.04,1.22v.48c.59,0,.88-.03,1.16-.07v1.27c-.32-.04-.57-.07-1.16-.07v.78c0,.71.01,1.04.07,1.44h-1.5v-.52h-3v.76c0,1.21-.34,1.46-1.96,1.46-.34,0-.83-.01-1.3-.04-.07-.55-.15-.81-.41-1.34.71.08,1.22.13,1.68.13s.55-.06.55-.32v-.63h-3.17c-.59,0-.94.01-1.33.06v-1.23c.36.04.59.06,1.29.06h3.21v-.59h-3.85c-.76,0-1.13.01-1.49.07v-1.27c.36.06.67.07,1.46.07h3.88v-.59ZM217.4,249.56v.55h2.51v-.55h-2.51ZM221.35,250.1h2.7v-.55h-2.7v.55ZM224.35,253.32v-.59h-3v.59h3ZM221.35,255.05h3v-.59h-3v.59Z"/>
        <path d="M231.43,251.11c-.69,0-1.15.03-1.62.08v-1.49c.38.06.87.08,1.64.08h3.07v-1.16h-2.03c-.7,0-1.12.01-1.51.06v-1.43c.34.06.87.08,1.57.08h1.97v-.24c0-.5-.01-.81-.08-1.18h1.65c-.07.36-.08.64-.08,1.18v.24h.97c.69,0,1.12-.03,1.5-.08v1.16c.71-.74,1.3-1.51,1.57-2.06l1.34.88c-.15.15-.17.17-.62.7-.53.62-1.12,1.2-1.83,1.85h1.39c.69,0,1.12-.03,1.54-.08v1.49c-.45-.06-.98-.08-1.67-.08h-2.9c-.45.32-.87.6-1.46.98q.29-.01,1.09-.01h1.96c.66,0,1.02-.01,1.43-.04-.04.39-.06.71-.06,1.47v3.32c0,.7.03,1.16.08,1.51h-1.57v-.57h-4.89v.57h-1.57c.06-.45.08-.91.08-1.51v-2.07c0-.22,0-.52.01-.76-.91.43-1.09.52-2.13.94-.22-.56-.41-.87-.8-1.34,2-.6,3.87-1.44,5.53-2.48h-3.59ZM233.88,254.3h4.89v-1.01h-4.89v1.01ZM233.88,256.5h4.89v-1.04h-4.89v1.04ZM236.93,249.79c.56-.45.88-.71,1.29-1.12-.42-.04-.57-.04-1.12-.04h-1.11v1.16h.94Z"/>
        <path d="M245.25,247.78c0-.57-.01-.94-.06-1.36.28.03.91.06,1.51.06h8.38c.62,0,1.16-.01,1.46-.06-.04.43-.06.81-.06,1.47v8.95c0,1.09-.43,1.36-2.19,1.36-.39,0-1.04-.03-1.5-.06-.08-.62-.15-.85-.39-1.43.67.07,1.44.13,1.85.13.6,0,.73-.06.73-.29v-8.73h-8.24v8.95c0,.8.01,1.16.08,1.57h-1.67c.06-.5.08-.98.08-1.6v-8.96ZM247.38,248.77c.28.06.52.07,1.19.07h4.65c.69,0,.87-.01,1.19-.07v1.43c-.34-.04-.6-.06-1.18-.06h-4.68c-.56,0-.84.01-1.18.06v-1.43ZM253.64,254.92c0,.32.01.6.03.84-.42-.03-.56-.03-.88-.03h-3.25v1.01h-1.47c.04-.38.06-.69.06-1.19v-3.49c0-.34-.01-.62-.04-.87.36.01.56.03.94.03h3.66c.55,0,.74,0,1.01-.03-.03.29-.04.48-.04.88v2.84ZM249.52,254.44h2.72v-1.93h-2.72v1.93Z"/>
        <path d="M264.99,247.58c0-.63-.03-1.05-.08-1.53h1.79c-.06.5-.08.92-.08,1.54v2.31h3.4c.69,0,1.25-.03,1.88-.1v1.68c-.59-.07-1.12-.1-1.82-.1h-3.46v4.82h2.86c.83,0,1.16-.01,1.68-.08v1.64c-.49-.07-.91-.08-1.68-.08h-7.17c-.76,0-1.22.03-1.7.08v-1.64c.43.07.87.08,1.68.08h2.7v-4.82h-3.12c-.71,0-1.33.03-1.96.1v-1.68c.62.07,1.16.1,1.96.1h3.12v-2.33Z"/>
        <path d="M280.25,254.98c-.67,1.16-1.6,1.81-2.55,1.81-1.46,0-2.49-1.43-2.49-3.42,0-2.21,1.12-4.12,3.04-5.13.94-.5,1.95-.73,3.28-.73,2.93,0,5.1,2.07,5.1,4.85,0,2.45-1.2,4.22-3.53,5.21-.46.2-.83.31-1.01.31-.17,0-.24-.06-.42-.32-.24-.36-.5-.63-.88-.88,2.89-.74,4.19-2.1,4.19-4.37,0-1.16-.49-2.14-1.36-2.76-.49-.34-.88-.48-1.65-.6-.39,2.96-.85,4.57-1.71,6.04ZM278.23,250.02c-.94.83-1.47,2-1.47,3.32,0,1.08.35,1.71.94,1.71.7,0,1.42-.97,1.95-2.63.34-1.05.5-1.85.71-3.4-.99.21-1.48.45-2.13,1.01Z"/>
        <path d="M289.93,248.18c.34.06.57.07,1.08.07h2.76c.56,0,.76-.01,1.08-.06v1.33c-.28-.03-.46-.04-1.02-.04h-2.82c-.48,0-.71.01-1.08.06v-1.36ZM290.37,246.33c.35.04.57.06,1.12.06h1.96c.55,0,.77-.01,1.12-.06v1.3c-.34-.03-.63-.04-1.12-.04h-1.96c-.46,0-.78.01-1.12.04v-1.3ZM291.8,258.37h-1.4c.06-.41.07-.76.07-1.28v-2.13c0-.43-.01-.67-.06-1.05.35.03.62.04,1.02.04h2.25c.53,0,.66,0,.9-.04-.03.29-.03.49-.03.97v2.25c0,.5.01.73.04,1.05h-1.32v-.46h-1.48v.64ZM290.41,250.13c.29.03.45.04.88.04h2.41c.43,0,.59,0,.85-.04v1.29c-.29-.03-.48-.04-.85-.04h-2.41c-.41,0-.62.01-.88.04v-1.29ZM290.41,252.01c.29.03.45.04.88.04h2.4c.46,0,.57,0,.87-.04v1.29c-.28-.03-.45-.04-.88-.04h-2.4c-.41,0-.62.01-.87.04v-1.29ZM291.76,256.53h1.53v-1.39h-1.53v1.39ZM297.67,248.14c-.87.11-1.08.14-2.35.27-.1-.43-.22-.74-.49-1.32,2.41-.07,5.2-.62,6.26-1.21l.81,1.29c-.14.03-.18.04-.35.1-.99.28-1.71.46-2.44.62v1.95h1.49c.67,0,1.09-.03,1.5-.08v1.47c-.42-.06-.87-.08-1.5-.08h-1.49v1.77h1.5c.45,0,.7-.01.99-.04-.03.31-.04.64-.04,1.15v2.89c0,.56.03,1.05.07,1.43h-1.51v-.62h-3.32v.62h-1.48c.04-.38.06-.74.06-1.39v-3.03c0-.46-.01-.67-.04-1.05.32.03.6.04.98.04h1.36v-1.77h-1.18c-.67,0-1.08.03-1.51.08v-1.47c.46.07.85.08,1.53.08h1.16v-1.69ZM296.8,256.41h3.32v-2.21h-3.32v2.21Z"/>
        <path d="M309.52,246.61c.35.1.45.17.45.32,0,.1-.01.14-.08.34-.15.41-.27,1.12-.32,2.1-.11,2.25-.17,4.01-.17,5.39,0,.45.04.79.11,1.01.15.46.64.7,1.43.7,1.26,0,2.45-.52,3.54-1.54.5-.48.81-.85,1.33-1.62.08.45.2.74.5,1.37.04.11.07.2.07.32,0,.25-.27.59-.97,1.22-1.39,1.25-2.93,1.89-4.54,1.89-1.06,0-1.85-.27-2.35-.77-.53-.56-.74-1.29-.74-2.68,0-1.09.01-1.93.13-5.2.01-.49.03-.78.03-.91,0-1.19-.01-1.54-.1-2.14.71.03,1.26.08,1.68.2Z"/>
        <path d="M322.64,250.42c-.85.53-1.22.73-2.14,1.15-.24-.57-.39-.85-.78-1.37,1.26-.49,2.4-1.15,3.42-1.95.94-.74,1.57-1.41,2.12-2.25h1.61c.58.85,1.18,1.47,2.26,2.28,1.05.8,2.06,1.33,3.42,1.83-.35.57-.48.83-.73,1.49-.95-.42-1.39-.66-2.2-1.18v.94c-.35-.04-.67-.06-1.21-.06h-4.61c-.42,0-.78.01-1.15.06v-.94ZM321.55,258.28c.06-.42.08-.83.08-1.42v-3.14c0-.57-.01-.91-.07-1.32.32.03.63.04,1.18.04h6.7c.55,0,.84-.01,1.18-.04-.06.36-.07.73-.07,1.32v3.15c0,.63.01.98.08,1.4h-1.61v-.67h-5.85v.67h-1.61ZM323.16,256.29h5.85v-2.54h-5.85v2.54ZM328.38,249.91h.46c-1.22-.87-1.93-1.54-2.77-2.63-.81,1.16-1.39,1.74-2.63,2.63h4.94Z"/>
        <path d="M200.47,270.21c0-.41-.01-.95-.04-1.26.64.07,1.12.17,1.5.31.34.13.45.21.45.36q0,.08-.06.22c-.18.48-.24,1.01-.24,2.28,0,1.79.11,2.91.39,3.77.21.66.53,1.04.91,1.04.57,0,1.05-.67,1.57-2.23.27.71.36.92.76,1.43.07.1.11.2.11.29,0,.22-.21.7-.49,1.11-.55.8-1.25,1.23-1.99,1.23-1.08,0-1.89-.87-2.4-2.59-.32-1.12-.48-2.54-.48-4.5v-1.47ZM208.81,270.44c.08,0,.15.04.27.14.7.67,1.43,1.79,1.89,2.88.31.74.6,1.74.6,2.03,0,.14-.07.21-.36.36-.32.17-.98.39-1.15.39-.13,0-.18-.07-.22-.32-.18-1.08-.43-1.86-.87-2.77-.39-.81-.42-.85-1.37-2.03.59-.43,1.05-.69,1.22-.69Z"/>
        <path d="M223.62,269.43c1.89,0,3.08,1.13,3.08,2.96s-1.32,2.89-3.5,2.89c-.48,0-.97-.06-1.15-.13-.11-.04-.17-.11-.2-.24-.1-.46-.28-.91-.62-1.47.87.21,1.4.29,1.99.29,1.13,0,1.81-.52,1.81-1.42,0-.35-.1-.7-.24-.9-.25-.35-.8-.57-1.43-.57-.8,0-1.91.35-4.22,1.34q.88,2.2,1.37,3.54c.59,1.58,1.08,3.01,1.08,3.14,0,.11-.08.18-.36.31-.41.18-.92.35-1.11.35-.14,0-.15-.03-.29-.55-.64-2.35-1.22-4.06-2.07-6.15-1.06.49-1.57.77-1.86,1.05-.08.07-.17.11-.27.11-.18,0-.35-.14-.62-.52-.28-.39-.39-.6-.63-1.05.9-.25,1.47-.45,2.79-.99-.73-1.67-.83-1.86-1.37-2.56.9-.35,1.4-.5,1.72-.5.29,0,.36.08.41.46.04.39.07.53.24.92.01.03.14.32.43,1.08,1.23-.5,1.67-.67,2.59-.97-.06-.03-.07-.04-.11-.1-.48-.62-.77-.92-1.39-1.44-.03-.06-.04-.08-.04-.13q0-.08.48-.5c.18-.17.46-.34.55-.34.07,0,.14.03.22.08.85.64,1.44,1.23,1.44,1.47,0,.11-.42.57-.76.83.77-.21,1.44-.31,2.03-.31Z"/>
        <path d="M232.41,271.64c-.9.56-1.21.73-2.16,1.16-.24-.55-.45-.91-.78-1.39,1.43-.56,2.37-1.08,3.38-1.86.9-.69,1.57-1.42,2.13-2.27h1.58c.71.99,1.26,1.53,2.28,2.24,1.13.81,2.24,1.39,3.46,1.82-.38.57-.56.95-.76,1.51-.84-.36-1.36-.64-2.28-1.23v1.05c-.36-.04-.7-.06-1.21-.06h-4.5c-.38,0-.78.01-1.15.06v-1.04ZM231.67,275.1c-.7,0-1.15.03-1.58.08v-1.55c.42.04.95.07,1.58.07h8.36c.67,0,1.13-.03,1.58-.07v1.55c-.45-.06-.9-.08-1.58-.08h-4.61c-.45,1.02-.87,1.81-1.4,2.61q2.33-.13,4.26-.34c-.43-.48-.67-.73-1.42-1.48l1.33-.59c1.44,1.46,2.03,2.14,3.11,3.57l-1.3.85c-.38-.57-.49-.74-.8-1.16-1.12.14-1.92.24-2.42.28-1.4.14-3.95.38-4.52.42-.76.04-1.43.11-1.74.18l-.21-1.64c.41.03.57.04.76.04.11,0,.52-.01,1.2-.06.66-1.01,1.08-1.81,1.43-2.69h-2.03ZM238.04,271.22c.18,0,.31,0,.59-.01-1.22-.81-2-1.54-2.82-2.62-.7.95-1.51,1.72-2.79,2.62.22.01.34.01.55.01h4.47Z"/>
        <path d="M248.15,278.28c0,.63.01.98.08,1.37h-1.62c.06-.41.08-.77.08-1.4v-3.38c-.55.49-.83.7-1.5,1.15-.17-.52-.41-1.01-.69-1.4.94-.55,1.58-1.05,2.31-1.82.63-.66,1.02-1.22,1.46-2.07h-2.19c-.48,0-.8.01-1.12.06v-1.5c.35.04.62.06,1.05.06h.69v-1.12c0-.36-.03-.71-.08-1.02h1.61c-.06.29-.07.62-.07,1.04v1.11h.56c.41,0,.56-.01.77-.04l.64.7c-.11.18-.2.35-.29.58-.45.98-.69,1.39-1.34,2.3.63.71,1.25,1.21,2.13,1.7-.31.43-.5.8-.73,1.33-.71-.45-1.13-.83-1.75-1.51v3.89ZM253.86,277.64h1.61c.67,0,1.13-.03,1.54-.07v1.61c-.48-.06-.99-.08-1.54-.08h-4.59c-.56,0-1.05.03-1.51.08v-1.61c.42.04.9.07,1.53.07h1.47v-5.25h-1.01c-.45,0-.9.03-1.32.07v-1.53c.38.06.76.07,1.32.07h1.01v-2.37c0-.56-.03-.88-.08-1.4h1.67c-.07.53-.08.8-.08,1.4v2.37h1.42c.62,0,.97-.01,1.33-.07v1.53c-.43-.04-.85-.07-1.33-.07h-1.42v5.25Z"/>
        <path d="M261.08,272.76c-.11.03-.17.06-.25.1-.07.04-.11.06-.17.06-.31,0-.53-.53-.7-1.57h.27c.59,0,2.09-.18,2.98-.36.29-1.22.45-2.16.45-2.82,0-.06,0-.14-.01-.24.6.06,1.18.18,1.57.35.22.08.34.2.34.34,0,.07-.01.13-.08.24q-.21.36-.64,1.91c.34-.04.71-.07.95-.07.57,0,1.02.11,1.34.34.56.41.84,1.23.84,2.51,0,2.09-.38,3.88-1.02,4.76-.45.62-1.04.91-1.86.91-.5,0-.98-.07-1.12-.15q-.11-.07-.15-.59c-.04-.38-.13-.71-.29-1.11.73.25.91.29,1.36.29.67,0,.95-.32,1.26-1.46.21-.74.32-1.69.32-2.73,0-1.09-.27-1.48-1.01-1.48-.25,0-.66.04-.98.08-.04.17-.06.18-.11.36-.39,1.44-1.11,3.32-1.82,4.83-.74,1.53-.92,1.83-1.11,1.83-.11,0-.49-.2-.9-.46-.32-.2-.41-.28-.41-.39q0-.07.57-.98c.77-1.19,1.78-3.52,2.13-4.9-1.04.24-1.61.36-1.74.41ZM269.88,269.89c-.22.17-.38.24-.45.24-.04,0-.08-.03-.13-.1-.29-.48-.78-1.02-1.19-1.37-.03-.03-.04-.06-.04-.08,0-.06.1-.15.34-.34.24-.17.31-.21.41-.21.22,0,1.46,1.25,1.46,1.47,0,.08-.11.18-.39.39ZM268.39,271.38c0-.1.13-.22.53-.55.28-.21.42-.29.53-.29.18,0,.81.67,1.4,1.5.49.7,1.02,1.7,1.02,1.93,0,.14-.04.18-.49.55-.28.22-.6.41-.71.41-.1,0-.14-.04-.24-.28-.27-.67-.5-1.13-.88-1.74-.38-.6-.41-.63-1.08-1.36-.06-.07-.08-.11-.08-.17ZM270.23,267.08c.24,0,1.43,1.19,1.43,1.43,0,.07-.08.15-.36.35-.25.2-.38.27-.43.27q-.07,0-.35-.39c-.24-.32-.69-.8-.94-1.01-.04-.04-.07-.07-.07-.11,0-.11.57-.53.73-.53Z"/>
        <path d="M275.53,270.65c.97.53,1.47.9,2.42,1.7l-.85,1.26c-.92-.85-1.44-1.26-2.42-1.85l.85-1.11ZM277.91,275.21c-.52,1.58-.98,2.68-1.61,3.8q-.1.18-.17.32t-.11.2l-1.29-1.12c.76-.91,1.32-2.02,2-4.03l1.18.84ZM276.1,267.33c.95.56,1.48.97,2.37,1.79l-.94,1.2c-.85-.88-1.27-1.23-2.35-1.92l.92-1.08ZM283.09,274.33c.8,1.75,2.12,2.94,4.12,3.74-.36.48-.52.79-.79,1.53-2.02-1.02-3.53-2.54-4.23-4.2-.66,1.92-1.81,3.18-3.91,4.3-.24-.55-.46-.87-.92-1.36,2.13-.9,3.24-2.1,3.67-4.01h-1.29c-.63,0-1.09.03-1.51.08v-1.58c.42.04.9.07,1.5.07h1.51c.06-.79.08-1.54.1-2.3h-1.11c-.57,0-1.08.03-1.43.07v-1.53c.43.06.84.07,1.43.07h1.09v-.71c0-.63-.03-.9-.08-1.28h1.62c-.07.39-.08.63-.08,1.25v.74h2.07c.62,0,.94-.01,1.25-.06-.04.27-.06.56-.06,1.08v2.66q.56-.01,1.12-.08v1.6c-.43-.06-.9-.08-1.49-.08h-2.59ZM284.63,272.9v-2.3h-1.86c-.01,1.06-.04,1.7-.1,2.3h1.96Z"/>
        <path d="M296.34,270.31c.21-1.15.28-1.64.28-2.1,0-.06,0-.14-.01-.24,1.18.17,1.85.43,1.85.74,0,.11-.01.13-.17.41-.11.2-.21.53-.41,1.27.95.17,1.75.59,2.38,1.22.77.77,1.15,1.72,1.15,2.89,0,1.95-1.07,3.46-2.96,4.23-.38.15-1.12.35-1.3.35-.11,0-.18-.06-.28-.2-.22-.36-.56-.73-.97-1.02,1.42-.24,2.09-.49,2.79-1.06.74-.6,1.12-1.39,1.12-2.34,0-1.42-.91-2.56-2.25-2.83-.46,1.46-.97,2.62-1.58,3.68.21.21.34.34.56.55.15.14.21.22.21.32,0,.24-.78,1.01-1.01,1.01-.11,0-.29-.13-.7-.53-.85,1.02-1.69,1.53-2.54,1.53-1.16,0-1.93-.98-1.93-2.48,0-1.34.56-2.59,1.64-3.64-.2-.5-.22-.63-.53-1.6-.11-.36-.24-.76-.41-1.16.5-.11,1.16-.21,1.5-.21.14,0,.22.04.27.14q.04.07.06.41c.01.29.14.83.35,1.47.91-.52,1.93-.81,2.9-.8ZM292.81,273.45c-.52.69-.8,1.42-.8,2.07s.27,1.05.67,1.05c.43,0,.84-.29,1.42-1-.52-.69-.87-1.27-1.29-2.13ZM296.01,271.57c-.77.11-1.37.34-2.09.81.36.73.64,1.2,1.08,1.78.48-.92.76-1.64,1.01-2.59Z"/>
        <path d="M312.51,272.17c1.97,0,3.38,1.34,3.38,3.25,0,1.3-.69,2.48-1.83,3.17-.8.48-1.78.71-2.88.71-1.78,0-2.82-.71-2.82-1.93,0-1.11.92-1.89,2.24-1.89,1.19,0,2.04.6,2.62,1.83.71-.52,1.01-1.06,1.01-1.82,0-1.2-.85-1.99-2.2-1.99s-2.84.69-4.06,1.91c-.22.22-.43.46-.69.78-.1.14-.17.2-.25.2-.25,0-1.25-.98-1.25-1.23,0-.13.06-.2.36-.42.32-.25.78-.66,1.37-1.22,1.36-1.29,2.35-2.37,3.82-4.16-1.75.22-2.93.42-3.36.57-.07.01-.11.03-.15.03-.11,0-.18-.07-.27-.28-.17-.42-.25-.88-.29-1.5.38.06.64.07.95.07.67,0,1.81-.1,3.28-.27.52-.06.69-.1,1.08-.25.13-.06.2-.07.28-.07.2,0,.39.17.76.73.27.36.35.55.35.66,0,.18-.04.24-.35.43-.25.15-.41.28-.73.59-.7.67-.71.67-1.58,1.55-.62.63-.69.7-1.25,1.26.91-.5,1.62-.71,2.47-.71ZM311.16,277.02c-.21-.14-.45-.21-.71-.21-.43,0-.71.21-.71.55,0,.41.43.66,1.11.66.31,0,.57-.03.92-.13-.17-.46-.31-.67-.6-.87Z"/>
      </g>
      <g>
        <path d="M87.29,20.72h4.17c.73,0,1.41-.03,1.93-.09v1.74c-.6-.08-1.2-.11-1.92-.11h-9.15c-.67,0-1.33.03-1.98.11v-1.74c.56.06,1.17.09,1.98.09h3.29v-9.3c0-.66-.03-1.08-.09-1.67h1.86c-.06.54-.09,1.02-.09,1.67v2.46h3.39c.63,0,1.17-.03,1.68-.09v1.72c-.54-.06-1.08-.09-1.68-.09h-3.39v5.29Z"/>
        <path d="M102.53,18.39c-.57.51-.92.75-1.75,1.23-.18-.32-.24-.42-.56-.77-.9.54-1.47.84-2.86,1.52-.02.01-.09.04-.2.1l-.13.08-.36-1.68c.38-.09.88-.27,1.62-.58v-3.79h-.42c-.42,0-.74.01-1.11.08v-1.53c.33.04.66.06,1.12.06h.41v-1.78c0-.75-.03-1.19-.09-1.61h1.68c-.08.46-.09.86-.09,1.61v1.78h.27c.46,0,.74-.01,1-.04v1.49c-.31-.03-.6-.04-1-.04h-.27v3.09c.33-.18.5-.27.97-.54v1c.78-.48,1.28-.92,1.71-1.47h-.33c-.6,0-1,.03-1.32.08v-1.44c.31.06.67.08,1.33.08h6.3c.69,0,1.14-.03,1.5-.08v1.42c-.44-.04-.84-.06-1.49-.06h-4.41c-.12.21-.19.33-.39.6h4.58c.7,0,.96-.01,1.41-.04-.03.24-.04.45-.06.86-.08,1.77-.29,3.25-.58,3.9-.3.66-.76.85-2.03.85-.36,0-.63-.01-1.21-.04-.06-.52-.17-.92-.39-1.32-.76.67-1.38,1.08-2.37,1.58-.33-.47-.55-.72-1.04-1.1,1.25-.54,1.86-.9,2.62-1.54.58-.51,1.05-1.11,1.49-1.92h-.86c-.9,1.35-2.13,2.31-4,3.15-.24-.45-.45-.69-.9-1.08,1.63-.63,2.58-1.2,3.33-2.07h-1.12ZM102.97,14.67c-.58,0-1.02.02-1.32.04.05-.4.06-.79.06-1.38v-2.1c0-.6-.01-.87-.06-1.3.45.06.77.07,1.46.07h4.2c.75,0,1.09-.01,1.54-.07-.04.38-.06.69-.06,1.42v2c0,.61.01,1.06.06,1.35-.34-.01-.71-.03-1.3-.03h-4.58ZM103.19,11.88h4.08v-.61h-4.08v.61ZM103.19,13.52h4.08v-.58h-4.08v.58ZM107.57,18.39c-.55,1.2-1.12,2.01-2.01,2.82.62.09,1.07.12,1.49.12.52,0,.67-.15.81-.77.11-.51.18-1.14.25-2.17h-.54Z"/>
        <path d="M120.65,9.69c.62.96,1.33,1.71,2.45,2.56,1.11.84,2.31,1.52,3.63,2.06-.33.46-.54.88-.79,1.59-1.23-.56-2.54-1.35-3.54-2.18-1.14-.91-1.74-1.53-2.54-2.58-.78,1.06-1.33,1.63-2.37,2.52-1.11.95-2.29,1.72-3.58,2.35-.25-.66-.42-.97-.81-1.53,1.25-.54,2.45-1.28,3.54-2.19,1-.81,1.74-1.63,2.36-2.61h1.66ZM120.97,20.85h3.58c.79,0,1.37-.03,1.81-.09v1.71c-.46-.06-1.05-.09-1.81-.09h-9.36c-.81,0-1.4.03-1.86.09v-1.71c.39.06.93.09,1.71.09h.65v-3.45c0-.68-.02-1.12-.08-1.65h1.75c-.06.43-.09.93-.09,1.65v3.45h2.08v-5.86c0-.72-.02-1.11-.09-1.61h1.79c-.06.44-.09.84-.09,1.56v1.42h2.38c.67,0,1.17-.03,1.58-.08v1.68c-.45-.06-.88-.08-1.56-.08h-2.4v2.96Z"/>
        <path d="M131.86,15.33c-.68,0-.99.01-1.47.06v-1.36c.41.04.77.06,1.47.06h1.75c-.24-.54-.38-.79-.54-1.08h-1.54c-.69,0-1.26.03-1.71.08v-1.44c.45.06.9.09,1.63.09h.46c-.27-.5-.45-.74-.97-1.33l1.44-.54c.48.66.67.99,1.11,1.88h.81v-1c0-.44-.03-.84-.08-1.12h1.56c-.03.27-.04.58-.04,1.06v1.07h1.06v-1.07c0-.45-.01-.76-.06-1.06h1.57c-.04.27-.07.67-.07,1.12v1h.9c.5-.69.78-1.21,1.04-1.91l1.47.54c-.31.54-.58.96-.88,1.37h.41c.75,0,1.2-.03,1.63-.09v1.44c-.45-.04-1.02-.08-1.71-.08h-1.46c-.24.54-.34.77-.52,1.08h1.66c.71,0,1.07-.01,1.49-.06v1.36c-.46-.04-.79-.06-1.49-.06h-3.76v.69h3.03c.63,0,1.08-.01,1.47-.06v1.26c-.38-.04-.84-.06-1.47-.06h-3.03v.72h4.04c.81,0,1.32-.03,1.72-.09v1.44c-.52-.06-1.05-.09-1.71-.09h-2.89c.48.42,1.14.79,1.95,1.16.92.38,1.69.6,3,.83-.4.54-.58.85-.82,1.47-2.42-.66-4.05-1.53-5.33-2.87.03.51.03.69.03,1.02v.72c0,.62.03,1.05.09,1.46h-1.7c.06-.42.09-.88.09-1.47v-.69c0-.33,0-.45.03-.99-.66.71-1.18,1.11-2.07,1.59-.92.51-1.82.89-2.94,1.22-.21-.5-.5-.93-.87-1.4,2.08-.43,3.54-1.06,4.71-2.04h-2.67c-.71,0-1.21.03-1.75.09v-1.44c.45.06.95.09,1.74.09h3.81v-.72h-2.85c-.63,0-1.09.01-1.47.06v-1.26c.39.04.82.06,1.47.06h2.85v-.69h-3.61ZM137.51,14.09c.21-.39.34-.69.48-1.08h-3.29c.2.42.3.69.43,1.08h2.37Z"/>
      </g>
      <g>
        <path d="M229.07,13.07c-.75,0-1.11.01-1.46.06v-1.56c.39.06.72.08,1.46.08h2.54v-.45c0-.67-.03-1.08-.11-1.61h1.72c-.06.41-.06.69-.06,1.67v3.9c0,.48-.03,1.2-.08,1.62l.84-.25v1.46c-.33.11-.58.18-.75.23s-.21.06-.27.07c-.41,2.06-1.41,3.29-3.88,4.71-.32-.51-.63-.92-1.09-1.38,1.08-.52,1.62-.87,2.2-1.38.5-.45.78-.87,1.02-1.47q-.84.21-1.65.41c-1.39.34-1.6.4-1.92.51l-.33-1.67c.21-.01.56-.04.83-.08,1.05-.17,2-.34,2.82-.54.36-.09.54-.13.57-.15.08-.72.09-.83.11-1.29h-2.14c-.72,0-1.07.01-1.47.06v-1.48c.35.04.69.06,1.47.06h2.17v-1.51h-2.54ZM236.27,21.05c0,.95.02,1.3.08,1.79h-1.71c.06-.48.09-.84.09-1.79v-9.71c0-.9-.01-1.23-.09-1.75h1.71c-.06.45-.08.87-.08,1.75v.33h2.57c.76,0,1.08-.01,1.47-.08v1.56c-.34-.04-.75-.06-1.47-.06h-2.57v1.73h2.28c.76,0,1.12-.02,1.47-.06v1.52c-.39-.04-.76-.06-1.47-.06h-2.28v1.91h2.7c.75,0,1.12-.02,1.5-.08v1.59c-.42-.06-.81-.08-1.5-.08h-2.7v1.49Z"/>
        <path d="M250.91,20.72h4.17c.73,0,1.41-.03,1.93-.09v1.74c-.6-.08-1.2-.11-1.92-.11h-9.15c-.67,0-1.33.03-1.98.11v-1.74c.56.06,1.17.09,1.98.09h3.29v-9.3c0-.66-.03-1.08-.09-1.67h1.86c-.06.54-.09,1.02-.09,1.67v2.46h3.39c.63,0,1.17-.03,1.68-.09v1.72c-.54-.06-1.08-.09-1.68-.09h-3.39v5.29Z"/>
        <path d="M266.15,18.39c-.57.51-.92.75-1.75,1.23-.18-.32-.24-.42-.56-.77-.9.54-1.47.84-2.86,1.52-.02.01-.09.04-.2.1l-.13.08-.36-1.68c.38-.09.88-.27,1.62-.58v-3.79h-.42c-.42,0-.74.01-1.11.08v-1.53c.33.04.66.06,1.12.06h.41v-1.78c0-.75-.03-1.19-.09-1.61h1.68c-.08.46-.09.86-.09,1.61v1.78h.27c.46,0,.74-.01,1-.04v1.49c-.31-.03-.6-.04-1-.04h-.27v3.09c.33-.18.5-.27.97-.54v1c.78-.48,1.28-.92,1.71-1.47h-.33c-.6,0-1,.03-1.32.08v-1.44c.31.06.67.08,1.33.08h6.3c.69,0,1.14-.03,1.5-.08v1.42c-.44-.04-.84-.06-1.49-.06h-4.41c-.12.21-.19.33-.39.6h4.58c.7,0,.96-.01,1.41-.04-.03.24-.04.45-.06.86-.08,1.77-.29,3.25-.58,3.9-.3.66-.76.85-2.03.85-.36,0-.63-.01-1.21-.04-.06-.52-.17-.92-.39-1.32-.76.67-1.38,1.08-2.37,1.58-.33-.47-.55-.72-1.04-1.1,1.25-.54,1.86-.9,2.62-1.54.58-.51,1.05-1.11,1.49-1.92h-.86c-.9,1.35-2.13,2.31-4,3.15-.24-.45-.45-.69-.9-1.08,1.63-.63,2.58-1.2,3.33-2.07h-1.12ZM266.59,14.67c-.58,0-1.02.02-1.32.04.05-.4.06-.79.06-1.38v-2.1c0-.6-.01-.87-.06-1.3.45.06.77.07,1.46.07h4.2c.75,0,1.09-.01,1.54-.07-.04.38-.06.69-.06,1.42v2c0,.61.01,1.06.06,1.35-.34-.01-.71-.03-1.3-.03h-4.58ZM266.81,11.88h4.08v-.61h-4.08v.61ZM266.81,13.52h4.08v-.58h-4.08v.58ZM271.19,18.39c-.55,1.2-1.12,2.01-2.01,2.82.62.09,1.07.12,1.49.12.52,0,.67-.15.81-.77.11-.51.18-1.14.25-2.17h-.54Z"/>
        <path d="M284.27,9.69c.62.96,1.33,1.71,2.45,2.56,1.11.84,2.31,1.52,3.63,2.06-.33.46-.54.88-.79,1.59-1.23-.56-2.54-1.35-3.54-2.18-1.14-.91-1.74-1.53-2.54-2.58-.78,1.06-1.33,1.63-2.37,2.52-1.11.95-2.29,1.72-3.58,2.35-.25-.66-.42-.97-.81-1.53,1.25-.54,2.45-1.28,3.54-2.19,1-.81,1.74-1.63,2.36-2.61h1.66ZM284.59,20.85h3.58c.79,0,1.37-.03,1.81-.09v1.71c-.46-.06-1.05-.09-1.81-.09h-9.36c-.81,0-1.4.03-1.86.09v-1.71c.39.06.93.09,1.71.09h.65v-3.45c0-.68-.02-1.12-.08-1.65h1.75c-.06.43-.09.93-.09,1.65v3.45h2.08v-5.86c0-.72-.02-1.11-.09-1.61h1.79c-.06.44-.09.84-.09,1.56v1.42h2.38c.67,0,1.17-.03,1.58-.08v1.68c-.45-.06-.88-.08-1.56-.08h-2.4v2.96Z"/>
        <path d="M295.48,15.33c-.68,0-.99.01-1.47.06v-1.36c.41.04.77.06,1.47.06h1.75c-.24-.54-.38-.79-.54-1.08h-1.54c-.69,0-1.26.03-1.71.08v-1.44c.45.06.9.09,1.63.09h.46c-.27-.5-.45-.74-.97-1.33l1.44-.54c.48.66.67.99,1.11,1.88h.81v-1c0-.44-.03-.84-.08-1.12h1.56c-.03.27-.04.58-.04,1.06v1.07h1.06v-1.07c0-.45-.01-.76-.06-1.06h1.57c-.04.27-.07.67-.07,1.12v1h.9c.5-.69.78-1.21,1.04-1.91l1.47.54c-.31.54-.58.96-.88,1.37h.41c.75,0,1.2-.03,1.63-.09v1.44c-.45-.04-1.02-.08-1.71-.08h-1.46c-.24.54-.34.77-.52,1.08h1.66c.71,0,1.07-.01,1.49-.06v1.36c-.46-.04-.79-.06-1.49-.06h-3.76v.69h3.03c.63,0,1.08-.01,1.47-.06v1.26c-.38-.04-.84-.06-1.47-.06h-3.03v.72h4.04c.81,0,1.32-.03,1.72-.09v1.44c-.52-.06-1.05-.09-1.71-.09h-2.89c.48.42,1.14.79,1.95,1.16.92.38,1.69.6,3,.83-.4.54-.58.85-.82,1.47-2.42-.66-4.05-1.53-5.33-2.87.03.51.03.69.03,1.02v.72c0,.62.03,1.05.09,1.46h-1.7c.06-.42.09-.88.09-1.47v-.69c0-.33,0-.45.03-.99-.66.71-1.18,1.11-2.07,1.59-.92.51-1.82.89-2.94,1.22-.21-.5-.5-.93-.87-1.4,2.08-.43,3.54-1.06,4.71-2.04h-2.67c-.71,0-1.21.03-1.75.09v-1.44c.45.06.95.09,1.74.09h3.81v-.72h-2.85c-.63,0-1.09.01-1.47.06v-1.26c.39.04.82.06,1.47.06h2.85v-.69h-3.61ZM301.13,14.09c.21-.39.34-.69.48-1.08h-3.29c.2.42.3.69.43,1.08h2.37Z"/>
      </g>
    </g>
  </g>
</svg>