<?xml version="1.0" encoding="UTF-8"?>
<svg id="_レイヤー_2" data-name="レイヤー 2" xmlns="http://www.w3.org/2000/svg" width="338.54" height="290.1" viewBox="0 0 338.54 290.1">
  <defs>
    <style>
      .cls-1 {
        fill: #211815;
      }

      .cls-2 {
        fill: #f5f19b;
      }

      .cls-3 {
        fill: #ecbb6e;
      }

      .cls-4 {
        fill: #93c9ce;
      }

      .cls-5 {
        fill: #5c948d;
      }

      .cls-6, .cls-7 {
        fill: #fff;
      }

      .cls-8 {
        fill: #d3f2c9;
      }

      .cls-9 {
        fill: #fffb9f;
      }

      .cls-10 {
        fill: #ceeaeb;
      }

      .cls-11 {
        fill: #f2d496;
      }

      .cls-7 {
        stroke: #ceeaeb;
        stroke-miterlimit: 10;
        stroke-width: 2.83px;
      }
    </style>
  </defs>
  <g id="_レイヤー_1-2" data-name="レイヤー 1">
    <g>
      <path class="cls-7" d="M12.52,127.13h239.38c4.68,0,8.47,3.79,8.47,8.47v118.37s9.69,9.69,9.69,9.69h-9.69s0,.5,0,.5c0,4.68-3.79,8.47-8.47,8.47H12.52c-4.68,0-8.47-3.79-8.47-8.47v-128.55c0-4.68,3.79-8.47,8.47-8.47Z"/>
      <circle class="cls-8" cx="308.54" cy="260.1" r="30"/>
      <g>
        <path d="M19.27,146.45c-.75,0-1.11.02-1.46.06v-1.56c.39.06.72.07,1.46.07h2.54v-.45c0-.68-.03-1.08-.11-1.61h1.72c-.06.41-.06.69-.06,1.67v3.9c0,.48-.03,1.2-.08,1.62l.84-.25v1.46c-.33.1-.58.18-.75.22s-.21.06-.27.08c-.41,2.05-1.41,3.29-3.88,4.71-.32-.51-.63-.92-1.09-1.38,1.08-.53,1.62-.87,2.2-1.38.5-.45.78-.87,1.02-1.47q-.84.21-1.65.4c-1.39.35-1.6.41-1.92.51l-.33-1.67c.21-.02.56-.04.83-.08,1.05-.17,2-.34,2.82-.54.36-.09.54-.13.57-.15.08-.72.09-.82.11-1.29h-2.14c-.72,0-1.07.02-1.47.06v-1.49c.35.04.69.06,1.47.06h2.17v-1.52h-2.54ZM26.47,154.43c0,.94.02,1.3.08,1.78h-1.71c.06-.48.09-.84.09-1.78v-9.71c0-.9-.01-1.23-.09-1.75h1.71c-.06.45-.08.87-.08,1.75v.33h2.57c.76,0,1.08-.01,1.47-.08v1.56c-.34-.04-.75-.06-1.47-.06h-2.57v1.72h2.28c.76,0,1.12-.01,1.47-.06v1.51c-.39-.04-.76-.06-1.47-.06h-2.28v1.91h2.7c.75,0,1.12-.02,1.5-.08v1.59c-.42-.06-.81-.08-1.5-.08h-2.7v1.49Z"/>
        <path d="M39.07,154.1h4.17c.73,0,1.41-.03,1.93-.09v1.74c-.6-.08-1.2-.1-1.92-.1h-9.15c-.67,0-1.33.03-1.98.1v-1.74c.56.06,1.17.09,1.98.09h3.29v-9.3c0-.66-.03-1.08-.09-1.67h1.86c-.06.54-.09,1.02-.09,1.67v2.46h3.39c.63,0,1.17-.03,1.68-.09v1.72c-.54-.06-1.08-.09-1.68-.09h-3.39v5.29Z"/>
        <path d="M52.27,151.78c-.57.51-.92.75-1.75,1.23-.18-.31-.24-.42-.56-.76-.9.54-1.47.84-2.86,1.51-.02.02-.09.05-.2.11l-.13.08-.36-1.68c.38-.09.88-.27,1.62-.58v-3.79h-.42c-.42,0-.74.01-1.11.07v-1.53c.33.04.66.06,1.12.06h.41v-1.79c0-.75-.03-1.18-.09-1.6h1.68c-.08.46-.09.85-.09,1.6v1.79h.27c.46,0,.74-.01,1-.04v1.49c-.31-.03-.6-.04-1-.04h-.27v3.09c.33-.18.5-.27.97-.54v1c.78-.48,1.28-.92,1.71-1.47h-.33c-.6,0-1,.03-1.32.07v-1.44c.31.06.67.08,1.33.08h6.3c.69,0,1.14-.03,1.5-.08v1.42c-.44-.04-.84-.06-1.49-.06h-4.41c-.12.21-.19.33-.39.6h4.58c.7,0,.96-.01,1.41-.04-.03.24-.04.45-.06.85-.08,1.77-.29,3.25-.58,3.9-.3.66-.76.85-2.03.85-.36,0-.63-.01-1.21-.04-.06-.52-.17-.92-.39-1.32-.76.67-1.38,1.08-2.37,1.57-.33-.46-.55-.72-1.04-1.09,1.25-.54,1.86-.9,2.62-1.54.58-.51,1.05-1.11,1.49-1.92h-.86c-.9,1.35-2.13,2.31-4,3.15-.24-.45-.45-.69-.9-1.08,1.63-.63,2.58-1.2,3.33-2.07h-1.12ZM52.71,148.06c-.58,0-1.02.01-1.32.04.05-.41.06-.79.06-1.38v-2.1c0-.6-.01-.87-.06-1.31.45.06.77.08,1.46.08h4.2c.75,0,1.09-.01,1.54-.08-.04.38-.06.69-.06,1.42v2c0,.62.02,1.07.06,1.35-.34-.02-.71-.03-1.3-.03h-4.58ZM52.93,145.27h4.08v-.62h-4.08v.62ZM52.93,146.9h4.08v-.58h-4.08v.58ZM57.31,151.78c-.55,1.2-1.12,2.01-2.01,2.82.62.09,1.07.12,1.49.12.52,0,.67-.15.81-.76.11-.51.18-1.14.25-2.17h-.54Z"/>
        <path d="M66.78,152.59c-.72,1.25-1.71,1.94-2.73,1.94-1.56,0-2.67-1.53-2.67-3.66,0-2.37,1.2-4.41,3.25-5.49,1-.54,2.08-.78,3.51-.78,3.14,0,5.46,2.22,5.46,5.19,0,2.62-1.29,4.51-3.78,5.58-.5.21-.89.33-1.08.33-.18,0-.25-.06-.45-.34-.25-.39-.54-.68-.95-.95,3.09-.79,4.49-2.25,4.49-4.68,0-1.25-.53-2.29-1.46-2.96-.53-.36-.95-.51-1.77-.64-.42,3.16-.92,4.89-1.83,6.46ZM64.62,147.28c-1,.88-1.58,2.15-1.58,3.55,0,1.16.38,1.83,1,1.83.75,0,1.52-1.04,2.08-2.82.36-1.12.54-1.98.77-3.65-1.07.23-1.59.48-2.28,1.08Z"/>
        <path d="M84.85,148.54h2.13c.68,0,1.1-.03,1.54-.09v1.63c-.48-.04-.93-.07-1.56-.07h-1.62c.86,1.5,2.1,2.74,3.58,3.58-.48.48-.69.78-.99,1.5-.61-.43-1.05-.85-1.62-1.5-.74-.86-1.05-1.32-1.53-2.22.03.54.04,1,.04,1.44v1.81c0,.67.03,1.2.09,1.67h-1.67c.06-.46.09-1,.09-1.68v-1.71c0-.41.02-.88.04-1.49-.91,1.65-1.93,2.76-3.39,3.74-.38-.71-.58-1-.9-1.37,1.54-.88,2.8-2.17,3.67-3.78h-.95c-.64,0-1.11.03-1.58.09v-.6c-.25.36-.43.69-.61,1.22-.38-.59-.6-1.05-.89-1.8.03.47.06,1.28.06,1.91v3.69c0,.77.03,1.32.09,1.77h-1.67c.06-.46.09-1.02.09-1.77v-3.1c0-.57.02-.93.11-1.86-.44,1.46-.87,2.43-1.52,3.41-.18-.67-.37-1.11-.67-1.6.72-.92,1.47-2.61,1.92-4.35h-.57c-.44,0-.69.02-.96.06v-1.53c.24.04.51.06.96.06h.72v-1.16c0-.76-.01-1.14-.08-1.5h1.65c-.06.39-.08.79-.08,1.5v1.16h.43c.36,0,.54-.02.78-.06v1.42c.57-1.02,1.05-2.52,1.09-3.49l1.46.38c-.06.17-.1.34-.21.79-.08.27-.1.4-.18.69h1.15v-.99c0-.61-.03-.99-.09-1.36h1.68c-.06.36-.09.76-.09,1.36v.99h1.7c.72,0,1.14-.03,1.54-.09v1.58c-.42-.04-.9-.08-1.54-.08h-1.7v1.81ZM81.72,146.72c-.25.62-.39.9-.81,1.6q-.36-.38-1.17-.94c.12-.17.17-.24.24-.35-.2-.03-.44-.04-.71-.04h-.38c.34.79.71,1.4,1.36,2.28v-.83c.45.06.87.09,1.56.09h1.53v-1.81h-1.63Z"/>
        <path d="M93.88,152.15c.04.06.06.11.06.17q0,.09-.25.78c-.32.92-.51,1.67-.57,2.25-.01.19-.08.27-.27.31-.21.06-.61.09-1,.09-.15,0-.22-.03-.27-.12-.13-.28-.38-1.32-.5-2.16-.1-.71-.15-1.44-.15-2.21,0-1.73.2-3.36.74-6.3.09-.48.12-.71.17-1.17.69.09,1.17.22,1.6.43.23.12.32.23.32.36,0,.09-.03.17-.11.29-.61,1.05-1.18,4.29-1.18,6.69,0,.36.01.93.06,1.65.36-.93.52-1.35.85-2.07.11.41.21.6.51,1ZM96.4,148.21c-.72,0-.87-.03-.92-.19-.04-.13-.09-.62-.09-.96,0-.12,0-.24.01-.51.41.03.64.04,1.14.04.81,0,1.32-.02,2.1-.08-.02-1.91-.03-2.15-.18-2.85.74.01,1.29.07,1.77.19.22.06.31.14.31.29,0,.06-.01.11-.06.22-.15.35-.23.93-.25,1.98.55-.08,1.03-.18,1.93-.39.08-.03.1-.03.15-.03.09,0,.13.04.17.15.03.14.07.71.07,1.02,0,.38-.01.43-.17.5-.24.12-.9.22-2.17.39,0,1.04.09,2.75.2,3.72.95.41,1.59.75,2.25,1.21.42.3.51.41.51.51,0,.17-.27.67-.58,1.11-.18.25-.27.33-.38.33s-.1,0-.45-.33c-.33-.33-.67-.58-1.33-1.02v.12c0,1.32-1.09,2.19-2.76,2.19s-2.8-.9-2.8-2.25,1.14-2.35,2.66-2.35c.55,0,.84.01,1.24.08q-.06-1.17-.1-3.18c-.65.04-1.67.09-2.26.09ZM97.63,152.62c-.75,0-1.25.34-1.25.87,0,.48.46.78,1.19.78.79,0,1.21-.36,1.21-1.05,0-.21-.02-.38-.02-.38-.39-.15-.73-.23-1.14-.23Z"/>
        <path d="M104.7,152.41c.27-.24.34-.3.45-.3.19,0,1.09.66,1.75,1.29.75.69,1.59,1.69,1.59,1.9,0,.14-.03.17-.46.56-.57.52-.69.62-.79.62-.09,0-.18-.06-.25-.21-.53-.93-1.73-2.16-2.79-2.85-.12-.09-.18-.15-.18-.24,0-.1.03-.15.69-.76Z"/>
        <path d="M121.74,147.67c-.96.6-1.29.78-2.31,1.24-.25-.58-.48-.97-.84-1.48,1.53-.6,2.54-1.16,3.62-2,.96-.74,1.68-1.51,2.28-2.43h1.7c.76,1.06,1.35,1.63,2.45,2.4,1.21.87,2.4,1.49,3.7,1.95-.4.62-.6,1.02-.81,1.62-.9-.39-1.46-.69-2.45-1.32v1.12c-.39-.04-.75-.06-1.29-.06h-4.82c-.41,0-.84.01-1.23.06v-1.11ZM120.94,151.37c-.75,0-1.23.03-1.7.09v-1.66c.45.04,1.02.07,1.7.07h8.95c.72,0,1.21-.03,1.7-.07v1.66c-.48-.06-.96-.09-1.7-.09h-4.93c-.48,1.1-.93,1.94-1.5,2.79q2.49-.13,4.56-.36c-.46-.51-.72-.78-1.51-1.59l1.42-.63c1.54,1.56,2.17,2.29,3.33,3.83l-1.4.92c-.4-.62-.52-.79-.85-1.25-1.2.15-2.05.25-2.59.3-1.5.15-4.23.41-4.84.45-.81.04-1.53.12-1.86.2l-.22-1.75c.43.03.62.04.81.04.12,0,.56-.02,1.29-.06.71-1.08,1.16-1.93,1.53-2.88h-2.17ZM127.77,147.22c.2,0,.33,0,.63-.02-1.3-.87-2.14-1.65-3.01-2.8-.75,1.02-1.62,1.84-2.98,2.8.24.02.36.02.58.02h4.78Z"/>
        <path d="M136.93,154.78c0,.67.02,1.05.09,1.47h-1.74c.06-.43.09-.83.09-1.5v-3.61c-.58.52-.88.75-1.61,1.23-.18-.55-.43-1.08-.73-1.5,1-.58,1.7-1.12,2.47-1.95.67-.71,1.09-1.3,1.56-2.22h-2.34c-.51,0-.86.02-1.2.06v-1.61c.38.04.66.06,1.12.06h.73v-1.2c0-.39-.03-.76-.09-1.09h1.72c-.06.31-.07.66-.07,1.11v1.19h.6c.43,0,.6-.02.83-.04l.69.75c-.12.19-.21.37-.31.61-.48,1.05-.74,1.49-1.44,2.46.67.77,1.33,1.29,2.28,1.82-.33.46-.54.85-.78,1.42-.76-.48-1.21-.88-1.88-1.62v4.17ZM143.05,154.09h1.72c.72,0,1.21-.03,1.65-.07v1.72c-.51-.06-1.07-.09-1.65-.09h-4.92c-.6,0-1.12.03-1.62.09v-1.72c.45.04.96.07,1.63.07h1.57v-5.62h-1.08c-.48,0-.96.03-1.41.07v-1.63c.41.06.81.08,1.41.08h1.08v-2.54c0-.6-.03-.94-.09-1.5h1.79c-.08.57-.09.86-.09,1.5v2.54h1.51c.66,0,1.04-.01,1.42-.08v1.63c-.46-.04-.92-.07-1.42-.07h-1.51v5.62Z"/>
        <path d="M153.54,152.59c-.72,1.25-1.71,1.94-2.73,1.94-1.56,0-2.67-1.53-2.67-3.66,0-2.37,1.2-4.41,3.25-5.49,1-.54,2.08-.78,3.51-.78,3.14,0,5.46,2.22,5.46,5.19,0,2.62-1.29,4.51-3.78,5.58-.5.21-.89.33-1.08.33-.18,0-.25-.06-.45-.34-.25-.39-.54-.68-.95-.95,3.09-.79,4.49-2.25,4.49-4.68,0-1.25-.53-2.29-1.46-2.96-.53-.36-.95-.51-1.77-.64-.42,3.16-.92,4.89-1.83,6.46ZM151.38,147.28c-1,.88-1.58,2.15-1.58,3.55,0,1.16.38,1.83,1,1.83.75,0,1.52-1.04,2.08-2.82.36-1.12.54-1.98.77-3.65-1.07.23-1.59.48-2.28,1.08Z"/>
        <path d="M166.42,147.31q-.08.2-.3,1.26c-.45,2.12-.79,3.18-1.49,4.42-.42.78-1,1.58-1.69,2.34-.41-.62-.65-.92-1.08-1.32.71-.65,1.33-1.49,1.79-2.42.52-1.05.85-2.12,1.09-3.53h-1.37c-.51,0-.79.02-1.11.06v-1.5c.32.04.62.06,1.2.06h1.37c.41,0,.71-.03.95-.08l.64.69ZM171.27,148.99c-.25-.04-.51-.06-.87-.06h-.9v.83h1.08c.46,0,.66-.02.94-.06v1.33c-.29-.04-.48-.06-.94-.06h-1.08v.9h1.63c.46,0,.73-.01.99-.06v1.38c-.33-.04-.65-.06-1.17-.06h-1.46v1.5c0,1.1-.45,1.41-2.04,1.41-.42,0-.58,0-1.5-.03-.11-.76-.17-1-.39-1.51.7.09,1.33.15,1.81.15.54,0,.64-.06.64-.39v-1.12h-1.41c-.51,0-.86.02-1.17.06v-1.38c.3.04.57.06,1,.06h1.57v-.9h-.96c-.43,0-.67.01-.97.06v-1.33c.3.04.54.06.97.06h.96v-.83h-.75c-.34,0-.61.01-.9.06v-1.33c.29.04.55.06.9.06h.75v-.54c0-.45-.01-.69-.04-1.04h.44c.92-.5,1.33-.76,2.02-1.3h-4.5c-.91,0-1.29.01-1.83.09v-1.53c.54.06,1.06.09,1.83.09h4.96c.77,0,1.08-.01,1.47-.08l.84.99c-.18.13-.34.25-.62.48-.71.58-1.96,1.42-3.1,2.07v.77h.9c.34,0,.58-.02.83-.04-.08-.36-.15-.74-.22-1.17l1.42-.41c.08.81.17,1.44.34,2.19.72-.66,1.11-1.09,1.63-1.88l1.11,1.14c-.08.07-.11.09-.21.21-.57.64-1.41,1.5-2.07,2.1.67,1.84,1.26,2.75,2.59,3.99-.48.43-.84.85-1.21,1.42-1.2-1.37-1.75-2.25-2.33-3.67-.33-.79-.64-1.84-.82-2.71-.02-.06-.04-.23-.11-.48-.01-.1-.04-.27-.09-.48v1.06Z"/>
        <path d="M176.62,145.37c.3.06.62.07,1.16.07h2.76c.6,0,.84-.01,1.15-.06v1.47c-.38-.04-.52-.04-1.09-.04h-2.82c-.5,0-.78.01-1.16.06v-1.5ZM177.1,143.36c.36.04.6.06,1.17.06h1.91c.57,0,.81-.02,1.17-.06v1.41c-.36-.03-.66-.04-1.17-.04h-1.91c-.52,0-.84.01-1.17.04v-1.41ZM181.29,154.91c0,.55.01.86.04,1.12h-1.37v-.51h-1.42v.71h-1.44c.05-.46.08-.96.08-1.4v-2.14c0-.45-.01-.67-.06-1.12.36.03.6.04,1.12.04h2.11c.51,0,.74-.01.96-.04-.01.22-.03.51-.03,1.05v1.79c.55-1.05.75-1.79.9-3.33l1.23.29c-.23,1.8-.39,2.5-.96,3.94l-1.17-.69v.3ZM177.15,147.53c.28.03.46.04.91.04h2.36c.48,0,.66-.01.88-.04v1.35c-.29-.03-.46-.04-.88-.04h-2.36c-.45,0-.67.01-.91.04v-1.35ZM177.15,149.54c.28.03.46.05.91.05h2.36c.46,0,.66-.02.88-.05v1.35c-.27-.03-.46-.04-.92-.04h-2.34c-.43,0-.57,0-.9.04v-1.35ZM178.51,154.27h1.46v-1.44h-1.46v1.44ZM182.55,145.49c.81.27,1.09.38,1.65.6.14-.45.17-.66.23-1.17h-.95c-.75,0-1.11.01-1.54.08v-1.53c.41.06.99.09,1.58.09h4.57c.59,0,1.04-.01,1.37-.06-.04.24-.04.28-.09,1.24-.08,1.41-.24,2.93-.39,3.6-.27,1.14-.66,1.44-1.88,1.44-.34,0-.75-.01-1.11-.04-.09-.62-.15-.88-.36-1.44h.07c-.38-.23-.46-.29-.79-.48-.67,1.08-1.39,1.77-2.65,2.52-.33-.5-.54-.75-1-1.14,1.18-.57,1.86-1.12,2.43-2-.6-.27-.88-.38-1.71-.66l.58-1.05ZM185.07,154.25c0,.35.08.39.62.39.83,0,1-.04,1.11-.25.09-.2.15-.79.17-1.58.48.22.82.34,1.33.43-.08,1.08-.18,1.67-.36,2.05-.27.56-.72.71-2.16.71-1.74,0-2.1-.18-2.1-1.08v-2.95c0-.38-.02-.69-.08-1.07h1.53c-.04.29-.06.48-.06.92v2.43ZM185.19,149.14c1.33,1.04,1.38,1.08,2.24,2.01l-1.08.93c-.65-.88-1.23-1.46-2.17-2.13l1.02-.81ZM185.86,144.92c-.1.79-.18,1.12-.4,1.74.48.24.63.33,1.21.65l-.65,1.06c.25.05.56.06.81.06.43,0,.57-.12.71-.62.15-.54.24-1.41.28-2.89h-1.96ZM188.68,150.95c.67,1.09,1.06,1.94,1.59,3.36l-1.23.73c-.45-1.59-.73-2.22-1.51-3.46l1.16-.63Z"/>
        <path d="M192.51,148.87c-.12.03-.18.06-.27.11-.08.04-.12.06-.18.06-.33,0-.57-.57-.75-1.68h.29c.63,0,2.24-.2,3.2-.39.31-1.31.48-2.31.48-3.02,0-.06,0-.15-.01-.25.64.06,1.26.2,1.68.38.24.09.36.21.36.36,0,.08-.02.13-.09.25q-.23.39-.69,2.04c.36-.04.76-.08,1.02-.08.62,0,1.1.12,1.44.36.6.43.9,1.32.9,2.68,0,2.24-.41,4.16-1.1,5.1-.48.66-1.11.98-2,.98-.54,0-1.05-.08-1.2-.17q-.12-.08-.17-.63c-.04-.41-.13-.77-.32-1.19.78.27.98.32,1.46.32.72,0,1.02-.35,1.35-1.56.23-.79.35-1.81.35-2.92,0-1.17-.29-1.59-1.08-1.59-.27,0-.71.04-1.05.09-.04.18-.06.2-.12.39-.42,1.54-1.19,3.55-1.95,5.17-.79,1.63-.99,1.96-1.18,1.96-.12,0-.53-.21-.96-.5-.35-.21-.44-.3-.44-.42q0-.08.62-1.05c.83-1.28,1.91-3.77,2.28-5.25-1.11.25-1.73.39-1.86.43ZM201.93,145.79c-.24.18-.41.25-.48.25-.04,0-.09-.03-.13-.11-.32-.51-.84-1.09-1.28-1.47-.03-.03-.04-.06-.04-.09,0-.06.11-.17.36-.36.25-.18.33-.22.43-.22.24,0,1.56,1.33,1.56,1.58,0,.09-.12.19-.42.42ZM200.34,147.38c0-.11.13-.24.57-.58.3-.23.45-.32.57-.32.2,0,.87.72,1.5,1.61.52.75,1.09,1.81,1.09,2.07,0,.15-.04.2-.52.58-.3.24-.65.44-.77.44-.1,0-.15-.04-.25-.3-.29-.72-.54-1.21-.95-1.86-.4-.65-.43-.67-1.15-1.46-.06-.08-.09-.12-.09-.18ZM202.3,142.78c.25,0,1.53,1.28,1.53,1.53,0,.08-.09.17-.39.38-.27.21-.41.29-.46.29q-.08,0-.38-.42c-.25-.34-.74-.86-1-1.08-.04-.04-.08-.08-.08-.12,0-.12.62-.57.78-.57Z"/>
        <path d="M208.24,147.65c-.36,2.42-.63,3.43-1.41,5.46l-1.5-.76c.78-1.77,1.06-2.82,1.38-4.98l1.53.29ZM209.04,154.3c-1.02.72-1.5,1-2.6,1.59-.36-.6-.6-.91-1.09-1.36,1.4-.63,2.45-1.23,3.69-2.16v-4.83c0-.57-.02-.85-.09-1.47h1.74c-.06.44-.09.9-.09,1.42v3.55c1.07-.99,2.22-2.4,3.08-3.76.76-1.21,1.42-2.62,1.62-3.51l1.65.66q-.17.31-.55,1.12c-1.02,2.07-2.17,3.81-3.62,5.46-.66.76-1.25,1.32-2.17,2.08v1c0,.34.38.45,1.74.45,1.27,0,1.77-.11,1.93-.41.21-.36.33-1.26.36-2.71.61.3.94.42,1.51.55-.3,3.76-.53,4-3.9,4-2.62,0-3.21-.29-3.21-1.53v-.17ZM209.88,142.84c1.9.75,2.67,1.12,4.2,2.05l-.96,1.38c-1.09-.81-2.31-1.46-4.21-2.21l.98-1.23ZM216.72,147.52c.94,1.8,1.5,3.12,2.23,5.42l-1.53.81c-.68-2.54-1.08-3.58-2.1-5.54l1.4-.69Z"/>
        <path d="M224.46,150.41c.24-.38.31-.5.52-.92h-2.17c-.73,0-1.26.02-1.67.06.04-.42.06-.76.06-1.4v-.99c0-.65-.02-1.04-.06-1.46.5.04.9.06,1.61.06h1.54v-.92h-2.37c-.67,0-1.21.03-1.67.08v-1.53c.42.06.97.09,1.79.09h9.13c.84,0,1.39-.03,1.78-.09v1.53c-.46-.04-.99-.08-1.66-.08h-2.57v.92h1.67c.75,0,1.17-.01,1.62-.06-.04.38-.06.75-.06,1.44v.99c0,.72,0,1.05.04,1.41-.33-.04-.82-.06-1.63-.06h-3.64c-.3.56-.32.57-.53.92h5.08c.86,0,1.26-.01,1.67-.07v1.5c-.46-.04-.97-.07-1.67-.07h-1.29c-.38.76-.75,1.3-1.3,1.86,1.79.56,2.35.77,3.95,1.41l-1.01,1.32c-.36-.15-.66-.29-.84-.38q-1.21-.56-3.43-1.35c-1.67.96-3.64,1.44-6.48,1.58-.18-.58-.29-.84-.66-1.47h.32c1.99,0,3.52-.23,4.83-.71-1.53-.42-1.72-.46-3.34-.84.66-.58.93-.86,1.41-1.42h-1.53c-.69,0-1.2.03-1.67.07v-1.5c.41.06.86.07,1.67.07h2.57ZM222.73,146.93v1.38h1.56v-1.38h-1.56ZM225.22,151.76c-.21.24-.33.38-.71.75q.51.13,1.65.39c.17.04.36.1.85.24.54-.39.93-.81,1.26-1.38h-3.06ZM225.72,145.78h1.59v-.92h-1.59v.92ZM225.72,148.31h1.59v-1.38h-1.59v1.38ZM228.73,148.31h1.68v-1.38h-1.68v1.38Z"/>
        <path d="M18.58,173.48h-.09c-.08.01-.13.01-.17.01-.13,0-.21-.06-.25-.25-.09-.38-.15-.83-.18-1.41.21.02.38.02.48.02.81,0,1.75-.06,2.55-.17.15-.99.23-1.74.23-2.37v-.34c1.74.24,2.07.33,2.05.6,0,.08-.03.12-.09.25-.18.34-.2.39-.44,1.58.58-.11,1.33-.3,1.64-.41.06-.03.07-.03.12-.03.13,0,.16.06.28.58.06.3.12.72.12.84,0,.1-.04.16-.18.19q-.27.09-2.33.45c-.69,3.06-1.41,5.29-2.56,8-.08.19-.15.27-.24.27-.2,0-.72-.21-1.23-.5-.26-.13-.33-.2-.33-.29,0-.06.04-.17.12-.31,1.14-2.16,1.97-4.46,2.54-6.92-.66.08-1.12.12-2.04.2ZM24.99,179.18c.43.29,1.06.42,1.95.42.97,0,1.81-.09,2.29-.24.12-.03.15-.04.21-.04.13,0,.19.04.24.18.11.31.18.93.18,1.39,0,.2-.06.27-.26.32-.49.1-1.33.17-2.22.17-1.88,0-2.92-.3-3.61-1.02-.25-.27-.46-.6-.58-.97-.09-.22-.15-.48-.15-.57,0-.25.45-.52,1.23-.78.17.63.34.92.72,1.15ZM29.2,174.81c-.3-.04-.93-.08-1.46-.08-1.11,0-1.58.04-2.89.27-.03.02-.08.02-.11.02-.09,0-.13-.03-.17-.12-.04-.11-.1-.84-.1-1.16,0-.19.03-.29.15-.33.06-.03.15-.04.46-.1,1.02-.18,1.88-.25,2.92-.25.87,0,1.32.03,1.43.1.07.06.09.18.09.67,0,.44-.03.83-.06.92-.01.04-.08.08-.15.08-.03,0-.08,0-.12-.01ZM27.55,169.53c.2,0,1.47,1.42,1.47,1.65,0,.06-.1.19-.22.29-.06.04-.15.12-.25.21-.13.12-.18.15-.33.21t-.08.03c-.06,0-.06-.01-.34-.45-.25-.39-.74-.99-.99-1.22-.03-.03-.07-.09-.07-.1.03-.06.04-.09.04-.09.07-.09.33-.3.39-.34.15-.08.24-.14.25-.15.01-.03.03-.03.04-.03h.09ZM30.09,170.58c-.21.15-.36.24-.43.24-.06,0-.09-.03-.17-.15-.33-.54-.65-.93-1.14-1.43-.04-.04-.06-.07-.06-.12,0-.14.57-.56.76-.56.11,0,.29.15.62.5.48.5.83.95.83,1.09,0,.09-.11.2-.41.42Z"/>
        <path d="M35.64,174.02c1.89-.53,3.25-.77,4.27-.77,2.12,0,3.42,1.16,3.42,3.03,0,1.12-.46,2.12-1.35,2.87-.58.49-1.46.92-2.61,1.26-.64.18-1.33.31-1.63.31-.18,0-.27-.04-.33-.19-.21-.53-.45-.9-.76-1.21,3.3-.35,4.98-1.4,4.98-3.11,0-.87-.72-1.54-1.65-1.54-1.62,0-3.39.54-5.25,1.58-.15.08-.24.12-.3.12-.25,0-.67-.75-1.02-1.83.74-.11.99-.17,2.24-.51Z"/>
        <path d="M47.61,173.3h-.09c-.08.02-.14.02-.17.02-.13,0-.21-.06-.25-.25-.09-.38-.15-.84-.18-1.41.21.01.38.01.48.01.81,0,1.75-.06,2.55-.17.15-.99.22-1.75.22-2.37v-.35c1.74.23,2.07.33,2.06.6,0,.07-.03.12-.09.25-.18.34-.19.39-.43,1.57.58-.1,1.33-.3,1.63-.4.06-.03.08-.03.12-.03.13,0,.17.06.29.58.06.3.12.72.12.84,0,.11-.04.17-.18.2q-.27.09-2.32.45c-.69,3.04-1.41,5.29-2.57,7.99-.08.2-.15.27-.24.27-.2,0-.72-.21-1.23-.5-.25-.13-.33-.21-.33-.29,0-.06.04-.17.12-.32,1.14-2.16,1.96-4.45,2.54-6.93-.66.09-1.12.14-2.04.21ZM54.01,179c.44.29,1.07.42,1.95.42.97,0,1.82-.09,2.29-.24.12-.03.15-.04.21-.04.13,0,.2.04.24.18.1.31.18.93.18,1.39,0,.2-.06.27-.25.32-.5.1-1.33.16-2.22.16-1.88,0-2.92-.3-3.62-1.02-.25-.27-.46-.62-.58-.99-.09-.21-.15-.46-.15-.55,0-.25.45-.53,1.23-.78.17.63.34.9.72,1.16ZM58.23,174.63c-.3-.04-.93-.07-1.46-.07-1.11,0-1.57.04-2.89.27-.03.01-.08.01-.1.01-.09,0-.14-.03-.17-.12-.04-.11-.11-.84-.11-1.16,0-.2.03-.29.15-.33.06-.03.15-.04.46-.11,1.02-.18,1.88-.25,2.92-.25.87,0,1.32.03,1.42.11.08.06.09.18.09.67,0,.43-.03.83-.06.92-.02.04-.08.08-.15.08-.03,0-.08,0-.12-.02Z"/>
        <path d="M65.56,174.11q.07-.12.73-1.23c.09.25.18.42.36.66.1.17.15.25.15.34s-.03.17-.39.75c-.25.45-.69,1.38-.87,1.83-.15.42-.21.45-.71.45s-.88-.06-.94-.15c-.09-.12-.15-.93-.15-2.04,0-1.47.11-2.5.5-5.12.04-.3.06-.45.06-.78,1.17.21,1.94.56,1.94.84,0,.08-.02.12-.12.26-.2.28-.32.67-.46,1.47-.18,1-.32,2.32-.32,3.12q.13-.24.23-.41ZM71.01,169.73v.25c.01.06.01.18.03.34q.01.24.04.62,0,.17.03.72c.04.72.07,1.44.07,1.8,0,2.82-.73,5.01-2.29,6.86-.6.71-1.12,1.11-1.42,1.11-.18,0-.19,0-.51-.24-.29-.22-.67-.42-1.06-.52,1.05-.75,1.62-1.28,2.17-2.07.93-1.33,1.38-2.92,1.38-4.86,0-2.05-.14-3.32-.48-4.23.63-.08,1.09-.11,1.53-.11s.51.03.51.29v.04Z"/>
        <path d="M75.78,177.92c.27-.24.34-.3.45-.3.19,0,1.09.66,1.75,1.29.75.69,1.59,1.69,1.59,1.9,0,.14-.03.17-.46.56-.57.52-.69.62-.79.62-.09,0-.18-.06-.25-.21-.53-.93-1.73-2.16-2.79-2.85-.12-.09-.18-.15-.18-.24,0-.1.03-.15.69-.76Z"/>
        <path d="M91.38,175.86c0-.36,0-.51.03-1.59-.34.6-.67,1.05-1.2,1.65-.19-.6-.36-.97-.75-1.69,1.05-1.05,1.94-2.42,2.55-3.98.3-.73.5-1.42.57-1.95l1.62.5c-.12.36-.17.48-.29.81-.33.99-.53,1.46-1,2.38v8.02c0,.66.03,1.2.08,1.74h-1.7c.08-.51.09-.97.09-1.75v-4.14ZM96.19,174.27v5.04c0,.28.07.38.39.45.36.08.79.11,1.77.11,1.68,0,2.29-.06,2.61-.27.17-.1.29-.36.34-.66.04-.29.06-.45.11-1.14.63.25.87.33,1.57.45-.18,1.65-.38,2.22-.82,2.55-.53.41-1.52.53-4.09.53-2.73,0-3.41-.29-3.41-1.44v-5.11l-.29.1c-.42.13-.58.2-.84.32l-.12-1.63c.33-.05.75-.15,1.25-.29v-1.7c0-.69-.01-1.08-.08-1.53h1.68c-.06.47-.07.77-.07,1.47v1.27l1.48-.48v-2.34c0-.57-.03-.96-.09-1.44h1.68c-.06.45-.09.81-.09,1.41v1.91l2.1-.68c.57-.18.89-.3,1.17-.43-.01.22-.01.45-.01.78-.03,1.72-.13,3.69-.25,4.63-.13,1.09-.5,1.39-1.62,1.39-.25,0-.42,0-.78-.03-.06-.57-.15-.88-.4-1.47.38.08.76.12.99.12.32,0,.38-.09.47-.78.06-.55.1-1.47.12-2.65l-1.77.57v3.75c0,.58.01.96.08,1.44h-1.65c.06-.44.08-.83.08-1.49v-3.21l-1.48.48Z"/>
        <path d="M110.16,178.1c-.72,1.25-1.71,1.94-2.73,1.94-1.56,0-2.67-1.53-2.67-3.66,0-2.37,1.2-4.41,3.25-5.49,1-.54,2.08-.78,3.51-.78,3.14,0,5.46,2.22,5.46,5.19,0,2.62-1.29,4.51-3.78,5.58-.5.21-.89.33-1.08.33-.18,0-.25-.06-.45-.34-.25-.39-.54-.68-.95-.95,3.09-.79,4.49-2.25,4.49-4.68,0-1.25-.53-2.29-1.46-2.96-.53-.36-.95-.51-1.77-.64-.42,3.16-.92,4.89-1.83,6.46ZM108,172.79c-1,.88-1.58,2.15-1.58,3.55,0,1.16.38,1.83,1,1.83.75,0,1.52-1.04,2.08-2.82.36-1.12.54-1.98.77-3.65-1.07.23-1.59.48-2.28,1.08Z"/>
        <path d="M128.23,174.05h2.13c.68,0,1.1-.03,1.54-.09v1.63c-.48-.04-.93-.07-1.56-.07h-1.62c.86,1.5,2.1,2.74,3.58,3.58-.48.48-.69.78-.99,1.5-.61-.43-1.05-.85-1.62-1.5-.74-.86-1.05-1.32-1.53-2.22.03.54.04,1,.04,1.44v1.81c0,.67.03,1.2.09,1.67h-1.67c.06-.46.09-1,.09-1.68v-1.71c0-.41.02-.88.04-1.49-.91,1.65-1.93,2.76-3.39,3.74-.38-.71-.58-1-.9-1.37,1.54-.88,2.8-2.17,3.67-3.78h-.95c-.64,0-1.11.03-1.58.09v-.6c-.25.36-.43.69-.61,1.22-.38-.59-.6-1.05-.89-1.8.03.47.06,1.28.06,1.91v3.69c0,.77.03,1.32.09,1.77h-1.67c.06-.46.09-1.02.09-1.77v-3.1c0-.57.02-.93.11-1.86-.44,1.46-.87,2.43-1.51,3.41-.18-.67-.38-1.11-.68-1.6.72-.92,1.47-2.61,1.92-4.35h-.57c-.44,0-.69.02-.96.06v-1.53c.24.04.51.06.96.06h.72v-1.16c0-.76-.01-1.14-.08-1.5h1.65c-.06.39-.08.79-.08,1.5v1.16h.43c.36,0,.54-.02.78-.06v1.42c.57-1.02,1.05-2.52,1.09-3.49l1.46.38c-.06.17-.1.34-.21.79-.08.27-.1.4-.18.69h1.15v-.99c0-.61-.03-.99-.09-1.36h1.68c-.06.36-.09.76-.09,1.36v.99h1.7c.72,0,1.14-.03,1.54-.09v1.58c-.42-.04-.9-.08-1.54-.08h-1.7v1.81ZM125.1,172.23c-.25.62-.39.9-.81,1.6q-.36-.38-1.17-.94c.12-.17.17-.24.24-.35-.2-.03-.44-.04-.71-.04h-.38c.34.79.71,1.4,1.36,2.28v-.83c.45.06.87.09,1.56.09h1.53v-1.81h-1.63Z"/>
        <path d="M135.64,172.68c-.96,0-1.38.01-1.75.06v-1.65c.5.07.93.09,1.73.09h8.32c.75,0,1.23-.03,1.75-.09v1.65c-.5-.04-.92-.06-1.75-.06h-3.36v2.5h2.77c.63,0,1.08-.02,1.54-.08v1.63c-.48-.06-.78-.08-1.5-.08h-2.82v2.99h3.84c.75,0,1.27-.03,1.9-.09v1.71c-.63-.08-1.11-.11-1.88-.11h-9.16c-.86,0-1.32.03-1.95.11v-1.71c.5.06,1.08.09,1.91.09h3.66v-2.99h-2.58c-.77,0-1.14.02-1.64.08v-1.63c.44.06.77.08,1.52.08h2.7v-2.5h-3.25ZM138.28,168.29c1.48.51,1.98.71,3.73,1.54l-1.08,1.29c-1.46-.82-2.53-1.29-3.82-1.67l1.17-1.17Z"/>
        <path d="M151.81,177.38c.04.08.06.13.06.21,0,.11-.02.12-.15.45-.3.69-.66,1.77-.84,2.58-.04.17-.09.25-.15.29-.08.03-.58.1-.75.1h-.06c-.08,0-.18-.01-.3-.01-.2,0-.24-.04-.3-.23-.29-.97-.51-2.98-.51-4.5,0-1.65.1-2.67.52-4.92.15-.81.22-1.26.29-1.75.63.12,1.17.27,1.62.48.25.11.33.18.33.33,0,.11-.02.15-.18.39-.5.79-1.05,3.98-1.05,6.12,0,.34.02.81.06,1.56.42-.94.57-1.23.92-1.96.13.32.22.46.49.87ZM155.07,178.44c.48.25,1.05.34,2.06.34s1.53-.08,2.46-.34c.09-.03.17-.04.21-.04.1,0,.18.06.19.21.08.51.13,1.11.13,1.41,0,.15-.04.2-.25.26-.81.21-1.63.31-2.64.31-1.38,0-2.23-.17-2.94-.58-.66-.41-1.35-1.23-1.35-1.63,0-.21.32-.5,1.12-.99.27.54.53.81,1,1.07ZM154.02,170.79c.33.08,1.29.14,2.03.14.99,0,1.98-.08,2.91-.24q.08-.01.14-.01c.1,0,.15.04.18.16.03.15.08.81.08,1.22,0,.22-.04.3-.21.33-.62.12-1.63.19-2.71.19-1.29,0-2.45-.08-2.59-.17-.08-.04-.11-.15-.11-.42,0-.41.04-1,.08-1.12.01-.06.06-.09.15-.09.02,0,.05,0,.08.01Z"/>
        <path d="M163.38,175.79c0-.67,0-.9.03-1.46-.24.53-.39.74-.92,1.47-.23-.7-.44-1.17-.74-1.65.74-.86,1.32-1.82,1.83-3.01.43-1.08.66-1.8.83-2.83l1.5.55q-.11.29-.24.76c-.24.79-.48,1.43-.85,2.24v8.23c0,.63.03,1.12.07,1.67h-1.6c.08-.58.09-1,.09-1.69v-4.28ZM173.64,178.26c-.09.08-.11.09-.29.29-.58.6-.9.88-1.47,1.26.96.27,1.88.38,3.72.44-.27.5-.42.9-.54,1.41-2.43-.29-3.33-.5-4.6-1.08-1.33.57-2.69.88-4.7,1.08-.08-.42-.25-.83-.52-1.26,1.42-.01,2.53-.18,3.85-.6-.46-.32-.67-.5-1.04-.83-.71.46-1.08.65-2.02.93-.2-.39-.41-.66-.74-.98.96-.27,1.38-.45,1.93-.78.58-.36.95-.65,1.35-1.08-.35-.12-.42-.25-.42-.71v-.57c0-.25-.02-.42-.04-.62h1.26c-.03.17-.04.38-.04.58v.12c0,.25.17.3,1.09.3q1.37,0,1.5-.84c.36.17.54.24.87.32l.69-.45c.25.22.29.25.5.45v-.76h-3.08c.26.19.36.28.6.51l-.77.66c-.4-.47-.55-.6-1.03-.96l.29-.21h-3.14v.91c.14-.18.18-.27.33-.52l.98.5c-.58.94-.92,1.35-1.65,2l-.87-.8c.46-.34.62-.48.88-.78h-1.02q.01-.21.03-.98v-.49c0-.42-.02-.63-.03-.95.41.04.54.04,1.3.06v-2.5c0-.4-.01-.69-.04-1,.44.04.78.06,1.44.06h1.11c.06-.14.09-.2.17-.36h-1.86c-.67,0-1.21.03-1.59.08v-1.23c.38.04.85.08,1.59.08h5.97c.76,0,1.25-.03,1.62-.08v1.23c-.41-.04-.9-.08-1.61-.08h-2.59q-.12.27-.17.36h1.75c.66,0,.97-.02,1.41-.06-.03.32-.04.54-.04.98v2.53c.72-.01.94-.01,1.39-.06-.03.31-.04.54-.04.93v.38c0,.41.01.71.06.98h-.96c.39.39.51.52.85.94l-.93.81c-.45-.63-.87-1.12-1.35-1.62q-.31.96-3,.96l-.33.38h2.1c.54,0,.84-.02,1.05-.06l.83.79ZM172.57,171.66v-.36h-4.36v.36h4.36ZM172.57,172.77v-.39h-4.36v.39h4.36ZM172.57,173.84v-.33h-4.36v.33h4.36ZM169.24,178.58c.39.3.7.5,1.15.71.33-.17.38-.2,1.16-.71h-2.31Z"/>
        <path d="M179.58,172.14c-.48.71-.81,1.09-1.49,1.8-.48-.53-.72-.74-1.21-1.07.95-.88,1.39-1.44,1.89-2.35.35-.65.58-1.29.71-1.91l1.67.39c-.06.13-.1.22-.27.63-.25.6-.32.75-.45,1.02h2.07v-.76c0-.58-.01-.9-.09-1.41h1.79c-.08.46-.09.81-.09,1.41v.76h3.03c.68,0,1.12-.03,1.55-.09v1.67c-.41-.06-.9-.09-1.55-.09h-3.03v1.96h4c.72,0,1.18-.03,1.6-.09v1.71c-.46-.06-.92-.09-1.6-.09h-2.78v4.08c0,.32.17.38,1.07.38,1,0,1.32-.06,1.47-.3.2-.3.29-.97.29-2.19.71.33.9.4,1.56.55-.12,1.53-.27,2.22-.58,2.67-.22.31-.6.55-.99.63-.45.08-1.14.12-2,.12-1.86,0-2.31-.23-2.31-1.17v-4.77h-1.6c-.11,1.98-.48,3.06-1.41,4.11-.54.62-1.21,1.12-1.96,1.53-.34.18-.63.3-1.41.61-.25-.55-.48-.92-.93-1.47,1.5-.45,2.47-1.02,3.2-1.89.43-.51.72-1.17.84-1.96.04-.24.04-.3.09-.93h-2.17c-.67,0-1.16.03-1.61.09v-1.71c.42.06.9.09,1.61.09h4.03v-1.96h-2.91Z"/>
        <path d="M193.08,170.55c.29-.66.48-1.35.61-2.1l1.65.23c-.32.93-.39,1.12-.74,1.88h.79c.72-.02,1.14-.03,1.25-.04q-.01.12-.03.43s-.02.08-.02.81v1.2c.92-1.06,1.89-3.15,2.1-4.54l1.65.29c-.08.2-.1.29-.2.55-.06.21-.3.93-.42,1.22h3.08c.58,0,.93-.02,1.23-.06-.04.29-.04.39-.06.62v.45q0,.07-.11,3.48c-.1,3.08-.28,4.68-.61,5.52-.35.83-.93,1.09-2.36,1.09-.34,0-.71-.01-1.44-.04-.06-.66-.17-1.05-.41-1.65.95.15,1.4.2,1.84.2.62,0,.84-.12.98-.53.3-.9.5-3.66.52-7.58h-3.33c-.57,1.12-1,1.74-1.86,2.71-.21-.3-.25-.36-.62-.72v5.54c0,.52.02,1.05.06,1.41h-1.54v-.86h-2.04v1.26h-1.58c.06-.43.08-.96.08-1.86v-7.49c0-.75-.02-1.08-.06-1.45.24.03.56.04.77.04h.79ZM193.06,174.5h2.06v-2.55h-2.06v2.55ZM193.06,178.67h2.06v-2.77h-2.06v2.77ZM199.84,178.02c-.5-1.41-1.17-2.76-1.86-3.66l1.32-.71c.85,1.23,1.3,2.03,2,3.57l-1.46.79Z"/>
        <path d="M209.65,177.38c.04.08.06.13.06.21,0,.11-.02.12-.15.45-.3.69-.66,1.77-.84,2.58-.04.17-.09.25-.15.29-.08.03-.59.1-.75.1h-.06c-.08,0-.18-.01-.3-.01-.2,0-.24-.04-.3-.23-.29-.97-.51-2.98-.51-4.5,0-1.65.1-2.67.52-4.92.15-.81.22-1.26.29-1.75.63.12,1.17.27,1.62.48.25.11.33.18.33.33,0,.11-.02.15-.18.39-.5.79-1.05,3.98-1.05,6.12,0,.34.02.81.06,1.56.42-.94.57-1.23.92-1.96.13.32.22.46.49.87ZM212.91,178.44c.48.25,1.05.34,2.06.34s1.53-.08,2.46-.34c.09-.03.16-.04.21-.04.1,0,.18.06.19.21.08.51.13,1.11.13,1.41,0,.15-.04.2-.25.26-.81.21-1.63.31-2.64.31-1.38,0-2.23-.17-2.94-.58-.66-.41-1.35-1.23-1.35-1.63,0-.21.32-.5,1.12-.99.27.54.53.81,1,1.07ZM211.86,170.79c.33.08,1.29.14,2.03.14.99,0,1.98-.08,2.91-.24q.08-.01.14-.01c.1,0,.15.04.18.16.03.15.08.81.08,1.22,0,.22-.04.3-.21.33-.62.12-1.63.19-2.71.19-1.29,0-2.45-.08-2.59-.17-.08-.04-.11-.15-.11-.42,0-.41.04-1,.08-1.12.01-.06.06-.09.15-.09.02,0,.04,0,.08.01Z"/>
        <path d="M222.94,179.36c-.6,0-1.05.01-1.54.06.04-.41.06-.9.06-1.7v-3.31c0-.71-.02-1.18-.06-1.62.45.03.77.04,1.5.04h7.3c.84,0,1.17-.01,1.59-.04-.04.46-.06.87-.06,1.63v3.35c0,.79.01,1.32.06,1.65-.46-.04-.92-.06-1.53-.06h-1.07c1.02.57,2.37.93,4.12,1.12-.33.43-.51.75-.78,1.41-1.29-.19-1.92-.36-2.83-.72-.87-.36-1.35-.6-2.11-1.11l.85-.71h-4.03l.9.71c-.71.52-1.16.78-1.96,1.11-.92.38-1.54.55-2.64.76-.18-.51-.41-.84-.87-1.32,1.84-.29,3.13-.71,3.94-1.26h-.84ZM232.6,171.17c0,.54.01.81.06,1.16-.36-.03-.72-.04-1.48-.04h-9.2c-.72,0-1.18.01-1.5.04.05-.36.06-.62.06-1.16v-1.12c0-.55-.01-.81-.06-1.21.41.04.81.06,1.62.06h8.94c.81,0,1.22-.02,1.62-.06-.04.39-.06.66-.06,1.21v1.12ZM224.02,170.12h-2v.93h2v-.93ZM223.02,174.66h7.16v-.63h-7.16v.63ZM223.02,176.37h7.16v-.62h-7.16v.62ZM223.02,178.14h7.16v-.68h-7.16v.68ZM227.47,170.12h-2v.93h2v-.93ZM231.07,171.05v-.93h-2.14v.93h2.14Z"/>
        <path d="M235.45,171.65c0-.44-.02-1.02-.04-1.35.69.07,1.2.18,1.6.33.36.14.48.23.48.39q0,.09-.06.24c-.2.51-.25,1.08-.25,2.44,0,1.92.12,3.12.42,4.04.22.71.57,1.11.97,1.11.62,0,1.12-.72,1.68-2.38.28.77.39.99.81,1.53.08.1.12.21.12.31,0,.24-.22.75-.53,1.19-.58.85-1.33,1.32-2.13,1.32-1.15,0-2.02-.93-2.56-2.77-.34-1.2-.51-2.71-.51-4.81v-1.58ZM244.38,171.89c.09,0,.17.04.29.15.75.72,1.53,1.92,2.03,3.09.33.79.64,1.86.64,2.17,0,.15-.08.23-.39.39-.34.18-1.05.42-1.23.42-.13,0-.19-.08-.24-.34-.2-1.16-.46-2-.93-2.97-.42-.87-.45-.92-1.47-2.17.63-.46,1.12-.73,1.3-.73Z"/>
        <path d="M23.7,205.71c0,.75.03,1.2.08,1.56h-1.68c.06-.45.09-.99.09-1.54v-1.35c-1.28.39-2.45.71-3.06.83-.54.1-.94.21-1.15.3l-.41-1.63c.36-.03.58-.06,1.11-.15v-7.86c-.51.01-.62.01-.96.06v-1.56c.4.04.81.07,1.29.07h4.4c.57,0,.9-.01,1.3-.07v.9c.36.03.54.03.92.03h3.78c.39,0,.78-.03,1.17-.08-.03.18-.06.48-.11.92-.21,2.46-.93,4.83-2.05,6.83.79,1.11,1.46,1.71,2.77,2.53-.38.56-.67,1.11-.87,1.62-1.47-1.06-2.05-1.63-2.83-2.73-.91,1.18-1.51,1.74-2.91,2.75-.25-.68-.46-1.05-.87-1.61v.2ZM20.19,197.45h2v-1.59h-2v1.59ZM20.19,200.26h2v-1.53h-2v1.53ZM20.19,203.43q1.02-.21,2-.46v-1.39h-2v1.86ZM23.7,205.48c1.44-.88,2.01-1.39,2.88-2.53-.51-.95-.79-1.64-1.08-2.58-.32-1.08-.42-1.63-.64-3.63-.26.01-.39.03-.6.06v-.93c-.17-.01-.25-.01-.55-.01v9.63ZM26.31,196.72c.33,2.5.53,3.25,1.22,4.71.66-1.33,1-2.56,1.33-4.71h-2.55Z"/>
        <path d="M35.64,199.53c1.89-.53,3.25-.77,4.27-.77,2.12,0,3.42,1.16,3.42,3.03,0,1.12-.46,2.12-1.35,2.87-.58.49-1.46.92-2.61,1.26-.64.18-1.33.31-1.63.31-.18,0-.27-.04-.33-.19-.21-.53-.45-.9-.76-1.21,3.3-.35,4.98-1.4,4.98-3.11,0-.87-.72-1.54-1.65-1.54-1.62,0-3.39.54-5.25,1.58-.15.08-.24.12-.3.12-.25,0-.67-.75-1.02-1.83.74-.11.99-.17,2.24-.51Z"/>
        <path d="M49.11,198.11c-.39.09-.53.13-1.07.33-.19.08-.3.11-.39.11-.33,0-.63-.62-.9-1.91.96-.04,1.31-.09,2.97-.34,1.8-.27,4.08-.62,5.28-.76,1.35-.18,2.43-.36,3-.48.1-.03.15-.03.22-.03.2,0,.27.09.41.46.12.31.21.76.21.97,0,.18-.06.24-.27.24-.32,0-.6.03-.89.08-2.53.42-4.56,2.64-4.56,4.98,0,1.75,1.38,2.91,3.72,3.12.21.01.29.09.29.27,0,.38-.15,1.09-.29,1.42-.08.17-.19.24-.39.24s-.65-.09-1.11-.22c-2.55-.75-3.88-2.37-3.88-4.67,0-1.25.41-2.4,1.19-3.39.42-.54.78-.84,1.63-1.43-1.96.33-4.04.72-5.17,1.01Z"/>
        <path d="M65.11,198.74c-1.07-.21-1.88-.53-2.43-.92-.27-.18-.33-.25-.33-.39,0-.17.12-.46.54-1.3.73.46,1.56.79,2.5.99.21-1.05.3-1.92.31-2.9.77.14,1.44.36,1.82.57.17.09.22.18.21.3,0,.06-.03.12-.11.27-.22.46-.24.51-.55,1.98.15.02.34.02.46.02h.11c.36-.02.63-.02.76-.02h.04c.13,0,.18.06.18.25,0,.66-.04,1.2-.1,1.31-.04.07-.24.1-.87.1-.29,0-.51-.01-.93-.03q-.32,1.54-.45,2.36c.51.04.62.04.87.04h.84c.15-.01.22.01.27.09.06.09.11.57.11,1.11,0,.27-.02.34-.11.39-.08.03-.4.04-.97.04-.27,0-.67-.01-1.2-.04-.01.27-.01.45-.01.57,0,1.38.64,2.01,2.05,2.01,1.58,0,2.52-.77,2.52-2.05,0-.47-.1-.89-.34-1.35-.3-.57-.58-.9-1.3-1.47h.13c.24,0,.75-.08,1.2-.17.24-.04.33-.06.41-.06.22,0,.38.1.67.48.69.84,1.04,1.72,1.04,2.66,0,2.11-1.71,3.51-4.31,3.51-2.43,0-3.64-1.21-3.64-3.67,0-.21,0-.38.03-.63-1.49-.32-2.29-1.05-2.29-2.12,0-.55.17-.96.58-1.38.04-.06.1-.08.17-.08.09,0,.19.08.54.36.27.22.31.27.31.34q0,.06-.09.2c-.06.1-.12.27-.12.36,0,.2.12.36.35.46.21.11.27.12.75.23l.39-2.43Z"/>
        <path d="M83.85,199.59c2.05,0,3.39,1.21,3.39,3.06s-1.12,3.02-3.37,3.74c-.81.25-2.15.5-2.75.5-.32,0-.39-.08-.6-.51-.16-.35-.34-.56-.79-.87,3.77-.3,5.62-1.26,5.62-2.9,0-.92-.64-1.46-1.72-1.46-1.37,0-2.78.71-3.93,1.95-.21.21-.41.46-.54.69-.13.22-.23.3-.36.3-.22,0-.75-.22-1.11-.5-.18-.13-.24-.24-.24-.48q0-.12.04-.48s0-.15.01-.31c.08-.96.12-1.37.3-2.72q.03-.16.14-.87s.04-.33.12-.89c.01-.13.03-.25.03-.49.72.1,1.4.27,1.68.43.12.06.18.13.17.22,0,.06-.03.11-.07.2-.17.25-.21.39-.35.96-.13.57-.34,1.89-.38,2.38,1.53-1.41,2.87-1.96,4.71-1.96ZM83.58,195.32c.58.34.76.51.76.67,0,.13-.24.58-.5.96-.24.34-.33.42-.45.42-.07,0-.12-.03-.3-.17-1-.76-1.8-1.2-2.92-1.59-.22-.09-.27-.12-.27-.24,0-.15.12-.41.39-.79.24-.36.34-.45.51-.45.36,0,1.83.63,2.78,1.19Z"/>
        <path d="M94.62,198.09c.97-.25,1.62-.34,2.33-.34,2.13,0,3.36,1.26,3.36,3.42,0,1.88-.81,3.39-2.45,4.59-.87.64-2.19,1.29-2.62,1.29-.2,0-.24-.04-.56-.5-.22-.34-.45-.55-.82-.83,1.72-.58,2.44-.96,3.22-1.63.9-.79,1.35-1.75,1.35-2.89,0-1.22-.57-1.91-1.58-1.91-.81,0-1.86.31-3.22.97-.2.09-.3.17-.55.35-.06.03-.12.06-.18.06-.29,0-.77-.84-1.1-1.96.56-.04.84-.12,2.82-.62ZM95.62,194.43c.54.17,1.35.32,2.08.41.3.03.41.04,1.17.08.22,0,.29.06.29.22,0,.5-.11,1.31-.2,1.46-.03.09-.1.12-.21.12-.34,0-1.56-.17-2.26-.31-1.19-.24-2.22-.54-2.43-.71-.05-.04-.08-.11-.08-.17,0-.12.31-.93.46-1.21.08-.12.12-.15.21-.15q.08,0,.96.27Z"/>
        <path d="M113.71,195.12c-.76.39-1.05.75-1.15,1.42.13-.03.27-.04.31-.04.6,0,1.05.48,1.05,1.09,0,.66-.46,1.12-1.11,1.12-.79,0-1.26-.58-1.26-1.59,0-.6.18-1.27.44-1.69.25-.39.58-.68,1.12-.98l.6.66ZM116.61,195.12c-.77.39-1.05.75-1.16,1.42.13-.03.27-.04.31-.04.6,0,1.05.48,1.05,1.09,0,.66-.47,1.12-1.11,1.12-.79,0-1.26-.58-1.26-1.54,0-1.29.46-2.11,1.56-2.71l.6.66Z"/>
        <path d="M124.39,204.24c-.5.34-.83.54-1.7.99-.21-.4-.28-.51-.49-.81v1.54c0,.31.01.83.04,1.02h-1.33v-.45h-1.35v.7h-1.41c.05-.4.08-.92.08-1.42v-2.14c0-.5-.01-.81-.06-1.19.38.05.55.05,1,.05h2.17c.46,0,.66-.02.88-.05-.03.36-.03.48-.03,1.08v.42c1.06-.36,1.72-.75,2.29-1.32h-.69c-.66,0-.95.01-1.23.04v-1.23c.27.03.62.04,1.32.04h.55v-.66h-.12c-.58,0-.9.01-1.22.04v-1.16c.35.03.68.04,1.22.04h.12v-.64h-.45c-.6,0-.89.01-1.19.04v-1.19c.21.03.57.04,1.2.04h.43c0-.28-.01-.57-.03-.72-.51.23-.84.36-1.32.53-.17-.3-.33-.5-.63-.79v.73c-.29-.03-.55-.04-1.11-.04h-2.44c-.5,0-.75.02-1.12.06v-1.5c.33.06.6.08,1.12.08h2.44c.56,0,.84-.02,1.11-.06v.53c.76-.2,1.5-.48,2.1-.84h-.69c-.45,0-.75.01-1.14.06v-1.37c.51.06.83.08,1.52.08h1.56v-.09c0-.3-.01-.55-.06-.83h1.62c-.04.23-.06.48-.06.83v.09h2.04c.74,0,1.06-.01,1.53-.08v1.37c-.48-.04-.89-.06-1.5-.06h-.75c.73.34,1.5.57,2.46.73-.29.45-.32.53-.6,1.08-.73-.21-1.08-.31-1.69-.55-.03.22-.03.33-.04.78h.51c.78,0,1.05-.01,1.41-.06v1.21c-.39-.04-.74-.06-1.4-.06h-.52v.64h.43c.75,0,1.02-.01,1.32-.06v1.18c-.35-.04-.58-.06-1.32-.06h-.43v.66h.76c.81,0,1.08-.01,1.42-.06v1.26c-.36-.04-.58-.06-1.16-.06l.93.69c-.9.83-.93.86-1.52,1.29.6.5,1.21.83,2.13,1.14-.39.54-.55.82-.82,1.41-1.31-.69-2.13-1.33-2.78-2.17v1.21c-.83.27-1.51.44-2.71.66q-.9.18-1.25.24t-.62.1l-.15-1.39c.34,0,.75-.04,1.38-.13v-1.47ZM118.24,194.31c.36.04.61.06,1.17.06h1.62c.56,0,.81-.01,1.17-.06v1.44c-.35-.03-.66-.04-1.17-.04h-1.62c-.48,0-.81.01-1.17.04v-1.44ZM118.29,198.48c.27.03.46.04.92.04h2.07c.45,0,.62-.02.88-.04v1.35c-.31-.04-.46-.04-.88-.04h-2.07c-.47,0-.56,0-.92.04v-1.35ZM118.29,200.49c.27.03.46.04.92.04h2.05c.46,0,.64-.02.9-.04v1.35c-.3-.03-.48-.04-.92-.04h-2.05c-.43,0-.55,0-.9.04v-1.35ZM119.53,205.26h1.39v-1.49h-1.39v1.49ZM127.42,198.06c0-.4-.02-.57-.05-.82h1.29c-.58-.24-.82-.36-1.42-.72l.46-.49h-2.35l.58.48c-.55.36-.79.5-1.29.74h1.2c-.04.25-.06.43-.06.82h1.64ZM125.7,205.48q.69-.13,2.03-.48c-.6-.83-.88-1.38-1.2-2.34h-.45c-.15.21-.22.3-.38.46v2.35ZM127.42,199.16h-1.64v.64h1.64v-.64ZM127.42,200.87h-1.64v.66h1.64v-.66ZM127.81,202.66c.21.51.31.72.62,1.12.48-.33.84-.69,1.17-1.12h-1.79Z"/>
        <path d="M133.18,197.67c.99.55,1.5.95,2.28,1.71l-1.04,1.18c-.71-.76-1.12-1.11-2.28-1.81l1.04-1.08ZM135.09,202.3c-.39,1.71-.66,2.59-1.12,3.75-.03.06-.17.39-.44.97l-1.32-1.15c.18-.23.34-.51.58-1.02.43-.92.72-1.8,1.08-3.39l1.21.84ZM133.72,194.07c.96.63,1.44,1.04,2.12,1.84l-1.12,1.09c-.66-.82-.96-1.11-2.08-1.93l1.09-1ZM143.7,194.97c.78,0,1.2-.01,1.63-.07v1.53c-.45-.04-.94-.06-1.46-.06h-.21v1h.39c.66,0,.97-.01,1.26-.06v1.4c-.46-.04-.78-.06-1.29-.06h-.36v1.25c0,.29.02.72.03.9h-.09c-.22-.03-.42-.03-.95-.03h-2.8c-.41,0-.76.02-1,.03.01-.2.03-.62.03-.92v-1.23h-1.4c-.03,2.16-.18,4.07-.42,5.31-.3,1.46-.62,2.35-1.15,3.28-.45-.51-.72-.75-1.32-1.08.57-.93.87-1.79,1.09-3.21.17-.99.24-1.92.27-3.2.03-1.25.06-2.7.06-2.94,0-.71-.03-1.31-.08-1.91.38.04.71.06,1.47.06h2.36c0-.46-.01-.75-.08-1.06h1.7c-.06.34-.08.52-.08,1.06h2.38ZM144.69,202.3c-.12.15-.17.21-.29.36-.65.9-1.32,1.67-1.89,2.16.87.4,1.96.72,3.13.88-.34.52-.51.85-.71,1.5-1.58-.38-2.55-.77-3.69-1.44-1.15.71-2.11,1.08-3.79,1.46-.18-.63-.33-.95-.69-1.42,1.46-.24,2.38-.51,3.25-.95-.75-.64-1.21-1.2-1.71-2.04-.27.02-.46.03-.72.06v-1.42c.45.06.67.07,1.2.07h3.9c.5,0,.88-.01,1.11-.04l.88.83ZM138.88,197.37v-1h-1.38v1h1.38ZM139.93,202.81c.33.48.75.9,1.3,1.29.51-.38.81-.67,1.3-1.29h-2.61ZM142.23,197.37v-1h-1.92v1h1.92ZM140.31,199.56h1.92v-.92h-1.92v.92Z"/>
        <path d="M148.6,197.19c-.18.45-.25.63-.5,1.11-.55-.33-.82-.46-1.36-.71.61-1,1-1.99,1.15-2.97.02-.09.03-.17.03-.18q.03-.13.03-.27l1.47.29c-.04.12-.12.34-.17.57-.04.18-.13.58-.18.76h1.11v-.41c0-.67-.01-1-.08-1.39h1.62c-.06.36-.08.66-.08,1.37v.43h1.23c.69,0,1.04-.01,1.41-.08v1.53c-.39-.04-.77-.06-1.41-.06h-1.23v1.23h1.67c.58,0,.92-.01,1.33-.06v1.51c-.33-.04-.71-.06-1.38-.06h-1.62v1.14h1.4c.63,0,.92-.02,1.33-.06-.03.38-.04.63-.04,1.28v2.88c0,.9-.36,1.16-1.61,1.16q-.1,0-.64-.03c-.03-.58-.09-.88-.27-1.37.23.02.6.04.78.04.25,0,.34-.06.34-.22v-2.31h-1.29v3.4c0,.78.02,1.18.08,1.54h-1.62c.06-.45.08-.83.08-1.58v-3.37h-1.39v2.58c0,.62.01,1,.04,1.4h-1.56c.06-.38.07-.65.07-1.41v-2.66c0-.57-.01-.94-.06-1.33.45.04.81.06,1.39.06h1.5v-1.14h-1.83c-.64,0-1.06.01-1.47.07v-1.54c.36.06.72.08,1.28.08h2.02v-1.23h-1.59ZM156.78,195c-.06.41-.08.76-.08,1.5v5.8c0,.87.02,1.17.06,1.53h-1.61c.06-.38.08-.65.08-1.54v-5.76c0-.75-.01-1.14-.08-1.53h1.62ZM159.58,194.06c-.08.4-.09.84-.09,1.74v9.63c0,.76-.12,1.12-.48,1.37-.36.25-.77.33-1.7.33-.15,0-.62-.02-1.41-.05-.08-.69-.15-.97-.42-1.54.67.11,1.33.15,1.84.15.54,0,.66-.08.66-.43v-9.41c0-.87-.03-1.32-.09-1.78h1.68Z"/>
        <path d="M161.79,195.69c0-.44-.02-.63-.06-1.33.24.03.54.04,1.05.04h2.12c.58,0,.88-.02,1.05-.08l.83,1.02c-.09.17-.15.32-.44,1.1-.31.81-.64,1.54-1.12,2.46.94,1.27,1.26,2.11,1.26,3.37,0,.87-.35,1.41-1.02,1.64-.36.12-.72.15-1.59.15-.03-.69-.09-1.02-.3-1.51.21.04.46.06.63.06.55,0,.75-.17.75-.63,0-.5-.1-1-.31-1.47-.21-.48-.44-.81-1.01-1.47.63-1.23.79-1.63,1.33-3.24h-1.66v9.78c0,.6.01,1.14.06,1.65h-1.65c.06-.43.09-.99.09-1.65v-9.88ZM168.39,200.91v4.12c1.47-.33,1.62-.36,2.38-.62l.03,1.46c-1.07.33-1.49.43-2.82.75-.6.15-.66.17-1.44.33q-.33.07-.47.12c-.3.06-.43.11-.58.17l-.3-1.63c.3,0,.81-.08,1.71-.24v-9.37c0-.67-.01-.99-.06-1.54.29.06.61.08,1.38.08h4.11c.72,0,.95-.02,1.35-.06-.03.32-.05.66-.05,1.59v3.34c0,.81,0,1.08.05,1.54q-.3-.01-.39-.01l1.16.99c-.06.03-.29.21-.41.3-.41.38-1.33,1.08-1.93,1.5.72.88,1.53,1.5,2.65,2.05-.38.42-.61.79-.91,1.46-1.38-.87-2.28-1.7-3.02-2.79-.67-1.02-1.05-1.93-1.42-3.52h-1.02ZM168.39,197.07h3.78v-1.17h-3.78v1.17ZM168.39,199.6h3.78v-1.26h-3.78v1.26ZM170.8,200.91c.17.72.28,1.06.55,1.63.85-.62,1.6-1.26,1.88-1.62-.21-.01-.46-.01-.71-.01h-1.72Z"/>
        <path d="M175.62,198.15c.77-.39,1.07-.75,1.16-1.43-.13.03-.25.05-.3.05-.6,0-1.07-.48-1.07-1.1,0-.66.47-1.12,1.11-1.12.79,0,1.26.57,1.26,1.54,0,1.29-.46,2.12-1.56,2.71l-.6-.66ZM178.51,198.15c.76-.39,1.06-.75,1.16-1.43-.14.03-.26.05-.3.05-.6,0-1.06-.48-1.06-1.1,0-.66.46-1.12,1.11-1.12.79,0,1.26.57,1.26,1.54,0,1.29-.47,2.12-1.56,2.71l-.6-.66Z"/>
        <path d="M190.62,199.89c-.12.03-.18.06-.27.11-.08.04-.12.06-.18.06-.33,0-.57-.57-.75-1.68h.29c.63,0,2.24-.2,3.2-.39.31-1.31.48-2.31.48-3.02,0-.06,0-.15-.01-.25.64.06,1.26.2,1.68.38.24.09.36.21.36.36,0,.08-.02.13-.09.25q-.23.39-.69,2.04c.36-.04.76-.08,1.02-.08.62,0,1.1.12,1.44.36.6.43.9,1.32.9,2.68,0,2.24-.41,4.16-1.1,5.1-.48.66-1.11.98-2,.98-.54,0-1.05-.08-1.2-.17q-.12-.08-.17-.63c-.04-.41-.13-.77-.32-1.19.78.27.98.32,1.46.32.72,0,1.02-.35,1.35-1.56.23-.79.35-1.81.35-2.92,0-1.17-.29-1.59-1.08-1.59-.27,0-.71.04-1.05.09-.04.18-.06.2-.12.39-.42,1.54-1.19,3.55-1.95,5.17-.79,1.63-.99,1.96-1.18,1.96-.12,0-.53-.21-.96-.5-.35-.21-.44-.3-.44-.42q0-.08.62-1.05c.83-1.28,1.91-3.77,2.28-5.25-1.11.25-1.73.39-1.86.43ZM200.04,196.82c-.24.18-.41.25-.48.25-.04,0-.09-.03-.13-.11-.32-.51-.84-1.09-1.28-1.47-.03-.03-.04-.06-.04-.09,0-.06.11-.17.36-.36.25-.18.33-.22.43-.22.24,0,1.56,1.33,1.56,1.58,0,.09-.12.19-.42.42ZM198.45,198.41c0-.11.13-.24.57-.58.3-.23.45-.32.57-.32.2,0,.87.72,1.5,1.61.52.75,1.09,1.81,1.09,2.07,0,.15-.04.2-.52.58-.3.24-.65.44-.77.44-.1,0-.15-.04-.25-.3-.29-.72-.54-1.21-.95-1.86-.4-.65-.43-.67-1.15-1.46-.06-.08-.09-.12-.09-.18ZM200.41,193.8c.25,0,1.53,1.28,1.53,1.53,0,.08-.09.17-.39.38-.27.21-.41.29-.46.29q-.08,0-.38-.42c-.25-.34-.74-.86-1-1.08-.04-.04-.08-.08-.08-.12,0-.12.62-.57.78-.57Z"/>
        <path d="M207.87,197.66c-.69.04-1.33.06-1.91.06-.63,0-.67,0-.71-.09-.04-.09-.09-.72-.09-1.16v-.28c.71.03,1,.04,1.38.04s.95-.02,1.4-.03c.07-.87.09-1.17.09-1.47,0-.14,0-.23-.02-.44.72.02,1.28.06,1.71.17.12.03.18.09.18.2,0,.08-.02.13-.09.31-.12.29-.21.68-.27,1.14.96-.08,2.12-.23,2.58-.33.45-.11.76-.17.84-.17.32-.03.54-.09.63-.17.02-.01.03-.01.03-.01.03,0,.04.01.08.01.06,0,.1.06.13.17.03.22.08.75.08,1.08,0,.22-.04.29-.2.31-.88.18-2.71.41-4.29.54-.01.06-.01.09-.01.24-.03.29-.03.32-.04,1.07.66-.15,1.25-.23,1.98-.23.11-.48.12-.6.15-.95,1.16.24,1.72.45,1.72.63,0,.06-.01.1-.13.3-.04.06-.08.1-.11.21,1.94.45,3.17,1.88,3.17,3.72,0,1.63-.88,2.94-2.58,3.84-.63.33-1.51.63-1.84.63-.17,0-.29-.06-.38-.18-.31-.45-.51-.66-.99-1.07,1.56-.29,2.32-.6,3.07-1.21.69-.58,1.02-1.26,1.02-2.1,0-1.2-.71-2.1-1.91-2.45-.9,2.07-1.5,3.04-2.58,4.16.08.25.13.4.27.72.06.12.07.17.07.21,0,.15-.06.2-.4.38-.38.2-.81.34-.96.34-.13,0-.17-.04-.33-.51-.87.62-1.8.95-2.71.95-1.02,0-1.71-.83-1.71-2.03,0-1.88,1.37-3.71,3.63-4.83.01-.78.03-1.44.04-1.74ZM205.75,203.95c0,.38.23.6.6.6.51,0,1.18-.29,1.86-.78-.21-1.02-.3-1.71-.38-2.83-1.32.98-2.08,2.1-2.08,3.02ZM211,199.82c-.67.06-1.04.12-1.65.33.03,1.07.06,1.52.18,2.28.63-.79,1.05-1.54,1.47-2.61Z"/>
        <path d="M226.26,199.26c2.12,0,3.62,1.44,3.62,3.48,0,1.39-.74,2.65-1.96,3.39-.86.51-1.91.76-3.09.76-1.91,0-3.02-.76-3.02-2.07,0-1.19.99-2.03,2.4-2.03,1.27,0,2.19.64,2.8,1.96.76-.55,1.08-1.14,1.08-1.95,0-1.29-.92-2.13-2.36-2.13s-3.04.74-4.35,2.04c-.24.24-.46.5-.73.84-.11.15-.18.21-.27.21-.27,0-1.33-1.05-1.33-1.32,0-.13.06-.21.39-.45.34-.27.84-.71,1.47-1.3,1.46-1.38,2.52-2.54,4.09-4.46-1.88.24-3.13.45-3.6.62-.08.01-.12.03-.17.03-.12,0-.2-.07-.29-.3-.18-.45-.27-.94-.32-1.6.41.06.69.08,1.02.08.72,0,1.93-.11,3.51-.29.55-.06.73-.11,1.16-.27.13-.06.21-.08.3-.08.21,0,.42.18.81.78.29.39.38.58.38.71,0,.2-.04.25-.38.46-.27.17-.43.3-.78.63-.75.72-.76.72-1.69,1.67-.66.67-.74.75-1.33,1.35.97-.54,1.74-.77,2.64-.77ZM224.82,204.45c-.23-.15-.48-.23-.77-.23-.46,0-.76.23-.76.58,0,.44.46.71,1.18.71.33,0,.62-.03.99-.13-.18-.5-.33-.72-.64-.93Z"/>
        <path d="M239.7,204.33c1.23,0,2.59-.18,3.94-.53.08-.03.12-.03.17-.03.09,0,.13.06.17.2.04.33.08.81.08,1.3,0,.3-.03.39-.17.45-.45.24-2.47.46-4.21.46-2.26,0-3.55-.38-4.59-1.35-.5-.46-.99-1.28-.99-1.61,0-.22.13-.31,1.37-1.02.54,1.49,1.79,2.12,4.25,2.12ZM239.83,195.7c.87,0,1.38-.03,2.4-.18h.11c.12,0,.17.04.2.13.03.18.06.63.06,1.17,0,.34-.03.46-.12.53-.12.07-1.42.17-2.43.17-1.33,0-2.45-.11-3.69-.35-.85-.17-.9-.21-.9-.73,0-.35.03-.92.08-1.33,1.3.4,2.73.6,4.3.6Z"/>
        <path d="M22.09,224.52c-.19-.66-.25-1.06-.43-2.91-.06-.72-.12-1.08-.27-1.59.91.02,1.5.06,1.9.17.23.06.33.17.33.33,0,.06-.01.13-.04.25-.1.36-.15.63-.15,1.02,0,.73.15,1.93.32,2.46.09.28.18.39.34.39.36,0,1.68-.69,2.4-1.25.19-.15.22-.17.3-.17.13,0,.27.11.5.39.38.51.67,1.06.67,1.27,0,.17-.11.27-.36.34-.93.25-2.46.86-3.49,1.35-1.83.9-2.66,1.72-2.66,2.65s.76,1.29,2.7,1.29c1.12,0,2.14-.1,3.52-.33.06-.01.17-.03.2-.03.12,0,.19.06.25.18.04.15.15,1.06.15,1.42,0,.21-.06.29-.26.34-.33.08-2.14.18-3.28.18-1.92,0-3.2-.25-3.99-.79-.67-.47-1.04-1.2-1.04-2.1,0-.69.2-1.3.6-1.9.52-.78,1.09-1.28,2.35-2.03-.31-.29-.43-.5-.57-.96Z"/>
        <path d="M33.45,225.4c-.12.03-.18.06-.27.11-.08.04-.12.06-.18.06-.33,0-.57-.57-.75-1.68h.29c.63,0,2.24-.2,3.2-.39.31-1.31.48-2.31.48-3.02,0-.06,0-.15-.01-.25.64.06,1.26.2,1.68.38.24.09.36.21.36.36,0,.08-.02.13-.09.25q-.23.39-.69,2.04c.36-.04.76-.08,1.02-.08.62,0,1.1.12,1.44.36.6.43.9,1.32.9,2.68,0,2.24-.41,4.16-1.1,5.1-.48.66-1.11.98-2,.98-.54,0-1.05-.08-1.2-.17q-.12-.08-.17-.63c-.04-.41-.13-.77-.32-1.19.78.27.98.32,1.46.32.72,0,1.02-.35,1.35-1.56.23-.79.35-1.81.35-2.92,0-1.17-.29-1.59-1.08-1.59-.27,0-.71.04-1.05.09-.04.18-.06.2-.12.39-.42,1.54-1.19,3.55-1.95,5.17-.79,1.63-.99,1.96-1.18,1.96-.12,0-.53-.21-.96-.5-.35-.21-.44-.3-.44-.42q0-.08.62-1.05c.83-1.28,1.91-3.77,2.28-5.25-1.11.25-1.73.39-1.86.43ZM42.87,222.33c-.24.18-.41.25-.48.25-.04,0-.09-.03-.13-.11-.32-.51-.84-1.09-1.28-1.47-.03-.03-.04-.06-.04-.09,0-.06.11-.17.36-.36.25-.18.33-.22.43-.22.24,0,1.56,1.33,1.56,1.58,0,.09-.12.19-.42.42ZM41.28,223.92c0-.11.13-.24.57-.58.3-.23.45-.32.57-.32.2,0,.87.72,1.5,1.61.52.75,1.09,1.81,1.09,2.07,0,.15-.04.2-.52.58-.3.24-.65.44-.77.44-.1,0-.15-.04-.25-.3-.29-.72-.54-1.21-.95-1.86-.4-.65-.43-.67-1.15-1.46-.06-.08-.09-.12-.09-.18ZM43.24,219.31c.25,0,1.53,1.28,1.53,1.53,0,.08-.09.17-.39.38-.27.21-.41.29-.46.29q-.08,0-.38-.42c-.25-.34-.74-.86-1-1.08-.04-.04-.08-.08-.08-.12,0-.12.62-.57.78-.57Z"/>
        <path d="M51.25,222.57c.67.44.96.63,1.58,1.08,1.16-.81,1.62-1.21,2.34-1.98h-3.34c-1.26,1.14-2.43,1.89-4.04,2.59-.24-.45-.51-.78-.96-1.18,1.62-.65,2.88-1.41,3.9-2.36.69-.64,1.03-1.05,1.27-1.5l1.79.32c-.32.38-.36.43-.75.87h2.52c.54,0,.95-.02,1.28-.08l.75.81c-.87,1-1.25,1.41-1.86,1.98-2.4,2.22-4.8,3.55-8.1,4.45-.18-.52-.42-.94-.81-1.38,1.96-.43,3.46-.99,4.8-1.75-.45-.39-.86-.69-1.49-1.06l1.12-.81ZM54,226.98c-1.05.79-1.5,1.08-2.38,1.54-.98.51-1.63.78-2.7,1.11-.3-.68-.43-.89-.83-1.32,2.79-.67,5.48-2.31,6.53-3.96l1.51.48q-.38.46-.76.9h2.08c.55,0,.93-.01,1.27-.08l.84.87c-.18.23-.21.25-.48.63-1.37,1.88-2.76,3.02-5,4.09-1.74.84-3.1,1.26-5.59,1.68-.29-.72-.38-.88-.87-1.49,2.58-.24,4.4-.72,6.01-1.59-.57-.53-.92-.78-1.62-1.2l1.27-.78c.71.46,1.02.7,1.65,1.21.82-.54,1.38-1.02,2.35-2.12h-3.3Z"/>
        <path d="M61.93,222.67c0-.44-.02-1.02-.04-1.35.69.07,1.2.18,1.6.33.36.14.48.23.48.39q0,.09-.06.24c-.2.51-.25,1.08-.25,2.44,0,1.92.12,3.12.42,4.04.22.71.57,1.11.97,1.11.62,0,1.12-.72,1.68-2.38.28.77.39.99.81,1.53.08.1.12.21.12.31,0,.24-.22.75-.53,1.19-.58.85-1.33,1.32-2.13,1.32-1.15,0-2.02-.93-2.56-2.77-.34-1.2-.51-2.71-.51-4.81v-1.58ZM70.86,222.91c.09,0,.17.04.29.15.75.72,1.53,1.92,2.03,3.09.33.79.64,1.86.64,2.17,0,.15-.08.23-.39.39-.34.18-1.05.42-1.23.42-.13,0-.19-.08-.24-.34-.2-1.16-.46-2-.93-2.97-.42-.87-.45-.92-1.47-2.17.63-.46,1.12-.73,1.3-.73Z"/>
        <path d="M81.24,229.12c-.72,1.25-1.71,1.94-2.73,1.94-1.56,0-2.67-1.53-2.67-3.66,0-2.37,1.2-4.41,3.25-5.49,1-.54,2.08-.78,3.51-.78,3.14,0,5.46,2.22,5.46,5.19,0,2.62-1.29,4.51-3.78,5.58-.5.21-.89.33-1.08.33-.18,0-.25-.06-.45-.34-.25-.39-.54-.68-.95-.95,3.09-.79,4.49-2.25,4.49-4.68,0-1.25-.53-2.29-1.46-2.96-.53-.36-.95-.51-1.77-.64-.42,3.16-.92,4.89-1.83,6.46ZM79.08,223.81c-1,.88-1.58,2.15-1.58,3.55,0,1.16.38,1.83,1,1.83.75,0,1.52-1.04,2.08-2.82.36-1.12.54-1.98.77-3.65-1.07.23-1.59.48-2.28,1.08Z"/>
        <path d="M94.63,230.44c0,1.41-1.14,2.55-2.54,2.55s-2.53-1.14-2.53-2.55,1.14-2.54,2.53-2.54,2.54,1.14,2.54,2.54ZM90.73,230.44c0,.76.61,1.38,1.36,1.38s1.37-.62,1.37-1.38-.62-1.37-1.37-1.37-1.36.62-1.36,1.37Z"/>
        <path d="M105.34,224.5h-.09c-.08.01-.13.01-.17.01-.13,0-.21-.06-.25-.25-.09-.38-.15-.83-.18-1.41.21.02.38.02.48.02.81,0,1.75-.06,2.55-.17.15-.99.23-1.74.23-2.37v-.34c1.74.24,2.07.33,2.05.6,0,.08-.03.12-.09.25-.18.34-.2.39-.44,1.58.58-.11,1.33-.3,1.64-.41.06-.03.07-.03.12-.03.13,0,.16.06.28.58.06.3.12.72.12.84,0,.1-.04.16-.18.19q-.27.09-2.33.45c-.69,3.06-1.41,5.29-2.56,8-.08.19-.15.27-.24.27-.2,0-.72-.21-1.23-.5-.26-.13-.33-.2-.33-.29,0-.06.04-.17.12-.31,1.14-2.16,1.97-4.46,2.54-6.92-.66.08-1.12.12-2.04.2ZM111.75,230.2c.43.29,1.06.42,1.95.42.97,0,1.81-.09,2.29-.24.12-.03.15-.04.21-.04.13,0,.19.04.24.18.11.31.18.93.18,1.39,0,.2-.06.27-.26.32-.49.1-1.33.17-2.22.17-1.88,0-2.92-.3-3.61-1.02-.25-.27-.46-.6-.58-.97-.09-.22-.15-.48-.15-.57,0-.25.45-.52,1.23-.78.17.63.34.92.72,1.15ZM115.96,225.84c-.3-.04-.93-.08-1.46-.08-1.11,0-1.58.04-2.89.27-.03.02-.08.02-.11.02-.09,0-.13-.03-.17-.12-.04-.11-.1-.84-.1-1.16,0-.19.03-.29.15-.33.06-.03.15-.04.46-.1,1.02-.18,1.88-.25,2.92-.25.87,0,1.32.03,1.43.1.07.06.09.18.09.67,0,.44-.03.83-.06.92-.01.04-.08.08-.15.08-.03,0-.08,0-.12-.01ZM114.31,220.56c.2,0,1.47,1.42,1.47,1.65,0,.06-.1.19-.22.29-.06.04-.15.12-.25.21-.13.12-.18.15-.33.21t-.08.03c-.06,0-.06-.01-.34-.45-.25-.39-.74-.99-.99-1.22-.03-.03-.07-.09-.07-.1.03-.06.04-.09.04-.09.07-.09.33-.3.39-.34.15-.08.24-.14.25-.15.01-.03.03-.03.04-.03h.09ZM116.85,221.61c-.21.15-.36.24-.43.24-.06,0-.09-.03-.17-.15-.33-.54-.65-.93-1.14-1.43-.04-.04-.06-.07-.06-.12,0-.14.57-.56.76-.56.11,0,.29.15.62.5.48.5.83.95.83,1.09,0,.09-.11.2-.41.42Z"/>
        <path d="M120.42,225.07c-.12.03-.18.06-.27.11-.08.04-.12.06-.2.06-.32,0-.55-.58-.74-1.69.12.01.23.01.29.01.63,0,2.24-.2,3.2-.39.31-1.32.48-2.31.48-3.03,0-.06,0-.13-.01-.25.64.08,1.26.21,1.68.38.24.09.36.22.36.38,0,.08-.02.12-.09.24q-.23.4-.69,2.05c.36-.04.76-.08,1.02-.08.62,0,1.1.12,1.44.36.6.43.9,1.32.9,2.68,0,2.24-.41,4.14-1.1,5.08-.48.66-1.11.97-1.99.97-.54,0-1.05-.07-1.2-.17q-.12-.07-.17-.63c-.04-.4-.13-.75-.32-1.17.78.25.98.3,1.46.3.72,0,1.02-.34,1.35-1.54.23-.79.35-1.83.35-2.92,0-1.17-.29-1.59-1.08-1.59-.27,0-.71.03-1.05.09-.04.17-.06.18-.12.39-.42,1.53-1.19,3.55-1.95,5.17-.79,1.63-.99,1.96-1.18,1.96-.12,0-.53-.21-.96-.5-.35-.21-.44-.3-.44-.42q0-.08.62-1.05c.83-1.28,1.91-3.78,2.28-5.25-1.11.24-1.73.39-1.86.43ZM128.07,223.39c0-.1.14-.24.57-.58.3-.22.45-.31.55-.31.09,0,.17.04.36.24.88.86,1.71,2,2.19,2.99.15.33.24.54.24.63,0,.15-.04.2-.52.58-.3.24-.65.43-.77.43-.1,0-.15-.04-.25-.3-.3-.73-.58-1.3-.94-1.86-.39-.6-.47-.69-1.35-1.64-.06-.09-.08-.13-.08-.18Z"/>
        <path d="M141.69,225.1c2.05,0,3.39,1.21,3.39,3.06s-1.12,3.02-3.37,3.74c-.81.25-2.15.5-2.75.5-.32,0-.39-.08-.6-.51-.16-.35-.34-.56-.79-.87,3.77-.3,5.62-1.26,5.62-2.9,0-.92-.64-1.46-1.72-1.46-1.37,0-2.78.71-3.93,1.95-.21.21-.41.46-.54.69-.13.22-.23.3-.36.3-.22,0-.75-.22-1.11-.5-.18-.13-.24-.24-.24-.48q0-.12.04-.48s0-.15.01-.31c.08-.96.12-1.37.3-2.72q.03-.16.14-.87s.04-.33.12-.89c.01-.13.03-.25.03-.49.72.1,1.4.27,1.68.43.12.06.18.13.17.22,0,.06-.03.11-.07.2-.17.25-.21.39-.35.96-.13.57-.34,1.89-.38,2.38,1.53-1.41,2.87-1.96,4.71-1.96ZM141.42,220.83c.58.34.76.51.76.67,0,.13-.24.58-.5.96-.24.34-.33.42-.45.42-.07,0-.12-.03-.3-.17-1-.76-1.8-1.2-2.92-1.59-.22-.09-.27-.12-.27-.24,0-.15.12-.41.39-.79.24-.36.34-.45.51-.45.36,0,1.83.63,2.78,1.19Z"/>
        <path d="M152.46,222.73c.63,0,1.02-.01,1.35-.04-.03.38-.04.63-.04,1.19v1.67c0,.54.01.82.04,1.18-.45-.03-.85-.04-1.48-.04h-2.33v4.42c0,.9.01,1.32.08,1.68h-1.67c.06-.42.09-.88.09-1.77v-6.71c0-.43,0-.66-.01-1.06-.29-.42-.57-.75-.93-1.05.72-.54.99-.79,1.4-1.33.4-.55.61-.93.83-1.53l1.5.38c-.15.29-.18.34-.34.63h1.86c.71,0,1.05-.02,1.41-.08v1.18c.54-.69.84-1.3,1.05-2.11l1.53.31c-.12.25-.13.29-.34.71h2.71c.74,0,1.16-.03,1.58-.09v1.41c-.45-.04-.86-.08-1.5-.08h-.99c.2.27.3.43.5.76l-.92.38h.97c.69,0,1.11-.01,1.49-.06-.04.45-.06.95-.06,1.63v6.94c0,.65-.18,1.05-.56,1.25-.27.14-.71.2-1.6.2-.25,0-.46,0-.9-.03-.04-.48-.1-.76-.22-1.11-.36-.02-.63-.03-1.14-.03h-2.91v.58h-1.47c.04-.39.06-.72.06-1.28v-2.44c0-.55-.01-.92-.04-1.28.38.03.72.04,1.33.04h3.03c.64,0,.97-.01,1.36-.04-.03.35-.04.72-.04,1.28v1.92c0,.39,0,.57.02.92.33.04.84.08,1.08.08.42,0,.51-.06.51-.38v-4.25h-2.49c-.63,0-1.05.01-1.49.04.03-.33.05-.67.05-1.18v-1.67c0-.51-.02-.84-.05-1.19l.09.02c-.29-.29-.63-.54-1.07-.79.13-.14.2-.18.27-.29-.23-.02-.58-.03-.93-.03h-.84c.12.18.29.43.48.78l-.92.36h.63ZM151.41,222.73c-.14-.33-.33-.72-.56-1.14h-.7c-.32.42-.57.72-.98,1.12.27.01.44.01.69.01h1.54ZM150,224.28h2.37v-.54h-2.37v.54ZM150,225.67h2.37v-.54h-2.37v.54ZM152.88,228.82h2.82v-.6h-2.82v.6ZM152.88,230.41h2.82v-.6h-2.82v.6ZM157.39,222.73c-.24-.46-.38-.72-.66-1.14h-.99c-.38.57-.45.67-.83,1.11.34.03.66.03,1.17.03h1.3ZM156.21,224.28h2.5v-.54h-2.5v.54ZM156.21,225.67h2.5v-.54h-2.5v.54Z"/>
        <path d="M165,228.03c-.65,0-1,.02-1.53.04.04-.45.06-.82.06-1.44v-3.03c0-.72-.02-1.11-.06-1.53.39.04.72.06,1.32.06-.33-.69-.67-1.2-1.28-1.89l1.44-.6c.66.79.94,1.2,1.41,2.03l-1.1.46h5.46c.67-.96,1.09-1.71,1.42-2.56l1.68.54c-.63,1.01-.96,1.52-1.37,2.03.79,0,1.11-.01,1.53-.06-.04.42-.06.75-.06,1.53v3c0,.69.01,1.08.06,1.47-.46-.03-.94-.04-1.53-.04h-3.04v.95h4.21c.72,0,1.16-.02,1.58-.08v1.6c-.41-.06-.99-.09-1.73-.09h-4.06v.95c0,.71.01.99.09,1.46h-1.75c.08-.42.09-.74.09-1.46v-.95h-3.9c-.74,0-1.26.03-1.71.09v-1.6c.43.06.88.08,1.57.08h4.04v-.95h-2.85ZM167.85,223.42h-2.77v.99h2.77v-.99ZM167.85,225.63h-2.77v1.09h2.77v-1.09ZM168.33,222.06c-.32-.87-.51-1.27-1.14-2.25l1.49-.42c.57.84.74,1.16,1.17,2.15l-1.51.52ZM172.39,224.41v-.99h-2.97v.99h2.97ZM172.39,226.72v-1.09h-2.97v1.09h2.97Z"/>
        <path d="M180.73,228.4c.04.08.06.13.06.21,0,.11-.02.12-.15.45-.3.69-.66,1.77-.84,2.58-.04.17-.09.25-.15.29-.08.03-.58.1-.75.1h-.06c-.08,0-.18-.01-.3-.01-.2,0-.24-.04-.3-.23-.29-.97-.51-2.98-.51-4.5,0-1.65.1-2.67.52-4.92.15-.81.22-1.26.29-1.75.63.12,1.17.27,1.62.48.25.11.33.18.33.33,0,.11-.02.15-.18.39-.5.79-1.05,3.98-1.05,6.12,0,.34.02.81.06,1.56.42-.94.57-1.23.92-1.96.13.32.22.46.49.87ZM183.99,229.47c.48.25,1.05.34,2.06.34s1.53-.08,2.46-.34c.09-.03.17-.04.21-.04.1,0,.18.06.19.21.08.51.13,1.11.13,1.41,0,.15-.04.2-.25.26-.81.21-1.63.31-2.64.31-1.38,0-2.23-.17-2.94-.58-.66-.41-1.35-1.23-1.35-1.63,0-.21.32-.5,1.12-.99.27.54.53.81,1,1.07ZM182.94,221.82c.33.08,1.29.14,2.03.14.99,0,1.98-.08,2.91-.24q.08-.01.14-.01c.1,0,.15.04.18.16.03.15.08.81.08,1.22,0,.22-.04.3-.21.33-.62.12-1.63.19-2.71.19-1.29,0-2.45-.08-2.59-.17-.08-.04-.11-.15-.11-.42,0-.41.04-1,.08-1.12.01-.06.06-.09.15-.09.02,0,.05,0,.08.01Z"/>
        <path d="M196.83,227.16c-.05.18-.06.29-.09.62-.12,1.37-.61,2.5-1.39,3.3-.45.45-1.08.88-1.7,1.19-.39.18-.75.31-1.56.55-.33-.71-.54-1.05-1.04-1.61.88-.12,1.35-.25,1.96-.54,1-.45,1.58-1.02,1.84-1.78.14-.39.24-.95.24-1.33,0-.14-.01-.33-.03-.48l1.75.09ZM191.34,228.28c.04-.34.06-.64.06-1.03v-1.01c0-.43-.01-.72-.06-1.06.45.04.86.06,1.54.06h9.51c.71,0,1.05-.01,1.58-.06-.04.3-.06.57-.06,1.02v1.04c0,.44.02.74.06,1.05h-1.68v-1.65h-9.3v1.65h-1.65ZM196.77,220.56c0-.51-.01-.78-.08-1.11h1.75c-.06.3-.07.57-.07,1.11v.17h3.88c.79,0,1.35-.03,1.72-.09v1.53c-.45-.04-.96-.08-1.7-.08h-3.91v.95h3.19c.72,0,1.11-.02,1.47-.08v1.48c-.42-.04-.75-.06-1.47-.06h-7.86c-.67,0-1.02.01-1.46.06v-1.48c.36.06.75.08,1.46.08h3.06v-.95h-3.69c-.75,0-1.23.01-1.71.08v-1.53c.36.06.93.09,1.74.09h3.66v-.17ZM199.77,230.59c0,.38.13.43,1.07.43,1.06,0,1.36-.04,1.5-.25.14-.17.2-.57.27-1.77.48.24.92.38,1.53.48-.12,1.47-.35,2.25-.72,2.59-.34.32-1.02.42-2.68.42-2.16,0-2.56-.19-2.56-1.23v-2.96c0-.58-.02-.88-.06-1.2h1.74c-.06.35-.08.57-.08,1.12v2.36Z"/>
        <path d="M208.48,230.38c-.6,0-1.05.01-1.54.06.04-.41.06-.9.06-1.7v-3.31c0-.71-.02-1.18-.06-1.62.45.03.77.04,1.5.04h7.3c.84,0,1.17-.01,1.59-.04-.04.46-.06.87-.06,1.63v3.35c0,.79.01,1.32.06,1.65-.46-.04-.92-.06-1.53-.06h-1.07c1.02.57,2.37.93,4.12,1.12-.33.43-.51.75-.78,1.41-1.29-.19-1.92-.36-2.83-.72-.87-.36-1.35-.6-2.11-1.11l.85-.71h-4.03l.9.71c-.71.52-1.16.78-1.96,1.11-.92.38-1.54.55-2.64.76-.18-.51-.41-.84-.87-1.32,1.84-.29,3.13-.71,3.94-1.26h-.84ZM218.14,222.19c0,.54.01.81.06,1.16-.36-.03-.72-.04-1.48-.04h-9.2c-.72,0-1.18.01-1.5.04.04-.36.06-.62.06-1.16v-1.12c0-.55-.02-.81-.06-1.21.41.04.81.06,1.62.06h8.94c.81,0,1.22-.02,1.62-.06-.04.39-.06.66-.06,1.21v1.12ZM209.56,221.14h-2v.93h2v-.93ZM208.56,225.69h7.16v-.63h-7.16v.63ZM208.56,227.4h7.16v-.62h-7.16v.62ZM208.56,229.17h7.16v-.68h-7.16v.68ZM213.01,221.14h-2v.93h2v-.93ZM216.61,222.07v-.93h-2.14v.93h2.14Z"/>
        <path d="M222.63,223.62c-.39.09-.53.13-1.07.33-.19.08-.3.11-.39.11-.33,0-.63-.62-.9-1.91.96-.04,1.31-.09,2.97-.34,1.8-.27,4.08-.62,5.28-.76,1.35-.18,2.43-.36,3-.48.1-.03.15-.03.22-.03.2,0,.27.09.41.46.12.31.21.76.21.97,0,.18-.06.24-.27.24-.32,0-.6.03-.89.08-2.53.42-4.56,2.64-4.56,4.98,0,1.75,1.38,2.91,3.72,3.12.21.01.29.09.29.27,0,.38-.15,1.09-.29,1.42-.08.17-.19.24-.39.24s-.65-.09-1.11-.22c-2.55-.75-3.88-2.37-3.88-4.67,0-1.25.41-2.4,1.19-3.39.42-.54.78-.84,1.63-1.43-1.96.33-4.04.72-5.17,1.01ZM230.31,224.01c.21,0,1.48,1.42,1.48,1.65,0,.08-.09.17-.36.41-.29.24-.3.24-.42.29q-.08.03-.11.03c-.06,0-.08-.02-.34-.44-.24-.38-.5-.71-.97-1.2-.03-.03-.08-.1-.08-.12.03-.08.04-.12.06-.12.04-.06.3-.27.36-.32.15-.08.24-.13.25-.15.01-.03.04-.03.04-.03h.08ZM232.87,225.04c-.22.17-.36.25-.43.25-.06,0-.09-.03-.17-.15-.45-.67-.67-.96-1.16-1.42-.03-.04-.06-.09-.06-.12,0-.08.09-.17.3-.31.21-.15.39-.24.46-.24.11,0,.29.13.6.45.44.45.84,1,.84,1.14,0,.09-.11.2-.39.41Z"/>
        <path d="M240.24,223.03c-1.29.22-2.62.38-3.43.38-.24,0-.34-.05-.38-.18-.06-.22-.12-.67-.15-1.23,1.22,0,2.15-.08,3.48-.29q-.08-.22-.27-.78c-.13-.36-.25-.66-.42-.97.65-.13,1.23-.21,1.77-.21.13,0,.21.09.21.24v.21c0,.27.06.63.21,1.21,1.12-.25,2.08-.57,2.85-.9.12-.04.15-.06.2-.06.07,0,.12.08.25.39.13.34.27.74.27.81s-.03.11-.12.15c-.88.38-1.29.51-3.03.95.21.52.27.66.52,1.2.83-.22,1.23-.36,1.53-.51l1.41-.71s.04-.03.04-.03c.01,0,.04.01.06.01.06,0,.12.09.25.38.18.36.33.76.33.85q0,.11-.31.27c-.83.45-1.47.71-2.55,1,.6.88,1.46,1.84,1.96,2.21.51.36.52.39.52.54,0,.13-.15.45-.43.94-.25.44-.38.56-.54.56-.09,0-.11,0-.33-.17-.76-.58-2.31-.99-3.79-.99-1.29,0-2.1.45-2.1,1.2,0,.46.36.84,1,1.08.58.21,1.88.34,3.27.34.33,0,.62-.01,1.2-.04-.27.39-.41.66-.58,1.29-.09.31-.2.38-.66.38-1.6,0-3.03-.18-3.99-.53-1.28-.45-1.95-1.29-1.95-2.42,0-1.6,1.32-2.58,3.51-2.58,1.35,0,2.21.15,3.15.57-.84-.79-1.29-1.33-1.72-2.04-.72.15-1.08.21-1.56.29-.86.12-2.42.24-3.04.24-.48,0-.5-.02-.63-1.42.33.01.58.01.73.01.96,0,2.79-.2,3.79-.41-.18-.38-.38-.81-.54-1.24Z"/>
        <path d="M19.33,249.46c-.27.02-.43.03-.61.05-.14.01-.15.01-.17.01-.12,0-.18-.04-.23-.2-.08-.24-.18-1.04-.19-1.48.17.01.6.03,1.14.03.17,0,1.35-.07,1.88-.12.25-1.21.34-1.84.34-2.65,1.54.21,2.1.39,2.1.67,0,.11-.01.13-.24.48-.12.18-.17.34-.42,1.27.7-.12,1.12-.22,1.68-.41.1-.03.15-.04.22-.04.11,0,.13.08.23.51.07.38.12.69.12.85,0,.18-.04.21-.43.3-.51.12-1.38.27-2.31.39-.56,1.68-.93,2.58-1.62,3.99-.53,1.05-.83,1.61-1.23,2.24-.12.18-.19.24-.3.24-.15,0-.57-.22-1.09-.61-.24-.17-.3-.24-.3-.35s.06-.19.25-.46c.43-.54,1-1.47,1.5-2.46.42-.82.57-1.17,1-2.35-.58.04-.63.06-1.32.1ZM24.27,258.1c-1.64,0-2.75-.9-2.75-2.23s1.15-2.42,2.7-2.42c.36,0,.53.01,1.14.11-.06-.72-.06-1.01-.12-2.4,0-.29-.03-.67-.06-1.16.77.08,1.35.17,1.64.29.12.04.18.12.18.24,0,.08-.01.13-.03.24-.08.31-.09.54-.09.94,0,.56.04,1.5.09,2.24,1.07.48,1.5.72,2.25,1.3.33.25.45.39.45.51,0,.15-.08.29-.5.96-.18.3-.31.44-.42.44q-.09,0-.51-.39c-.33-.33-.71-.58-1.23-.9,0,1.39-1.02,2.23-2.74,2.23ZM24.24,254.89c-.72,0-1.21.34-1.21.87,0,.5.45.81,1.12.81.79,0,1.21-.41,1.21-1.2,0-.12,0-.24-.02-.24-.3-.15-.7-.24-1.11-.24ZM29.85,250.63c-.18.26-.27.33-.38.33-.08,0-.13-.03-.24-.13-.38-.36-.9-.75-1.46-1.09q-.36-.22-1.02-.53c-.21-.09-.29-.15-.29-.27,0-.11.08-.24.3-.58.36-.53.45-.62.58-.62.28,0,1.39.57,2.19,1.11.65.43.84.61.84.78,0,.12-.24.57-.54,1Z"/>
        <path d="M33.01,248.18c0-.44-.02-1.02-.04-1.35.69.07,1.2.18,1.6.33.36.14.48.23.48.39q0,.09-.06.24c-.2.51-.25,1.08-.25,2.44,0,1.92.12,3.12.42,4.04.22.71.57,1.11.97,1.11.62,0,1.12-.72,1.68-2.38.28.77.39.99.81,1.53.08.1.12.21.12.31,0,.24-.22.75-.53,1.19-.58.85-1.33,1.32-2.13,1.32-1.15,0-2.02-.93-2.56-2.77-.34-1.2-.51-2.71-.51-4.81v-1.58ZM41.94,248.42c.09,0,.17.04.29.15.75.72,1.53,1.92,2.03,3.09.33.79.64,1.86.64,2.17,0,.15-.08.23-.39.39-.34.18-1.05.42-1.23.42-.13,0-.19-.08-.24-.34-.2-1.16-.46-2-.93-2.97-.42-.87-.45-.92-1.47-2.17.63-.46,1.12-.73,1.3-.73Z"/>
        <path d="M52.32,254.63c-.72,1.25-1.71,1.94-2.73,1.94-1.56,0-2.67-1.53-2.67-3.66,0-2.37,1.2-4.41,3.25-5.49,1-.54,2.08-.78,3.51-.78,3.14,0,5.46,2.22,5.46,5.19,0,2.62-1.29,4.51-3.78,5.58-.5.21-.89.33-1.08.33-.18,0-.25-.06-.45-.34-.25-.39-.54-.68-.95-.95,3.09-.79,4.49-2.25,4.49-4.68,0-1.25-.53-2.29-1.46-2.96-.53-.36-.95-.51-1.77-.64-.42,3.16-.92,4.89-1.83,6.46ZM50.16,249.32c-1,.88-1.58,2.15-1.58,3.55,0,1.16.38,1.83,1,1.83.75,0,1.52-1.04,2.08-2.82.36-1.12.54-1.98.77-3.65-1.07.23-1.59.48-2.28,1.08Z"/>
        <path d="M68.05,250.3c.03,1.12.06,1.71.21,3.21,1.26.41,1.86.66,2.75,1.14,1.18.67,1.79,1.12,1.79,1.33,0,.18-.2.52-.54,1.02-.23.33-.39.48-.51.48-.08,0-.14-.03-.24-.14-1.07-1.02-1.92-1.57-3.18-2.08-.03.91-.2,1.39-.63,1.84-.53.52-1.44.81-2.62.81-1.96,0-3.17-.87-3.17-2.29,0-1.51,1.32-2.47,3.38-2.47.5,0,.93.03,1.3.08-.15-2.46-.2-3.65-.21-5.85-.01-.87-.04-1.39-.13-2.1.69.02,1.38.09,1.79.2.24.08.33.15.33.31,0,.08-.01.12-.06.24-.17.39-.22.96-.25,2.62q.12,0,.58-.03c.72-.04,1.74-.22,2.88-.54.04-.01.08-.01.12-.01.09,0,.12.03.18.18.15.36.32,1.1.32,1.35,0,.12-.06.17-.2.21-1.16.27-2.77.5-3.66.5h-.21ZM65.11,254.62c-1.02,0-1.63.34-1.63.92,0,.53.51.79,1.46.79,1.15,0,1.66-.41,1.66-1.35v-.12c-.49-.18-.92-.24-1.48-.24Z"/>
        <path d="M80.17,255.95c0,1.41-1.14,2.55-2.54,2.55s-2.53-1.14-2.53-2.55,1.14-2.54,2.53-2.54,2.54,1.14,2.54,2.54ZM76.27,255.95c0,.76.62,1.38,1.36,1.38s1.37-.62,1.37-1.38-.62-1.37-1.37-1.37-1.36.62-1.36,1.37Z"/>
      </g>
      <path class="cls-7" d="M328.35,1.42H88.98c-4.68,0-8.47,3.79-8.47,8.47v66.5s-9.69,9.69-9.69,9.69h9.69v.5c0,4.68,3.79,8.47,8.47,8.47h239.38c4.68,0,8.47-3.79,8.47-8.47V9.89c0-4.68-3.79-8.47-8.47-8.47Z"/>
      <g>
        <path d="M98.38,17.17c.38.11.48.18.48.35,0,.1-.01.15-.09.36-.17.44-.29,1.2-.34,2.25-.12,2.42-.18,4.29-.18,5.78,0,.48.04.84.12,1.08.17.5.69.75,1.53.75,1.35,0,2.62-.55,3.79-1.65.54-.51.87-.92,1.42-1.74.09.48.21.79.54,1.47.04.12.08.21.08.35,0,.27-.29.63-1.04,1.3-1.49,1.33-3.13,2.02-4.86,2.02-1.14,0-1.98-.28-2.52-.82-.57-.6-.79-1.38-.79-2.87,0-1.17.01-2.07.13-5.56.02-.53.03-.84.03-.98,0-1.27-.01-1.65-.11-2.29.77.03,1.35.09,1.8.21ZM103.36,21.01c-.06,0-.12-.04-.17-.12-.33-.57-.66-.99-1.16-1.5-.08-.06-.09-.09-.09-.14,0-.09.12-.21.38-.39.22-.17.32-.21.39-.21.12,0,.32.15.69.57.5.54.81.94.81,1.06,0,.17-.66.72-.85.72ZM104.87,18.16c.45.48.83.96.83,1.09,0,.15-.63.68-.81.68-.06,0-.12-.05-.18-.15-.24-.42-.57-.83-1.16-1.42-.06-.06-.07-.09-.07-.12,0-.13.6-.55.78-.55.11,0,.29.15.62.48Z"/>
        <path d="M117.02,21.16c1.57,0,2.61.99,2.61,2.5,0,.87-.39,1.58-1.09,2.01-.43.25-1.18.44-1.89.44-.39,0-.81-.05-.9-.09-.12-.06-.17-.15-.21-.36-.08-.39-.21-.75-.5-1.25.75.18,1.16.24,1.61.24.88,0,1.39-.39,1.39-1.08s-.45-1.07-1.26-1.07c-.63,0-1.37.24-3.33,1.08,1.26,3.12,2.01,5.17,2.01,5.43,0,.14-.1.21-.46.33-.45.18-.83.29-.94.29-.09,0-.15-.06-.18-.18-.34-1.46-.81-2.83-1.74-5.25t-.12.06c-.46.24-.88.48-1.19.71-.18.12-.29.18-.39.18-.13,0-.24-.09-.42-.33-.11-.15-.54-.89-.71-1.21.67-.17,1.28-.38,2.25-.79-.41-.98-.69-1.49-1.14-2.08.81-.3,1.38-.47,1.62-.47.26,0,.32.08.35.38q.03.39.54,1.61c.67-.29,1.24-.48,2.02-.72-.01-.03-.03-.04-.06-.08-.3-.41-.66-.79-1.07-1.12-.06-.04-.09-.09-.09-.13,0-.11.04-.17.33-.42.31-.27.54-.41.63-.41.29,0,1.38,1.04,1.38,1.29,0,.12-.33.48-.67.73.74-.18,1.06-.22,1.62-.22Z"/>
        <path d="M126.77,20.17c-.69.04-1.33.06-1.91.06-.63,0-.67,0-.71-.09-.04-.09-.09-.72-.09-1.16v-.29c.71.03,1,.04,1.38.04s.95-.01,1.4-.03c.08-.87.09-1.17.09-1.47,0-.13,0-.22-.01-.43.72.01,1.27.06,1.71.17.12.03.18.09.18.19,0,.08-.02.14-.09.32-.12.29-.21.67-.27,1.14.96-.08,2.12-.22,2.58-.33.45-.1.76-.17.84-.17.32-.03.54-.09.63-.17.02-.01.03-.01.03-.01.03,0,.04.01.08.01.06,0,.1.06.13.17.03.23.08.75.08,1.08,0,.23-.04.29-.2.32-.88.18-2.71.41-4.29.54-.01.06-.01.09-.01.24-.03.29-.03.32-.04,1.07.66-.15,1.25-.22,1.98-.22.11-.48.12-.6.15-.95,1.16.24,1.72.45,1.72.63,0,.06-.01.11-.13.3-.04.06-.08.11-.11.21,1.94.45,3.17,1.88,3.17,3.72,0,1.64-.88,2.94-2.58,3.84-.63.33-1.51.63-1.84.63-.17,0-.29-.06-.38-.18-.31-.45-.51-.66-.99-1.06,1.56-.29,2.32-.6,3.07-1.21.69-.58,1.02-1.26,1.02-2.1,0-1.2-.71-2.1-1.91-2.44-.9,2.07-1.5,3.04-2.58,4.15.08.25.13.41.27.72.06.12.07.17.07.21,0,.15-.06.19-.4.37-.38.2-.81.35-.96.35-.13,0-.17-.04-.33-.51-.87.61-1.8.94-2.71.94-1.02,0-1.71-.83-1.71-2.02,0-1.88,1.37-3.71,3.63-4.83.01-.78.03-1.44.04-1.74ZM124.66,26.47c0,.38.23.6.6.6.51,0,1.18-.29,1.86-.78-.21-1.02-.3-1.71-.38-2.83-1.32.97-2.08,2.1-2.08,3.01ZM129.91,22.33c-.67.06-1.04.12-1.65.33.03,1.06.06,1.51.18,2.28.63-.8,1.05-1.54,1.47-2.61Z"/>
        <path d="M137.39,25.94c.27-.24.34-.3.45-.3.19,0,1.09.66,1.75,1.29.75.69,1.59,1.7,1.59,1.91,0,.13-.03.17-.46.55-.57.53-.69.62-.79.62-.09,0-.18-.06-.25-.21-.53-.93-1.73-2.16-2.79-2.85-.12-.09-.18-.15-.18-.24,0-.11.03-.15.69-.76Z"/>
        <path d="M153.19,19.99c-.75,0-1.11.01-1.46.06v-1.56c.39.06.72.08,1.46.08h2.54v-.45c0-.67-.03-1.08-.11-1.6h1.72c-.06.4-.06.69-.06,1.66v3.9c0,.48-.03,1.2-.08,1.62l.84-.25v1.45c-.33.11-.58.18-.75.23s-.21.06-.27.08c-.41,2.05-1.41,3.28-3.88,4.71-.32-.51-.63-.91-1.09-1.38,1.08-.52,1.62-.87,2.2-1.38.5-.45.78-.87,1.02-1.47q-.84.21-1.65.41c-1.39.34-1.6.41-1.92.51l-.33-1.67c.21-.01.56-.04.83-.08,1.05-.17,2-.34,2.82-.54.36-.09.54-.13.57-.15.08-.72.09-.83.11-1.29h-2.14c-.72,0-1.07.01-1.47.06v-1.48c.35.04.69.06,1.47.06h2.17v-1.51h-2.54ZM160.39,27.97c0,.95.02,1.3.08,1.79h-1.71c.06-.48.09-.84.09-1.79v-9.7c0-.9-.01-1.23-.09-1.75h1.71c-.06.45-.08.87-.08,1.75v.33h2.57c.76,0,1.08-.02,1.47-.08v1.56c-.34-.04-.75-.06-1.47-.06h-2.57v1.72h2.28c.76,0,1.12-.01,1.47-.06v1.51c-.39-.04-.76-.06-1.47-.06h-2.28v1.91h2.7c.75,0,1.12-.01,1.5-.08v1.59c-.42-.06-.81-.07-1.5-.07h-2.7v1.48Z"/>
        <path d="M172.99,27.64h4.17c.73,0,1.41-.03,1.93-.09v1.74c-.6-.08-1.2-.11-1.92-.11h-9.15c-.67,0-1.33.03-1.98.11v-1.74c.56.06,1.17.09,1.98.09h3.29v-9.3c0-.66-.03-1.08-.09-1.66h1.86c-.06.54-.09,1.02-.09,1.66v2.46h3.39c.63,0,1.17-.03,1.68-.09v1.73c-.54-.06-1.08-.09-1.68-.09h-3.39v5.29Z"/>
        <path d="M186.19,25.31c-.57.51-.92.75-1.75,1.23-.18-.32-.24-.42-.56-.76-.9.54-1.47.84-2.86,1.51-.02.01-.09.04-.2.1l-.13.08-.36-1.68c.38-.09.88-.27,1.62-.58v-3.79h-.42c-.42,0-.74.01-1.11.08v-1.53c.33.04.66.06,1.12.06h.41v-1.79c0-.75-.03-1.18-.09-1.61h1.68c-.08.47-.09.86-.09,1.61v1.79h.27c.46,0,.74-.02,1-.04v1.48c-.31-.03-.6-.04-1-.04h-.27v3.09c.33-.18.5-.27.97-.54v1c.78-.48,1.28-.92,1.71-1.47h-.33c-.6,0-1,.03-1.32.08v-1.44c.31.06.67.08,1.33.08h6.3c.69,0,1.14-.03,1.5-.08v1.42c-.44-.04-.84-.06-1.49-.06h-4.41c-.12.21-.19.33-.39.6h4.58c.7,0,.96-.01,1.41-.04-.03.24-.04.45-.06.86-.08,1.77-.29,3.25-.58,3.9-.3.66-.76.86-2.03.86-.36,0-.63-.02-1.21-.04-.06-.53-.17-.92-.39-1.32-.76.67-1.38,1.08-2.37,1.58-.33-.46-.55-.72-1.04-1.09,1.25-.54,1.86-.9,2.62-1.54.58-.51,1.05-1.11,1.49-1.92h-.86c-.9,1.35-2.13,2.31-4,3.15-.24-.45-.45-.69-.9-1.08,1.63-.63,2.58-1.2,3.33-2.07h-1.12ZM186.62,21.59c-.58,0-1.02.02-1.32.04.05-.4.06-.79.06-1.38v-2.1c0-.6-.01-.87-.06-1.3.45.06.77.08,1.46.08h4.2c.75,0,1.09-.02,1.54-.08-.04.38-.06.69-.06,1.42v2c0,.62.01,1.06.06,1.35-.34-.01-.71-.03-1.3-.03h-4.58ZM186.85,18.8h4.08v-.62h-4.08v.62ZM186.85,20.44h4.08v-.58h-4.08v.58ZM191.23,25.31c-.55,1.2-1.12,2.01-2.01,2.82.62.09,1.07.12,1.49.12.52,0,.67-.15.81-.76.11-.51.18-1.14.25-2.17h-.54Z"/>
        <path d="M202.27,16.61c.62.96,1.33,1.71,2.45,2.57,1.11.84,2.31,1.51,3.63,2.05-.33.46-.54.88-.79,1.59-1.23-.55-2.54-1.35-3.54-2.17-1.14-.92-1.74-1.53-2.54-2.58-.78,1.06-1.33,1.63-2.37,2.52-1.11.95-2.29,1.73-3.58,2.36-.25-.66-.42-.98-.81-1.53,1.25-.54,2.45-1.27,3.54-2.19,1-.81,1.74-1.64,2.36-2.61h1.66ZM202.58,27.77h3.58c.79,0,1.37-.03,1.81-.09v1.71c-.46-.06-1.05-.09-1.81-.09h-9.36c-.81,0-1.4.03-1.86.09v-1.71c.39.06.93.09,1.71.09h.64v-3.45c0-.67-.01-1.12-.07-1.65h1.75c-.06.44-.09.93-.09,1.65v3.45h2.08v-5.86c0-.72-.02-1.11-.09-1.61h1.79c-.06.44-.09.84-.09,1.56v1.42h2.38c.67,0,1.17-.03,1.58-.08v1.68c-.45-.06-.88-.07-1.56-.07h-2.4v2.95Z"/>
        <path d="M211.43,22.25c-.68,0-.99.02-1.47.06v-1.37c.41.04.77.06,1.47.06h1.75c-.24-.54-.38-.79-.54-1.08h-1.54c-.69,0-1.26.03-1.71.07v-1.44c.45.06.9.09,1.63.09h.46c-.27-.5-.45-.74-.97-1.33l1.44-.54c.48.66.67.99,1.11,1.88h.81v-1c0-.44-.03-.84-.08-1.12h1.56c-.03.27-.04.58-.04,1.06v1.07h1.06v-1.07c0-.45-.01-.76-.06-1.06h1.57c-.04.27-.07.67-.07,1.12v1h.9c.5-.69.78-1.21,1.04-1.91l1.47.54c-.31.54-.58.96-.88,1.37h.41c.75,0,1.2-.03,1.63-.09v1.44c-.45-.04-1.02-.07-1.71-.07h-1.46c-.24.54-.34.76-.52,1.08h1.66c.71,0,1.07-.01,1.49-.06v1.37c-.46-.04-.79-.06-1.49-.06h-3.76v.69h3.03c.63,0,1.08-.02,1.47-.06v1.26c-.38-.04-.84-.06-1.47-.06h-3.03v.72h4.04c.81,0,1.32-.03,1.72-.09v1.44c-.52-.06-1.05-.09-1.71-.09h-2.89c.48.42,1.14.8,1.95,1.16.92.38,1.69.6,3,.83-.4.54-.58.85-.82,1.47-2.42-.66-4.05-1.53-5.33-2.86.03.51.03.69.03,1.02v.72c0,.62.03,1.05.09,1.46h-1.7c.06-.42.09-.88.09-1.47v-.69c0-.33,0-.45.03-.99-.66.7-1.18,1.11-2.07,1.59-.92.51-1.82.88-2.94,1.21-.21-.5-.5-.93-.87-1.4,2.08-.43,3.54-1.06,4.71-2.04h-2.67c-.71,0-1.21.03-1.75.09v-1.44c.45.06.95.09,1.74.09h3.81v-.72h-2.85c-.63,0-1.09.01-1.47.06v-1.26c.39.04.82.06,1.47.06h2.85v-.69h-3.61ZM217.09,21.01c.21-.39.34-.69.48-1.08h-3.29c.2.42.3.69.43,1.08h2.37Z"/>
        <path d="M229.61,26.12c-.72,1.25-1.71,1.93-2.73,1.93-1.56,0-2.67-1.53-2.67-3.66,0-2.37,1.2-4.41,3.25-5.49,1-.54,2.08-.78,3.51-.78,3.14,0,5.46,2.22,5.46,5.19,0,2.62-1.29,4.51-3.78,5.58-.5.21-.89.33-1.08.33-.18,0-.25-.06-.45-.34-.25-.39-.54-.67-.95-.95,3.09-.79,4.49-2.25,4.49-4.68,0-1.25-.53-2.29-1.46-2.96-.53-.36-.95-.51-1.77-.64-.42,3.17-.92,4.89-1.83,6.46ZM227.45,20.81c-1,.88-1.58,2.14-1.58,3.55,0,1.16.38,1.83,1,1.83.75,0,1.52-1.04,2.08-2.82.36-1.12.54-1.98.77-3.64-1.07.22-1.59.48-2.28,1.08Z"/>
        <path d="M247.69,22.07h2.13c.68,0,1.1-.03,1.54-.09v1.63c-.48-.04-.93-.08-1.56-.08h-1.62c.86,1.5,2.1,2.75,3.58,3.58-.48.48-.69.78-.99,1.5-.61-.43-1.05-.86-1.62-1.5-.74-.85-1.05-1.32-1.53-2.22.03.54.04,1,.04,1.44v1.82c0,.67.03,1.2.09,1.67h-1.67c.06-.46.09-1,.09-1.68v-1.71c0-.4.02-.88.04-1.48-.91,1.65-1.93,2.76-3.39,3.73-.38-.71-.58-1-.9-1.36,1.54-.89,2.8-2.17,3.67-3.78h-.95c-.64,0-1.11.03-1.58.09v-.6c-.25.36-.43.69-.61,1.21-.38-.58-.6-1.05-.89-1.8.03.46.06,1.27.06,1.91v3.69c0,.76.03,1.32.09,1.77h-1.67c.06-.46.09-1.02.09-1.77v-3.1c0-.57.02-.93.11-1.86-.44,1.46-.87,2.43-1.51,3.41-.18-.68-.38-1.11-.68-1.61.72-.92,1.47-2.61,1.92-4.35h-.57c-.44,0-.69.01-.96.06v-1.53c.24.04.51.06.96.06h.72v-1.16c0-.76-.01-1.14-.08-1.5h1.65c-.06.39-.08.8-.08,1.5v1.16h.43c.36,0,.54-.01.78-.06v1.42c.57-1.02,1.05-2.52,1.09-3.5l1.46.38c-.06.17-.1.34-.21.79-.08.27-.1.41-.18.69h1.15v-.99c0-.62-.03-.99-.09-1.37h1.68c-.06.36-.09.77-.09,1.37v.99h1.7c.72,0,1.14-.03,1.54-.09v1.58c-.42-.04-.9-.08-1.54-.08h-1.7v1.82ZM244.55,20.26c-.25.62-.39.9-.81,1.61q-.36-.38-1.17-.95c.12-.17.17-.24.24-.34-.2-.03-.44-.04-.71-.04h-.38c.34.79.71,1.39,1.36,2.28v-.83c.45.06.87.09,1.56.09h1.53v-1.82h-1.63Z"/>
        <path d="M259.13,25.12c-1.48.87-1.91,1.3-1.91,1.96,0,.27.11.45.33.58.33.2,1.07.3,2.01.3.81,0,1.93-.08,2.7-.18.32-.04.5-.09,1.09-.24h.08c.11,0,.18.08.23.18.09.32.15.77.15,1.31,0,.22-.08.31-.27.36-.36.08-2.03.17-3.12.17-1.83,0-2.8-.12-3.52-.42-.87-.36-1.31-1.04-1.31-1.98,0-.87.41-1.63,1.21-2.28.65-.51.79-.62,2.17-1.39-.12-.5-.34-.71-.81-.71-.62,0-1.26.24-1.96.71-.43.3-.95.72-1.26,1.03-.45.47-.5.5-.62.5-.15,0-.46-.34-.78-.87-.15-.25-.24-.45-.24-.55,0-.13.03-.17.39-.39,1.23-.83,2.25-1.88,2.87-2.96-1.07.08-1.62.09-2.21.09-.23,0-.27-.04-.34-.3-.05-.2-.12-.99-.14-1.39.51.07.81.09,1.53.09.58,0,1.23-.02,1.91-.04.31-.86.42-1.4.43-2.1,1.33.23,1.95.45,1.95.71,0,.06-.02.09-.06.18-.1.19-.22.43-.42.9q-.03.06-.04.11c.86-.12,1.61-.27,2.13-.39.33-.09.41-.1.48-.1.12,0,.18.04.21.13.06.27.15.96.15,1.17,0,.17-.06.24-.25.29-.48.13-2.13.39-3.51.52-.45.83-.76,1.31-1.23,1.82.67-.32,1.18-.43,1.78-.43.68,0,1.12.39,1.43,1.23,1.48-.81,2.28-1.25,2.37-1.3.69-.41.98-.63,1.31-1,.61.63,1.27,1.57,1.27,1.83,0,.09-.06.15-.25.2-.74.2-2.1.78-4.38,1.89.01.27.04.96.04,1.44v.72c0,.18-.03.27-.1.32-.08.08-.48.12-.93.12-.51,0-.6-.04-.6-.29v-.06c.03-.43.04-1,.04-1.36v-.08Z"/>
        <path d="M278.6,23.48h.23c.6,0,.96-.02,1.41-.08v1.54c-.43-.06-.82-.09-1.41-.09h-.23v3.46c0,1.02-.51,1.36-2.04,1.36-.33,0-.72-.01-1.35-.04-.08-.63-.2-1.03-.42-1.54.66.12,1.17.17,1.65.17s.6-.07.6-.39v-3.01h-3.63c-.71,0-1.11.01-1.62.08v-1.28c-.51.24-.93.42-1.25.54v4.09c0,1.14-.39,1.42-1.92,1.42-.27,0-.48-.01-.96-.04-.04-.6-.12-.92-.31-1.47.51.06.88.09,1.21.09.36,0,.46-.09.46-.45v-3.09c-.65.23-.66.23-1,.34-.17.05-.41.14-.57.21l-.22-1.59c.34-.04.79-.15,1.8-.48v-2.66h-.66c-.39,0-.67.02-1.04.06v-1.53c.36.06.63.08,1.07.08h.63v-1.18c0-.68-.02-.99-.09-1.47h1.68c-.06.45-.08.79-.08,1.46v1.2h.45c.38,0,.54-.01.81-.04v1.48c-.27-.03-.48-.04-.79-.04h-.46v2.15c.46-.17.6-.21,1.19-.46h-.06v-1.49c.36.04.97.08,1.61.08h1.75v-1.42h-1.32c-.67,0-1.02.01-1.46.06v-1.51c.41.06.81.09,1.46.09h1.32v-.43c0-.42-.03-.72-.09-1.08h1.7c-.06.36-.08.61-.08,1.08v.43h1.68c.66,0,1.07-.03,1.47-.09v1.51c-.42-.04-.78-.06-1.46-.06h-1.7v1.42h2.08c.65,0,1.21-.03,1.62-.09v1.51c-.38-.04-.92-.08-1.67-.08v1.28ZM273.29,22.21c-.45,0-1.17.03-1.49.04v1.16c.46.06.89.08,1.61.08h3.63v-1.28h-3.75ZM273.67,25.06c.72.77,1.08,1.23,1.7,2.18l-1.25.94c-.6-1.04-.83-1.35-1.68-2.29l1.23-.83Z"/>
        <path d="M285.23,22.04c1.89-.52,3.25-.76,4.27-.76,2.12,0,3.42,1.16,3.42,3.03,0,1.12-.46,2.12-1.35,2.87-.58.5-1.46.92-2.61,1.26-.64.18-1.33.32-1.63.32-.18,0-.27-.04-.33-.2-.21-.52-.45-.9-.76-1.21,3.3-.34,4.98-1.39,4.98-3.1,0-.87-.72-1.54-1.65-1.54-1.62,0-3.39.54-5.25,1.57-.15.08-.24.12-.3.12-.25,0-.67-.75-1.02-1.83.74-.1.99-.17,2.24-.51Z"/>
        <path d="M298.7,20.62c-.39.09-.53.13-1.07.33-.19.08-.3.1-.39.1-.33,0-.63-.61-.9-1.9.96-.04,1.31-.09,2.97-.34,1.8-.27,4.08-.62,5.28-.77,1.35-.18,2.43-.36,3-.48.1-.03.15-.03.22-.03.2,0,.27.09.41.46.12.32.21.76.21.98,0,.18-.06.24-.27.24-.32,0-.6.03-.89.08-2.53.42-4.56,2.64-4.56,4.98,0,1.75,1.38,2.91,3.72,3.12.21.01.29.09.29.27,0,.38-.15,1.09-.29,1.42-.08.17-.19.24-.39.24s-.65-.09-1.11-.22c-2.55-.75-3.88-2.37-3.88-4.67,0-1.25.41-2.4,1.19-3.39.42-.54.78-.84,1.63-1.42-1.96.33-4.04.72-5.17,1Z"/>
        <path d="M318.68,21.77c2.12,0,3.62,1.44,3.62,3.48,0,1.4-.74,2.66-1.96,3.39-.86.51-1.91.77-3.09.77-1.91,0-3.02-.77-3.02-2.07,0-1.18.99-2.02,2.4-2.02,1.27,0,2.19.64,2.8,1.96.76-.56,1.08-1.14,1.08-1.95,0-1.29-.92-2.13-2.36-2.13s-3.04.73-4.35,2.04c-.24.24-.46.5-.73.84-.11.15-.18.21-.27.21-.27,0-1.33-1.05-1.33-1.32,0-.13.06-.21.39-.45.34-.27.84-.7,1.47-1.3,1.46-1.38,2.52-2.54,4.09-4.46-1.88.24-3.13.45-3.6.62-.08.02-.12.03-.17.03-.12,0-.2-.08-.29-.3-.18-.45-.27-.95-.32-1.61.41.06.69.08,1.02.08.72,0,1.93-.1,3.51-.29.55-.06.73-.1,1.16-.27.13-.06.21-.08.3-.08.21,0,.42.18.81.78.29.39.38.58.38.71,0,.19-.04.25-.38.46-.27.17-.43.3-.78.63-.75.72-.76.72-1.69,1.67-.66.67-.74.75-1.33,1.35.97-.54,1.74-.76,2.64-.76ZM317.24,26.96c-.23-.15-.48-.22-.77-.22-.46,0-.76.22-.76.58,0,.43.46.71,1.18.71.33,0,.62-.03.99-.14-.18-.5-.33-.72-.64-.93Z"/>
        <path d="M101.12,42.92c-.04.24-.09.94-.09,1.48,0,2.34.38,3.84,1.41,5.68.6,1.07,1.25,1.83,2.26,2.73.86.73,1.29,1.05,2.22,1.54-.54.57-.78.92-1.11,1.6-1.74-1.21-2.64-2.05-3.66-3.39-.88-1.17-1.42-2.29-1.91-3.95-.28,1.16-.54,1.82-1.14,2.91-.57,1.05-1.2,1.83-2.21,2.76-.76.69-1.23,1.05-2.23,1.67-.33-.67-.62-1.04-1.12-1.48,1.48-.79,2.25-1.37,3.15-2.42,1.86-2.13,2.64-4.49,2.64-7.93,0-.56-.01-.83-.07-1.21h1.86Z"/>
        <path d="M109.52,48.65c-.12.03-.18.06-.27.1-.08.04-.12.06-.18.06-.33,0-.57-.57-.75-1.68h.29c.63,0,2.24-.2,3.2-.39.31-1.3.48-2.31.48-3.01,0-.06,0-.15-.01-.25.64.06,1.26.19,1.68.38.24.09.36.21.36.36,0,.08-.02.14-.09.26q-.23.39-.69,2.04c.36-.04.76-.07,1.02-.07.62,0,1.1.12,1.44.36.6.44.9,1.32.9,2.69,0,2.23-.41,4.15-1.1,5.1-.48.66-1.11.97-2,.97-.54,0-1.05-.08-1.2-.17q-.12-.08-.17-.63c-.04-.41-.13-.76-.32-1.18.78.27.98.31,1.46.31.72,0,1.02-.34,1.35-1.56.23-.79.35-1.82.35-2.92,0-1.17-.29-1.59-1.08-1.59-.27,0-.71.04-1.05.09-.04.18-.06.2-.12.39-.42,1.54-1.19,3.55-1.95,5.17-.79,1.63-.99,1.96-1.18,1.96-.12,0-.53-.21-.96-.5-.35-.21-.44-.3-.44-.42q0-.07.62-1.05c.83-1.27,1.91-3.76,2.28-5.25-1.11.25-1.73.39-1.86.44ZM118.94,45.58c-.24.18-.41.25-.48.25-.04,0-.09-.03-.13-.1-.32-.51-.84-1.1-1.28-1.47-.03-.03-.04-.06-.04-.09,0-.06.11-.17.36-.36.25-.18.33-.23.43-.23.24,0,1.56,1.33,1.56,1.58,0,.09-.12.2-.42.42ZM117.35,47.17c0-.1.13-.24.57-.58.3-.22.45-.31.57-.31.2,0,.87.72,1.5,1.6.52.75,1.09,1.82,1.09,2.07,0,.15-.04.19-.52.58-.3.24-.65.43-.77.43-.1,0-.15-.04-.25-.3-.29-.72-.54-1.21-.95-1.86-.4-.64-.43-.67-1.15-1.45-.06-.08-.09-.12-.09-.18ZM119.32,42.56c.25,0,1.53,1.27,1.53,1.53,0,.07-.09.17-.39.38-.27.21-.41.28-.46.28q-.08,0-.38-.42c-.25-.34-.74-.85-1-1.08-.04-.04-.08-.07-.08-.12,0-.12.62-.57.78-.57Z"/>
        <path d="M128.3,50.41c-.05.18-.06.29-.09.62-.12,1.36-.61,2.5-1.39,3.3-.45.45-1.08.88-1.7,1.18-.39.18-.75.32-1.56.55-.33-.71-.54-1.05-1.04-1.6.88-.12,1.35-.25,1.96-.54,1-.45,1.58-1.02,1.84-1.79.14-.39.24-.94.24-1.33,0-.13-.01-.33-.03-.48l1.75.09ZM122.81,51.53c.04-.34.06-.65.06-1.04v-1c0-.43-.01-.72-.06-1.07.45.04.86.06,1.54.06h9.51c.71,0,1.05-.02,1.58-.06-.04.3-.06.57-.06,1.02v1.04c0,.43.02.73.06,1.05h-1.68v-1.65h-9.3v1.65h-1.65ZM128.24,43.81c0-.51-.01-.78-.08-1.11h1.75c-.06.3-.07.57-.07,1.11v.17h3.88c.79,0,1.35-.03,1.72-.09v1.53c-.45-.04-.96-.08-1.7-.08h-3.91v.95h3.19c.72,0,1.11-.01,1.47-.08v1.49c-.42-.04-.75-.06-1.47-.06h-7.86c-.67,0-1.02.02-1.46.06v-1.49c.36.06.75.08,1.46.08h3.06v-.95h-3.69c-.75,0-1.23.02-1.71.08v-1.53c.36.06.93.09,1.74.09h3.66v-.17ZM131.24,53.84c0,.38.13.44,1.07.44,1.06,0,1.36-.05,1.5-.26.14-.16.2-.57.27-1.77.48.24.92.38,1.53.48-.12,1.47-.35,2.25-.72,2.59-.34.31-1.02.42-2.68.42-2.16,0-2.56-.2-2.56-1.23v-2.95c0-.58-.02-.89-.06-1.2h1.74c-.06.34-.08.57-.08,1.12v2.35Z"/>
        <path d="M141.64,48.38q.07-.12.73-1.23c.09.25.18.42.36.66.1.17.15.25.15.34s-.03.17-.39.75c-.25.45-.69,1.38-.87,1.83-.15.42-.21.45-.71.45s-.88-.06-.94-.15c-.09-.12-.15-.93-.15-2.04,0-1.47.11-2.5.5-5.11.04-.3.06-.45.06-.78,1.17.21,1.94.55,1.94.84,0,.08-.02.12-.12.25-.2.29-.32.67-.46,1.47-.18,1-.32,2.33-.32,3.12q.13-.24.23-.41ZM147.08,44v.26c.01.06.01.18.03.34q.01.24.04.62,0,.16.03.72c.04.72.07,1.44.07,1.8,0,2.82-.73,5.01-2.29,6.85-.6.71-1.12,1.11-1.42,1.11-.18,0-.19,0-.51-.24-.29-.22-.67-.42-1.06-.53,1.05-.75,1.62-1.27,2.17-2.07.93-1.33,1.38-2.92,1.38-4.86,0-2.05-.14-3.31-.48-4.23.63-.08,1.09-.11,1.53-.11s.51.03.51.29v.04Z"/>
        <path d="M152.6,47.57h-.09c-.08.01-.14.01-.17.01-.13,0-.21-.06-.25-.25-.09-.38-.15-.84-.18-1.41.21.02.38.02.48.02.81,0,1.75-.06,2.55-.17.15-.99.22-1.75.22-2.37v-.34c1.74.22,2.07.33,2.06.6,0,.08-.03.12-.09.25-.18.35-.19.39-.43,1.58.58-.11,1.33-.3,1.63-.41.06-.03.08-.03.12-.03.13,0,.17.06.29.58.06.3.12.72.12.84,0,.1-.04.17-.18.19q-.27.09-2.32.45c-.69,3.04-1.41,5.29-2.57,8-.08.19-.15.27-.24.27-.2,0-.72-.21-1.23-.5-.25-.13-.33-.21-.33-.29,0-.06.04-.16.12-.31,1.14-2.16,1.96-4.46,2.54-6.93-.66.09-1.12.13-2.04.21ZM159.01,53.27c.44.29,1.07.42,1.95.42.97,0,1.82-.09,2.29-.24.12-.03.15-.04.21-.04.13,0,.2.04.24.18.1.32.18.93.18,1.39,0,.2-.06.27-.25.32-.5.11-1.33.17-2.22.17-1.88,0-2.92-.3-3.62-1.02-.25-.27-.46-.62-.58-.99-.09-.21-.15-.46-.15-.55,0-.26.45-.53,1.23-.78.17.63.34.9.72,1.15ZM163.22,48.91c-.3-.04-.93-.08-1.46-.08-1.11,0-1.57.04-2.89.27-.03.01-.08.01-.1.01-.09,0-.14-.03-.17-.12-.04-.1-.11-.84-.11-1.16,0-.19.03-.28.15-.33.06-.03.15-.04.46-.1,1.02-.18,1.88-.25,2.92-.25.87,0,1.32.03,1.42.1.08.06.09.18.09.68,0,.43-.03.82-.06.91-.02.05-.08.08-.15.08-.03,0-.08,0-.12-.01Z"/>
        <path d="M166.93,45.92c0-.43-.02-1.02-.04-1.35.69.08,1.2.18,1.6.33.36.13.48.22.48.39q0,.09-.06.24c-.2.51-.25,1.08-.25,2.45,0,1.92.12,3.12.42,4.03.22.71.57,1.11.97,1.11.62,0,1.12-.72,1.68-2.38.28.76.39.99.81,1.53.08.11.12.21.12.32,0,.24-.22.75-.53,1.18-.58.86-1.33,1.32-2.13,1.32-1.15,0-2.02-.93-2.56-2.78-.34-1.2-.51-2.71-.51-4.81v-1.58ZM175.85,46.16c.09,0,.17.04.29.15.75.72,1.53,1.92,2.03,3.09.33.79.64,1.86.64,2.17,0,.15-.08.22-.39.39-.34.18-1.05.42-1.23.42-.13,0-.19-.08-.24-.34-.2-1.16-.46-2-.93-2.97-.42-.87-.45-.92-1.47-2.17.63-.46,1.12-.74,1.3-.74Z"/>
        <path d="M184.01,48.29c1.89-.52,3.25-.76,4.27-.76,2.12,0,3.42,1.16,3.42,3.03,0,1.12-.46,2.12-1.35,2.87-.58.5-1.46.92-2.61,1.26-.64.18-1.33.32-1.63.32-.18,0-.27-.04-.33-.2-.21-.52-.45-.9-.76-1.21,3.3-.34,4.98-1.39,4.98-3.1,0-.87-.72-1.54-1.65-1.54-1.62,0-3.39.54-5.25,1.57-.15.08-.24.12-.3.12-.25,0-.67-.75-1.02-1.83.74-.1.99-.17,2.24-.51Z"/>
        <path d="M197.48,46.87c-.39.09-.53.13-1.07.33-.19.08-.3.1-.39.1-.33,0-.63-.61-.9-1.9.96-.04,1.31-.09,2.97-.34,1.8-.27,4.08-.62,5.28-.77,1.35-.18,2.43-.36,3-.48.1-.03.15-.03.22-.03.2,0,.27.09.41.46.12.32.21.76.21.98,0,.18-.06.24-.27.24-.32,0-.6.03-.89.08-2.53.42-4.56,2.64-4.56,4.98,0,1.75,1.38,2.91,3.72,3.12.21.01.29.09.29.27,0,.38-.15,1.09-.29,1.42-.08.17-.19.24-.39.24s-.65-.09-1.11-.22c-2.55-.75-3.88-2.37-3.88-4.67,0-1.25.41-2.4,1.19-3.39.42-.54.78-.84,1.63-1.42-1.96.33-4.04.72-5.17,1Z"/>
        <path d="M209.26,54.34c.45-.57.65-.87.92-1.49.32-.69.45-1.15.66-2.14l1.46.46c-.46,2-.84,2.92-1.67,4.14l-1.37-.97ZM221.14,48.5c0,.63.01.99.06,1.42-.42-.04-.93-.06-1.5-.06h-7.58c-.52,0-1.08.01-1.47.06.04-.45.06-.84.06-1.42v-3.75c0-.67-.01-1.09-.06-1.48.39.04.83.06,1.48.06h7.56c.67,0,1.11-.01,1.5-.06-.05.39-.06.76-.06,1.48v3.75ZM212.24,44.66v1.33h2.87v-1.33h-2.87ZM212.24,47.21v1.35h2.87v-1.35h-2.87ZM214.51,53.8c0,.45.27.53,1.74.53,1.33,0,1.84-.09,2.01-.36.13-.2.2-.57.21-1.53.53.25.93.39,1.51.48-.13,1.53-.27,2.07-.61,2.35-.42.36-1.33.5-3.21.5-2.71,0-3.21-.22-3.21-1.42v-2.28c0-.76-.01-1-.08-1.36h1.71c-.06.38-.08.6-.08,1.36v1.74ZM216.92,53.23c-.57-1.05-1.06-1.72-1.84-2.53l1.16-.74c.84.84,1.27,1.38,1.92,2.35l-1.23.92ZM219.59,46v-1.33h-3v1.33h3ZM219.59,48.56v-1.35h-3v1.35h3ZM221.3,55.12c-.64-1.73-1.06-2.57-2.01-3.92l1.21-.65c.92,1.28,1.56,2.39,2.19,3.77l-1.39.79Z"/>
        <path d="M227.39,48.29c1.89-.52,3.25-.76,4.27-.76,2.12,0,3.42,1.16,3.42,3.03,0,1.12-.46,2.12-1.35,2.87-.58.5-1.46.92-2.61,1.26-.64.18-1.33.32-1.63.32-.18,0-.27-.04-.33-.2-.21-.52-.45-.9-.76-1.21,3.3-.34,4.98-1.39,4.98-3.1,0-.87-.72-1.54-1.65-1.54-1.62,0-3.39.54-5.25,1.57-.15.08-.24.12-.3.12-.25,0-.67-.75-1.02-1.83.74-.1.99-.17,2.24-.51Z"/>
        <path d="M239.36,47.57h-.09c-.08.01-.14.01-.17.01-.13,0-.21-.06-.25-.25-.09-.38-.15-.84-.18-1.41.21.02.38.02.48.02.81,0,1.75-.06,2.55-.17.15-.99.22-1.75.22-2.37v-.34c1.74.22,2.07.33,2.06.6,0,.08-.03.12-.09.25-.18.35-.19.39-.43,1.58.58-.11,1.33-.3,1.63-.41.06-.03.08-.03.12-.03.13,0,.17.06.29.58.06.3.12.72.12.84,0,.1-.04.17-.18.19q-.27.09-2.32.45c-.69,3.04-1.41,5.29-2.57,8-.08.19-.15.27-.24.27-.2,0-.72-.21-1.23-.5-.25-.13-.33-.21-.33-.29,0-.06.04-.16.12-.31,1.14-2.16,1.96-4.46,2.54-6.93-.66.09-1.12.13-2.04.21ZM245.77,53.27c.44.29,1.07.42,1.95.42.97,0,1.82-.09,2.29-.24.12-.03.15-.04.21-.04.13,0,.2.04.24.18.1.32.18.93.18,1.39,0,.2-.06.27-.25.32-.5.11-1.33.17-2.22.17-1.88,0-2.92-.3-3.62-1.02-.25-.27-.46-.62-.58-.99-.09-.21-.15-.46-.15-.55,0-.26.45-.53,1.23-.78.17.63.34.9.72,1.15ZM249.98,48.91c-.3-.04-.93-.08-1.46-.08-1.11,0-1.57.04-2.89.27-.03.01-.08.01-.1.01-.09,0-.14-.03-.17-.12-.04-.1-.11-.84-.11-1.16,0-.19.03-.28.15-.33.06-.03.15-.04.46-.1,1.02-.18,1.88-.25,2.92-.25.87,0,1.32.03,1.42.1.08.06.09.18.09.68,0,.43-.03.82-.06.91-.02.05-.08.08-.15.08-.03,0-.08,0-.12-.01Z"/>
        <path d="M261.14,48.35c2.05,0,3.39,1.21,3.39,3.06s-1.12,3.01-3.37,3.73c-.81.26-2.15.5-2.75.5-.32,0-.39-.08-.6-.51-.16-.34-.34-.55-.79-.87,3.77-.3,5.62-1.26,5.62-2.89,0-.92-.64-1.46-1.72-1.46-1.37,0-2.78.71-3.93,1.95-.21.21-.41.46-.54.69-.13.23-.23.3-.36.3-.22,0-.75-.22-1.11-.49-.18-.14-.24-.24-.24-.48q0-.12.04-.48s0-.15.01-.32c.08-.96.12-1.37.3-2.71q.03-.17.14-.87s.04-.33.12-.88c.01-.13.03-.25.03-.5.72.11,1.4.27,1.68.43.12.06.18.14.17.23,0,.06-.03.1-.07.2-.17.25-.21.39-.35.96-.13.57-.34,1.89-.38,2.38,1.53-1.41,2.87-1.96,4.71-1.96ZM260.87,44.08c.58.34.76.51.76.67,0,.14-.24.58-.5.96-.24.35-.33.42-.45.42-.07,0-.12-.03-.3-.17-1-.76-1.8-1.2-2.92-1.59-.22-.09-.27-.12-.27-.24,0-.15.12-.41.39-.79.24-.36.34-.45.51-.45.36,0,1.83.63,2.78,1.18Z"/>
        <path d="M267.53,52.19c.27-.24.34-.3.45-.3.19,0,1.09.66,1.75,1.29.75.69,1.59,1.7,1.59,1.91,0,.13-.03.17-.46.55-.57.53-.69.62-.79.62-.09,0-.18-.06-.25-.21-.53-.93-1.73-2.16-2.79-2.85-.12-.09-.18-.15-.18-.24,0-.11.03-.15.69-.76Z"/>
        <path d="M286.15,47.77c-.19-.66-.25-1.07-.43-2.91-.06-.72-.12-1.08-.27-1.59.91.01,1.5.06,1.9.17.23.06.33.17.33.33,0,.06-.01.13-.04.25-.1.36-.15.63-.15,1.02,0,.74.15,1.94.32,2.46.09.29.18.39.34.39.36,0,1.68-.69,2.4-1.24.19-.15.22-.17.3-.17.13,0,.27.1.5.39.38.51.67,1.07.67,1.28,0,.17-.11.27-.36.34-.93.25-2.46.85-3.49,1.35-1.83.9-2.66,1.73-2.66,2.66s.76,1.29,2.7,1.29c1.12,0,2.14-.11,3.52-.33.06-.02.17-.03.2-.03.12,0,.19.06.25.18.04.15.15,1.07.15,1.43,0,.21-.06.28-.26.34-.33.08-2.14.18-3.28.18-1.92,0-3.2-.25-3.99-.79-.67-.46-1.04-1.2-1.04-2.1,0-.69.2-1.31.6-1.91.52-.78,1.09-1.27,2.35-2.02-.31-.29-.43-.5-.57-.96ZM291.59,44.41c.12-.09.2-.12.29-.12.21,0,1.51,1.38,1.51,1.61,0,.09-.12.22-.41.46-.3.25-.33.27-.4.27-.09,0-.11,0-.39-.42-.3-.42-.72-.9-1.04-1.17-.04-.04-.07-.09-.07-.13,0-.08.13-.21.51-.5ZM294.85,44.81c0,.09-.04.15-.23.3-.21.18-.49.38-.55.38-.09,0-.12-.04-.3-.29-.34-.5-.55-.73-1.09-1.23-.06-.06-.08-.09-.08-.14,0-.13.57-.57.75-.57.25,0,1.5,1.27,1.5,1.54Z"/>
        <path d="M300.83,46.85c.97-.25,1.62-.35,2.33-.35,2.13,0,3.36,1.26,3.36,3.42,0,1.88-.81,3.39-2.45,4.59-.87.65-2.19,1.29-2.62,1.29-.2,0-.24-.04-.56-.5-.22-.34-.45-.55-.82-.82,1.72-.58,2.44-.96,3.22-1.64.9-.79,1.35-1.75,1.35-2.89,0-1.21-.57-1.91-1.58-1.91-.81,0-1.86.32-3.22.98-.2.09-.3.17-.55.34-.06.03-.12.06-.18.06-.29,0-.77-.84-1.1-1.96.56-.04.84-.12,2.82-.61ZM301.84,43.19c.54.17,1.35.32,2.08.41.3.03.41.04,1.17.07.22,0,.29.06.29.23,0,.5-.11,1.3-.2,1.46-.03.09-.1.12-.21.12-.34,0-1.56-.17-2.26-.32-1.19-.24-2.22-.54-2.43-.71-.05-.04-.08-.1-.08-.17,0-.12.31-.93.46-1.21.08-.12.12-.15.21-.15q.08,0,.96.27Z"/>
        <path d="M317,46.66c-3.29.21-4.56.34-5.5.6-.06.02-.12.03-.17.03-.11,0-.2-.08-.24-.2-.13-.38-.21-.87-.25-1.62h.36c.48,0,.93-.02,2.37-.11,1.11-.06,2.05-.1,3.4-.15-.01-1.35-.03-1.56-.17-2.24,1.16.03,1.74.08,1.95.17.09.04.13.12.13.27,0,.03-.01.09-.04.17-.13.33-.18.66-.21,1.59,2.19-.06,2.52-.06,4.02-.06.41,0,.46,0,.51.04.06.06.09.29.09.79,0,.69-.02.76-.21.76h-.06c-.64-.06-2.25-.12-3.3-.12q-.34,0-1.09.01l-.03,2.46c.23.5.3.92.3,1.63,0,1.88-.69,3.31-2.14,4.38-.6.45-1.37.84-1.63.84-.13,0-.21-.04-.33-.17-.42-.48-.74-.72-1.28-1.02.9-.25,1.37-.46,1.95-.83.43-.29.83-.6,1.11-.92.19-.24.34-.46.57-.95-.43.45-.79.62-1.35.62-1.26,0-2.08-.96-2.08-2.42,0-1.53.97-2.64,2.33-2.64.43,0,.71.06,1,.2v-1.16ZM315.19,50.17c0,.63.36,1.07.9,1.07.57,0,.92-.41.92-1.1s-.33-1.11-.9-1.11c-.54,0-.92.46-.92,1.14Z"/>
        <path d="M101.78,74.27c2.12,0,3.62,1.44,3.62,3.48,0,1.4-.74,2.66-1.96,3.39-.86.51-1.91.77-3.09.77-1.91,0-3.02-.77-3.02-2.07,0-1.18.99-2.02,2.4-2.02,1.27,0,2.19.64,2.8,1.96.76-.56,1.08-1.14,1.08-1.95,0-1.29-.92-2.13-2.36-2.13s-3.04.73-4.35,2.04c-.24.24-.46.5-.73.84-.11.15-.18.21-.27.21-.27,0-1.33-1.05-1.33-1.32,0-.13.06-.21.39-.45.34-.27.84-.7,1.47-1.3,1.46-1.38,2.52-2.54,4.09-4.46-1.88.24-3.13.45-3.6.62-.08.02-.12.03-.17.03-.12,0-.2-.08-.29-.3-.18-.45-.27-.95-.32-1.61.41.06.69.08,1.02.08.72,0,1.93-.1,3.51-.29.55-.06.73-.1,1.16-.27.13-.06.21-.08.3-.08.21,0,.42.18.81.78.29.39.38.58.38.71,0,.19-.04.25-.38.46-.27.17-.43.3-.78.63-.75.72-.76.72-1.69,1.67-.66.67-.74.75-1.33,1.35.97-.54,1.74-.76,2.64-.76ZM100.34,79.46c-.23-.15-.48-.22-.77-.22-.46,0-.76.22-.76.58,0,.43.46.71,1.18.71.33,0,.62-.03.99-.14-.18-.5-.33-.72-.64-.93Z"/>
        <path d="M113.93,78.62c-.72,1.25-1.71,1.93-2.73,1.93-1.56,0-2.67-1.53-2.67-3.66,0-2.37,1.2-4.41,3.25-5.49,1-.54,2.08-.78,3.51-.78,3.14,0,5.46,2.22,5.46,5.19,0,2.62-1.29,4.51-3.78,5.58-.5.21-.89.33-1.08.33-.18,0-.25-.06-.45-.34-.25-.39-.54-.67-.95-.95,3.09-.79,4.49-2.25,4.49-4.68,0-1.25-.53-2.29-1.46-2.96-.53-.36-.95-.51-1.77-.64-.42,3.17-.92,4.89-1.83,6.46ZM111.77,73.31c-1,.88-1.58,2.14-1.58,3.55,0,1.16.38,1.83,1,1.83.75,0,1.52-1.04,2.08-2.82.36-1.12.54-1.98.77-3.64-1.07.22-1.59.48-2.28,1.08Z"/>
        <path d="M125.32,71.99c.34-.9.67-1.38,1.25-1.86.69-.57,1.51-.84,2.56-.84,2.25,0,3.69,1.23,3.69,3.15,0,.64-.18,1.26-.53,1.75-.27.39-.39.51-1.23,1.27-1.17,1.05-1.42,1.46-1.42,2.25v.79h-1.53v-.84c0-.67.13-1.27.41-1.75.21-.38.43-.63,1.03-1.23.63-.62.83-.84.99-1.11.21-.3.33-.72.33-1.12,0-1-.67-1.63-1.74-1.63s-1.69.55-2.14,1.86l-1.67-.69ZM130.1,80.74c0,.66-.53,1.18-1.19,1.18s-1.18-.53-1.18-1.18.52-1.19,1.18-1.19,1.19.53,1.19,1.19Z"/>
      </g>
      <circle class="cls-10" cx="30" cy="83.49" r="30"/>
      <g>
        <path class="cls-6" d="M39.64,72.67c5.99-4.81,10.66-4.4,11.63-2.77.89,1.5-.2,9.39-9.11,4.98"/>
        <path class="cls-4" d="M43.87,75.25c2.15-3.69,6.52-2.97,7.64-2.44-1.95,3.62-3.96,4.96-7.64,2.44Z"/>
        <path class="cls-1" d="M46.87,76.82c-1.31,0-2.94-.38-4.99-1.39-.3-.15-.42-.51-.28-.82.15-.3.52-.42.82-.28,3.32,1.64,5.84,1.68,7.29.12,1.3-1.4,1.35-3.69,1.02-4.24-.21-.35-.72-.62-1.4-.75-.91-.16-4.27-.39-9.33,3.68-.26.21-.65.17-.86-.09-.21-.26-.17-.65.09-.86,3.68-2.96,7.53-4.43,10.31-3.92,1.04.19,1.83.66,2.23,1.32.64,1.09.43,3.95-1.18,5.69-.75.81-1.93,1.54-3.74,1.54Z"/>
        <path class="cls-6" d="M45.12,86.9c1.64-16.82-17.11-22.8-25.64-13.47-2.97,3.25-5.19,9.02-4.06,15.77-3.29,3.25-2.73,7.92,2.42,10.46,3.1,1.53,6.19,2.19,13.34,2.19,6.63,0,14.3-2.8,16.45-6.93,1.2-2.31.78-5.72-2.5-8.03Z"/>
        <path class="cls-2" d="M34.9,69.27c-.6-4.19-4.15-6.52-4.34-.47"/>
        <path class="cls-2" d="M23.22,70.33c-.51-4.2,2.31-7.38,4.07-1.58"/>
        <path class="cls-6" d="M18.76,73.39c-6.66-3.82-11.21-2.69-11.91-.92-.65,1.62,2.36,9.82,10.47,4.08"/>
        <ellipse class="cls-1" cx="34.38" cy="88.84" rx="1.44" ry="1.56" transform="translate(-13.4 6.43) rotate(-8.95)"/>
        <path class="cls-4" d="M15.49,77.21c-2.15-3.69-7.03-2.78-8.16-2.25,1.95,3.62,4.47,4.77,8.16,2.25Z"/>
        <path class="cls-4" d="M28.31,68.79c1.23,7.46-2.33,14.45-12.53,14.45,0-11.42,12.53-14.45,12.53-14.45Z"/>
        <path class="cls-4" d="M30.56,68.8c0,8.41,6.81,12.72,13.84,13.25,0-11.42-13.84-13.25-13.84-13.25Z"/>
        <path class="cls-4" d="M14.34,95.66c13.81-6.39,25.45-3.61,33.28-.74-3.13,7.57-29.25,10.15-33.28.74Z"/>
        <path class="cls-1" d="M31.17,102.46c-7.59,0-10.64-.79-13.61-2.26-2.68-1.33-4.37-3.31-4.74-5.59-.32-1.98.37-3.96,1.94-5.63-1.1-7.13,1.47-12.92,4.26-15.97,4.25-4.65,11.25-5.93,17.42-3.18,3.01,1.34,5.47,3.51,7.11,6.28,1.79,3.02,2.53,6.54,2.2,10.49,3.38,2.56,3.63,6.22,2.4,8.6-2.36,4.54-10.49,7.26-16.99,7.26ZM29.8,69.62c-3.76,0-7.35,1.46-9.87,4.22-2.64,2.89-5.06,8.42-3.91,15.26.03.2-.03.39-.17.53-1.44,1.42-2.08,3.13-1.81,4.79.3,1.88,1.75,3.54,4.07,4.69,2.8,1.38,5.71,2.13,13.07,2.13,6.88,0,14.01-2.96,15.91-6.6,1.03-1.98.75-5.1-2.31-7.25-.18-.13-.28-.34-.26-.56.71-7.25-2.49-13.19-8.56-15.89-2.01-.89-4.11-1.33-6.15-1.33Z"/>
        <path class="cls-1" d="M30.81,98.95c-1.88,0-3.48-.99-4.4-2.72l-.45.09c-.33.07-.65-.14-.72-.47-.07-.33.14-.65.47-.72l.91-.19c.28-.06.57.09.68.35.73,1.67,2.12,2.55,3.82,2.43,1.72-.13,3.25-1.27,3.64-2.72.07-.28.34-.46.62-.45l.77.04c.34.02.59.3.58.64-.02.34-.31.59-.64.58l-.31-.02c-.69,1.72-2.5,2.99-4.57,3.14-.14.01-.27.02-.41.02Z"/>
        <ellipse class="cls-1" cx="34.38" cy="88.84" rx="1.44" ry="1.56" transform="translate(-13.4 6.43) rotate(-8.95)"/>
        <ellipse class="cls-1" cx="26.71" cy="89.2" rx="1.56" ry="1.44" transform="translate(-63.72 111.37) rotate(-87.1)"/>
        <path class="cls-1" d="M12.11,79.18c-1.46,0-2.58-.54-3.4-1.18-2.09-1.64-2.9-4.58-2.43-5.75.29-.72.99-1.3,1.99-1.65,2.66-.93,6.69-.08,10.79,2.27.29.17.39.54.22.83-.17.29-.54.39-.83.22-5.62-3.23-8.91-2.48-9.78-2.18-.65.23-1.11.57-1.26.95-.21.53.31,2.97,2.06,4.35,1.89,1.49,4.48,1.14,7.49-.99.27-.19.65-.13.85.15.19.27.13.65-.15.85-2.23,1.58-4.07,2.14-5.55,2.14Z"/>
        <path class="cls-1" d="M34.9,69.88c-.3,0-.56-.22-.6-.52-.32-2.23-1.48-3.66-2.12-3.62-.31.02-.93.69-1,3.09-.01.34-.3.59-.63.59-.34-.01-.6-.29-.59-.63.11-3.61,1.4-4.22,2.15-4.27.03,0,.06,0,.09,0,1.46,0,2.94,2.06,3.31,4.67.05.33-.18.64-.52.69-.03,0-.06,0-.09,0Z"/>
        <path class="cls-1" d="M23.22,70.94c-.3,0-.57-.23-.6-.54-.32-2.66.61-5.08,2.07-5.39.74-.15,2.14.1,3.19,3.56.1.32-.08.66-.41.76-.32.1-.66-.08-.76-.41-.7-2.3-1.46-2.78-1.77-2.72-.62.13-1.38,1.81-1.11,4.05.04.33-.2.64-.53.68-.02,0-.05,0-.07,0Z"/>
        <path class="cls-1" d="M35.65,80.37c-.65-1.09-1.64-1.26-2.41-.7-.18.13-.11.42.12.44.71.07,1.33.3,1.98.61.22.1.44-.14.31-.35Z"/>
        <path class="cls-1" d="M24.75,80.78c.65-1.09,1.64-1.26,2.41-.7.18.13.11.42-.12.44-.71.07-1.33.3-1.98.61-.22.1-.44-.14-.31-.35Z"/>
        <circle class="cls-1" cx="32.02" cy="94.78" r=".57"/>
        <circle class="cls-1" cx="30.24" cy="94.78" r=".57"/>
      </g>
      <g>
        <g>
          <path class="cls-1" d="M325.32,252.66c1.96.16,1.33,2.32.37,3.57-.2.26-.59.3-.84.08-1.7-1.45-1.11-3.78.47-3.66Z"/>
          <path class="cls-1" d="M325.21,253.52c-.34,0-.62-.28-.62-.62v-3.88l-.98-1.36c-.2-.28-.13-.66.14-.86.28-.2.66-.13.86.14l1.09,1.52c.08.1.12.23.12.36v4.08c0,.34-.28.62-.62.62Z"/>
          <polygon class="cls-5" points="322.28 242.94 315.96 242.35 318.77 248.03 325.21 248.72 322.28 242.94"/>
          <rect class="cls-5" x="315.36" y="246.14" width="6.88" height="2.99" transform="translate(223.15 -144.55) rotate(38.45)"/>
          <path class="cls-1" d="M320.58,252.03c-.13,0-.27-.04-.38-.13-.27-.21-.31-.6-.1-.87l2.32-2.95c.13-.17.34-.25.55-.23l1.17.13-2.27-4.46-4.88-.46.69,1.4c.1.21.08.46-.06.65l-1.87,2.48c-.21.27-.59.33-.86.12-.27-.21-.33-.59-.12-.86l1.64-2.18-1.02-2.05c-.1-.2-.08-.44.04-.62s.34-.29.57-.26l6.32.59c.21.02.4.15.49.34l2.93,5.78c.1.2.09.44-.04.63-.13.19-.35.29-.57.26l-1.97-.21-2.11,2.68c-.12.15-.3.24-.49.24Z"/>
        </g>
        <path class="cls-9" d="M315.75,277.65l1.71-.86,4.59-2.84,2.64-4.39.28-4.79-2.34-9.89-4.79-6.82-5.62-3.02-6.16-.11-6.16,2.16-3.41,3.79-4.85,9.67-1.63,4.07-.28,5.61,3.62,4.23c4.39,3.17,12.82,4.62,22.39,3.2Z"/>
        <path class="cls-11" d="M324.61,266.31c-5.95-1.44-12.03,4.39-11.11,11.55,6.59-1.14,10.95-4.52,11.11-11.55Z"/>
        <ellipse class="cls-1" cx="300.36" cy="264.95" rx="1.91" ry="1.76" transform="translate(-9.45 518.79) rotate(-80.75)"/>
        <ellipse class="cls-1" cx="310.89" cy="266.1" rx="1.76" ry="1.91" transform="translate(-11.71 14.33) rotate(-2.59)"/>
        <path class="cls-11" d="M290.58,263.62c5.2.87,7.66,6.71,5.13,12.44-4.82-3.29-7.39-6.4-5.13-12.44Z"/>
        <path class="cls-1" d="M311.1,278.48c-.33,0-.6-.25-.62-.58-.02-.34.24-.63.58-.65,4.82-.27,12.9-2.05,12.92-10.94,0-1.93-.17-6.91-1.92-11.46-2.11-5.46-5.73-8.5-10.79-9.04-12.14-1.29-14.96,5.89-16.82,10.64-.23.59-.45,1.14-.67,1.63-.21.47-.48,1.01-.76,1.58-1.47,2.98-3.7,7.49-2.19,11.05.9,2.11,3.06,3.71,6.43,4.77,1.39.44,3.2.96,4.76,1.11.34.03.59.33.55.67-.03.34-.34.59-.67.55-1.68-.16-3.56-.71-5.01-1.16-3.72-1.17-6.14-3.01-7.19-5.46-1.74-4.08.64-8.89,2.21-12.08.28-.56.54-1.09.74-1.54.21-.46.42-1,.64-1.58,1.88-4.79,5.03-12.8,18.1-11.41,5.55.59,9.52,3.89,11.81,9.82,1.83,4.74,2.01,9.91,2.01,11.91,0,2.06-.47,5.05-2.62,7.56-2.37,2.76-6.23,4.31-11.47,4.61-.01,0-.02,0-.04,0Z"/>
        <path class="cls-1" d="M299.1,264.31c-.07,0-.13-.02-.19-.07-.78-.62-1.18-1.25-1.48-2.35-.04-.16.05-.33.22-.38.16-.04.33.05.38.22.3,1.1.68,1.56,1.27,2.03.13.11.16.3.05.43-.06.08-.15.12-.24.12Z"/>
        <path class="cls-1" d="M298.9,264.92c-.83,0-1.72-.48-2.42-1.31-.11-.13-.09-.32.03-.44.13-.11.32-.1.44.03.63.74,1.44,1.15,2.12,1.08.17-.02.32.1.34.27.02.17-.1.32-.27.34-.08,0-.15.01-.23.01Z"/>
        <path class="cls-1" d="M311.75,265.52c-.15,0-.28-.11-.31-.27-.02-.17.1-.32.26-.35.68-.09,1.47-.68,1.91-1.43.09-.15.28-.19.42-.11.15.09.2.28.11.42-.54.92-1.49,1.61-2.36,1.73-.01,0-.03,0-.04,0Z"/>
        <path class="cls-1" d="M312.86,266.82c-.38,0-.78-.07-1.16-.25-.16-.07-.22-.25-.15-.41.07-.16.25-.22.41-.15.88.4,1.88.09,2.56-.25.15-.07.34-.01.41.14.08.15.01.34-.14.41-.52.26-1.21.5-1.92.5Z"/>
        <g>
          <path class="cls-3" d="M309.89,271.28c-.69-1.89-3.76-3.93-5.32-3.7-1.56.22-4.86,2.12-5.88,2.06-1.03-.06-1.74-.75-1.86,1.64s1.75,3.62,4.26,2.74c3.48,1.98,9.99.5,8.8-2.74Z"/>
          <path class="cls-3" d="M309.89,273.42c-.77,3.01-5.09,4.77-6.39,4.32s-4.02-1.68-2.59-4.29c2.58.43,8.21.42,8.33-.81s.65.78.65.78Z"/>
          <path class="cls-1" d="M304.81,275.53c-1.1,0-2.27-.34-3.48-1.02-2.37.67-3.69.04-4.39-.63-.88-.84-1.21-2.18-.86-3.5.35-1.34.95-1.45,1.88-1.47.67-.02,1.67-.04,3.32-.9,3.65-1.92,5.78-.82,7.87,1.43.2.22.19.56-.03.76-.22.2-.56.19-.76-.03-1.84-1.98-3.51-2.82-6.57-1.21-1.87.98-3.07,1.01-3.79,1.02q-.69.02-.86.67c-.24.93-.02,1.89.56,2.45.73.7,1.95.8,3.55.31.15-.05.3-.03.43.05,1.98,1.16,4.81,1.86,7.06-1.42.14-.21.41-.29.65-.19,0,0,.74.3,1.4.44.29.06.47.35.41.64-.06.29-.35.48-.64.41-.42-.09-.86-.24-1.17-.35-1.27,1.68-2.82,2.53-4.56,2.53Z"/>
          <path class="cls-1" d="M304.05,278.3c-.58,0-1.15-.1-1.66-.3-2.67-1.04-2.67-3.69-2.66-3.81,0-.3.25-.53.54-.53h0c.3,0,.54.25.53.55,0,.08.02,2.02,1.98,2.79,1.15.45,2.63.23,3.97-.59,1.48-.9,2.46-2.33,2.61-3.82.03-.3.29-.51.59-.48.3.03.51.3.48.59-.19,1.82-1.36,3.55-3.12,4.63-1.05.64-2.19.97-3.26.97Z"/>
        </g>
        <path class="cls-1" d="M300.42,256.61c1.71-.7,3.25-.04,3.97,1.3.17.31-.15.58-.48.41-1.07-.54-2.13-.81-3.29-1.03-.39-.07-.53-.55-.2-.68Z"/>
        <path class="cls-1" d="M314,259.22c-1.26-1.34-2.94-1.38-4.15-.47-.28.21-.11.59.27.58,1.2-.05,2.27.15,3.42.43.38.09.71-.28.47-.54Z"/>
      </g>
    </g>
  </g>
</svg>