<?xml version="1.0" encoding="UTF-8"?>
<svg id="_レイヤー_2" data-name="レイヤー 2" xmlns="http://www.w3.org/2000/svg" width="339.66" height="263.31" viewBox="0 0 339.66 263.31">
  <defs>
    <style>
      .cls-1 {
        fill: #211815;
      }

      .cls-2 {
        fill: #f5f19b;
      }

      .cls-3 {
        fill: #ecbb6e;
      }

      .cls-4 {
        fill: #93c9ce;
      }

      .cls-5 {
        fill: #5c948d;
      }

      .cls-6 {
        fill: #fffba1;
      }

      .cls-7, .cls-8 {
        fill: #fff;
      }

      .cls-9 {
        fill: #d3f2c9;
      }

      .cls-10 {
        fill: #ceeaeb;
      }

      .cls-11 {
        fill: #f2d496;
      }

      .cls-8 {
        stroke: #ceeaeb;
        stroke-miterlimit: 10;
        stroke-width: 2.83px;
      }
    </style>
  </defs>
  <g id="_レイヤー_1-2" data-name="レイヤー 1">
    <g>
      <path class="cls-8" d="M9.89,129.45h239.38c4.68,0,8.47,3.79,8.47,8.47v92.05s9.69,9.69,9.69,9.69h-9.69s0,.5,0,.5c0,4.68-3.79,8.47-8.47,8.47H9.89c-4.68,0-8.47-3.79-8.47-8.47v-102.24c0-4.68,3.79-8.47,8.47-8.47Z"/>
      <circle class="cls-9" cx="308.24" cy="233.31" r="30"/>
      <g>
        <path d="M13.33,146.53c0-.43-.02-1.02-.04-1.35.69.08,1.2.18,1.6.33.36.13.48.22.48.39q0,.09-.06.24c-.2.51-.25,1.08-.25,2.45,0,1.92.12,3.12.42,4.03.22.71.57,1.11.97,1.11.62,0,1.12-.72,1.68-2.38.28.76.39.99.81,1.53.08.11.12.21.12.32,0,.24-.22.75-.53,1.18-.58.86-1.33,1.32-2.13,1.32-1.15,0-2.02-.93-2.56-2.78-.34-1.2-.51-2.71-.51-4.81v-1.58ZM22.25,146.77c.09,0,.17.04.29.15.75.72,1.53,1.92,2.03,3.09.33.79.64,1.86.64,2.17,0,.15-.08.22-.39.39-.34.18-1.05.42-1.23.42-.13,0-.19-.08-.24-.34-.2-1.16-.46-2-.93-2.97-.42-.87-.45-.92-1.47-2.17.63-.46,1.12-.74,1.3-.74Z"/>
        <path d="M27.79,146.53c0-.43-.02-1.02-.04-1.35.69.08,1.2.18,1.6.33.36.13.48.22.48.39q0,.09-.06.24c-.2.51-.25,1.08-.25,2.45,0,1.92.12,3.12.42,4.03.22.71.57,1.11.97,1.11.62,0,1.12-.72,1.68-2.38.28.76.39.99.81,1.53.08.11.12.21.12.32,0,.24-.22.75-.53,1.18-.58.86-1.33,1.32-2.13,1.32-1.15,0-2.02-.93-2.56-2.78-.34-1.2-.51-2.71-.51-4.81v-1.58ZM36.71,146.77c.09,0,.17.04.29.15.75.72,1.53,1.92,2.03,3.09.33.79.64,1.86.64,2.17,0,.15-.08.22-.39.39-.34.18-1.05.42-1.23.42-.13,0-.19-.08-.24-.34-.2-1.16-.46-2-.93-2.97-.42-.87-.45-.92-1.47-2.17.63-.46,1.12-.74,1.3-.74Z"/>
        <path d="M53.17,145.34c.45,0,.77-.01,1.11-.06v1.41c-.36-.06-.65-.07-1.09-.07h-.95v1.24c.29-.01.34-.01.57-.03-.04.42-.06.84-.06,1.92v2.94c0,.84.02,1.33.06,1.65-.36-.04-.84-.06-1.53-.06h-1.04c.57.25.99.42,1.23.5.88.29,1.56.41,2.91.53-.34.54-.38.6-.72,1.47-2.19-.38-3.17-.71-4.79-1.63l1.17-.86h-4.52l1.16.9c-1.77.96-2.64,1.26-4.68,1.57-.25-.61-.36-.82-.78-1.45,2.19-.24,2.88-.41,4.02-1.02h-.83c-.67,0-1.17.02-1.54.06.04-.44.06-.9.06-1.7v-2.89c0-.72,0-.9-.03-1.4-.15.34-.28.53-.69,1.02-.45-.56-.69-.79-1.2-1.23.84-.84,1.16-1.86,1.16-3.72,0-.13-.03-.51-.06-.67.11,0,.2.01.24.01h.3c.77,0,1.95-.1,2.66-.24.57-.12.97-.23,1.42-.44l.9,1.21c-1.35.38-1.92.46-3.98.58,0,.23,0,.29-.01.44h2.85c.46,0,.81-.02,1.07-.06v1.41c-.34-.04-.63-.06-1.04-.06h-.38v1.26h1.84c-.25-.25-.39-.36-.69-.6.58-.73.83-1.62.83-3.01,0-.2-.02-.31-.05-.52.26.03.35.03.47.03.46,0,1.8-.1,2.35-.18.79-.11,1.32-.22,2-.46l.93,1.2c-2.34.45-2.5.46-4.21.55-.01.22-.01.33-.03.46h3.58ZM44.71,147.88v-1.26h-1.19c-.09.48-.19.78-.38,1.23.45.03.72.03,1.23.03h.33ZM44.47,149.69h6.75v-.62h-6.75v.62ZM44.47,151.36h6.75v-.6h-6.75v.6ZM44.47,153.07h6.75v-.63h-6.75v.63ZM49.39,146.62c-.17.57-.29.85-.5,1.26h1.89v-1.26h-1.39Z"/>
        <path d="M57.82,154.79c0,.87.03,1.4.09,1.77h-1.69c.06-.45.09-.87.09-1.79v-9.43c0-.76-.01-1.14-.06-1.62.46.04.78.06,1.47.06h2.53c.75,0,1.07-.02,1.49-.06-.04.44-.04.75-.04,1.33v2.38c0,.67,0,.96.03,1.29-.41-.01-.83-.03-1.32-.03h-2.58v6.09ZM57.82,145.7h2.46v-.75h-2.46v.75ZM57.82,147.58h2.46v-.77h-2.46v.77ZM65.09,153.28c0,.44.01.72.04.99-.33-.03-.62-.04-1.02-.04h-3.21v.96h-1.53c.04-.39.07-.86.07-1.4v-3.09c0-.39-.01-.73-.04-1.02.33.03.65.04,1.07.04h3.55c.45,0,.78-.01,1.11-.04-.03.27-.04.57-.04.99v2.61ZM60.91,152.9h2.73v-1.89h-2.73v1.89ZM68.33,154.81c0,1.32-.36,1.6-2.01,1.6-.22,0-.39,0-1.37-.04-.09-.71-.17-1-.39-1.53.58.08,1.3.12,1.75.12.42,0,.5-.06.5-.36v-5.9h-2.79c-.45,0-1.02.02-1.32.03.03-.34.04-.69.04-1.29v-2.38c0-.51-.01-.92-.04-1.33.45.04.75.06,1.47.06h2.73c.71,0,1.02-.02,1.49-.06-.04.46-.06.93-.06,1.61v9.48ZM64.18,145.7h2.64v-.75h-2.64v.75ZM64.18,147.58h2.64v-.77h-2.64v.77Z"/>
        <path d="M72.95,147.95c-1.06.18-1.3.22-1.56.3-.15.04-.27.06-.36.06-.27,0-.4-.48-.46-1.65.87,0,1.35-.04,2.42-.24,0-.48.01-1.04.01-1.23,0-.58-.03-1.09-.09-1.47,1.58.08,2.04.18,2.04.46q0,.08-.13.39t-.2,1.62c.48.38.74.68.72.87,0,.04-.03.08-.09.14-.22.19-.25.22-.52.61q-.06.08-.15.2l-.06.09c0,.23,0,.25-.02.54.45-.51.87-.93,1.28-1.26,1.32-1.08,2.31-1.53,3.39-1.53s1.77.44,2.29,1.33c.45.78.69,1.88.69,3.17,0,.78-.06,1.38-.23,2.5.72.51,1.5,1.3,1.5,1.51,0,.24-.84,1.08-1.09,1.08-.11,0-.12-.01-.32-.31-.12-.17-.28-.36-.61-.72-.21.39-.33.56-.54.75-.56.51-1.3.78-2.19.78-1.56,0-2.56-.79-2.56-2,0-1.27,1.04-2.23,2.4-2.23.78,0,1.35.1,1.86.33.06-.56.08-.83.08-1.31,0-2.37-.45-3.3-1.59-3.3-.81,0-1.89.57-3.03,1.59-.41.38-.72.69-1.37,1.4v.87c0,1.99.04,4,.11,4.53v.06c0,.27-.21.34-.93.34-.66,0-.79-.06-.79-.34v-.12c.03-.44.04-.96.04-1.62q0-.99.01-2.17s-.03.04-.06.08c-.33.4-.87,1.14-1.22,1.63-.17.24-.25.31-.36.31-.15,0-.42-.27-.88-.87-.18-.23-.29-.42-.29-.5s.08-.17.45-.5c.27-.25,1.29-1.5,1.81-2.19.27-.38.46-.64.58-.84v-1.15ZM78.7,153.1c-.69,0-1.11.29-1.11.75s.32.69.89.69c.5,0,.9-.15,1.17-.45.13-.14.34-.51.34-.57v-.02c-.51-.31-.81-.4-1.29-.4Z"/>
        <path d="M92.41,155.09c0,.66-.53,1.18-1.18,1.18s-1.19-.53-1.19-1.18.53-1.19,1.19-1.19,1.18.53,1.18,1.19ZM91.88,152.87h-1.33l-.41-8.98h2.16l-.42,8.98Z"/>
        <path d="M102.13,148.4c-.66,0-1.04.02-1.35.06v-.77h-1.33c.04-.33.06-.58.06-1.06v-1.07c0-.39-.02-.71-.06-1.08.46.04.88.06,1.59.06h3.75v-.33c0-.34-.01-.58-.08-.9h1.75c-.06.29-.07.53-.07.9v.33h3.96c.71,0,1.11-.01,1.59-.06-.05.36-.06.66-.06,1.05v1.09c0,.43.01.74.06,1.06h-1.32v.77c-.36-.04-.71-.06-1.37-.06h-2.91c0,.27,0,.3-.02.78h2.68c.72,0,.95-.01,1.29-.06v1.38c-.34-.04-.61-.06-1.29-.06h-2.79c-.03.34-.04.46-.11.78h4.5c.75,0,1.06-.01,1.49-.08v1.51c-.51-.06-.93-.09-1.56-.09h-3.67c.5.6.79.87,1.35,1.2.62.39,1.52.74,2.54.99.36.09.81.19,1.59.33-.34.51-.55.96-.75,1.54-1.33-.32-1.92-.5-2.7-.83-1.53-.69-2.5-1.47-3.41-2.73-.5.96-1.12,1.64-2.1,2.25-1,.65-1.92.98-3.51,1.29-.27-.72-.35-.87-.77-1.48,1.49-.21,2.24-.42,3.11-.89.84-.42,1.39-.93,1.84-1.68h-3.17c-.57,0-1.05.03-1.56.09v-1.51c.42.06.72.08,1.47.08h3.76c.06-.25.09-.42.13-.78h-2.44c-.67,0-.96.02-1.29.06v-1.38c.34.04.58.06,1.29.06h2.53c0-.2.02-.46.02-.78h-2.68ZM104.83,147.13c-.01-.45-.03-.66-.06-.93h1.67c-.04.18-.04.35-.06.93h2.88c.56,0,.75,0,1.12-.04v-1.19h-9.37v1.19c.31.03.57.04,1.12.04h2.7Z"/>
        <path d="M117.58,152.54c.04.06.06.11.06.17q0,.09-.25.78c-.32.92-.51,1.67-.57,2.25-.01.2-.08.27-.27.32-.21.06-.61.09-1,.09-.15,0-.22-.03-.27-.12-.13-.29-.38-1.32-.5-2.16-.1-.71-.15-1.44-.15-2.21,0-1.72.2-3.36.74-6.3.09-.48.12-.71.17-1.17.69.09,1.17.23,1.6.44.23.12.32.22.32.36,0,.09-.03.17-.11.29-.61,1.05-1.18,4.29-1.18,6.69,0,.36.01.93.06,1.65.36-.93.52-1.35.85-2.07.11.41.21.6.51,1ZM120.1,148.6c-.72,0-.87-.03-.92-.2-.04-.13-.09-.61-.09-.96,0-.12,0-.24.01-.51.41.03.64.04,1.14.04.81,0,1.32-.01,2.1-.08-.02-1.9-.03-2.14-.18-2.85.74.01,1.29.08,1.77.2.22.06.31.13.31.29,0,.06-.01.1-.06.22-.15.34-.23.93-.25,1.98.55-.07,1.03-.18,1.93-.39.08-.03.1-.03.15-.03.09,0,.13.04.17.15.03.13.07.71.07,1.02,0,.38-.01.44-.17.5-.24.12-.9.23-2.17.39,0,1.03.09,2.74.2,3.72.95.4,1.59.75,2.25,1.21.42.3.51.41.51.51,0,.17-.27.67-.58,1.11-.18.25-.27.33-.38.33s-.1,0-.45-.33c-.33-.33-.67-.58-1.33-1.02v.12c0,1.32-1.09,2.19-2.76,2.19s-2.8-.9-2.8-2.25,1.14-2.36,2.66-2.36c.55,0,.84.02,1.24.08q-.06-1.17-.1-3.18c-.65.04-1.67.09-2.26.09ZM121.33,153.01c-.75,0-1.25.34-1.25.87,0,.48.46.78,1.19.78.79,0,1.21-.36,1.21-1.05,0-.21-.02-.38-.02-.38-.39-.15-.73-.22-1.14-.22Z"/>
        <path d="M128.39,152.8c.27-.24.34-.3.45-.3.19,0,1.09.66,1.75,1.29.75.69,1.59,1.7,1.59,1.91,0,.13-.03.17-.46.55-.57.53-.69.62-.79.62-.09,0-.18-.06-.25-.21-.53-.93-1.73-2.16-2.79-2.85-.12-.09-.18-.15-.18-.24,0-.11.03-.15.69-.76Z"/>
        <path d="M142.42,145.69c.33.06.62.08,1.16.08h3c.58,0,.79-.01,1.16-.06v1.47c-.29-.03-.48-.04-1.1-.04h-3.06c-.51,0-.81.01-1.16.06v-1.5ZM142.84,156.62c.04-.42.07-.9.07-1.38v-2.14c0-.46-.01-.77-.06-1.14.31.03.66.05,1.09.05h2.4c.58,0,.71,0,.96-.05-.03.32-.03.53-.03,1.05v2.31c0,.58.01.84.03,1.11h-1.4v-.48h-1.63v.67h-1.44ZM142.88,143.68c.36.04.6.06,1.2.06h2.1c.58,0,.84-.02,1.2-.06v1.38c-.36-.03-.67-.04-1.2-.04h-2.1c-.52,0-.87.01-1.2.04v-1.38ZM142.93,147.89c.25.03.48.04.94.04h2.54c.46,0,.67-.01.92-.04v1.35c-.32-.03-.51-.04-.92-.04h-2.54c-.46,0-.64.02-.94.04v-1.35ZM142.93,149.89c.29.03.48.04.94.04h2.52c.48,0,.66-.01.93-.04v1.35c-.32-.04-.46-.04-.95-.04h-2.52c-.45,0-.67.02-.93.04v-1.35ZM144.28,154.69h1.63v-1.44h-1.63v1.44ZM151.31,145.39h-1.62c-.69,0-1.19.03-1.65.09v-1.63c.44.06.93.09,1.65.09h4.27c.71,0,1.2-.03,1.65-.09v1.63c-.44-.06-.95-.09-1.65-.09h-1.15v3.51h1.18c.69,0,.96-.01,1.41-.08v1.61c-.45-.06-.75-.08-1.41-.08h-1.18v4.23h1.38c.63,0,1.12-.03,1.6-.09v1.67c-.48-.06-.97-.09-1.63-.09h-4.88c-.71,0-1.2.03-1.6.08v-1.62c.27.04.48.06.88.06v-5.52c0-.73-.02-1.06-.08-1.59h1.62c-.06.42-.08.81-.08,1.59v5.52h1.28v-9.19Z"/>
        <path d="M160.87,148.31c.32-.48.5-.79.72-1.26h-2.04c-.69,0-1.12.01-1.59.06v-1.53c.42.08.81.09,1.59.09h.2c-.24-.51-.55-.99-1.02-1.62l1.5-.45c.45.66.81,1.31,1.15,2.07h.75c.24-.74.45-1.88.45-2.36,0-.01,0-.06-.01-.1l1.74.2c-.06.19-.1.42-.19.81-.09.41-.25,1.02-.41,1.46h1.44c.62-.78.92-1.28,1.29-2.12l1.64.45c-.77,1.16-.81,1.23-1.17,1.67h.69c.81,0,1.18-.01,1.62-.09v1.53c-.46-.04-.92-.06-1.62-.06h-2.08c.29.58.42.83.69,1.26h2.25c.84,0,1.18-.01,1.6-.09v1.54c-.45-.04-.92-.08-1.6-.08h-1.14c.92.92,1.74,1.44,3.15,1.96-.45.54-.6.78-.9,1.53-1-.54-1.41-.81-2.22-1.47-.11,2.04-.24,3.17-.48,3.76-.27.71-.76.92-2.13.92-.34,0-.63-.02-1.24-.04-.09-.77-.15-1.02-.36-1.54.71.1,1.25.15,1.68.15.38,0,.57-.09.63-.3.14-.41.21-.99.29-2.38h-2.33c-.27,1.18-.57,1.83-1.23,2.55-.81.88-1.88,1.47-3.42,1.88-.25-.64-.48-1-.87-1.42.88-.2,1.29-.33,1.82-.57,1.21-.6,1.8-1.29,2.08-2.43h-.44c-.67,0-1.11.01-1.53.08v-.72c-.74.6-1.19.91-2.12,1.44-.21-.54-.45-.85-.99-1.32,1.47-.69,2.16-1.15,3.04-2.05h-1.09c-.74,0-1.14.02-1.59.08v-1.54c.4.08.79.09,1.59.09h2.22ZM161.68,149.69c-.39.5-.66.81-1.08,1.23h5.85c-.41-.42-.67-.75-1.02-1.23h-3.75ZM164.57,148.31c-.25-.48-.32-.63-.57-1.26h-.79c-.2.46-.36.78-.62,1.26h1.98Z"/>
        <path d="M177.53,155.08c0,.75.03,1.2.08,1.56h-1.68c.06-.45.09-.99.09-1.54v-1.35c-1.28.39-2.45.71-3.06.83-.54.11-.94.21-1.15.3l-.41-1.63c.36-.03.58-.06,1.11-.15v-7.86c-.51.01-.62.01-.96.06v-1.56c.4.04.81.08,1.29.08h4.4c.57,0,.9-.01,1.3-.08v.9c.36.03.54.03.92.03h3.78c.39,0,.78-.03,1.17-.07-.03.18-.06.48-.1.92-.21,2.46-.93,4.83-2.05,6.82.79,1.11,1.46,1.71,2.77,2.54-.38.55-.67,1.11-.87,1.62-1.47-1.07-2.05-1.64-2.83-2.73-.91,1.19-1.51,1.74-2.91,2.75-.25-.67-.46-1.05-.87-1.6v.19ZM174.02,146.81h2v-1.59h-2v1.59ZM174.02,149.63h2v-1.53h-2v1.53ZM174.02,152.8q1.02-.21,2-.47v-1.39h-2v1.86ZM177.53,154.85c1.44-.88,2.01-1.4,2.88-2.54-.51-.95-.79-1.63-1.08-2.58-.32-1.08-.42-1.63-.64-3.63-.26.02-.39.03-.6.06v-.93c-.17-.01-.25-.01-.55-.01v9.63ZM180.14,146.09c.33,2.5.53,3.25,1.22,4.71.66-1.33,1-2.57,1.33-4.71h-2.55Z"/>
        <path d="M191.99,150.17c.52,0,.83-.02,1.18-.06-.04.35-.04.41-.06.75-.08,1.92-.39,3.62-.86,4.51-.36.71-.99.96-2.37.96-.66,0-1.37-.03-2.27-.12-.07-.66-.17-1.02-.39-1.65,1.11.2,1.91.27,2.68.27.56,0,.79-.09.93-.36.28-.57.46-1.47.57-2.92h-3.97c-.41,0-.71.01-1.07.04.38-1.46.63-3.17.68-4.58.34.03.63.04,1.14.04h3.21v-1.75h-3.39c-.54,0-1.04.03-1.52.09v-1.6c.48.06.95.09,1.54.09h3.6c.57,0,1.05-.01,1.41-.06-.03.38-.04.69-.04,1.17v2.35c0,.48.02.76.04,1.12-.4-.03-.82-.04-1.29-.04h-3.21c-.11.67-.18,1.16-.32,1.74h3.75ZM197.75,143.53c-.08.54-.09.85-.09,1.6v9.57c0,.86.01,1.26.09,1.84h-1.82c.08-.63.09-1.02.09-1.84v-9.57c0-.75-.02-1.02-.09-1.6h1.82Z"/>
        <path d="M206.42,150.29c0,.66,0,.78.03,1.17-.13,0-.6-.02-1.41-.03h-2.37c-.12,2.4-.43,3.66-1.27,5.13-.45-.55-.75-.83-1.29-1.14.9-1.54,1.14-2.97,1.14-7,0-.95-.03-1.38-.08-1.91.47.03.86.04,1.52.04h2.32c.65,0,1-.01,1.44-.04-.03.32-.03.75-.03,1.3v2.48ZM200.62,143.9c.41.06.78.08,1.56.08h3.11c.87,0,1.18-.01,1.58-.08v1.61c-.36-.04-.77-.06-1.5-.06h-3.27c-.66,0-1.06.01-1.47.07v-1.62ZM204.95,150.05v-2.13h-2.24v1.04c0,.54-.01.67-.01,1.09h2.25ZM208.9,149.21c-.1,1.78-.28,2.89-.64,3.94-.45,1.3-.92,2.04-2.17,3.41-.39-.51-.67-.81-1.18-1.19,1.09-1.05,1.68-1.95,2.04-3.19.33-1.09.47-2.67.47-5.35,0-1.38-.02-1.75-.06-2.24,1.77-.01,4.26-.57,5.38-1.21l.83,1.47c-.27.06-.38.09-.67.18-1.53.48-2.38.68-3.93.89v1.8h3.27c.67,0,.99-.02,1.41-.08v1.63c-.39-.04-.75-.06-1.29-.06h-.21v5.71c0,.76.01,1.11.08,1.56h-1.7c.06-.45.09-.87.09-1.58v-5.7h-1.7Z"/>
        <path d="M218.89,152.26c.04.07.06.13.06.21,0,.1-.02.12-.15.45-.3.69-.66,1.77-.84,2.58-.04.17-.09.25-.15.29-.08.03-.58.11-.75.11h-.06c-.08,0-.18-.02-.3-.02-.2,0-.24-.04-.3-.22-.29-.97-.51-2.99-.51-4.5,0-1.65.1-2.67.52-4.92.15-.81.22-1.26.29-1.75.63.12,1.17.27,1.62.48.25.1.33.18.33.33,0,.1-.02.15-.18.39-.5.79-1.05,3.97-1.05,6.12,0,.34.02.81.06,1.56.42-.95.57-1.23.92-1.96.13.31.22.46.49.87ZM222.14,153.32c.48.25,1.05.34,2.06.34s1.53-.07,2.46-.34c.09-.03.17-.04.21-.04.1,0,.18.06.19.21.08.51.13,1.11.13,1.41,0,.15-.04.2-.25.25-.81.21-1.63.32-2.64.32-1.38,0-2.23-.17-2.94-.58-.66-.41-1.35-1.23-1.35-1.64,0-.21.32-.49,1.12-.99.27.54.53.81,1,1.06ZM221.09,145.67c.33.08,1.29.13,2.03.13.99,0,1.98-.08,2.91-.24q.08-.01.14-.01c.1,0,.15.04.18.17.03.15.08.81.08,1.21,0,.22-.04.3-.21.33-.62.12-1.63.2-2.71.2-1.29,0-2.45-.08-2.59-.17-.08-.04-.11-.15-.11-.42,0-.41.04-1,.08-1.12.01-.06.06-.09.15-.09.02,0,.05,0,.08.01Z"/>
        <path d="M235.06,144.32q-.06.07-.12.21s-.04.07-.09.15q-.07.13-.18.36c-.54,1.14-1.44,2.47-2.4,3.54-.69.78-1.16,1.21-2.21,2.07-.38-.64-.65-1.02-1.1-1.5,1.59-1.08,2.66-2.21,3.56-3.72.45-.75.67-1.27.76-1.77l1.77.66ZM240.26,156.61c-.38-.81-.53-1.09-.76-1.53-2.48.41-5.1.67-7.79.81-1.06.06-1.25.07-1.68.15l-.29-1.83c.29.02.66.03,1.05.03.33,0,.41,0,.83-.01.72-1.26,1.47-2.76,2.12-4.26.48-1.11.67-1.7.83-2.48l1.9.5c-.1.18-.13.25-.29.62-.67,1.72-1.96,4.38-2.68,5.56,2.07-.1,3.36-.21,5.21-.48-.67-1.09-1-1.56-1.83-2.57l1.41-.79c1.42,1.83,2.56,3.54,3.54,5.37l-1.56.92ZM238.15,143.65c.21.75.87,1.92,1.61,2.82.45.57.94,1.08,1.59,1.63.36.32.54.44,1.37.97-.48.56-.72.9-1.08,1.59-1.63-1.31-2.4-2.07-3.32-3.33-.54-.74-.97-1.46-1.33-2.17q-.04-.09-.15-.33c-.03-.06-.08-.17-.13-.29q-.08-.15-.14-.24l1.59-.66Z"/>
        <path d="M14.39,181.06c0,.85.02,1.33.08,1.75h-1.67c.06-.42.09-.88.09-1.79v-9.49c0-.77-.01-1.16-.06-1.62.39.04.76.06,1.47.06h2.61c.76,0,1.09-.01,1.48-.06-.03.43-.04.83-.04,1.33v2.21c0,.66,0,.9.03,1.29-.46-.01-.78-.03-1.32-.03h-2.67v6.34ZM14.39,171.8h2.55v-.75h-2.55v.75ZM14.39,173.6h2.55v-.78h-2.55v.78ZM16.79,177.89c.03-.51.03-.69.03-1.33-.67,0-1.05.01-1.44.06v-1.29c.39.05.78.06,1.46.06h4.18c.71,0,1.09-.01,1.5-.06v1.29c-.41-.04-.76-.06-1.5-.06v1.33h.21c.72,0,1.08-.01,1.49-.06v1.31c-.45-.04-.77-.06-1.49-.06h-.21v2.13c0,.66.01.95.06,1.23h-1.5c.06-.36.07-.6.07-1.23v-2.13h-1.62c-.15,1.52-.63,2.48-1.75,3.55-.38-.4-.64-.64-1.15-.99.97-.75,1.36-1.4,1.56-2.57-.78,0-1.16.02-1.53.06v-1.31c.39.05.75.06,1.49.06h.15ZM18.17,176.56q0,.62-.04,1.33h1.53v-1.33h-1.48ZM25,181.04c0,1.28-.43,1.61-2.05,1.61-.24,0-.43,0-.95-.03-.07-.64-.15-.95-.39-1.51.55.08.99.1,1.33.1.46,0,.55-.06.55-.38v-6.12h-2.83c-.48,0-.99.01-1.32.03.04-.49.04-.6.04-1.29v-2.21c0-.57-.02-.95-.04-1.33.39.04.73.06,1.47.06h2.76c.72,0,1.08-.01,1.49-.06-.04.52-.06.88-.06,1.6v9.52ZM20.81,171.8h2.68v-.75h-2.68v.75ZM20.81,173.6h2.68v-.78h-2.68v.78Z"/>
        <path d="M33.7,170.24c0,.38.18,1.08.54,2.02,1.16-.29,1.83-.52,3.41-1.2.09-.03.13-.04.18-.04.15,0,.25.27.48,1.25.01.08.01.09.03.15.02.03.02.04.02.06,0,.11-.06.17-.21.23-.77.33-1.64.6-3.24,1.02.78,1.46,1.89,2.71,2.97,3.34.08.04.12.11.12.18,0,.18-.33.89-.58,1.25-.13.2-.22.27-.36.27-.1,0-.13-.02-.33-.17-.31-.23-1.06-.57-1.6-.72-.64-.18-1.23-.26-1.92-.26-1.77,0-2.67.5-2.67,1.46,0,.54.29.92.9,1.21.7.35,1.99.54,3.51.54.45,0,.75-.01,1.2-.07-.24.46-.31.66-.6,1.59-.08.22-.2.28-.6.28-1,0-2.27-.13-3.03-.31-2-.5-3.13-1.62-3.13-3.12,0-.72.29-1.42.78-1.93.69-.67,1.8-1.05,3.22-1.05.93,0,1.53.1,2.33.42-.87-.93-1.31-1.53-1.83-2.55-.92.17-1.68.27-2.57.36-.52.04-1.68.12-1.9.12-.21,0-.27-.04-.35-.3-.09-.29-.17-.76-.24-1.42.5.01.73.03,1,.03.9,0,2.38-.12,3.36-.27-.13-.3-.39-.95-.54-1.35-.24-.66-.34-.9-.54-1.23.71-.12,1.47-.19,1.82-.19.29,0,.39.07.39.25v.17Z"/>
        <path d="M44.2,174.14c-.67.13-1.32.3-1.74.45-.11.04-.2.06-.27.06-.13,0-.21-.07-.3-.33-.11-.33-.21-.85-.27-1.38.22.02.33.03.46.03.57,0,1.18-.08,2.13-.25l.03-.9c.02-.21.02-.36.02-.4,0-.65-.02-1.04-.08-1.44.79.03,1.29.09,1.77.21.2.04.29.13.29.27,0,.06-.01.1-.09.27-.13.29-.15.46-.25,1.71.33.23.62.54.62.69,0,.09-.04.17-.18.33-.22.24-.3.34-.58.76q-.03.39-.03.5c.5-.44.82-.72,1.33-1.09.57-.44,1.2-.84,1.65-1.07.58-.32.99-.42,1.53-.42.79,0,1.37.3,1.68.87.18.36.25.71.25,1.29,0,.51-.03.99-.12,2.08-.12,1.29-.18,2.25-.18,2.83s.13.76.55.76c.6,0,1.33-.44,1.98-1.17.01.58.06.76.25,1.37.04.12.06.19.06.25,0,.17-.08.3-.33.5-.61.49-1.5.81-2.29.81-1.32,0-1.92-.69-1.92-2.21,0-.69.04-1.58.2-3.67.04-.5.06-.92.06-1.12,0-.62-.21-.9-.66-.9s-1.33.48-2.52,1.39c-.6.45-.94.76-1.57,1.41v.69c0,1.12.07,3.72.13,4.63v.18c0,.12-.02.17-.04.21-.08.09-.51.15-1.2.15-.43,0-.53-.06-.53-.31,0-.09,0-.24.02-.41v-.34q.01-.53.08-3.38-.86,1.11-1.37,1.93c-.13.21-.23.29-.34.29s-.39-.24-.86-.75c-.29-.33-.39-.46-.39-.55,0-.08.03-.13.13-.24.95-.97,1.74-1.91,2.87-3.31l.03-1.28Z"/>
        <path d="M58.34,173.72c-.39.09-.53.13-1.07.33-.19.08-.3.1-.39.1-.33,0-.63-.61-.9-1.9.96-.04,1.31-.09,2.97-.34,1.8-.27,4.08-.62,5.28-.77,1.35-.18,2.43-.36,3-.48.1-.03.15-.03.22-.03.2,0,.27.09.41.46.12.32.21.76.21.97,0,.18-.06.24-.27.24-.32,0-.6.03-.89.08-2.53.42-4.56,2.64-4.56,4.98,0,1.75,1.38,2.91,3.72,3.12.21.01.29.09.29.27,0,.38-.15,1.09-.29,1.42-.08.17-.19.24-.39.24s-.65-.09-1.11-.22c-2.55-.75-3.88-2.37-3.88-4.67,0-1.25.41-2.4,1.19-3.39.42-.54.78-.84,1.63-1.42-1.96.33-4.04.72-5.17,1Z"/>
        <path d="M71.17,172.78c0-.43-.02-1.02-.04-1.35.69.08,1.2.18,1.6.33.36.13.48.22.48.39q0,.09-.06.24c-.2.51-.25,1.08-.25,2.45,0,1.92.12,3.12.42,4.03.22.71.57,1.11.97,1.11.62,0,1.12-.72,1.68-2.38.28.76.39.99.81,1.53.08.11.12.21.12.32,0,.24-.22.75-.53,1.18-.58.86-1.33,1.32-2.13,1.32-1.15,0-2.02-.93-2.56-2.78-.34-1.2-.51-2.71-.51-4.81v-1.58ZM80.09,173.02c.09,0,.17.04.29.15.75.72,1.53,1.92,2.03,3.09.33.79.64,1.86.64,2.17,0,.15-.08.22-.39.39-.34.18-1.05.42-1.23.42-.13,0-.19-.08-.24-.34-.2-1.16-.46-2-.93-2.97-.42-.87-.45-.92-1.47-2.17.63-.46,1.12-.74,1.3-.74Z"/>
        <path d="M86.41,174.05c-.27.01-.43.03-.61.04-.14.01-.15.01-.17.01-.12,0-.18-.04-.23-.19-.08-.24-.18-1.04-.19-1.49.17.01.6.03,1.14.03.17,0,1.35-.08,1.88-.12.25-1.21.34-1.84.34-2.66,1.54.21,2.1.39,2.1.68,0,.1-.01.13-.24.48-.12.18-.17.34-.42,1.28.7-.12,1.12-.23,1.68-.41.1-.03.15-.04.22-.04.11,0,.13.08.23.51.07.38.12.69.12.85,0,.18-.04.21-.43.3-.51.12-1.38.27-2.31.39-.56,1.68-.93,2.58-1.62,3.99-.53,1.05-.83,1.6-1.23,2.23-.12.18-.19.24-.3.24-.15,0-.57-.22-1.09-.62-.24-.17-.3-.24-.3-.34s.06-.2.25-.46c.43-.54,1-1.47,1.5-2.46.42-.83.57-1.17,1-2.36-.58.04-.63.06-1.32.11ZM91.34,182.69c-1.64,0-2.75-.9-2.75-2.24s1.15-2.41,2.7-2.41c.36,0,.53.01,1.14.1-.06-.72-.06-1-.12-2.4,0-.29-.03-.68-.06-1.16.77.08,1.35.17,1.64.29.12.04.18.12.18.24,0,.08-.01.14-.03.24-.08.32-.09.54-.09.95,0,.55.04,1.5.09,2.23,1.07.48,1.5.72,2.25,1.31.33.25.45.39.45.51,0,.15-.08.29-.5.96-.18.3-.31.43-.42.43q-.09,0-.51-.39c-.33-.33-.71-.58-1.23-.9,0,1.4-1.02,2.24-2.74,2.24ZM91.31,179.48c-.72,0-1.21.34-1.21.87,0,.5.45.81,1.12.81.79,0,1.21-.4,1.21-1.2,0-.12,0-.24-.02-.24-.3-.15-.7-.24-1.11-.24ZM96.92,175.22c-.18.25-.27.33-.38.33-.08,0-.13-.03-.24-.13-.38-.36-.9-.75-1.46-1.1q-.36-.22-1.02-.52c-.21-.09-.29-.15-.29-.27,0-.1.08-.24.3-.58.36-.52.45-.61.58-.61.28,0,1.39.57,2.19,1.11.65.44.84.62.84.78,0,.12-.24.57-.54,1Z"/>
        <path d="M100.09,172.78c0-.43-.02-1.02-.04-1.35.69.08,1.2.18,1.6.33.36.13.48.22.48.39q0,.09-.06.24c-.2.51-.25,1.08-.25,2.45,0,1.92.12,3.12.42,4.03.22.71.57,1.11.97,1.11.62,0,1.12-.72,1.68-2.38.28.76.39.99.81,1.53.08.11.12.21.12.32,0,.24-.22.75-.53,1.18-.58.86-1.33,1.32-2.13,1.32-1.15,0-2.02-.93-2.56-2.78-.34-1.2-.51-2.71-.51-4.81v-1.58ZM109.01,173.02c.09,0,.17.04.29.15.75.72,1.53,1.92,2.03,3.09.33.79.64,1.86.64,2.17,0,.15-.08.22-.39.39-.34.18-1.05.42-1.23.42-.13,0-.19-.08-.24-.34-.2-1.16-.46-2-.93-2.97-.42-.87-.45-.92-1.47-2.17.63-.46,1.12-.74,1.3-.74Z"/>
        <path d="M122.95,170.74c-.76.39-1.05.75-1.15,1.42.13-.03.27-.04.31-.04.6,0,1.05.48,1.05,1.09,0,.66-.46,1.12-1.11,1.12-.79,0-1.26-.58-1.26-1.59,0-.6.18-1.28.44-1.7.25-.39.58-.67,1.12-.97l.6.66ZM125.84,170.74c-.77.39-1.05.75-1.16,1.42.13-.03.27-.04.31-.04.6,0,1.05.48,1.05,1.09,0,.66-.47,1.12-1.11,1.12-.79,0-1.26-.58-1.26-1.54,0-1.29.46-2.12,1.56-2.71l.6.66Z"/>
        <path d="M128.78,173.09c-.75,0-1.11.01-1.46.06v-1.56c.39.06.72.08,1.46.08h2.54v-.45c0-.67-.03-1.08-.11-1.6h1.72c-.06.4-.06.69-.06,1.66v3.9c0,.48-.03,1.2-.08,1.62l.84-.25v1.45c-.33.11-.58.18-.75.23s-.21.06-.27.08c-.41,2.05-1.41,3.28-3.88,4.71-.32-.51-.63-.91-1.09-1.38,1.08-.52,1.62-.87,2.2-1.38.5-.45.78-.87,1.02-1.47q-.84.21-1.65.41c-1.39.34-1.6.41-1.92.51l-.33-1.67c.21-.01.56-.04.83-.08,1.05-.17,2-.34,2.82-.54.36-.09.54-.13.57-.15.08-.72.09-.83.11-1.29h-2.14c-.72,0-1.07.01-1.47.06v-1.48c.35.04.69.06,1.47.06h2.17v-1.51h-2.54ZM135.98,181.07c0,.95.02,1.3.08,1.79h-1.71c.06-.48.09-.84.09-1.79v-9.7c0-.9-.01-1.23-.09-1.75h1.71c-.06.45-.08.87-.08,1.75v.33h2.57c.76,0,1.08-.02,1.47-.08v1.56c-.34-.04-.75-.06-1.47-.06h-2.57v1.72h2.28c.76,0,1.12-.01,1.47-.06v1.51c-.39-.04-.76-.06-1.47-.06h-2.28v1.91h2.7c.75,0,1.12-.01,1.5-.08v1.59c-.42-.06-.81-.07-1.5-.07h-2.7v1.48Z"/>
        <path d="M148.58,180.74h4.17c.73,0,1.41-.03,1.93-.09v1.74c-.6-.08-1.2-.11-1.92-.11h-9.15c-.67,0-1.33.03-1.98.11v-1.74c.56.06,1.17.09,1.98.09h3.29v-9.3c0-.66-.03-1.08-.09-1.66h1.86c-.06.54-.09,1.02-.09,1.66v2.46h3.39c.63,0,1.17-.03,1.68-.09v1.73c-.54-.06-1.08-.09-1.68-.09h-3.39v5.29Z"/>
        <path d="M161.78,178.42c-.57.51-.92.75-1.75,1.23-.18-.32-.24-.42-.56-.76-.9.54-1.47.84-2.86,1.51-.02.01-.09.04-.2.1l-.13.08-.36-1.68c.38-.09.88-.27,1.62-.58v-3.79h-.42c-.42,0-.74.01-1.11.08v-1.53c.33.04.66.06,1.12.06h.41v-1.79c0-.75-.03-1.19-.09-1.61h1.68c-.08.47-.09.86-.09,1.61v1.79h.27c.46,0,.74-.02,1-.04v1.48c-.31-.03-.6-.04-1-.04h-.27v3.09c.33-.18.5-.27.97-.54v1c.78-.48,1.28-.92,1.71-1.47h-.33c-.6,0-1,.03-1.32.08v-1.44c.31.06.67.08,1.33.08h6.3c.69,0,1.14-.03,1.5-.08v1.42c-.44-.04-.84-.06-1.49-.06h-4.41c-.12.21-.19.33-.39.6h4.58c.7,0,.96-.01,1.41-.04-.03.24-.04.45-.06.86-.08,1.77-.29,3.25-.58,3.9-.3.66-.76.86-2.03.86-.36,0-.63-.02-1.21-.04-.06-.53-.17-.92-.39-1.32-.76.67-1.38,1.08-2.37,1.58-.33-.46-.55-.72-1.04-1.09,1.25-.54,1.86-.9,2.62-1.54.58-.51,1.05-1.11,1.49-1.92h-.86c-.9,1.35-2.13,2.31-4,3.15-.24-.45-.45-.69-.9-1.08,1.63-.63,2.58-1.2,3.33-2.07h-1.12ZM162.22,174.7c-.58,0-1.02.02-1.32.04.05-.4.06-.79.06-1.38v-2.1c0-.6-.01-.87-.06-1.3.45.06.77.08,1.46.08h4.2c.75,0,1.09-.02,1.54-.08-.04.38-.06.69-.06,1.42v2c0,.61.02,1.06.06,1.35-.34-.01-.71-.03-1.3-.03h-4.58ZM162.44,171.91h4.08v-.62h-4.08v.62ZM162.44,173.54h4.08v-.58h-4.08v.58ZM166.82,178.42c-.55,1.2-1.12,2.01-2.01,2.82.62.09,1.07.12,1.49.12.52,0,.67-.15.81-.76.11-.51.18-1.14.25-2.17h-.54Z"/>
        <path d="M177.86,169.72c.62.96,1.33,1.71,2.45,2.57,1.11.84,2.31,1.51,3.63,2.05-.33.46-.54.88-.79,1.59-1.23-.55-2.54-1.35-3.54-2.17-1.14-.92-1.74-1.53-2.54-2.58-.78,1.06-1.33,1.63-2.37,2.52-1.11.95-2.29,1.73-3.58,2.36-.25-.66-.42-.98-.81-1.53,1.25-.54,2.45-1.27,3.54-2.19,1-.81,1.74-1.64,2.36-2.61h1.66ZM178.18,180.88h3.58c.79,0,1.37-.03,1.81-.09v1.71c-.46-.06-1.05-.09-1.81-.09h-9.36c-.81,0-1.4.03-1.86.09v-1.71c.39.06.93.09,1.71.09h.65v-3.45c0-.67-.02-1.12-.08-1.65h1.75c-.06.44-.09.93-.09,1.65v3.45h2.08v-5.86c0-.72-.02-1.11-.09-1.61h1.79c-.06.44-.09.84-.09,1.56v1.42h2.38c.67,0,1.17-.03,1.58-.08v1.68c-.45-.06-.88-.07-1.56-.07h-2.4v2.95Z"/>
        <path d="M187.03,175.36c-.68,0-.99.02-1.47.06v-1.37c.41.04.77.06,1.47.06h1.75c-.24-.54-.38-.79-.54-1.08h-1.54c-.69,0-1.26.03-1.71.08v-1.44c.45.06.9.09,1.63.09h.46c-.27-.5-.45-.74-.97-1.33l1.44-.54c.48.66.67.99,1.11,1.88h.81v-1c0-.44-.03-.84-.08-1.12h1.56c-.03.27-.04.58-.04,1.06v1.07h1.06v-1.07c0-.45-.01-.76-.06-1.06h1.57c-.04.27-.07.67-.07,1.12v1h.9c.5-.69.78-1.21,1.04-1.91l1.47.54c-.31.54-.58.96-.88,1.37h.41c.75,0,1.2-.03,1.63-.09v1.44c-.45-.04-1.02-.08-1.71-.08h-1.46c-.24.54-.34.77-.52,1.08h1.66c.71,0,1.07-.01,1.49-.06v1.37c-.46-.04-.79-.06-1.49-.06h-3.76v.69h3.03c.63,0,1.08-.02,1.47-.06v1.26c-.38-.04-.84-.06-1.47-.06h-3.03v.72h4.04c.81,0,1.32-.03,1.72-.09v1.44c-.52-.06-1.05-.09-1.71-.09h-2.89c.48.42,1.14.8,1.95,1.16.92.38,1.69.6,3,.83-.4.54-.58.85-.82,1.47-2.42-.66-4.05-1.53-5.33-2.87.03.51.03.69.03,1.02v.72c0,.62.03,1.05.09,1.46h-1.7c.06-.42.09-.88.09-1.47v-.69c0-.33,0-.45.03-.99-.66.7-1.18,1.11-2.07,1.59-.92.51-1.82.88-2.94,1.21-.21-.5-.5-.93-.87-1.4,2.08-.43,3.54-1.06,4.71-2.04h-2.67c-.71,0-1.21.03-1.75.09v-1.44c.45.06.95.09,1.74.09h3.81v-.72h-2.85c-.63,0-1.09.01-1.47.06v-1.26c.39.04.82.06,1.47.06h2.85v-.69h-3.61ZM192.68,174.11c.21-.39.34-.69.48-1.08h-3.29c.2.42.3.69.43,1.08h2.37Z"/>
        <path d="M199.31,173.77c.77-.39,1.07-.75,1.16-1.42-.13.03-.25.04-.3.04-.6,0-1.07-.48-1.07-1.09,0-.66.47-1.12,1.11-1.12.79,0,1.26.57,1.26,1.54,0,1.29-.46,2.12-1.56,2.71l-.6-.66ZM202.21,173.77c.76-.39,1.06-.75,1.16-1.42-.14.03-.26.04-.3.04-.6,0-1.06-.48-1.06-1.09,0-.66.46-1.12,1.11-1.12.79,0,1.26.57,1.26,1.54,0,1.29-.47,2.12-1.56,2.71l-.6-.66Z"/>
        <path d="M217,178.51c.04.07.06.13.06.21,0,.1-.02.12-.15.45-.3.69-.66,1.77-.84,2.58-.04.17-.09.25-.15.29-.08.03-.58.11-.75.11h-.06c-.08,0-.18-.02-.3-.02-.2,0-.24-.04-.3-.22-.29-.97-.51-2.99-.51-4.5,0-1.65.1-2.67.52-4.92.15-.81.22-1.26.29-1.75.63.12,1.17.27,1.62.48.25.1.33.18.33.33,0,.1-.02.15-.18.39-.5.79-1.05,3.97-1.05,6.12,0,.34.02.81.06,1.56.42-.95.57-1.23.92-1.96.13.31.22.46.49.87ZM220.25,179.57c.48.25,1.05.34,2.06.34s1.53-.07,2.46-.34c.09-.03.17-.04.21-.04.1,0,.18.06.19.21.08.51.13,1.11.13,1.41,0,.15-.04.2-.25.25-.81.21-1.63.32-2.64.32-1.38,0-2.23-.17-2.94-.58-.66-.41-1.35-1.23-1.35-1.64,0-.21.32-.49,1.12-.99.27.54.53.81,1,1.06ZM219.2,171.92c.33.08,1.29.13,2.03.13.99,0,1.98-.08,2.91-.24q.08-.01.14-.01c.1,0,.15.04.18.17.03.15.08.81.08,1.21,0,.22-.04.3-.21.33-.62.12-1.63.2-2.71.2-1.29,0-2.45-.08-2.59-.17-.08-.04-.11-.15-.11-.42,0-.41.04-1,.08-1.12.01-.06.06-.09.15-.09.02,0,.05,0,.08.01Z"/>
        <path d="M231.52,174.35c-1.07-.21-1.88-.52-2.43-.92-.27-.18-.33-.25-.33-.39,0-.17.12-.46.54-1.3.73.46,1.56.79,2.5.99.21-1.05.3-1.92.31-2.89.77.13,1.44.36,1.82.57.17.09.22.18.21.3,0,.06-.03.12-.11.27-.22.46-.24.51-.55,1.98.15.01.34.01.46.01h.11c.36-.01.63-.01.76-.01h.04c.13,0,.18.06.18.25,0,.66-.04,1.2-.1,1.3-.04.08-.24.11-.87.11-.29,0-.51-.02-.93-.03q-.32,1.54-.45,2.35c.51.04.62.04.87.04h.84c.15-.01.22.02.27.09.06.09.11.57.11,1.11,0,.27-.02.34-.11.39-.07.03-.4.05-.97.05-.27,0-.67-.02-1.2-.05-.01.27-.01.45-.01.57,0,1.38.64,2.01,2.05,2.01,1.58,0,2.52-.76,2.52-2.05,0-.46-.1-.88-.34-1.35-.3-.57-.58-.9-1.3-1.47h.13c.24,0,.75-.07,1.2-.16.24-.05.33-.06.41-.06.22,0,.38.11.67.48.69.84,1.04,1.72,1.04,2.65,0,2.12-1.71,3.51-4.31,3.51-2.43,0-3.64-1.21-3.64-3.67,0-.21,0-.38.03-.63-1.49-.31-2.29-1.05-2.29-2.12,0-.55.17-.96.58-1.38.04-.06.1-.07.17-.07.09,0,.19.07.54.36.27.23.31.27.31.35q0,.06-.09.19c-.06.11-.12.27-.12.36,0,.19.12.36.35.46.21.1.27.12.75.22l.39-2.43Z"/>
        <path d="M21.79,201.43h2.13c.68,0,1.1-.03,1.54-.09v1.63c-.48-.04-.93-.08-1.56-.08h-1.62c.86,1.5,2.1,2.75,3.58,3.58-.48.48-.69.78-.99,1.5-.61-.43-1.05-.86-1.62-1.5-.74-.85-1.05-1.32-1.53-2.22.03.54.04,1,.04,1.44v1.82c0,.67.03,1.2.09,1.67h-1.67c.06-.46.09-1,.09-1.68v-1.71c0-.4.02-.88.04-1.48-.91,1.65-1.93,2.76-3.39,3.73-.38-.71-.58-1-.9-1.36,1.54-.89,2.8-2.17,3.67-3.78h-.95c-.64,0-1.11.03-1.58.09v-.6c-.25.36-.43.69-.61,1.21-.38-.58-.6-1.05-.89-1.8.03.46.06,1.27.06,1.91v3.69c0,.76.03,1.32.09,1.77h-1.67c.06-.46.09-1.02.09-1.77v-3.1c0-.57.02-.93.11-1.86-.44,1.46-.87,2.43-1.52,3.41-.18-.68-.37-1.11-.67-1.61.72-.92,1.47-2.61,1.92-4.35h-.57c-.44,0-.69.01-.96.06v-1.53c.24.04.51.06.96.06h.72v-1.16c0-.76-.01-1.14-.08-1.5h1.65c-.06.39-.08.8-.08,1.5v1.16h.43c.36,0,.54-.01.78-.06v1.42c.57-1.02,1.05-2.52,1.09-3.5l1.46.38c-.06.17-.1.34-.21.79-.08.27-.1.41-.18.69h1.15v-.99c0-.62-.03-.99-.09-1.37h1.68c-.06.36-.09.77-.09,1.37v.99h1.7c.72,0,1.14-.03,1.54-.09v1.58c-.42-.04-.9-.08-1.54-.08h-1.7v1.82ZM18.65,199.61c-.25.62-.39.9-.81,1.61q-.36-.38-1.17-.95c.12-.17.17-.24.24-.34-.2-.03-.44-.04-.71-.04h-.38c.34.79.71,1.39,1.36,2.28v-.82c.45.06.87.09,1.56.09h1.53v-1.82h-1.63Z"/>
        <path d="M28.22,201.76c-.12.03-.18.06-.27.1-.08.04-.12.06-.18.06-.33,0-.57-.57-.75-1.68h.29c.63,0,2.24-.19,3.2-.39.31-1.3.48-2.31.48-3.01,0-.06,0-.15-.01-.25.64.06,1.26.19,1.68.38.24.09.36.21.36.36,0,.08-.02.14-.09.26q-.23.39-.69,2.04c.36-.04.76-.07,1.02-.07.62,0,1.1.12,1.44.36.6.44.9,1.32.9,2.69,0,2.23-.41,4.15-1.1,5.1-.48.66-1.11.97-2,.97-.54,0-1.05-.08-1.2-.17q-.12-.08-.17-.63c-.04-.41-.13-.76-.32-1.18.78.27.98.31,1.46.31.72,0,1.02-.34,1.35-1.56.23-.79.35-1.82.35-2.92,0-1.17-.29-1.59-1.08-1.59-.27,0-.71.04-1.05.09-.04.18-.06.19-.12.39-.42,1.54-1.19,3.55-1.95,5.17-.79,1.63-.99,1.96-1.18,1.96-.12,0-.53-.21-.96-.5-.35-.21-.44-.3-.44-.42q0-.07.62-1.05c.83-1.27,1.91-3.76,2.28-5.25-1.11.25-1.73.39-1.86.44ZM37.64,198.68c-.24.18-.41.25-.48.25-.04,0-.09-.03-.13-.1-.32-.51-.84-1.1-1.28-1.47-.03-.03-.04-.06-.04-.09,0-.06.11-.17.36-.36.25-.18.33-.23.43-.23.24,0,1.56,1.33,1.56,1.58,0,.09-.12.2-.42.42ZM36.05,200.27c0-.1.13-.24.57-.58.3-.22.45-.31.57-.31.2,0,.87.72,1.5,1.6.52.75,1.09,1.82,1.09,2.07,0,.15-.04.19-.52.58-.3.24-.65.43-.77.43-.1,0-.15-.04-.25-.3-.29-.72-.54-1.21-.95-1.86-.4-.64-.43-.67-1.15-1.45-.06-.08-.09-.12-.09-.18ZM38.02,195.67c.25,0,1.53,1.27,1.53,1.53,0,.07-.09.16-.39.38-.27.21-.41.28-.46.28q-.08,0-.38-.42c-.25-.34-.74-.85-1-1.08-.04-.04-.08-.07-.08-.12,0-.12.62-.57.78-.57Z"/>
        <path d="M45.47,199.52c-.69.04-1.33.06-1.91.06-.63,0-.67,0-.71-.09-.04-.09-.09-.72-.09-1.16v-.29c.71.03,1,.04,1.38.04s.95-.01,1.4-.03c.07-.87.09-1.17.09-1.47,0-.13,0-.22-.02-.43.72.01,1.28.06,1.71.17.12.03.18.09.18.19,0,.08-.02.14-.09.32-.12.29-.21.67-.27,1.14.96-.08,2.12-.22,2.58-.33.45-.1.76-.17.84-.17.32-.03.54-.09.63-.17.02-.01.03-.01.03-.01.03,0,.04.01.08.01.06,0,.1.06.13.17.03.23.08.75.08,1.08,0,.23-.04.29-.2.32-.88.18-2.71.4-4.29.54-.01.06-.01.09-.01.24-.03.29-.03.32-.04,1.07.66-.15,1.25-.22,1.98-.22.11-.48.12-.6.15-.95,1.16.24,1.72.45,1.72.63,0,.06-.01.11-.13.3-.04.06-.08.11-.11.21,1.94.45,3.17,1.88,3.17,3.72,0,1.64-.88,2.94-2.58,3.84-.63.33-1.51.63-1.84.63-.17,0-.29-.06-.38-.18-.31-.45-.51-.66-.99-1.06,1.56-.29,2.32-.6,3.07-1.21.69-.58,1.02-1.26,1.02-2.1,0-1.2-.71-2.1-1.91-2.44-.9,2.07-1.5,3.04-2.58,4.15.08.25.13.41.27.72.06.12.07.17.07.21,0,.15-.06.2-.4.38-.38.2-.81.35-.96.35-.13,0-.17-.04-.33-.51-.87.61-1.8.94-2.71.94-1.02,0-1.71-.83-1.71-2.02,0-1.88,1.37-3.71,3.63-4.83.01-.78.03-1.44.04-1.74ZM43.36,205.82c0,.38.23.6.6.6.51,0,1.18-.29,1.86-.78-.21-1.02-.3-1.71-.38-2.83-1.32.97-2.08,2.1-2.08,3.01ZM48.61,201.68c-.67.06-1.04.12-1.65.33.03,1.06.06,1.51.18,2.28.63-.8,1.05-1.54,1.47-2.61Z"/>
        <path d="M63.86,201.13c2.12,0,3.62,1.44,3.62,3.48,0,1.39-.74,2.66-1.96,3.39-.86.51-1.91.77-3.09.77-1.91,0-3.02-.77-3.02-2.07,0-1.18.99-2.02,2.4-2.02,1.27,0,2.19.64,2.8,1.96.76-.56,1.08-1.14,1.08-1.95,0-1.29-.92-2.13-2.36-2.13s-3.04.73-4.35,2.04c-.24.24-.46.5-.73.84-.11.15-.18.21-.27.21-.27,0-1.33-1.05-1.33-1.32,0-.13.06-.21.39-.45.34-.27.84-.7,1.47-1.3,1.46-1.38,2.52-2.54,4.09-4.46-1.88.24-3.13.45-3.6.62-.08.02-.12.03-.17.03-.12,0-.2-.08-.29-.3-.18-.45-.27-.95-.32-1.61.41.06.69.08,1.02.08.72,0,1.93-.1,3.51-.29.55-.06.73-.1,1.16-.27.13-.06.21-.08.3-.08.21,0,.42.18.81.78.29.39.38.58.38.71,0,.19-.04.25-.38.46-.27.17-.43.3-.78.63-.75.72-.76.72-1.69,1.67-.66.67-.74.75-1.33,1.35.97-.54,1.74-.76,2.64-.76ZM62.42,206.32c-.23-.15-.48-.22-.77-.22-.46,0-.76.22-.76.58,0,.43.46.71,1.18.71.33,0,.62-.03.99-.14-.18-.5-.33-.72-.64-.93Z"/>
        <path d="M76.01,205.48c-.72,1.25-1.71,1.93-2.73,1.93-1.56,0-2.67-1.53-2.67-3.66,0-2.37,1.2-4.41,3.25-5.49,1-.54,2.08-.78,3.51-.78,3.14,0,5.46,2.22,5.46,5.19,0,2.62-1.29,4.51-3.78,5.58-.5.21-.89.33-1.08.33-.18,0-.25-.06-.45-.34-.25-.39-.54-.67-.95-.95,3.09-.79,4.49-2.25,4.49-4.68,0-1.25-.53-2.29-1.46-2.96-.53-.36-.95-.51-1.77-.64-.42,3.17-.92,4.89-1.83,6.46ZM73.85,200.17c-1,.88-1.58,2.14-1.58,3.55,0,1.16.38,1.83,1,1.83.75,0,1.52-1.04,2.08-2.82.36-1.12.54-1.98.77-3.64-1.07.22-1.59.48-2.28,1.08Z"/>
        <path d="M91.75,201.14c.03,1.12.06,1.71.21,3.21,1.26.41,1.86.66,2.75,1.14,1.18.67,1.79,1.12,1.79,1.33,0,.18-.2.53-.54,1.02-.23.33-.39.48-.51.48-.08,0-.14-.03-.24-.13-1.07-1.02-1.92-1.58-3.18-2.08-.03.92-.2,1.39-.63,1.84-.53.53-1.44.81-2.62.81-1.96,0-3.17-.87-3.17-2.29,0-1.52,1.32-2.48,3.38-2.48.5,0,.93.03,1.3.08-.15-2.46-.2-3.64-.21-5.85-.01-.87-.04-1.39-.13-2.1.69.01,1.38.09,1.79.19.24.08.33.15.33.32,0,.08-.01.12-.06.24-.17.39-.22.96-.25,2.62q.12,0,.58-.03c.72-.04,1.74-.23,2.88-.54.04-.01.08-.01.12-.01.09,0,.12.03.18.18.15.36.32,1.09.32,1.35,0,.12-.06.17-.2.21-1.16.27-2.77.5-3.66.5h-.21ZM88.81,205.46c-1.02,0-1.63.34-1.63.91,0,.53.51.8,1.46.8,1.15,0,1.66-.41,1.66-1.35v-.12c-.49-.18-.92-.24-1.48-.24Z"/>
        <path d="M103.87,206.8c0,1.41-1.14,2.55-2.54,2.55s-2.53-1.14-2.53-2.55,1.14-2.54,2.53-2.54,2.54,1.14,2.54,2.54ZM99.97,206.8c0,.76.62,1.38,1.36,1.38s1.37-.62,1.37-1.38-.62-1.37-1.37-1.37-1.36.62-1.36,1.37Z"/>
        <path d="M123.44,201.49c-.41-.04-.87-.06-1.41-.06h-3.87c-.55,0-.94.01-1.33.06v-1.17c-.9.58-1.59.98-2.73,1.49-.25-.63-.46-1-.84-1.46,1.51-.62,2.68-1.29,3.7-2.13,1.11-.92,1.82-1.68,2.19-2.38h1.79c.63.93,1.46,1.75,2.49,2.52,1.17.87,2.22,1.42,3.63,1.91-.42.55-.54.76-.85,1.59-1.14-.53-1.79-.87-2.76-1.51v1.15ZM125.68,203.77c-.13.15-.45.51-.63.74l-2.77,3.51c-.38.48-.62.82-.92,1.27l-1.65-.92c.38-.34.72-.72,1.09-1.18l2.37-2.91h-6.48c-.57,0-1.16.03-1.79.09v-1.63c.57.06,1.16.09,1.8.09h6.57c.83,0,1.2-.01,1.48-.07l.92,1.02ZM122.14,200.05c.36,0,.54,0,.84-.02-1.29-.93-1.98-1.57-2.9-2.76-.9,1.16-1.57,1.82-2.83,2.76.32.02.48.02.84.02h4.05Z"/>
        <path d="M129.61,197.99c0-.56-.03-1.07-.08-1.54.44.06.92.07,1.61.07h6.97c.69,0,1.12-.01,1.54-.07-.06.54-.08.97-.08,1.48v9.29c0,.73.01,1.21.08,1.75h-1.73v-.87h-6.69v.87h-1.72c.06-.53.09-1.07.09-1.75v-9.22ZM131.24,201.4h6.69v-3.34h-6.69v3.34ZM131.24,206.59h6.69v-3.68h-6.69v3.68Z"/>
        <path d="M146.5,205.04c.04.06.06.11.06.17q0,.09-.25.78c-.32.92-.51,1.67-.57,2.25-.01.2-.08.27-.27.32-.21.06-.61.09-1,.09-.15,0-.22-.03-.27-.12-.13-.29-.38-1.32-.5-2.16-.1-.71-.15-1.44-.15-2.21,0-1.72.2-3.36.74-6.3.09-.48.12-.71.17-1.17.69.09,1.17.23,1.6.44.23.12.32.22.32.36,0,.09-.03.17-.11.29-.61,1.05-1.18,4.29-1.18,6.69,0,.36.01.93.06,1.65.36-.93.52-1.35.85-2.07.11.41.21.6.51,1ZM149.02,201.1c-.72,0-.87-.03-.92-.2-.04-.13-.09-.61-.09-.96,0-.12,0-.24.01-.51.41.03.64.04,1.14.04.81,0,1.32-.01,2.1-.08-.02-1.9-.03-2.14-.18-2.85.74.01,1.29.08,1.77.2.22.06.31.13.31.29,0,.06-.01.1-.06.22-.15.34-.23.93-.25,1.98.55-.07,1.03-.18,1.93-.39.08-.03.1-.03.15-.03.09,0,.13.04.17.15.03.13.07.71.07,1.02,0,.38-.01.44-.17.5-.24.12-.9.23-2.17.39,0,1.03.09,2.74.2,3.72.95.4,1.59.75,2.25,1.21.42.3.51.41.51.51,0,.17-.27.67-.58,1.11-.18.25-.27.33-.38.33s-.1,0-.45-.33c-.33-.33-.67-.58-1.33-1.02v.12c0,1.32-1.09,2.19-2.76,2.19s-2.8-.9-2.8-2.25,1.14-2.36,2.66-2.36c.55,0,.84.02,1.24.08q-.06-1.17-.1-3.18c-.65.04-1.67.09-2.26.09ZM150.25,205.51c-.75,0-1.25.34-1.25.87,0,.48.46.78,1.19.78.79,0,1.21-.36,1.21-1.05,0-.21-.02-.38-.02-.38-.39-.15-.73-.22-1.14-.22Z"/>
        <path d="M168.65,202.16c-.69,0-1.79.23-2.54.51-1.59.61-2.64,1.74-2.64,2.83,0,.69.45,1.15,1.35,1.38.41.1,1.11.18,1.6.17h.15c.25,0,.34.09.34.28,0,.5-.09,1.19-.17,1.38-.06.12-.13.16-.29.16-.91,0-2.07-.24-2.85-.6-1.15-.51-1.79-1.39-1.79-2.5,0-.71.27-1.42.78-2.07.29-.35.51-.56,1.05-.93-2.73.83-4.09,1.35-5.01,1.95-.12.08-.19.1-.27.1-.17,0-.3-.13-.51-.51-.21-.34-.36-.76-.36-.99,0-.14.06-.18.42-.29.34-.11.58-.25,1.16-.66.69-.51,1.77-1.44,2.7-2.33.77-.73,1.2-1.18,2.1-2.23-.87.1-3.23.51-3.57.6-.21.06-.22.06-.27.06-.14,0-.2-.06-.25-.21-.12-.33-.23-.88-.3-1.51.21.01.32.01.45.01.67,0,2.13-.12,3.93-.34.67-.08,1.07-.17,1.33-.3.18-.09.21-.1.32-.1.18,0,.42.19.84.7.3.35.39.51.39.68s-.06.24-.25.38q-.27.17-1.53,1.33c-1.04.96-2.27,2.01-3.65,3.1,2.12-.63,3.22-.93,5.52-1.44.51-.1,1.01-.24,1.58-.42.08-.03.13-.04.18-.04.12,0,.18.06.25.2.17.34.36,1.08.36,1.35,0,.21-.06.3-.22.3h-.34Z"/>
        <path d="M177.23,205.48c-.72,1.25-1.71,1.93-2.73,1.93-1.56,0-2.67-1.53-2.67-3.66,0-2.37,1.2-4.41,3.25-5.49,1-.54,2.08-.78,3.51-.78,3.14,0,5.46,2.22,5.46,5.19,0,2.62-1.29,4.51-3.78,5.58-.5.21-.89.33-1.08.33-.18,0-.25-.06-.45-.34-.25-.39-.54-.67-.95-.95,3.09-.79,4.49-2.25,4.49-4.68,0-1.25-.53-2.29-1.46-2.96-.53-.36-.95-.51-1.77-.64-.42,3.17-.92,4.89-1.83,6.46ZM175.07,200.17c-1,.88-1.58,2.14-1.58,3.55,0,1.16.38,1.83,1,1.83.75,0,1.52-1.04,2.08-2.82.36-1.12.54-1.98.77-3.64-1.07.22-1.59.48-2.28,1.08Z"/>
        <path d="M187.49,203.38c0-.69,0-1,.03-1.62-.45.73-.66,1.02-1.29,1.69-.17-.63-.2-.72-.65-1.72.89-.92,1.62-2.01,2.25-3.3.51-1.08.83-2,.95-2.73l1.63.48q-.1.29-.45,1.2c-.24.67-.34.92-.88,2.04v7.99c0,.6.03,1.1.08,1.67h-1.75c.06-.57.09-1,.09-1.68v-4.02ZM193.33,197.53c0-.67-.03-1.11-.09-1.53h1.81c-.08.45-.09.83-.09,1.56v2.55h2.47c.69,0,1.19-.03,1.65-.09v1.72c-.55-.06-1.11-.09-1.63-.09h-2.49v5.38h2.13c.63,0,1.12-.03,1.61-.09v1.65c-.44-.06-1.02-.09-1.64-.09h-5.46c-.62,0-1.2.03-1.64.09v-1.65c.47.06,1,.09,1.62.09h1.74v-5.38h-2.01c-.53,0-1.08.03-1.63.09v-1.72c.48.06.99.09,1.68.09h1.96v-2.58Z"/>
        <path d="M202.24,204.07c-.21,2.22-.34,2.96-.76,4.25l-1.26-.58c.45-1.11.68-2.22.77-3.86l1.26.2ZM201.74,201.95q.36-.46.65-.87c-.71-.93-1.43-1.73-2.08-2.28l.73-1.3c.3.29.36.34.63.63.5-.78,1.02-1.86,1.14-2.37l1.47.53c-.11.17-.15.24-.27.46-.71,1.3-.76,1.38-1.42,2.37.25.28.38.42.63.75.78-1.19,1.26-2.04,1.5-2.66l1.3.72c-.12.15-.21.29-.39.58-.83,1.29-1.72,2.59-2.35,3.38.67-.04.69-.04,1.6-.13-.18-.42-.25-.58-.5-1.04l1.1-.5c.61,1.17.91,1.92,1.2,2.92l-1.17.54c-.09-.34-.12-.46-.19-.73-.33.03-.72.07-1.17.12v4.52c0,.75.01,1.09.09,1.54h-1.65c.08-.47.09-.84.09-1.54v-4.38c-1.8.12-1.86.13-2.08.18l-.18-1.49c.21.03.46.04.86.04h.48ZM205.61,203.89c.24.88.34,1.5.5,2.76l-1.19.24c-.1-1.21-.19-1.89-.4-2.73l1.09-.27ZM212.75,207.17c.34,0,.63-.03.88-.08v1.62c-.41-.06-.96-.09-1.49-.09h-5.34c-.56,0-1.07.03-1.47.09v-1.62c.3.04.6.08,1,.08h.42v-9.32c0-.55-.01-1-.06-1.47.42.03.84.04,1.44.04h3.03c.72,0,1.08-.01,1.5-.06-.03.46-.04.85-.04,1.59v9.21h.12ZM208.27,199.91h2.9v-2.03h-2.9v2.03ZM208.27,203.44h2.9v-2.1h-2.9v2.1ZM208.27,207.17h2.9v-2.31h-2.9v2.31Z"/>
        <path d="M220.61,203.23c-.54,1-1.16,2-1.71,2.8-.62.88-1.32,1.33-2.05,1.33-1.08,0-1.82-.88-1.82-2.21,0-1.14.57-2.11,1.63-2.74.71-.41,1.77-.69,2.62-.69h.15c.76-1.56.96-1.98,1.47-3.15-1.38.06-2.22.18-2.83.39-.03.01-.08.01-.11.01-.25,0-.49-.78-.57-1.9.33.06.64.09,1.05.09.51,0,1.38-.04,2.29-.13q.85-.08,1.05-.2c.12-.06.2-.09.27-.09.19,0,.49.24.82.64.24.32.39.57.39.67,0,.12-.06.23-.24.41-.22.24-.92,1.53-1.79,3.36,1.42.28,1.96.45,3,.9.08-.52.13-1.14.13-1.56,0-.2-.01-.42-.04-.67.65.09,1.19.19,1.62.3.27.08.36.15.36.27,0,.11-.03.21-.12.39-.13.28-.18.48-.29,1.09-.04.31-.09.52-.18.96.76.48,1.42.94,1.72,1.23.08.08.12.15.12.23,0,.42-.65,1.39-.92,1.39-.08,0-.15-.04-.27-.13-.4-.36-.9-.78-1.2-1-.51,1.08-1.04,1.77-1.86,2.47-.71.58-1.68,1.12-2.04,1.12-.12,0-.25-.06-.36-.15-.04-.04-.04-.06-.24-.33-.23-.35-.42-.51-.78-.68,1.2-.42,1.79-.72,2.43-1.27.65-.57,1.14-1.26,1.47-2.07-1.02-.55-2.03-.9-3.21-1.09ZM216.56,205.03c0,.36.13.58.38.58.33,0,.92-.73,1.86-2.35-1.42.15-2.23.79-2.23,1.77Z"/>
        <path d="M235.67,204.47c-1.48.87-1.91,1.3-1.91,1.96,0,.27.11.45.33.58.33.2,1.07.3,2.01.3.81,0,1.93-.08,2.7-.18.32-.04.5-.09,1.09-.24h.08c.11,0,.18.08.23.18.09.32.15.77.15,1.31,0,.22-.08.31-.27.36-.36.08-2.03.17-3.12.17-1.83,0-2.8-.12-3.52-.42-.87-.36-1.31-1.04-1.31-1.98,0-.87.41-1.63,1.21-2.28.65-.51.79-.62,2.17-1.39-.12-.5-.34-.71-.81-.71-.62,0-1.26.24-1.96.71-.43.3-.95.72-1.26,1.03-.45.47-.5.5-.62.5-.15,0-.46-.34-.78-.87-.15-.25-.24-.45-.24-.55,0-.13.03-.17.39-.39,1.23-.83,2.25-1.88,2.87-2.96-1.07.08-1.62.09-2.21.09-.23,0-.27-.04-.34-.3-.05-.2-.12-.99-.14-1.39.51.07.81.09,1.53.09.58,0,1.23-.02,1.91-.04.31-.86.42-1.4.43-2.1,1.33.23,1.95.45,1.95.71,0,.06-.02.09-.06.18-.1.19-.22.43-.42.9q-.03.06-.04.11c.86-.12,1.61-.27,2.13-.39.33-.09.41-.1.48-.1.12,0,.18.04.21.13.06.27.15.96.15,1.17,0,.17-.06.24-.25.29-.48.13-2.13.39-3.51.52-.45.83-.76,1.31-1.23,1.82.67-.32,1.18-.43,1.78-.43.68,0,1.12.39,1.43,1.23,1.48-.81,2.28-1.25,2.37-1.3.69-.41.98-.63,1.31-1,.61.63,1.27,1.57,1.27,1.83,0,.09-.06.15-.25.2-.74.2-2.1.78-4.38,1.89.01.27.04.96.04,1.44v.72c0,.18-.03.27-.1.32-.08.08-.48.12-.93.12-.51,0-.6-.04-.6-.29v-.06c.03-.43.04-1,.04-1.36v-.08Z"/>
        <path d="M15.67,231.13c-.67,0-1.2.01-1.56.04.04-.42.08-.89.08-1.53v-5.25c0-.78-.03-1.42-.08-1.79.42.04.87.06,1.52.06h6.64c.63,0,1.09-.02,1.51-.06-.04.32-.08.98-.08,1.79v5.25c0,.72.02,1.11.08,1.53-.38-.03-.96-.04-1.53-.04h-1.24v2.22c0,.4.12.45,1.29.45,1.08,0,1.36-.06,1.53-.3.15-.21.23-.78.25-1.84.6.32.96.46,1.5.6-.15,1.61-.29,2.15-.66,2.49-.4.36-1.02.48-2.62.48-2.42,0-2.85-.2-2.85-1.28v-2.82h-1.29c-.17,1.09-.63,1.99-1.36,2.67-.92.84-2,1.36-3.65,1.74-.24-.6-.42-.9-.84-1.42,1.37-.24,2.12-.5,2.82-.96.76-.5,1.18-1.12,1.36-2.02h-.82ZM15.7,225.05h6.5v-.95h-6.5v.95ZM15.7,227.35h6.5v-.95h-6.5v.95ZM15.7,229.73h6.5v-1.04h-6.5v1.04Z"/>
        <path d="M29.42,226.22c-.39.09-.53.13-1.07.33-.19.08-.3.1-.39.1-.33,0-.63-.61-.9-1.9.96-.04,1.31-.09,2.97-.34,1.8-.27,4.08-.62,5.28-.77,1.35-.18,2.43-.36,3-.48.1-.03.15-.03.22-.03.2,0,.27.09.41.46.12.32.21.76.21.97,0,.18-.06.24-.27.24-.32,0-.6.03-.89.08-2.53.42-4.56,2.64-4.56,4.98,0,1.75,1.38,2.91,3.72,3.12.21.01.29.09.29.27,0,.38-.15,1.09-.29,1.42-.08.17-.19.24-.39.24s-.65-.09-1.11-.22c-2.55-.75-3.88-2.37-3.88-4.67,0-1.25.41-2.4,1.19-3.39.42-.54.78-.84,1.63-1.42-1.96.33-4.04.72-5.17,1Z"/>
        <path d="M42.25,225.28c0-.43-.02-1.02-.04-1.35.69.08,1.2.18,1.6.33.36.13.48.22.48.39q0,.09-.06.24c-.2.51-.25,1.08-.25,2.45,0,1.92.12,3.12.42,4.03.22.71.57,1.11.97,1.11.62,0,1.12-.72,1.68-2.38.28.76.39.99.81,1.53.08.11.12.21.12.32,0,.24-.22.75-.53,1.18-.58.86-1.33,1.32-2.13,1.32-1.15,0-2.02-.93-2.56-2.78-.34-1.2-.51-2.71-.51-4.81v-1.58ZM51.17,225.52c.09,0,.17.04.29.15.75.72,1.53,1.92,2.03,3.09.33.79.64,1.86.64,2.17,0,.15-.08.22-.39.39-.34.18-1.05.42-1.23.42-.13,0-.19-.08-.24-.34-.2-1.16-.46-2-.93-2.97-.42-.87-.45-.92-1.47-2.17.63-.46,1.12-.74,1.3-.74Z"/>
        <path d="M61.49,225.64c-1.29.22-2.62.38-3.43.38-.24,0-.34-.04-.38-.18-.06-.23-.12-.67-.15-1.23,1.22,0,2.15-.08,3.48-.29q-.08-.22-.27-.78c-.13-.36-.25-.66-.42-.98.65-.13,1.23-.21,1.77-.21.13,0,.21.09.21.24v.21c0,.27.06.63.21,1.21,1.12-.25,2.08-.57,2.85-.9.12-.04.15-.06.2-.06.07,0,.12.08.25.39.13.34.27.73.27.81s-.03.1-.12.15c-.88.38-1.29.51-3.03.94.21.53.27.66.52,1.2.83-.22,1.23-.36,1.53-.51l1.41-.71s.04-.03.04-.03c.01,0,.04.01.06.01.06,0,.12.09.25.38.18.36.33.77.33.86q0,.1-.31.27c-.83.45-1.47.71-2.55,1,.6.89,1.46,1.85,1.96,2.21.51.36.52.39.52.54,0,.13-.15.45-.43.95-.25.43-.38.55-.54.55-.09,0-.11,0-.33-.17-.76-.58-2.31-.99-3.79-.99-1.29,0-2.1.45-2.1,1.2,0,.46.36.84,1,1.08.58.21,1.88.34,3.27.34.33,0,.62-.01,1.2-.04-.27.39-.41.66-.58,1.29-.09.32-.2.38-.66.38-1.6,0-3.03-.18-3.99-.52-1.28-.45-1.95-1.29-1.95-2.42,0-1.61,1.32-2.58,3.51-2.58,1.35,0,2.21.15,3.15.57-.84-.79-1.29-1.33-1.72-2.04-.72.15-1.08.21-1.56.29-.86.12-2.42.24-3.04.24-.48,0-.5-.01-.63-1.42.33.02.58.02.73.02.96,0,2.79-.2,3.79-.41-.18-.38-.38-.81-.54-1.25Z"/>
        <path d="M76,227.69q-.03-.73-.04-1.67c-.13.02-.27.02-.33.02-.99,0-2.26-.11-2.79-.24-.15-.04-.18-.08-.18-.22,0-.33.04-.74.15-1.32.84.17,1.88.27,2.77.27.08,0,.21,0,.38-.01v-.99c0-.52-.01-.76-.04-1.29.75.05,1.26.09,1.62.18.3.06.39.13.39.3,0,.08-.01.1-.12.34-.1.25-.12.32-.18,1.35.9-.11,1.62-.26,2.33-.47.04-.01.06-.01.08-.01.1,0,.1.01.27.5.11.31.21.71.21.83,0,.1-.04.17-.2.21-.49.17-1.78.39-2.73.5,0,1.06,0,1.11.01,1.63,1.05-.14,1.62-.29,2.81-.72.07-.03.1-.04.15-.04.09,0,.12.04.27.41.15.38.29.79.29.95,0,.08-.06.13-.17.18-.83.3-2.33.66-3.27.76.03.57.06.89.15,2.06.84.25,1.18.39,1.83.73.72.36,1.11.62,1.75,1.12.12.09.17.17.17.29,0,.11-.14.36-.42.81-.33.5-.5.69-.6.69-.04,0-.09-.01-.13-.06-.9-.86-1.49-1.28-2.49-1.77-.06.72-.22,1.12-.63,1.5-.51.5-1.36.76-2.43.76-1.84,0-2.98-.81-2.98-2.11,0-.57.24-1.12.64-1.5.58-.54,1.47-.83,2.59-.83.36,0,.67.03,1.05.08-.07-.98-.1-1.32-.12-1.63-.34.01-.54.01-.72.01-1.04,0-2.29-.17-3-.38-.15-.04-.21-.12-.21-.24,0-.22.09-.71.23-1.32.93.22,2.11.36,3.22.36h.43ZM74.96,232.27c-.96,0-1.49.29-1.49.79,0,.45.43.69,1.28.69.97,0,1.42-.34,1.42-1.09v-.25c-.39-.1-.69-.13-1.21-.13Z"/>
        <path d="M89.59,222.77c.37.11.48.18.48.35,0,.1-.01.15-.09.36-.17.44-.29,1.2-.34,2.25-.12,2.42-.18,4.29-.18,5.78,0,.48.04.84.12,1.08.17.5.69.75,1.53.75,1.35,0,2.62-.55,3.79-1.65.54-.51.87-.92,1.42-1.74.09.48.21.79.54,1.47.04.12.08.21.08.35,0,.27-.29.63-1.04,1.3-1.49,1.33-3.13,2.02-4.86,2.02-1.14,0-1.98-.28-2.52-.82-.57-.6-.79-1.38-.79-2.87,0-1.17.01-2.07.13-5.56.02-.53.03-.84.03-.98,0-1.27-.01-1.65-.11-2.29.77.03,1.35.09,1.8.21Z"/>
        <path d="M106.33,231.49c1.08.36,1.54.55,2.31.99.99.57,1.16.72,1.16,1,0,.13-.2.45-.51.85-.22.29-.32.36-.43.36q-.09,0-.58-.45c-.54-.5-1.12-.85-1.89-1.15,0,1.23-.93,1.9-2.64,1.9-1.53,0-2.45-.67-2.45-1.79s1.05-1.98,2.52-1.98c.27,0,.48.01,1.04.06-.11-1.8-.15-3.04-.17-4.51,0-.88-.03-1.15-.14-1.63.63.02,1.31.08,1.61.13.21.06.27.12.27.27,0,.08,0,.09-.09.27-.1.25-.17.86-.18,1.86.94-.04,1.46-.13,2.61-.45.03-.01.06-.01.08-.01.04,0,.09.01.11.04.1.13.3.99.3,1.32,0,.14-.04.17-.58.29-.9.18-1.61.27-2.49.29.02.74.04,1.16.17,2.34ZM103.73,232.51c-.72,0-1.09.21-1.09.63,0,.36.33.52,1,.52s1.02-.17,1.15-.54c.05-.12.06-.19.06-.46-.32-.1-.62-.15-1.12-.15Z"/>
        <path d="M118.31,226.21c.97-.25,1.62-.35,2.33-.35,2.13,0,3.36,1.26,3.36,3.42,0,1.88-.81,3.39-2.45,4.59-.87.65-2.19,1.29-2.62,1.29-.2,0-.24-.04-.56-.5-.22-.34-.45-.55-.82-.82,1.72-.58,2.44-.96,3.22-1.64.9-.79,1.35-1.75,1.35-2.89,0-1.21-.57-1.91-1.58-1.91-.81,0-1.86.32-3.22.98-.2.09-.3.17-.55.34-.06.03-.12.06-.18.06-.29,0-.77-.84-1.1-1.96.56-.04.84-.12,2.82-.61ZM119.32,222.55c.54.17,1.35.32,2.08.41.3.03.41.04,1.17.07.22,0,.29.06.29.23,0,.5-.11,1.3-.2,1.46-.03.09-.1.12-.21.12-.34,0-1.56-.17-2.26-.32-1.19-.24-2.22-.54-2.43-.71-.05-.04-.08-.1-.08-.17,0-.12.31-.93.46-1.21.08-.12.12-.15.21-.15q.08,0,.96.27Z"/>
        <path d="M135.79,233.84c0,.66-.52,1.18-1.18,1.18s-1.19-.53-1.19-1.18.53-1.19,1.19-1.19,1.18.53,1.18,1.19ZM135.26,231.62h-1.33l-.41-8.98h2.16l-.42,8.98Z"/>
      </g>
      <g>
        <path class="cls-1" d="M324.57,225.47c1.98.16,1.35,2.34.38,3.61-.2.27-.59.3-.85.08-1.72-1.47-1.12-3.82.47-3.69Z"/>
        <path class="cls-1" d="M324.47,226.34c-.34,0-.62-.28-.62-.62v-3.92l-.99-1.38c-.2-.28-.14-.67.14-.87.28-.2.67-.14.87.14l1.1,1.54c.08.11.12.23.12.36v4.12c0,.34-.28.62-.62.62Z"/>
        <path class="cls-6" d="M309.29,251.34c1.36-.08,2.68-.26,3.95-.54,9.96-2.2,10.33-7.28,10.2-11.51s-1.05-19.4-13.27-20.23c-12.22-.83-15.37,8.9-17.74,12.05-2.37,3.15-10.98,13.01,5.18,18.52,1.58.54,3.14.95,4.68,1.24"/>
        <polygon class="cls-5" points="321.43 215.45 315.24 214.87 318 220.44 324.31 221.12 321.43 215.45"/>
        <rect class="cls-5" x="314.65" y="218.59" width="6.74" height="2.93" transform="translate(205.83 -150.05) rotate(38.45)"/>
        <path class="cls-11" d="M288.72,237.02c5.12.33,8.07,5.74,6.18,11.54-4.99-2.72-7.78-5.48-6.18-11.54Z"/>
        <path class="cls-11" d="M322.92,239.18c-5.9-.82-10.43,4.27-9.51,10.87,6.27-1.75,10.04-4.05,9.51-10.87Z"/>
        <ellipse class="cls-1" cx="300.91" cy="239.37" rx="1.86" ry="1.71" transform="translate(17.64 499.38) rotate(-81.05)"/>
        <path class="cls-1" d="M300.75,229.58c1.67-.68,3.18-.04,3.89,1.27.17.31-.14.57-.47.41-1.05-.53-2.09-.79-3.22-1.01-.38-.07-.52-.54-.2-.67Z"/>
        <path class="cls-1" d="M314.06,232.13c-1.24-1.32-2.88-1.35-4.07-.46-.28.21-.11.58.26.56,1.18-.05,2.23.15,3.35.42.37.09.69-.27.46-.52Z"/>
        <path class="cls-1" d="M309.29,251.94c-.32,0-.58-.25-.6-.57-.02-.33.24-.62.57-.64,1.31-.08,2.61-.25,3.85-.53,9.99-2.21,9.83-7.44,9.72-10.9-.13-4.35-.83-8.12-2.06-11.19-2.12-5.28-5.7-8.12-10.65-8.46-9.8-.66-13.46,5.57-15.88,9.7-.49.84-.91,1.56-1.33,2.11-.12.16-.25.33-.39.51-1.69,2.2-4.83,6.29-3.64,10.22.85,2.82,3.86,5.13,8.92,6.86,1.53.52,3.07.93,4.59,1.21.33.06.54.38.48.71-.06.33-.38.55-.71.48-1.58-.3-3.18-.72-4.76-1.26-5.46-1.86-8.72-4.43-9.69-7.65-1.37-4.52,2.15-9.1,3.84-11.3.14-.18.27-.35.38-.5.38-.5.78-1.2,1.26-2,2.42-4.12,6.46-11.01,17.01-10.29,5.45.37,9.39,3.47,11.69,9.21,1.28,3.2,2.01,7.11,2.15,11.6.15,4.69-.55,9.89-10.67,12.12-1.3.29-2.66.47-4.04.55-.01,0-.02,0-.04,0Z"/>
        <path class="cls-1" d="M299.97,238.73c-.07,0-.13-.02-.19-.07-.77-.61-1.16-1.23-1.45-2.3-.04-.16.05-.33.21-.37.16-.04.33.05.37.21.29,1.08.66,1.53,1.24,1.99.13.1.15.29.05.42-.06.08-.15.11-.24.11Z"/>
        <path class="cls-1" d="M299.78,239.33c-.81,0-1.68-.47-2.38-1.28-.11-.13-.09-.32.03-.43.13-.11.32-.09.43.03.63.74,1.4,1.13,2.08,1.06.16-.02.32.1.33.27s-.1.32-.27.33c-.08,0-.15.01-.23.01Z"/>
        <path class="cls-1" d="M319.77,224.37c-.13,0-.26-.04-.37-.13-.26-.21-.31-.59-.1-.85l2.28-2.89c.13-.16.33-.25.54-.23l1.15.12-2.22-4.37-4.78-.45.68,1.37c.1.2.08.45-.06.63l-1.83,2.43c-.2.27-.58.32-.85.12-.27-.2-.32-.58-.12-.85l1.6-2.13-1-2.01c-.1-.2-.08-.43.04-.61.12-.18.34-.28.55-.26l6.19.58c.21.02.39.14.48.33l2.88,5.66c.1.2.08.43-.04.62-.13.18-.34.28-.56.26l-1.93-.21-2.07,2.62c-.12.15-.3.23-.48.23Z"/>
        <path class="cls-3" d="M309.97,245.16c-.68-1.85-3.69-3.85-5.22-3.63-1.53.22-4.76,2.08-5.76,2.02s-1.7-.74-1.82,1.61,1.72,3.55,4.17,2.69c3.41,1.94,9.79.49,8.63-2.69Z"/>
        <path class="cls-3" d="M309.97,247.25c-.76,2.94-4.99,4.67-6.27,4.24-1.28-.43-3.94-1.64-2.54-4.21,2.53.42,8.05.42,8.16-.8s.64.77.64.77Z"/>
        <path class="cls-1" d="M304.99,249.32c-1.07,0-2.22-.33-3.41-1-2.32.66-3.62.04-4.3-.61-.86-.82-1.18-2.14-.84-3.43.35-1.31.93-1.42,1.84-1.44.65-.02,1.64-.04,3.25-.88,3.58-1.88,5.67-.8,7.71,1.4.2.21.19.55-.03.75s-.55.19-.75-.03c-1.8-1.94-3.44-2.76-6.44-1.18-1.83.96-3.01.99-3.72,1q-.67.02-.84.65c-.24.91-.02,1.85.55,2.4.71.68,1.92.79,3.47.3.14-.04.3-.03.43.05,1.94,1.14,4.71,1.83,6.92-1.39.14-.21.4-.28.64-.19,0,0,.73.29,1.37.44.29.06.47.35.4.63-.06.29-.35.47-.63.4-.42-.09-.85-.23-1.14-.34-1.24,1.64-2.77,2.48-4.47,2.48Z"/>
        <path class="cls-1" d="M304.24,252.03c-.57,0-1.12-.1-1.63-.29-2.62-1.02-2.61-3.62-2.61-3.73,0-.29.24-.52.53-.52h0c.29,0,.53.24.52.54,0,.08.02,1.98,1.94,2.73,1.12.44,2.58.22,3.89-.58,1.45-.88,2.41-2.28,2.56-3.74.03-.29.29-.5.58-.47.29.03.5.29.47.58-.19,1.78-1.33,3.48-3.06,4.54-1.03.63-2.15.95-3.19.95Z"/>
        <path class="cls-1" d="M309.14,241.48c-.15,0-.29-.05-.41-.15-.27-.23-.3-.63-.08-.9.73-.86,1.61-1.32,2.49-1.27.79.04,1.53.49,2.06,1.26.2.29.13.69-.16.89-.29.2-.69.13-.89-.16-.21-.31-.57-.68-1.07-.71-.47-.02-.99.27-1.45.82-.13.15-.31.23-.49.23Z"/>
        <path class="cls-1" d="M312.21,240.38c-.15,0-.28-.11-.3-.26-.02-.17.09-.32.26-.34.71-.1,1.53-.71,1.99-1.49.09-.14.27-.19.41-.11.14.09.19.27.11.41-.56.94-1.53,1.66-2.43,1.78-.01,0-.03,0-.04,0Z"/>
        <path class="cls-1" d="M313.64,240.95c-.39,0-.8-.07-1.19-.25-.15-.07-.22-.25-.15-.4.07-.15.25-.22.4-.15.91.42,1.95.09,2.65-.26.15-.07.33-.01.4.14.07.15.01.33-.14.41-.54.26-1.24.52-1.98.52Z"/>
      </g>
      <path class="cls-8" d="M329.77,1.42H90.4c-4.68,0-8.47,3.79-8.47,8.47v66.5s-9.69,9.69-9.69,9.69h9.69s0,.5,0,.5c0,4.68,3.79,8.47,8.47,8.47h239.38c4.68,0,8.47-3.79,8.47-8.47V9.89c0-4.68-3.79-8.47-8.47-8.47Z"/>
      <g>
        <path d="M102.18,26.84c1.23,0,2.59-.18,3.94-.52.08-.03.12-.03.17-.03.09,0,.13.06.17.2.04.33.08.81.08,1.3,0,.3-.03.39-.17.45-.45.24-2.47.46-4.21.46-2.26,0-3.55-.38-4.59-1.35-.5-.46-.99-1.27-.99-1.6,0-.22.13-.31,1.37-1.02.54,1.48,1.79,2.11,4.25,2.11ZM102.31,18.22c.87,0,1.38-.03,2.4-.18h.11c.12,0,.17.04.2.13.03.18.06.63.06,1.17,0,.35-.03.47-.12.53-.12.07-1.42.17-2.43.17-1.33,0-2.45-.1-3.69-.35-.85-.17-.9-.21-.9-.73,0-.35.03-.92.08-1.33,1.3.4,2.73.6,4.3.6Z"/>
        <path d="M112.45,21.04c-.67.13-1.32.3-1.74.45-.11.04-.2.06-.27.06-.13,0-.21-.07-.3-.33-.11-.33-.21-.85-.27-1.38.22.02.33.03.46.03.57,0,1.18-.08,2.13-.26l.03-.9c.02-.21.02-.36.02-.4,0-.65-.02-1.04-.08-1.44.79.03,1.29.09,1.77.21.2.04.29.13.29.27,0,.06-.01.1-.09.27-.13.28-.15.46-.25,1.71.33.23.62.54.62.69,0,.09-.04.17-.18.33-.22.24-.3.34-.58.76q-.03.39-.03.5c.5-.44.82-.72,1.33-1.09.57-.44,1.2-.84,1.65-1.07.58-.31.99-.42,1.53-.42.79,0,1.37.3,1.68.87.18.36.25.71.25,1.29,0,.51-.03.99-.12,2.08-.12,1.29-.18,2.25-.18,2.83s.13.76.55.76c.6,0,1.33-.44,1.98-1.17.01.58.06.77.25,1.37.04.12.06.19.06.25,0,.17-.08.3-.33.5-.61.49-1.5.81-2.29.81-1.32,0-1.92-.69-1.92-2.2,0-.69.04-1.58.2-3.67.04-.5.06-.92.06-1.12,0-.62-.21-.9-.66-.9s-1.33.48-2.52,1.39c-.6.45-.94.77-1.57,1.41v.69c0,1.12.07,3.72.13,4.63v.18c0,.12-.02.17-.04.21-.08.09-.51.15-1.2.15-.43,0-.53-.06-.53-.31,0-.09,0-.24.02-.4v-.35q.01-.52.08-3.38-.86,1.11-1.37,1.94c-.13.21-.23.29-.34.29s-.39-.24-.86-.75c-.29-.33-.39-.47-.39-.56,0-.07.03-.13.13-.24.95-.98,1.74-1.91,2.87-3.31l.03-1.27Z"/>
        <path d="M129.79,22.09q-.03-.73-.04-1.67c-.13.02-.27.02-.33.02-.99,0-2.26-.1-2.79-.24-.15-.04-.18-.07-.18-.22,0-.33.04-.74.15-1.32.84.17,1.88.27,2.77.27.08,0,.21,0,.38-.01v-.99c0-.52-.01-.76-.04-1.29.75.05,1.26.09,1.62.18.3.06.39.13.39.3,0,.08-.01.1-.12.35-.1.25-.12.31-.18,1.35.9-.1,1.62-.26,2.33-.47.04-.01.06-.01.08-.01.1,0,.1.01.27.49.11.31.21.71.21.83,0,.1-.04.17-.19.21-.5.17-1.79.39-2.73.5,0,1.06,0,1.11.01,1.63,1.05-.13,1.62-.29,2.81-.72.07-.03.1-.04.15-.04.09,0,.12.04.27.41.15.38.29.79.29.94,0,.08-.06.13-.17.18-.83.3-2.33.66-3.27.76.03.57.06.89.15,2.06.84.25,1.18.39,1.83.73.72.36,1.11.61,1.75,1.12.12.09.17.17.17.29,0,.1-.14.36-.42.81-.33.5-.5.69-.6.69-.04,0-.09-.01-.13-.06-.9-.85-1.49-1.28-2.49-1.77-.06.72-.22,1.12-.63,1.5-.51.49-1.36.76-2.43.76-1.84,0-2.98-.81-2.98-2.11,0-.57.24-1.12.64-1.5.58-.54,1.47-.83,2.59-.83.36,0,.67.03,1.05.08-.07-.98-.1-1.32-.12-1.63-.34.01-.54.01-.72.01-1.04,0-2.29-.16-3-.38-.15-.04-.21-.12-.21-.24,0-.23.09-.71.23-1.32.93.23,2.11.36,3.22.36h.43ZM128.76,26.66c-.96,0-1.49.29-1.49.79,0,.45.43.69,1.28.69.97,0,1.42-.34,1.42-1.09v-.25c-.39-.1-.69-.14-1.21-.14Z"/>
        <path d="M141.06,20.62c-.39.09-.53.13-1.07.33-.19.08-.3.1-.39.1-.33,0-.63-.61-.9-1.9.96-.04,1.31-.09,2.97-.34,1.8-.27,4.08-.62,5.28-.77,1.35-.18,2.43-.36,3-.48.1-.03.15-.03.22-.03.2,0,.27.09.41.47.12.31.21.76.21.98,0,.18-.06.24-.27.24-.32,0-.6.03-.89.08-2.53.42-4.56,2.64-4.56,4.98,0,1.75,1.38,2.91,3.72,3.12.21.01.29.09.29.27,0,.38-.15,1.09-.29,1.42-.08.17-.19.24-.39.24s-.65-.09-1.11-.22c-2.55-.75-3.88-2.37-3.88-4.67,0-1.25.41-2.4,1.19-3.39.42-.54.78-.84,1.63-1.43-1.96.33-4.04.72-5.17,1.01ZM148.74,21.01c.21,0,1.48,1.43,1.48,1.65,0,.08-.09.17-.36.41-.29.24-.3.24-.42.28q-.08.03-.11.03c-.06,0-.08-.02-.34-.44-.24-.38-.5-.71-.97-1.2-.03-.03-.08-.1-.08-.12.03-.08.04-.12.06-.12.04-.06.3-.27.36-.31.15-.08.24-.14.25-.15.01-.03.04-.03.04-.03h.08ZM151.3,22.04c-.22.17-.36.25-.43.25-.06,0-.09-.03-.17-.15-.45-.67-.67-.96-1.16-1.42-.03-.05-.06-.09-.06-.12,0-.08.09-.17.3-.31s.39-.24.46-.24c.11,0,.29.14.6.45.44.45.84,1,.84,1.14,0,.09-.11.2-.39.41Z"/>
        <path d="M159.94,27.64h4.17c.73,0,1.41-.03,1.93-.09v1.74c-.6-.08-1.2-.1-1.92-.1h-9.15c-.67,0-1.33.03-1.98.1v-1.74c.56.06,1.17.09,1.98.09h3.29v-9.3c0-.66-.03-1.08-.09-1.66h1.86c-.06.54-.09,1.02-.09,1.66v2.46h3.39c.63,0,1.17-.03,1.68-.09v1.73c-.54-.06-1.08-.09-1.68-.09h-3.39v5.29Z"/>
        <path d="M173.14,25.31c-.57.51-.92.75-1.75,1.23-.18-.31-.24-.42-.56-.76-.9.54-1.47.84-2.86,1.51-.02.02-.09.05-.2.1l-.13.08-.36-1.68c.38-.09.88-.27,1.62-.59v-3.79h-.42c-.42,0-.74.01-1.11.07v-1.53c.33.04.66.06,1.12.06h.41v-1.79c0-.75-.03-1.18-.09-1.6h1.68c-.08.47-.09.85-.09,1.6v1.79h.27c.46,0,.74-.02,1-.04v1.48c-.31-.03-.6-.04-1-.04h-.27v3.09c.33-.18.5-.27.97-.54v1c.78-.48,1.28-.92,1.71-1.47h-.33c-.6,0-1,.03-1.32.07v-1.44c.31.06.67.08,1.33.08h6.3c.69,0,1.14-.03,1.5-.08v1.42c-.44-.04-.84-.06-1.49-.06h-4.41c-.12.21-.19.33-.39.6h4.58c.7,0,.96-.01,1.41-.04-.03.24-.04.45-.06.85-.08,1.77-.29,3.25-.58,3.9-.3.66-.76.85-2.03.85-.36,0-.63-.02-1.21-.04-.06-.52-.17-.92-.39-1.32-.76.67-1.38,1.08-2.37,1.57-.33-.46-.55-.72-1.04-1.09,1.25-.54,1.86-.9,2.62-1.54.58-.51,1.05-1.11,1.49-1.92h-.86c-.9,1.35-2.13,2.31-4,3.15-.24-.45-.45-.69-.9-1.08,1.63-.63,2.58-1.2,3.33-2.07h-1.12ZM173.58,21.59c-.58,0-1.02.02-1.32.04.05-.4.06-.79.06-1.38v-2.1c0-.6-.01-.87-.06-1.31.45.06.77.08,1.46.08h4.2c.75,0,1.09-.02,1.54-.08-.04.38-.06.69-.06,1.42v2c0,.62.02,1.06.06,1.35-.34-.02-.71-.03-1.3-.03h-4.58ZM173.8,18.8h4.08v-.62h-4.08v.62ZM173.8,20.44h4.08v-.58h-4.08v.58ZM178.18,25.31c-.55,1.2-1.12,2.01-2.01,2.82.62.09,1.07.12,1.49.12.52,0,.67-.15.81-.76.11-.51.18-1.14.25-2.17h-.54Z"/>
        <path d="M189.22,16.61c.62.96,1.33,1.71,2.45,2.56,1.11.84,2.31,1.51,3.63,2.05-.33.46-.54.88-.79,1.59-1.23-.55-2.54-1.35-3.54-2.17-1.14-.92-1.74-1.53-2.54-2.58-.78,1.06-1.33,1.64-2.37,2.52-1.11.94-2.29,1.73-3.58,2.35-.25-.66-.42-.98-.81-1.53,1.25-.54,2.45-1.27,3.54-2.19,1-.81,1.74-1.64,2.36-2.61h1.66ZM189.54,27.77h3.58c.79,0,1.37-.03,1.81-.09v1.71c-.46-.06-1.05-.09-1.81-.09h-9.36c-.81,0-1.4.03-1.86.09v-1.71c.39.06.93.09,1.71.09h.65v-3.45c0-.67-.02-1.12-.08-1.65h1.75c-.06.44-.09.93-.09,1.65v3.45h2.08v-5.86c0-.72-.02-1.11-.09-1.6h1.79c-.06.44-.09.84-.09,1.56v1.42h2.38c.67,0,1.17-.03,1.58-.07v1.68c-.45-.06-.88-.07-1.56-.07h-2.4v2.95Z"/>
        <path d="M198.39,22.25c-.68,0-.99.02-1.47.06v-1.37c.41.05.77.06,1.47.06h1.75c-.24-.54-.38-.79-.54-1.08h-1.54c-.69,0-1.26.03-1.71.07v-1.44c.45.06.9.09,1.63.09h.46c-.27-.49-.45-.73-.97-1.33l1.44-.54c.48.66.67.99,1.11,1.87h.81v-1c0-.44-.03-.84-.08-1.12h1.56c-.03.27-.04.58-.04,1.06v1.06h1.06v-1.06c0-.45-.01-.76-.06-1.06h1.57c-.04.27-.07.68-.07,1.12v1h.9c.5-.69.78-1.21,1.04-1.9l1.47.54c-.31.54-.58.96-.88,1.36h.41c.75,0,1.2-.03,1.63-.09v1.44c-.45-.04-1.02-.07-1.71-.07h-1.46c-.24.54-.34.76-.52,1.08h1.66c.71,0,1.07-.01,1.49-.06v1.37c-.46-.04-.79-.06-1.49-.06h-3.76v.69h3.03c.63,0,1.08-.02,1.47-.06v1.26c-.38-.04-.84-.06-1.47-.06h-3.03v.72h4.04c.81,0,1.32-.03,1.72-.09v1.44c-.52-.06-1.05-.09-1.71-.09h-2.89c.48.42,1.14.8,1.95,1.16.92.38,1.69.6,3,.82-.4.54-.58.85-.82,1.47-2.42-.66-4.05-1.53-5.33-2.86.03.51.03.69.03,1.02v.72c0,.61.03,1.05.09,1.46h-1.7c.06-.42.09-.89.09-1.47v-.69c0-.33,0-.45.03-.99-.66.7-1.18,1.11-2.07,1.59-.92.51-1.82.88-2.94,1.21-.21-.5-.5-.93-.87-1.4,2.08-.44,3.54-1.06,4.71-2.04h-2.67c-.71,0-1.21.03-1.75.09v-1.44c.45.06.95.09,1.74.09h3.81v-.72h-2.85c-.63,0-1.09.01-1.47.06v-1.26c.39.04.82.06,1.47.06h2.85v-.69h-3.61ZM204.04,21.01c.21-.39.34-.69.48-1.08h-3.29c.2.42.3.69.43,1.08h2.37Z"/>
        <path d="M216.57,26.12c-.72,1.25-1.71,1.94-2.73,1.94-1.56,0-2.67-1.53-2.67-3.66,0-2.37,1.2-4.41,3.25-5.49,1-.54,2.08-.78,3.51-.78,3.14,0,5.46,2.22,5.46,5.19,0,2.62-1.29,4.51-3.78,5.58-.5.21-.89.33-1.08.33-.18,0-.25-.06-.45-.34-.25-.39-.54-.68-.95-.95,3.09-.79,4.49-2.25,4.49-4.68,0-1.25-.53-2.29-1.46-2.96-.53-.36-.95-.51-1.77-.64-.42,3.16-.92,4.89-1.83,6.46ZM214.41,20.81c-1,.88-1.58,2.15-1.58,3.55,0,1.16.38,1.83,1,1.83.75,0,1.52-1.04,2.08-2.82.36-1.12.54-1.98.77-3.65-1.07.23-1.59.48-2.28,1.08Z"/>
        <path d="M234.64,22.07h2.13c.68,0,1.1-.03,1.54-.09v1.63c-.48-.04-.93-.07-1.56-.07h-1.62c.86,1.5,2.1,2.74,3.58,3.58-.48.48-.69.78-.99,1.5-.61-.43-1.05-.85-1.62-1.5-.74-.85-1.05-1.32-1.53-2.22.03.54.04,1,.04,1.44v1.81c0,.67.03,1.2.09,1.67h-1.67c.06-.46.09-1,.09-1.68v-1.71c0-.4.02-.88.04-1.48-.91,1.65-1.93,2.76-3.39,3.73-.38-.71-.58-1-.9-1.36,1.54-.89,2.8-2.17,3.67-3.78h-.95c-.64,0-1.11.03-1.58.09v-.6c-.25.36-.43.69-.61,1.21-.38-.58-.6-1.05-.89-1.8.03.47.06,1.27.06,1.91v3.69c0,.77.03,1.32.09,1.77h-1.67c.06-.46.09-1.02.09-1.77v-3.1c0-.57.02-.93.11-1.86-.44,1.46-.87,2.43-1.52,3.41-.18-.68-.37-1.11-.67-1.6.72-.92,1.47-2.61,1.92-4.35h-.57c-.44,0-.69.02-.96.06v-1.53c.24.04.51.06.96.06h.72v-1.16c0-.76-.01-1.14-.08-1.5h1.65c-.06.39-.08.8-.08,1.5v1.16h.43c.36,0,.54-.02.78-.06v1.42c.57-1.02,1.05-2.52,1.09-3.49l1.46.38c-.06.16-.1.34-.21.79-.08.27-.1.4-.18.69h1.15v-.99c0-.61-.03-.99-.09-1.36h1.68c-.06.36-.09.77-.09,1.36v.99h1.7c.72,0,1.14-.03,1.54-.09v1.58c-.42-.04-.9-.08-1.54-.08h-1.7v1.81ZM231.51,20.26c-.25.62-.39.9-.81,1.6q-.36-.38-1.17-.94c.12-.17.17-.24.24-.35-.2-.03-.44-.04-.71-.04h-.38c.34.79.71,1.4,1.36,2.28v-.83c.45.06.87.09,1.56.09h1.53v-1.81h-1.63Z"/>
        <path d="M245.49,26.12c-.72,1.25-1.71,1.94-2.73,1.94-1.56,0-2.67-1.53-2.67-3.66,0-2.37,1.2-4.41,3.25-5.49,1-.54,2.08-.78,3.51-.78,3.14,0,5.46,2.22,5.46,5.19,0,2.62-1.29,4.51-3.78,5.58-.5.21-.89.33-1.08.33-.18,0-.25-.06-.45-.34-.25-.39-.54-.68-.95-.95,3.09-.79,4.49-2.25,4.49-4.68,0-1.25-.53-2.29-1.46-2.96-.53-.36-.95-.51-1.77-.64-.42,3.16-.92,4.89-1.83,6.46ZM243.33,20.81c-1,.88-1.58,2.15-1.58,3.55,0,1.16.38,1.83,1,1.83.75,0,1.52-1.04,2.08-2.82.36-1.12.54-1.98.77-3.65-1.07.23-1.59.48-2.28,1.08Z"/>
        <path d="M254.2,18.85c.36.06.62.07,1.16.07h2.96c.6,0,.81-.01,1.15-.06v1.43c-.3-.03-.5-.04-1.09-.04h-3.01c-.51,0-.77.01-1.16.06v-1.45ZM254.67,16.87c.38.04.62.06,1.2.06h2.1c.58,0,.83-.02,1.2-.06v1.4c-.36-.03-.67-.04-1.2-.04h-2.1c-.5,0-.84.01-1.2.04v-1.4ZM256.2,29.75h-1.5c.06-.44.08-.81.08-1.36v-2.28c0-.47-.02-.72-.06-1.12.38.03.66.04,1.1.04h2.41c.57,0,.71,0,.96-.04-.03.31-.03.52-.03,1.03v2.42c0,.54.01.78.04,1.12h-1.41v-.5h-1.59v.69ZM254.71,20.93c.32.03.48.04.95.04h2.58c.46,0,.63,0,.92-.04v1.38c-.32-.03-.51-.04-.92-.04h-2.58c-.43,0-.66.01-.95.04v-1.38ZM254.71,22.94c.32.03.48.04.95.04h2.56c.5,0,.62,0,.93-.04v1.38c-.3-.03-.48-.04-.95-.04h-2.56c-.44,0-.66.02-.93.04v-1.38ZM256.15,27.79h1.63v-1.48h-1.63v1.48ZM262.48,18.8c-.93.12-1.15.15-2.52.28-.1-.46-.24-.79-.52-1.41,2.58-.08,5.56-.66,6.7-1.29l.87,1.38c-.15.03-.2.04-.38.1-1.07.3-1.83.5-2.61.66v2.08h1.59c.72,0,1.17-.03,1.6-.09v1.58c-.45-.06-.93-.09-1.6-.09h-1.59v1.89h1.61c.48,0,.75-.02,1.06-.04-.03.33-.04.69-.04,1.23v3.09c0,.6.03,1.12.08,1.53h-1.62v-.66h-3.55v.66h-1.59c.04-.4.06-.79.06-1.48v-3.24c0-.5-.02-.72-.05-1.12.35.03.65.04,1.05.04h1.45v-1.89h-1.26c-.72,0-1.15.03-1.62.09v-1.58c.5.08.92.09,1.64.09h1.24v-1.81ZM261.55,27.65h3.55v-2.37h-3.55v2.37Z"/>
        <path d="M272.29,25.73c.04.06.06.1.06.17q0,.09-.25.78c-.31.92-.51,1.67-.57,2.25-.02.19-.08.27-.27.31-.21.06-.61.09-1,.09-.15,0-.22-.03-.27-.12-.14-.28-.38-1.32-.5-2.16-.11-.71-.15-1.44-.15-2.21,0-1.72.2-3.36.74-6.3.09-.48.12-.7.17-1.17.69.09,1.17.23,1.6.45.23.12.32.21.32.36,0,.08-.03.15-.11.27-.61,1.05-1.18,4.29-1.18,6.69,0,.36.01.93.06,1.65.36-.93.53-1.35.86-2.07.1.4.21.6.51,1ZM274.81,21.79c-.72,0-.87-.03-.92-.2-.04-.13-.09-.61-.09-.96,0-.12,0-.24.02-.51.4.03.64.04,1.14.04.81,0,1.32-.02,2.1-.06-.01-1.9-.03-2.15-.18-2.86.74.02,1.29.07,1.77.19.23.06.32.14.32.29,0,.07-.01.1-.06.23-.15.36-.23.94-.26,1.98.56-.08,1.04-.17,1.94-.38.08-.03.1-.03.15-.03.09,0,.14.04.17.15.03.14.08.71.08,1.02,0,.36-.01.44-.17.5-.24.1-.9.23-2.17.38,0,1.03.09,2.74.2,3.72.94.41,1.59.75,2.25,1.21.42.31.51.41.51.52,0,.15-.27.66-.58,1.1-.18.25-.27.33-.38.33s-.11,0-.45-.33c-.33-.33-.67-.57-1.33-1.02v.12c0,1.33-1.09,2.19-2.76,2.19s-2.8-.9-2.8-2.25,1.14-2.35,2.65-2.35c.56,0,.84.02,1.25.08q-.06-1.17-.1-3.17c-.65.04-1.67.08-2.27.08ZM276.04,26.2c-.75,0-1.25.34-1.25.87,0,.48.46.78,1.18.78.8,0,1.22-.36,1.22-1.04,0-.22-.02-.38-.02-.39-.39-.15-.73-.23-1.14-.23ZM280.05,18.41c-.21-.45-.34-.67-.81-1.31-.03-.04-.04-.07-.04-.1,0-.12.5-.46.68-.46.09,0,.19.1.49.48.38.5.79,1.19.79,1.33,0,.09-.04.15-.27.29-.22.17-.42.25-.51.25q-.11,0-.33-.48ZM280.86,16.07c.21-.12.35-.18.44-.18.1,0,.18.06.39.33.46.6.86,1.25.86,1.41,0,.09-.06.16-.3.3-.18.12-.39.23-.46.23-.06,0-.1-.04-.15-.15-.26-.57-.66-1.25-.95-1.58-.04-.04-.06-.09-.06-.12,0-.06.06-.13.24-.24Z"/>
        <path d="M284.67,22.07c-.12.03-.18.06-.27.1-.08.04-.12.06-.2.06-.32,0-.55-.58-.74-1.69.12.02.23.02.29.02.63,0,2.24-.2,3.2-.39.31-1.32.48-2.31.48-3.03,0-.06,0-.14-.01-.25.64.07,1.26.21,1.68.38.24.09.36.22.36.38,0,.07-.02.12-.09.24q-.23.4-.69,2.06c.36-.05.76-.08,1.02-.08.62,0,1.1.12,1.44.36.6.44.9,1.32.9,2.69,0,2.23-.41,4.14-1.1,5.08-.48.66-1.11.98-1.99.98-.54,0-1.05-.07-1.2-.17q-.12-.07-.17-.63c-.04-.4-.13-.75-.32-1.17.78.25.98.3,1.46.3.72,0,1.02-.34,1.35-1.54.23-.79.35-1.83.35-2.92,0-1.17-.29-1.59-1.08-1.59-.27,0-.71.03-1.05.09-.04.17-.06.18-.12.39-.42,1.53-1.19,3.55-1.95,5.17-.79,1.63-.99,1.96-1.18,1.96-.12,0-.53-.21-.96-.5-.35-.21-.44-.3-.44-.42q0-.07.62-1.05c.83-1.27,1.91-3.78,2.28-5.25-1.11.24-1.73.39-1.86.44ZM292.32,20.39c0-.1.14-.24.57-.58.3-.23.45-.31.55-.31.09,0,.17.04.36.24.88.85,1.71,2,2.19,2.98.15.33.24.54.24.63,0,.15-.04.2-.52.58-.3.24-.65.44-.77.44-.1,0-.15-.04-.25-.3-.3-.73-.58-1.31-.94-1.86-.39-.6-.47-.69-1.35-1.64-.06-.09-.08-.13-.08-.18Z"/>
        <path d="M302.11,22.13q.07-.12.73-1.23c.09.25.18.42.36.66.1.17.15.25.15.34s-.03.17-.39.75c-.25.45-.69,1.38-.87,1.83-.15.42-.21.45-.71.45s-.88-.06-.94-.15c-.09-.12-.15-.93-.15-2.04,0-1.47.11-2.5.5-5.11.04-.3.06-.45.06-.78,1.17.21,1.94.56,1.94.84,0,.08-.02.12-.12.26-.2.28-.32.67-.46,1.47-.18,1-.32,2.32-.32,3.12q.13-.24.23-.41ZM307.56,17.75v.26c.01.06.01.18.03.34q.01.24.04.62,0,.16.03.72c.04.72.07,1.44.07,1.8,0,2.82-.73,5.01-2.29,6.85-.6.7-1.12,1.11-1.42,1.11-.18,0-.19,0-.51-.24-.29-.22-.67-.42-1.06-.52,1.05-.75,1.62-1.27,2.17-2.07.93-1.33,1.38-2.92,1.38-4.86,0-2.05-.14-3.31-.48-4.23.63-.07,1.09-.1,1.53-.1s.51.03.51.29v.04Z"/>
        <path d="M96.07,47.75h-.09c-.08.02-.13.02-.17.02-.13,0-.21-.06-.25-.26-.09-.37-.15-.82-.18-1.41.21.02.38.02.48.02.81,0,1.75-.06,2.55-.17.15-.99.23-1.74.23-2.37v-.34c1.74.24,2.07.33,2.05.6,0,.08-.03.12-.09.26-.18.34-.2.39-.44,1.57.58-.1,1.33-.3,1.64-.4.06-.03.07-.03.12-.03.13,0,.16.06.28.58.06.3.12.72.12.84,0,.11-.04.17-.18.2q-.27.09-2.33.45c-.69,3.06-1.41,5.29-2.56,7.99-.08.2-.15.27-.24.27-.2,0-.72-.21-1.23-.49-.26-.14-.33-.2-.33-.29,0-.06.04-.17.12-.31,1.14-2.16,1.96-4.45,2.53-6.91-.66.07-1.12.12-2.04.19ZM102.48,53.45c.43.29,1.06.42,1.95.42.97,0,1.81-.09,2.29-.24.12-.03.15-.04.21-.04.13,0,.19.04.24.18.11.31.18.93.18,1.4,0,.19-.06.27-.25.31-.5.1-1.33.17-2.22.17-1.88,0-2.92-.3-3.61-1.02-.25-.27-.46-.6-.58-.98-.09-.22-.15-.48-.15-.57,0-.25.45-.52,1.23-.78.17.63.34.92.72,1.15ZM106.69,49.09c-.3-.04-.93-.08-1.46-.08-1.11,0-1.58.05-2.89.27-.03.02-.08.02-.11.02-.09,0-.13-.03-.17-.12-.04-.1-.1-.84-.1-1.15,0-.19.03-.29.15-.33.06-.03.15-.04.46-.1,1.02-.18,1.88-.25,2.92-.25.87,0,1.32.03,1.43.1.07.06.09.18.09.67,0,.44-.03.83-.06.92-.01.04-.08.08-.15.08-.03,0-.08,0-.12-.02ZM105.04,43.81c.2,0,1.47,1.42,1.47,1.65,0,.06-.1.19-.22.29-.06.04-.15.12-.25.21-.13.12-.18.15-.33.21t-.08.03c-.06,0-.06-.01-.34-.45-.25-.39-.74-.99-.99-1.22-.03-.03-.08-.09-.08-.1.03-.06.05-.09.05-.09.07-.09.33-.3.39-.34.15-.08.24-.14.25-.15.01-.03.03-.03.04-.03h.09ZM107.58,44.86c-.21.15-.36.24-.43.24-.06,0-.09-.03-.17-.15-.33-.54-.65-.93-1.14-1.43-.04-.04-.06-.07-.06-.12,0-.14.57-.56.76-.56.11,0,.29.15.62.5.48.49.83.94.83,1.09,0,.09-.11.19-.41.42Z"/>
        <path d="M113.13,48.29c1.89-.52,3.25-.77,4.27-.77,2.12,0,3.42,1.16,3.42,3.03,0,1.12-.46,2.12-1.35,2.87-.58.49-1.46.91-2.61,1.26-.64.18-1.33.31-1.63.31-.18,0-.27-.04-.33-.19-.21-.52-.45-.9-.76-1.21,3.3-.35,4.98-1.4,4.98-3.1,0-.87-.72-1.54-1.65-1.54-1.62,0-3.39.54-5.25,1.57-.15.08-.24.12-.3.12-.25,0-.67-.75-1.02-1.83.74-.1.99-.17,2.24-.51Z"/>
        <path d="M125.1,47.57h-.09c-.08.02-.14.02-.17.02-.13,0-.21-.06-.25-.25-.09-.38-.15-.84-.18-1.41.21.02.38.02.48.02.81,0,1.75-.06,2.55-.17.15-.99.22-1.75.22-2.37v-.35c1.74.23,2.07.33,2.06.6,0,.07-.03.12-.09.25-.18.35-.19.39-.43,1.57.58-.1,1.33-.3,1.63-.4.06-.03.08-.03.12-.03.13,0,.17.06.29.58.06.3.12.72.12.84,0,.1-.04.17-.18.19q-.27.09-2.32.45c-.69,3.04-1.41,5.29-2.57,7.99-.08.19-.15.27-.24.27-.2,0-.72-.21-1.23-.5-.25-.13-.33-.21-.33-.29,0-.06.04-.16.12-.31,1.14-2.16,1.96-4.45,2.54-6.93-.66.09-1.12.14-2.04.21ZM131.5,53.27c.44.29,1.07.42,1.95.42.97,0,1.82-.09,2.29-.24.12-.03.15-.04.21-.04.13,0,.2.04.24.18.1.31.18.93.18,1.39,0,.2-.06.27-.25.31-.5.11-1.33.17-2.22.17-1.88,0-2.92-.3-3.62-1.02-.25-.27-.46-.62-.58-.99-.09-.21-.15-.46-.15-.55,0-.26.45-.53,1.23-.78.17.63.34.9.72,1.15ZM135.72,48.91c-.3-.04-.93-.07-1.46-.07-1.11,0-1.57.04-2.89.27-.03.01-.08.01-.1.01-.09,0-.14-.03-.17-.12-.04-.1-.11-.84-.11-1.16,0-.19.03-.28.15-.33.06-.03.15-.04.46-.1,1.02-.18,1.88-.25,2.92-.25.87,0,1.32.03,1.42.1.08.06.09.18.09.68,0,.43-.03.82-.06.91-.02.05-.08.08-.15.08-.03,0-.08,0-.12-.02Z"/>
        <path d="M140.34,43.7v-.21c.94.17,1.42.3,1.81.5.11.04.13.1.13.21,0,.06-.03.13-.09.24-.13.24-.18.42-.41,1.41-.28,1.29-.43,2.73-.43,4.3,0,.84.03,1.3.12,2.1l.79-1.6c.09.31.21.57.39.78.12.15.13.19.13.31s0,.12-.28.75c-.32.67-.5,1.26-.66,2.02-.04.24-.09.31-.17.35-.12.06-.63.13-.93.13-.21,0-.29-.04-.33-.18-.36-1.02-.66-3.12-.66-4.62,0-1.29.17-3.07.43-4.95.09-.62.14-1.06.14-1.38v-.17ZM145.45,47.95c-.84,0-1.08-.03-1.16-.13-.1-.14-.19-.75-.19-1.31v-.22c.6.06,1.08.09,1.84.09.58,0,.92-.02,1.51-.06-.04-1.56-.13-2.49-.31-2.97h.4c.53,0,1.17.04,1.5.12.15.03.23.12.23.24,0,.06-.02.12-.04.23-.08.21-.12.54-.12.93,0,.23.01.93.01,1.11v.15c.75-.12,1.11-.2,1.74-.41.06-.02.12-.03.18-.03.09,0,.13.04.17.13.06.17.12.75.12,1.08,0,.24-.04.35-.17.39-.2.07-1.11.25-2,.38.02.42.02.65.02.88,0,2.21-.27,3.78-.87,4.96-.54,1.06-1.71,2.31-2.19,2.31-.13,0-.19-.03-.36-.18-.5-.44-.58-.51-1.17-.78,1.05-.58,1.72-1.22,2.19-2.07.5-.91.76-2.17.76-3.55,0-.1,0-.36-.01-.72-.01-.15-.01-.38-.03-.68-.54.04-1.75.1-2.05.1Z"/>
        <path d="M157.42,47.77c-.19-.66-.25-1.06-.43-2.91-.06-.72-.12-1.08-.27-1.59.91.02,1.5.06,1.9.17.23.06.33.17.33.33,0,.06-.01.13-.04.25-.1.36-.15.63-.15,1.02,0,.73.15,1.94.32,2.46.09.28.18.39.34.39.36,0,1.68-.69,2.4-1.24.19-.15.22-.17.3-.17.13,0,.27.1.5.39.38.51.67,1.06.67,1.27,0,.17-.11.27-.36.34-.93.25-2.46.85-3.49,1.35-1.83.9-2.66,1.73-2.66,2.65s.76,1.29,2.7,1.29c1.12,0,2.14-.1,3.52-.33.06-.02.17-.03.2-.03.12,0,.19.06.25.18.04.15.15,1.06.15,1.43,0,.21-.06.28-.26.34-.33.08-2.14.18-3.28.18-1.92,0-3.2-.26-3.99-.79-.67-.47-1.04-1.2-1.04-2.1,0-.69.2-1.31.6-1.9.52-.78,1.09-1.27,2.35-2.02-.31-.29-.43-.5-.57-.96ZM162.87,44.41c.12-.09.2-.12.29-.12.21,0,1.51,1.38,1.51,1.6,0,.09-.12.23-.41.46-.3.25-.33.27-.4.27-.09,0-.11,0-.39-.42-.3-.42-.72-.9-1.04-1.17-.04-.04-.07-.09-.07-.14,0-.07.13-.21.51-.49ZM166.12,44.81c0,.09-.04.15-.23.3-.21.18-.49.38-.55.38-.09,0-.12-.04-.3-.28-.34-.5-.55-.73-1.09-1.23-.06-.06-.08-.09-.08-.14,0-.13.57-.57.75-.57.25,0,1.5,1.27,1.5,1.54Z"/>
        <path d="M167.73,52.19c.27-.24.34-.3.45-.3.19,0,1.09.66,1.75,1.29.75.69,1.59,1.69,1.59,1.9,0,.14-.03.17-.46.56-.57.52-.69.61-.79.61-.09,0-.18-.06-.25-.21-.53-.93-1.73-2.16-2.79-2.85-.12-.09-.18-.15-.18-.24,0-.1.03-.15.69-.76Z"/>
        <path d="M183.52,46.24c-.75,0-1.11.02-1.46.06v-1.56c.39.06.72.08,1.46.08h2.54v-.45c0-.68-.03-1.08-.11-1.6h1.72c-.06.4-.06.69-.06,1.66v3.9c0,.48-.03,1.2-.08,1.62l.84-.25v1.45c-.33.1-.58.18-.75.23s-.21.06-.27.08c-.41,2.05-1.41,3.28-3.88,4.71-.32-.51-.63-.91-1.09-1.38,1.08-.52,1.62-.87,2.2-1.38.5-.45.78-.87,1.02-1.47q-.84.21-1.65.4c-1.39.35-1.6.41-1.92.51l-.33-1.67c.21-.02.56-.04.83-.08,1.05-.17,2-.34,2.82-.54.36-.09.54-.13.57-.15.08-.72.09-.82.11-1.29h-2.14c-.72,0-1.07.02-1.47.06v-1.48c.35.04.69.06,1.47.06h2.17v-1.52h-2.54ZM190.72,54.22c0,.94.02,1.3.08,1.78h-1.71c.06-.48.09-.84.09-1.78v-9.7c0-.9-.01-1.23-.09-1.75h1.71c-.06.45-.08.87-.08,1.75v.33h2.57c.76,0,1.08-.02,1.47-.08v1.56c-.34-.04-.75-.06-1.47-.06h-2.57v1.72h2.28c.76,0,1.12-.01,1.47-.06v1.51c-.39-.04-.76-.06-1.47-.06h-2.28v1.91h2.7c.75,0,1.12-.02,1.5-.08v1.59c-.42-.06-.81-.07-1.5-.07h-2.7v1.48Z"/>
        <path d="M203.32,53.89h4.17c.73,0,1.41-.03,1.93-.09v1.74c-.6-.08-1.2-.1-1.92-.1h-9.15c-.67,0-1.33.03-1.98.1v-1.74c.56.06,1.17.09,1.98.09h3.29v-9.3c0-.66-.03-1.08-.09-1.66h1.86c-.06.54-.09,1.02-.09,1.66v2.46h3.39c.63,0,1.17-.03,1.68-.09v1.73c-.54-.06-1.08-.09-1.68-.09h-3.39v5.29Z"/>
        <path d="M216.52,51.56c-.57.51-.92.75-1.75,1.23-.18-.31-.24-.42-.56-.76-.9.54-1.47.84-2.86,1.51-.02.02-.09.05-.2.1l-.13.08-.36-1.68c.38-.09.88-.27,1.62-.59v-3.79h-.42c-.42,0-.74.01-1.11.07v-1.53c.33.04.66.06,1.12.06h.41v-1.79c0-.75-.03-1.18-.09-1.6h1.68c-.08.47-.09.85-.09,1.6v1.79h.27c.46,0,.74-.02,1-.04v1.48c-.31-.03-.6-.04-1-.04h-.27v3.09c.33-.18.5-.27.97-.54v1c.78-.48,1.28-.92,1.71-1.47h-.33c-.6,0-1,.03-1.32.07v-1.44c.31.06.67.08,1.33.08h6.3c.69,0,1.14-.03,1.5-.08v1.42c-.44-.04-.84-.06-1.49-.06h-4.41c-.12.21-.19.33-.39.6h4.58c.7,0,.96-.01,1.41-.04-.03.24-.04.45-.06.85-.08,1.77-.29,3.25-.58,3.9-.3.66-.76.85-2.03.85-.36,0-.63-.02-1.21-.04-.06-.52-.17-.92-.39-1.32-.76.67-1.38,1.08-2.37,1.57-.33-.46-.55-.72-1.04-1.09,1.25-.54,1.86-.9,2.62-1.54.58-.51,1.05-1.11,1.49-1.92h-.86c-.9,1.35-2.13,2.31-4,3.15-.24-.45-.45-.69-.9-1.08,1.63-.63,2.58-1.2,3.33-2.07h-1.12ZM216.96,47.84c-.58,0-1.02.02-1.32.04.05-.4.06-.79.06-1.38v-2.1c0-.6-.01-.87-.06-1.31.45.06.77.08,1.46.08h4.2c.75,0,1.09-.02,1.54-.08-.04.38-.06.69-.06,1.42v2c0,.62.01,1.06.06,1.35-.34-.02-.71-.03-1.3-.03h-4.58ZM217.18,45.05h4.08v-.62h-4.08v.62ZM217.18,46.69h4.08v-.58h-4.08v.58ZM221.56,51.56c-.55,1.2-1.12,2.01-2.01,2.82.62.09,1.07.12,1.49.12.52,0,.67-.15.81-.76.11-.51.18-1.14.25-2.17h-.54Z"/>
        <path d="M232.6,42.86c.62.96,1.33,1.71,2.45,2.56,1.11.84,2.31,1.51,3.63,2.05-.33.46-.54.88-.79,1.59-1.23-.55-2.54-1.35-3.54-2.17-1.14-.92-1.74-1.53-2.54-2.58-.78,1.06-1.33,1.64-2.37,2.52-1.11.94-2.29,1.73-3.58,2.35-.25-.66-.42-.98-.81-1.53,1.25-.54,2.45-1.27,3.54-2.19,1-.81,1.74-1.64,2.36-2.61h1.66ZM232.92,54.02h3.58c.79,0,1.37-.03,1.81-.09v1.71c-.46-.06-1.05-.09-1.81-.09h-9.36c-.81,0-1.4.03-1.86.09v-1.71c.39.06.93.09,1.71.09h.64v-3.45c0-.67-.01-1.12-.07-1.65h1.75c-.06.44-.09.93-.09,1.65v3.45h2.08v-5.86c0-.72-.02-1.11-.09-1.6h1.79c-.06.44-.09.84-.09,1.56v1.42h2.38c.67,0,1.17-.03,1.58-.07v1.68c-.45-.06-.88-.07-1.56-.07h-2.4v2.95Z"/>
        <path d="M241.77,48.5c-.68,0-.99.02-1.47.06v-1.37c.41.05.77.06,1.47.06h1.75c-.24-.54-.38-.79-.54-1.08h-1.54c-.69,0-1.26.03-1.71.07v-1.44c.45.06.9.09,1.63.09h.46c-.27-.49-.45-.73-.97-1.33l1.44-.54c.48.66.67.99,1.11,1.87h.81v-1c0-.44-.03-.84-.08-1.12h1.56c-.03.27-.04.58-.04,1.06v1.06h1.06v-1.06c0-.45-.01-.76-.06-1.06h1.57c-.04.27-.07.68-.07,1.12v1h.9c.5-.69.78-1.21,1.04-1.9l1.47.54c-.31.54-.58.96-.88,1.36h.41c.75,0,1.2-.03,1.63-.09v1.44c-.45-.04-1.02-.07-1.71-.07h-1.46c-.24.54-.34.76-.52,1.08h1.66c.71,0,1.07-.01,1.49-.06v1.37c-.46-.04-.79-.06-1.49-.06h-3.76v.69h3.03c.63,0,1.08-.02,1.47-.06v1.26c-.38-.04-.84-.06-1.47-.06h-3.03v.72h4.04c.81,0,1.32-.03,1.72-.09v1.44c-.52-.06-1.05-.09-1.71-.09h-2.89c.48.42,1.14.8,1.95,1.16.92.38,1.69.6,3,.82-.4.54-.58.85-.82,1.47-2.42-.66-4.05-1.53-5.33-2.86.03.51.03.69.03,1.02v.72c0,.61.03,1.05.09,1.46h-1.7c.06-.42.09-.89.09-1.47v-.69c0-.33,0-.45.03-.99-.66.7-1.18,1.11-2.07,1.59-.92.51-1.82.88-2.94,1.21-.21-.5-.5-.93-.87-1.4,2.08-.44,3.54-1.06,4.71-2.04h-2.67c-.71,0-1.21.03-1.75.09v-1.44c.45.06.95.09,1.74.09h3.81v-.72h-2.85c-.63,0-1.09.01-1.47.06v-1.26c.39.04.82.06,1.47.06h2.85v-.69h-3.61ZM247.42,47.26c.21-.39.34-.69.48-1.08h-3.29c.2.42.3.69.43,1.08h2.37Z"/>
        <path d="M259.95,52.37c-.72,1.25-1.71,1.94-2.73,1.94-1.56,0-2.67-1.53-2.67-3.66,0-2.37,1.2-4.41,3.25-5.49,1-.54,2.08-.78,3.51-.78,3.14,0,5.46,2.22,5.46,5.19,0,2.62-1.29,4.51-3.78,5.58-.5.21-.89.33-1.08.33-.18,0-.25-.06-.45-.34-.25-.39-.54-.68-.95-.95,3.09-.79,4.49-2.25,4.49-4.68,0-1.25-.53-2.29-1.46-2.96-.53-.36-.95-.51-1.77-.64-.42,3.16-.92,4.89-1.83,6.46ZM257.79,47.06c-1,.88-1.58,2.15-1.58,3.55,0,1.16.38,1.83,1,1.83.75,0,1.52-1.04,2.08-2.82.36-1.12.54-1.98.77-3.65-1.07.23-1.59.48-2.28,1.08Z"/>
        <path d="M278.02,48.32h2.13c.68,0,1.1-.03,1.54-.09v1.63c-.48-.04-.93-.07-1.56-.07h-1.62c.86,1.5,2.1,2.74,3.58,3.58-.48.48-.69.78-.99,1.5-.61-.43-1.05-.85-1.62-1.5-.74-.85-1.05-1.32-1.53-2.22.03.54.04,1,.04,1.44v1.81c0,.67.03,1.2.09,1.67h-1.67c.06-.46.09-1,.09-1.68v-1.71c0-.4.02-.88.04-1.48-.91,1.65-1.93,2.76-3.39,3.73-.38-.71-.58-1-.9-1.36,1.54-.89,2.8-2.17,3.67-3.78h-.95c-.64,0-1.11.03-1.58.09v-.6c-.25.36-.43.69-.61,1.21-.38-.58-.6-1.05-.89-1.8.03.47.06,1.27.06,1.91v3.69c0,.77.03,1.32.09,1.77h-1.67c.06-.46.09-1.02.09-1.77v-3.1c0-.57.02-.93.11-1.86-.44,1.46-.87,2.43-1.51,3.41-.18-.68-.38-1.11-.68-1.6.72-.92,1.47-2.61,1.92-4.35h-.57c-.44,0-.69.02-.96.06v-1.53c.24.04.51.06.96.06h.72v-1.16c0-.76-.01-1.14-.08-1.5h1.65c-.06.39-.08.8-.08,1.5v1.16h.43c.36,0,.54-.02.78-.06v1.42c.57-1.02,1.05-2.52,1.09-3.49l1.46.38c-.06.16-.1.34-.21.79-.08.27-.1.4-.18.69h1.15v-.99c0-.61-.03-.99-.09-1.36h1.68c-.06.36-.09.77-.09,1.36v.99h1.7c.72,0,1.14-.03,1.54-.09v1.58c-.42-.04-.9-.08-1.54-.08h-1.7v1.81ZM274.89,46.51c-.25.62-.39.9-.81,1.6q-.36-.38-1.17-.94c.12-.17.17-.24.24-.35-.2-.03-.44-.04-.71-.04h-.38c.34.79.71,1.4,1.36,2.28v-.83c.45.06.87.09,1.56.09h1.53v-1.81h-1.63Z"/>
        <path d="M286.65,48.29c1.89-.52,3.25-.77,4.27-.77,2.12,0,3.42,1.16,3.42,3.03,0,1.12-.46,2.12-1.35,2.87-.58.49-1.46.91-2.61,1.26-.64.18-1.33.31-1.63.31-.18,0-.27-.04-.33-.19-.21-.52-.45-.9-.76-1.21,3.3-.35,4.98-1.4,4.98-3.1,0-.87-.72-1.54-1.65-1.54-1.62,0-3.39.54-5.25,1.57-.15.08-.24.12-.3.12-.25,0-.67-.75-1.02-1.83.74-.1.99-.17,2.24-.51Z"/>
        <path d="M300.12,46.87c-.39.09-.53.13-1.07.33-.19.08-.3.1-.39.1-.33,0-.63-.61-.9-1.9.96-.04,1.31-.09,2.97-.34,1.8-.27,4.08-.62,5.28-.77,1.35-.18,2.43-.36,3-.48.1-.03.15-.03.22-.03.2,0,.27.09.41.47.12.31.21.76.21.98,0,.18-.06.24-.27.24-.32,0-.6.03-.89.08-2.53.42-4.56,2.64-4.56,4.98,0,1.75,1.38,2.91,3.72,3.12.21.01.29.09.29.27,0,.38-.15,1.09-.29,1.42-.08.17-.19.24-.39.24s-.65-.09-1.11-.22c-2.55-.75-3.88-2.37-3.88-4.67,0-1.25.41-2.4,1.19-3.39.42-.54.78-.84,1.63-1.43-1.96.33-4.04.72-5.17,1.01Z"/>
        <path d="M316.48,47.77c-.19-.66-.25-1.06-.43-2.91-.06-.72-.12-1.08-.27-1.59.91.02,1.5.06,1.9.17.23.06.33.17.33.33,0,.06-.01.13-.04.25-.1.36-.15.63-.15,1.02,0,.73.15,1.94.32,2.46.09.28.18.39.34.39.36,0,1.68-.69,2.4-1.24.19-.15.22-.17.3-.17.13,0,.27.1.5.39.38.51.67,1.06.67,1.27,0,.17-.11.27-.36.34-.93.25-2.46.85-3.49,1.35-1.83.9-2.66,1.73-2.66,2.65s.76,1.29,2.7,1.29c1.12,0,2.14-.1,3.52-.33.06-.02.17-.03.2-.03.12,0,.19.06.25.18.04.15.15,1.06.15,1.43,0,.21-.06.28-.26.34-.33.08-2.14.18-3.28.18-1.92,0-3.2-.26-3.99-.79-.67-.47-1.04-1.2-1.04-2.1,0-.69.2-1.31.6-1.9.52-.78,1.09-1.27,2.35-2.02-.31-.29-.43-.5-.57-.96ZM321.93,44.41c.12-.09.2-.12.29-.12.21,0,1.51,1.38,1.51,1.6,0,.09-.12.23-.41.46-.3.25-.33.27-.4.27-.09,0-.11,0-.39-.42-.3-.42-.72-.9-1.04-1.17-.04-.04-.07-.09-.07-.14,0-.07.13-.21.51-.49ZM325.18,44.81c0,.09-.04.15-.23.3-.21.18-.49.38-.55.38-.09,0-.12-.04-.3-.28-.34-.5-.55-.73-1.09-1.23-.06-.06-.08-.09-.08-.14,0-.13.57-.57.75-.57.25,0,1.5,1.27,1.5,1.54Z"/>
        <path d="M99.81,73.1c.97-.25,1.62-.35,2.33-.35,2.13,0,3.36,1.26,3.36,3.42,0,1.88-.81,3.39-2.45,4.59-.87.65-2.19,1.29-2.62,1.29-.2,0-.24-.04-.56-.5-.22-.34-.45-.55-.82-.82,1.72-.58,2.44-.96,3.22-1.64.9-.79,1.35-1.75,1.35-2.89,0-1.22-.57-1.91-1.58-1.91-.81,0-1.86.31-3.22.98-.2.09-.3.17-.55.35-.06.03-.12.06-.18.06-.29,0-.77-.84-1.1-1.96.56-.04.84-.12,2.82-.61ZM100.81,69.44c.54.17,1.35.32,2.08.41.3.03.41.04,1.17.07.22,0,.29.06.29.23,0,.5-.11,1.31-.2,1.46-.03.09-.1.12-.21.12-.34,0-1.56-.17-2.26-.31-1.19-.24-2.22-.54-2.43-.71-.05-.04-.08-.1-.08-.17,0-.12.31-.93.46-1.21.08-.12.12-.15.21-.15q.08,0,.96.27Z"/>
        <path d="M111.28,73.45c-.27.02-.43.03-.61.05-.14.01-.15.01-.17.01-.12,0-.18-.04-.23-.19-.08-.24-.18-1.04-.19-1.48.17.01.6.03,1.14.03.17,0,1.35-.07,1.88-.12.25-1.21.34-1.84.34-2.65,1.54.21,2.1.39,2.1.68,0,.1-.01.13-.24.48-.12.18-.17.34-.42,1.27.7-.12,1.12-.23,1.68-.41.1-.03.15-.04.22-.04.11,0,.13.08.23.51.07.37.12.69.12.85,0,.18-.04.21-.43.3-.51.12-1.38.27-2.31.39-.56,1.68-.93,2.58-1.62,3.99-.53,1.05-.83,1.6-1.23,2.23-.12.18-.19.24-.3.24-.15,0-.57-.22-1.09-.61-.24-.17-.3-.24-.3-.35s.06-.19.25-.46c.43-.54,1-1.47,1.5-2.46.42-.82.57-1.17,1-2.35-.58.05-.63.06-1.32.1ZM116.22,82.09c-1.64,0-2.75-.9-2.75-2.23s1.15-2.41,2.7-2.41c.36,0,.53.01,1.14.1-.06-.72-.06-1.01-.12-2.4,0-.29-.03-.68-.06-1.16.77.08,1.35.17,1.64.29.12.04.18.12.18.24,0,.08-.01.14-.03.24-.08.31-.09.54-.09.94,0,.56.04,1.5.09,2.23,1.07.48,1.5.72,2.25,1.31.33.25.45.39.45.51,0,.15-.08.29-.5.96-.18.3-.31.44-.42.44q-.09,0-.51-.39c-.33-.33-.71-.58-1.23-.9,0,1.4-1.02,2.23-2.74,2.23ZM116.19,78.88c-.72,0-1.21.34-1.21.87,0,.5.45.81,1.12.81.79,0,1.21-.4,1.21-1.2,0-.12,0-.24-.02-.24-.3-.15-.7-.24-1.11-.24ZM121.8,74.62c-.18.26-.27.33-.38.33-.08,0-.13-.03-.24-.13-.38-.36-.9-.75-1.46-1.1q-.36-.22-1.02-.52c-.21-.09-.29-.15-.29-.27,0-.1.08-.24.3-.58.36-.52.45-.61.58-.61.28,0,1.39.57,2.19,1.11.65.44.84.61.84.78,0,.12-.24.57-.54,1Z"/>
        <path d="M127.59,74.54c1.89-.52,3.25-.77,4.27-.77,2.12,0,3.42,1.16,3.42,3.03,0,1.12-.46,2.12-1.35,2.87-.58.49-1.46.91-2.61,1.26-.64.18-1.33.31-1.63.31-.18,0-.27-.04-.33-.19-.21-.52-.45-.9-.76-1.21,3.3-.35,4.98-1.4,4.98-3.1,0-.87-.72-1.54-1.65-1.54-1.62,0-3.39.54-5.25,1.57-.15.08-.24.12-.3.12-.25,0-.67-.75-1.02-1.83.74-.1.99-.17,2.24-.51Z"/>
        <path d="M141.06,73.12c-.39.09-.53.13-1.07.33-.19.08-.3.1-.39.1-.33,0-.63-.61-.9-1.9.96-.04,1.31-.09,2.97-.34,1.8-.27,4.08-.62,5.28-.77,1.35-.18,2.43-.36,3-.48.1-.03.15-.03.22-.03.2,0,.27.09.41.47.12.31.21.76.21.98,0,.18-.06.24-.27.24-.32,0-.6.03-.89.08-2.53.42-4.56,2.64-4.56,4.98,0,1.75,1.38,2.91,3.72,3.12.21.01.29.09.29.27,0,.38-.15,1.09-.29,1.42-.08.17-.19.24-.39.24s-.65-.09-1.11-.22c-2.55-.75-3.88-2.37-3.88-4.67,0-1.25.41-2.4,1.19-3.39.42-.54.78-.84,1.63-1.43-1.96.33-4.04.72-5.17,1.01Z"/>
        <path d="M161.04,74.27c2.12,0,3.62,1.44,3.62,3.48,0,1.4-.74,2.65-1.96,3.39-.86.51-1.91.77-3.09.77-1.91,0-3.02-.77-3.02-2.07,0-1.19.99-2.02,2.4-2.02,1.27,0,2.19.64,2.8,1.96.76-.56,1.08-1.14,1.08-1.95,0-1.29-.92-2.13-2.36-2.13s-3.04.73-4.35,2.04c-.24.24-.46.5-.73.84-.11.15-.18.21-.27.21-.27,0-1.33-1.05-1.33-1.32,0-.13.06-.21.39-.45.34-.27.84-.7,1.47-1.3,1.46-1.38,2.52-2.54,4.09-4.46-1.88.24-3.13.45-3.6.62-.08.02-.12.03-.17.03-.12,0-.2-.07-.29-.3-.18-.45-.27-.94-.32-1.6.41.06.69.08,1.02.08.72,0,1.93-.1,3.51-.29.55-.06.73-.1,1.16-.27.13-.06.21-.08.3-.08.21,0,.42.18.81.78.29.39.38.58.38.71,0,.19-.04.25-.38.46-.27.17-.43.3-.78.63-.75.72-.76.72-1.69,1.67-.66.67-.74.75-1.33,1.35.97-.54,1.74-.77,2.64-.77ZM159.6,79.46c-.23-.15-.48-.23-.77-.23-.46,0-.76.23-.76.58,0,.44.46.71,1.18.71.33,0,.62-.03.99-.14-.18-.5-.33-.72-.64-.93Z"/>
        <path d="M173.19,78.62c-.72,1.25-1.71,1.94-2.73,1.94-1.56,0-2.67-1.53-2.67-3.66,0-2.37,1.2-4.41,3.25-5.49,1-.54,2.08-.78,3.51-.78,3.14,0,5.46,2.22,5.46,5.19,0,2.62-1.29,4.51-3.78,5.58-.5.21-.89.33-1.08.33-.18,0-.25-.06-.45-.34-.25-.39-.54-.68-.95-.95,3.09-.79,4.49-2.25,4.49-4.68,0-1.25-.53-2.29-1.46-2.96-.53-.36-.95-.51-1.77-.64-.42,3.16-.92,4.89-1.83,6.46ZM171.03,73.31c-1,.88-1.58,2.15-1.58,3.55,0,1.16.38,1.83,1,1.83.75,0,1.52-1.04,2.08-2.82.36-1.12.54-1.98.77-3.65-1.07.23-1.59.48-2.28,1.08Z"/>
        <path d="M184.57,71.99c.34-.9.67-1.38,1.25-1.86.69-.57,1.51-.84,2.56-.84,2.25,0,3.69,1.23,3.69,3.15,0,.65-.18,1.26-.53,1.75-.27.39-.39.51-1.23,1.27-1.17,1.05-1.42,1.46-1.42,2.25v.79h-1.53v-.84c0-.67.13-1.27.41-1.75.21-.38.43-.63,1.03-1.23.63-.61.83-.84.99-1.11.21-.3.33-.72.33-1.12,0-1-.67-1.63-1.74-1.63s-1.69.55-2.14,1.86l-1.67-.69ZM189.36,80.74c0,.66-.53,1.18-1.19,1.18s-1.18-.52-1.18-1.18.52-1.19,1.18-1.19,1.19.52,1.19,1.19Z"/>
      </g>
      <circle class="cls-10" cx="31.42" cy="83.49" r="30"/>
      <g>
        <path class="cls-7" d="M41.33,73.44c5.99-4.82,10.66-4.4,11.63-2.77.89,1.5-.2,9.39-9.12,4.98"/>
        <path class="cls-4" d="M45.57,76.02c2.15-3.7,6.52-2.97,7.65-2.44-1.95,3.62-3.96,4.96-7.65,2.44Z"/>
        <path class="cls-1" d="M48.57,77.59c-1.31,0-2.95-.38-4.99-1.39-.3-.15-.43-.52-.28-.82.15-.3.52-.42.82-.28,3.32,1.64,5.84,1.68,7.3.12,1.3-1.4,1.35-3.69,1.02-4.24-.21-.35-.72-.62-1.4-.75-.91-.17-4.28-.39-9.33,3.68-.26.21-.65.17-.86-.09-.21-.26-.17-.65.09-.86,3.68-2.96,7.54-4.43,10.31-3.93,1.04.19,1.83.66,2.23,1.32.64,1.09.43,3.95-1.18,5.69-.75.81-1.93,1.54-3.74,1.54Z"/>
        <path class="cls-7" d="M46.82,87.67c1.64-16.83-17.12-22.81-25.65-13.47-2.98,3.26-5.19,9.03-4.06,15.78-3.29,3.25-2.73,7.92,2.42,10.47,3.1,1.53,6.2,2.2,13.34,2.2,6.63,0,14.3-2.8,16.45-6.94,1.2-2.31.78-5.73-2.5-8.03Z"/>
        <path class="cls-2" d="M36.59,70.03c-.6-4.19-4.15-6.53-4.34-.47"/>
        <path class="cls-2" d="M24.9,71.1c-.51-4.21,2.31-7.38,4.07-1.58"/>
        <path class="cls-7" d="M20.44,74.16c-6.66-3.83-11.22-2.69-11.92-.92-.65,1.62,2.36,9.82,10.47,4.08"/>
        <path class="cls-4" d="M17.17,77.97c-2.15-3.7-7.04-2.78-8.16-2.25,1.95,3.62,4.48,4.77,8.16,2.25Z"/>
        <path class="cls-4" d="M30.01,69.55c1.23,7.47-2.33,14.46-12.54,14.46,0-11.43,12.54-14.46,12.54-14.46Z"/>
        <path class="cls-4" d="M32.25,69.56c0,8.41,6.81,12.73,13.85,13.26,0-11.43-13.85-13.26-13.85-13.26Z"/>
        <path class="cls-4" d="M16.02,96.44c13.82-6.39,25.47-3.61,33.3-.74-3.13,7.58-29.27,10.16-33.3.74Z"/>
        <path class="cls-1" d="M32.87,103.25c-7.6,0-10.65-.79-13.61-2.26-2.69-1.33-4.37-3.31-4.74-5.59-.32-1.98.37-3.97,1.94-5.63-1.1-7.14,1.47-12.92,4.26-15.98,4.25-4.65,11.26-5.93,17.43-3.18,3.01,1.34,5.47,3.51,7.11,6.28,1.79,3.02,2.53,6.55,2.2,10.5,3.38,2.57,3.64,6.23,2.4,8.6-2.36,4.55-10.5,7.26-17,7.26ZM31.49,70.39c-3.76,0-7.35,1.46-9.87,4.22-2.64,2.89-5.06,8.42-3.91,15.27.03.2-.03.39-.17.53-1.44,1.42-2.08,3.13-1.81,4.8.3,1.88,1.75,3.55,4.07,4.69,2.8,1.38,5.72,2.13,13.07,2.13,6.88,0,14.02-2.96,15.91-6.61,1.03-1.99.75-5.1-2.31-7.25-.18-.13-.28-.34-.26-.56.71-7.25-2.5-13.19-8.57-15.9-2.01-.89-4.11-1.33-6.16-1.33Z"/>
        <path class="cls-1" d="M13.79,79.95c-1.46,0-2.58-.54-3.4-1.18-2.09-1.64-2.9-4.58-2.44-5.76.29-.72.99-1.31,1.99-1.65,2.66-.93,6.7-.08,10.8,2.27.29.17.39.54.23.83-.17.29-.54.39-.83.23-5.62-3.23-8.91-2.49-9.79-2.18-.65.23-1.11.57-1.26.95-.21.53.31,2.97,2.06,4.35,1.89,1.49,4.48,1.14,7.5-.99.27-.19.65-.13.85.15.19.27.13.66-.15.85-2.23,1.58-4.07,2.14-5.56,2.14Z"/>
        <path class="cls-1" d="M36.59,70.64c-.3,0-.56-.22-.6-.52-.32-2.23-1.49-3.66-2.13-3.63-.31.02-.93.69-1,3.09-.01.34-.3.6-.63.59-.34-.01-.6-.29-.59-.63.11-3.62,1.4-4.23,2.15-4.27.03,0,.06,0,.09,0,1.46,0,2.94,2.06,3.31,4.67.05.33-.18.64-.52.69-.03,0-.06,0-.09,0Z"/>
        <path class="cls-1" d="M24.9,71.71c-.3,0-.57-.23-.6-.54-.32-2.67.61-5.08,2.07-5.39.74-.15,2.14.1,3.19,3.56.1.32-.08.66-.41.76-.32.1-.66-.08-.76-.41-.7-2.3-1.46-2.79-1.77-2.72-.62.13-1.38,1.81-1.11,4.05.04.33-.2.64-.53.68-.02,0-.05,0-.07,0Z"/>
        <path class="cls-1" d="M37.83,81.55c-.65-1.09-1.64-1.26-2.42-.7-.18.13-.11.42.12.44.71.07,1.33.3,1.99.61.22.1.44-.14.31-.35Z"/>
        <path class="cls-1" d="M26.87,81.75c.65-1.09,1.64-1.26,2.42-.7.18.13.11.42-.12.44-.71.07-1.33.3-1.99.61-.22.1-.44-.14-.31-.35Z"/>
        <circle class="cls-1" cx="33.72" cy="95.56" r=".57"/>
        <circle class="cls-1" cx="31.93" cy="95.56" r=".57"/>
        <path class="cls-1" d="M32.04,99.76c-.58,0-1.17-.13-1.74-.4-1.05-.5-1.76-1.38-1.96-2.34l-.5.2c-.32.13-.68-.02-.8-.34-.13-.32.02-.68.34-.8l1.32-.53c.21-.08.44-.05.62.09.17.14.26.36.22.59-.16.89.54,1.66,1.3,2.02.9.43,2.24.48,3.27-.69.23-.26.62-.28.87-.05.26.23.28.62.05.87-.81.91-1.88,1.39-2.99,1.39Z"/>
        <ellipse class="cls-1" cx="36.5" cy="90.1" rx="1.44" ry="1.56" transform="translate(-13.57 6.78) rotate(-8.95)"/>
        <ellipse class="cls-1" cx="28.84" cy="90.46" rx="1.56" ry="1.44" transform="translate(-62.96 114.68) rotate(-87.1)"/>
      </g>
    </g>
  </g>
</svg>