<?xml version="1.0" encoding="UTF-8"?>
<svg id="_レイヤー_2" data-name="レイヤー 2" xmlns="http://www.w3.org/2000/svg" width="335.91" height="164.39" viewBox="0 0 335.91 164.39">
  <defs>
    <style>
      .cls-1 {
        fill: #211815;
      }

      .cls-2 {
        fill: #ecbb6e;
      }

      .cls-3 {
        fill: #5c948d;
      }

      .cls-4 {
        fill: #fffba1;
      }

      .cls-5 {
        fill: #d3f2c9;
      }

      .cls-6 {
        fill: #f2ec67;
      }

      .cls-7 {
        fill: #f2d496;
      }

      .cls-8 {
        fill: #fff;
        stroke: #ceeaeb;
        stroke-miterlimit: 10;
        stroke-width: 2.83px;
      }
    </style>
  </defs>
  <g id="_レイヤー_1-2" data-name="レイヤー 1">
    <g>
      <path class="cls-8" d="M9.89,1.42h239.38c4.68,0,8.47,3.79,8.47,8.47v118.37s9.69,9.69,9.69,9.69h-9.69s0,.5,0,.5c0,4.68-3.79,8.47-8.47,8.47H9.89c-4.68,0-8.47-3.79-8.47-8.47V9.89c0-4.68,3.79-8.47,8.47-8.47Z"/>
      <circle class="cls-5" cx="305.91" cy="134.39" r="30"/>
      <g>
        <path d="M15.95,22.26h-.09c-.08.02-.13.02-.17.02-.13,0-.21-.06-.25-.26-.09-.38-.15-.82-.18-1.41.21.01.38.01.48.01.81,0,1.75-.06,2.55-.17.15-.99.23-1.74.23-2.37v-.34c1.74.24,2.07.33,2.05.6,0,.08-.03.12-.09.26-.18.34-.2.39-.44,1.57.58-.1,1.33-.3,1.64-.4.06-.03.07-.03.12-.03.13,0,.16.06.28.58.06.3.12.72.12.84,0,.11-.04.17-.18.2q-.27.09-2.33.45c-.69,3.06-1.41,5.29-2.56,8-.08.2-.15.27-.24.27-.2,0-.72-.21-1.23-.49-.26-.14-.33-.2-.33-.29,0-.06.04-.17.12-.32,1.14-2.16,1.97-4.46,2.54-6.91-.66.07-1.12.12-2.04.19ZM22.35,27.96c.43.29,1.06.42,1.95.42.97,0,1.81-.09,2.29-.24.12-.03.15-.04.21-.04.13,0,.19.04.24.18.11.32.18.93.18,1.4,0,.19-.06.27-.26.31-.49.11-1.33.17-2.22.17-1.88,0-2.92-.3-3.61-1.02-.25-.27-.46-.6-.58-.98-.09-.22-.15-.48-.15-.57,0-.25.45-.53,1.23-.78.17.63.34.92.72,1.16ZM26.57,23.59c-.3-.04-.93-.08-1.46-.08-1.11,0-1.58.04-2.89.27-.03.01-.08.01-.11.01-.09,0-.13-.03-.17-.12-.04-.1-.1-.84-.1-1.15,0-.2.03-.29.15-.33.06-.03.15-.04.46-.11,1.02-.18,1.88-.25,2.92-.25.87,0,1.32.03,1.43.11.07.06.09.18.09.67,0,.43-.03.83-.06.92-.01.04-.08.08-.15.08-.03,0-.08,0-.12-.02ZM24.92,18.31c.2,0,1.47,1.42,1.47,1.65,0,.06-.1.2-.22.29-.06.04-.15.12-.25.21-.13.12-.18.15-.33.21t-.08.03c-.06,0-.06-.02-.34-.45-.25-.39-.74-.99-.99-1.21-.03-.03-.07-.09-.07-.11.03-.06.04-.09.04-.09.07-.09.33-.3.39-.34.15-.08.24-.13.25-.15.01-.03.03-.03.04-.03h.09ZM27.45,19.36c-.21.15-.36.24-.43.24-.06,0-.09-.03-.17-.15-.33-.54-.65-.93-1.14-1.42-.04-.04-.06-.08-.06-.12,0-.13.57-.55.76-.55.11,0,.29.15.62.5.48.49.83.94.83,1.09,0,.09-.11.19-.41.42Z"/>
        <path d="M31.02,22.83c-.12.03-.18.06-.27.1-.08.04-.12.06-.2.06-.32,0-.55-.58-.74-1.7.12.02.23.02.29.02.63,0,2.24-.2,3.2-.39.31-1.32.48-2.31.48-3.03,0-.06,0-.14-.01-.25.64.07,1.26.21,1.68.38.24.09.36.22.36.38,0,.07-.02.12-.09.24q-.23.41-.69,2.05c.36-.04.76-.07,1.02-.07.62,0,1.1.12,1.44.36.6.44.9,1.32.9,2.69,0,2.23-.41,4.14-1.1,5.08-.48.66-1.11.98-1.99.98-.54,0-1.05-.08-1.2-.17q-.12-.08-.17-.63c-.04-.41-.13-.75-.32-1.17.78.25.98.3,1.46.3.72,0,1.02-.34,1.35-1.54.23-.79.35-1.83.35-2.92,0-1.17-.29-1.59-1.08-1.59-.27,0-.71.03-1.05.09-.04.17-.06.18-.12.39-.42,1.53-1.19,3.55-1.95,5.17-.79,1.63-.99,1.96-1.18,1.96-.12,0-.53-.21-.96-.5-.35-.21-.44-.3-.44-.42q0-.07.62-1.05c.83-1.27,1.91-3.78,2.28-5.25-1.11.24-1.73.39-1.86.44ZM38.67,21.15c0-.11.14-.24.57-.58.3-.23.45-.32.55-.32.09,0,.17.04.36.24.88.85,1.71,2,2.19,2.98.15.33.24.54.24.63,0,.15-.04.2-.52.58-.3.24-.65.44-.77.44-.1,0-.15-.04-.25-.3-.3-.74-.58-1.31-.94-1.86-.39-.6-.47-.69-1.35-1.63-.06-.09-.08-.13-.08-.18Z"/>
        <path d="M52.29,22.86c2.05,0,3.39,1.21,3.39,3.06s-1.12,3.01-3.37,3.73c-.81.26-2.15.5-2.75.5-.32,0-.39-.08-.6-.51-.16-.34-.34-.55-.79-.87,3.77-.3,5.62-1.26,5.62-2.89,0-.92-.64-1.46-1.72-1.46-1.37,0-2.78.71-3.93,1.95-.21.21-.41.46-.54.69-.13.23-.23.3-.36.3-.22,0-.75-.22-1.11-.49-.18-.14-.24-.24-.24-.48q0-.12.04-.48s0-.15.01-.32c.08-.96.12-1.37.3-2.71q.03-.17.14-.87s.04-.33.12-.88c.01-.13.03-.25.03-.5.72.11,1.4.27,1.68.43.12.06.18.14.17.23,0,.06-.03.1-.07.2-.17.25-.21.39-.35.96-.13.57-.34,1.89-.38,2.38,1.53-1.41,2.87-1.96,4.71-1.96ZM52.02,18.58c.58.34.76.51.76.67,0,.14-.24.58-.5.96-.24.35-.33.42-.45.42-.07,0-.12-.03-.3-.17-1-.76-1.8-1.2-2.92-1.59-.22-.09-.27-.12-.27-.24,0-.15.12-.41.39-.79.24-.36.34-.45.51-.45.36,0,1.83.63,2.78,1.18Z"/>
        <path d="M58.68,26.7c.27-.24.34-.3.45-.3.19,0,1.09.66,1.75,1.29.75.69,1.59,1.7,1.59,1.91,0,.13-.03.17-.46.55-.57.53-.69.62-.79.62-.09,0-.18-.06-.25-.21-.53-.93-1.73-2.16-2.79-2.85-.12-.09-.18-.15-.18-.24,0-.11.03-.15.69-.76Z"/>
        <path d="M74.13,20.74c-.75,0-1.11.01-1.46.06v-1.56c.39.06.72.08,1.46.08h2.54v-.45c0-.67-.03-1.08-.11-1.6h1.72c-.06.4-.06.69-.06,1.66v3.9c0,.48-.03,1.2-.08,1.62l.84-.25v1.45c-.33.11-.58.18-.75.23s-.21.06-.27.08c-.41,2.05-1.41,3.28-3.88,4.71-.32-.51-.63-.91-1.09-1.38,1.08-.52,1.62-.87,2.2-1.38.5-.45.78-.87,1.02-1.47q-.84.21-1.65.41c-1.39.34-1.6.41-1.92.51l-.33-1.67c.21-.01.56-.04.83-.08,1.05-.17,2-.34,2.82-.54.36-.09.54-.13.57-.15.08-.72.09-.83.11-1.29h-2.14c-.72,0-1.07.01-1.47.06v-1.48c.35.04.69.06,1.47.06h2.17v-1.51h-2.54ZM81.33,28.72c0,.95.02,1.3.08,1.79h-1.71c.06-.48.09-.84.09-1.79v-9.7c0-.9-.01-1.23-.09-1.75h1.71c-.06.45-.08.87-.08,1.75v.33h2.57c.76,0,1.08-.02,1.47-.08v1.56c-.34-.04-.75-.06-1.47-.06h-2.57v1.72h2.28c.76,0,1.12-.01,1.47-.06v1.51c-.39-.04-.76-.06-1.47-.06h-2.28v1.91h2.7c.75,0,1.12-.01,1.5-.08v1.59c-.42-.06-.81-.07-1.5-.07h-2.7v1.48Z"/>
        <path d="M93.93,28.39h4.17c.73,0,1.41-.03,1.93-.09v1.74c-.6-.08-1.2-.11-1.92-.11h-9.15c-.67,0-1.33.03-1.98.11v-1.74c.56.06,1.17.09,1.98.09h3.29v-9.3c0-.66-.03-1.08-.09-1.66h1.86c-.06.54-.09,1.02-.09,1.66v2.46h3.39c.63,0,1.17-.03,1.68-.09v1.73c-.54-.06-1.08-.09-1.68-.09h-3.39v5.29Z"/>
        <path d="M107.13,26.07c-.57.51-.92.75-1.75,1.23-.18-.32-.24-.42-.56-.76-.9.54-1.47.84-2.86,1.51-.02.01-.09.04-.2.1l-.13.08-.36-1.68c.38-.09.88-.27,1.62-.58v-3.79h-.42c-.42,0-.74.01-1.11.08v-1.53c.33.04.66.06,1.12.06h.41v-1.79c0-.75-.03-1.19-.09-1.61h1.68c-.08.47-.09.86-.09,1.61v1.79h.27c.46,0,.74-.02,1-.04v1.48c-.31-.03-.6-.04-1-.04h-.27v3.09c.33-.18.5-.27.97-.54v1c.78-.48,1.28-.92,1.71-1.47h-.33c-.6,0-1,.03-1.32.08v-1.44c.31.06.67.08,1.33.08h6.3c.69,0,1.14-.03,1.5-.08v1.42c-.44-.04-.84-.06-1.49-.06h-4.41c-.12.21-.19.33-.39.6h4.58c.7,0,.96-.01,1.41-.04-.03.24-.04.45-.06.86-.08,1.77-.29,3.25-.58,3.9-.3.66-.76.86-2.03.86-.36,0-.63-.02-1.21-.04-.06-.53-.17-.92-.39-1.32-.76.67-1.38,1.08-2.37,1.58-.33-.46-.55-.72-1.04-1.09,1.25-.54,1.86-.9,2.62-1.54.58-.51,1.05-1.11,1.49-1.92h-.86c-.9,1.35-2.13,2.31-4,3.15-.24-.45-.45-.69-.9-1.08,1.63-.63,2.58-1.2,3.33-2.07h-1.12ZM107.56,22.35c-.58,0-1.02.02-1.32.04.05-.4.06-.79.06-1.38v-2.1c0-.6-.01-.87-.06-1.3.45.06.77.08,1.46.08h4.2c.75,0,1.09-.02,1.54-.08-.04.38-.06.69-.06,1.42v2c0,.61.01,1.06.06,1.35-.34-.01-.71-.03-1.3-.03h-4.58ZM107.79,19.56h4.08v-.62h-4.08v.62ZM107.79,21.19h4.08v-.58h-4.08v.58ZM112.17,26.07c-.55,1.2-1.12,2.01-2.01,2.82.62.09,1.07.12,1.49.12.52,0,.67-.15.81-.76.11-.51.18-1.14.25-2.17h-.54Z"/>
        <path d="M125.25,22.83h2.13c.68,0,1.1-.03,1.54-.09v1.63c-.48-.04-.93-.08-1.56-.08h-1.62c.86,1.5,2.1,2.75,3.58,3.58-.48.48-.69.78-.99,1.5-.61-.43-1.05-.86-1.62-1.5-.74-.85-1.05-1.32-1.53-2.22.03.54.04,1,.04,1.44v1.82c0,.67.03,1.2.09,1.67h-1.67c.06-.46.09-1,.09-1.68v-1.71c0-.4.02-.88.04-1.48-.91,1.65-1.93,2.76-3.39,3.73-.38-.71-.58-1-.9-1.36,1.54-.89,2.8-2.17,3.67-3.78h-.95c-.64,0-1.11.03-1.58.09v-.6c-.25.36-.43.69-.61,1.21-.38-.58-.6-1.05-.89-1.8.03.46.06,1.27.06,1.91v3.69c0,.76.03,1.32.09,1.77h-1.67c.06-.46.09-1.02.09-1.77v-3.1c0-.57.02-.93.11-1.86-.44,1.46-.87,2.43-1.52,3.41-.18-.68-.37-1.11-.67-1.61.72-.92,1.47-2.61,1.92-4.35h-.57c-.44,0-.69.01-.96.06v-1.53c.24.04.51.06.96.06h.72v-1.16c0-.76-.01-1.14-.08-1.5h1.65c-.06.39-.08.8-.08,1.5v1.16h.43c.36,0,.54-.01.78-.06v1.42c.57-1.02,1.05-2.52,1.09-3.5l1.46.38c-.06.17-.1.34-.21.79-.08.27-.1.41-.18.69h1.15v-.99c0-.62-.03-.99-.09-1.37h1.68c-.06.36-.09.77-.09,1.37v.99h1.7c.72,0,1.14-.03,1.54-.09v1.58c-.42-.04-.9-.08-1.54-.08h-1.7v1.82ZM122.11,21.01c-.25.62-.39.9-.81,1.61q-.36-.38-1.17-.95c.12-.17.17-.24.24-.34-.2-.03-.44-.04-.71-.04h-.38c.34.79.71,1.39,1.36,2.28v-.82c.45.06.87.09,1.56.09h1.53v-1.82h-1.63Z"/>
        <path d="M134.28,26.44c.04.06.06.11.06.17q0,.09-.25.78c-.32.92-.51,1.67-.57,2.25-.01.2-.08.27-.27.32-.21.06-.61.09-1,.09-.15,0-.22-.03-.27-.12-.13-.29-.38-1.32-.5-2.16-.1-.71-.15-1.44-.15-2.21,0-1.72.2-3.36.74-6.3.09-.48.12-.71.17-1.17.69.09,1.17.23,1.6.44.23.12.32.22.32.36,0,.09-.03.17-.11.29-.61,1.05-1.18,4.29-1.18,6.69,0,.36.01.93.06,1.65.36-.93.52-1.35.85-2.07.11.41.21.6.51,1ZM136.8,22.5c-.72,0-.87-.03-.92-.2-.04-.13-.09-.61-.09-.96,0-.12,0-.24.01-.51.41.03.64.04,1.14.04.81,0,1.32-.01,2.1-.08-.02-1.9-.03-2.14-.18-2.85.74.01,1.29.08,1.77.2.22.06.31.13.31.29,0,.06-.01.1-.06.22-.15.34-.23.93-.25,1.98.55-.07,1.03-.18,1.93-.39.08-.03.1-.03.15-.03.09,0,.13.04.17.15.03.13.07.71.07,1.02,0,.38-.01.44-.17.5-.24.12-.9.23-2.17.39,0,1.03.09,2.74.2,3.72.95.4,1.59.75,2.25,1.21.42.3.51.41.51.51,0,.17-.27.67-.58,1.11-.18.25-.27.33-.38.33s-.1,0-.45-.33c-.33-.33-.67-.58-1.33-1.02v.12c0,1.32-1.09,2.19-2.76,2.19s-2.8-.9-2.8-2.25,1.14-2.36,2.66-2.36c.55,0,.84.02,1.24.08q-.06-1.17-.1-3.18c-.65.04-1.67.09-2.26.09ZM138.03,26.91c-.75,0-1.25.34-1.25.87,0,.48.46.78,1.19.78.79,0,1.21-.36,1.21-1.05,0-.21-.02-.38-.02-.38-.39-.15-.73-.22-1.14-.22Z"/>
        <path d="M154.11,18.39c-.76.39-1.05.75-1.15,1.42.13-.03.27-.04.31-.04.6,0,1.05.48,1.05,1.09,0,.66-.46,1.12-1.11,1.12-.79,0-1.26-.58-1.26-1.59,0-.6.18-1.28.44-1.7.25-.39.58-.67,1.12-.97l.6.66ZM157,18.39c-.77.39-1.05.75-1.16,1.42.13-.03.27-.04.31-.04.6,0,1.05.48,1.05,1.09,0,.66-.47,1.12-1.11,1.12-.79,0-1.26-.58-1.26-1.54,0-1.29.46-2.12,1.56-2.71l.6.66Z"/>
        <path d="M161.68,22.32c-1.19.12-1.49.13-2.16.13-.46,0-.54-.2-.65-1.53h.58c.74,0,1.4-.04,2.22-.13v-.32c0-.97-.06-1.74-.21-2.55,1.14.06,1.59.12,1.9.21.15.04.21.12.21.27,0,.09-.01.15-.09.3-.13.29-.21.83-.22,1.84.5-.09,1.29-.29,1.89-.46.04-.01.08-.01.1-.01.12,0,.2.06.23.17.08.3.17.9.17,1.12,0,.12-.08.22-.2.27-.18.08-1.27.3-2.23.46v1.94c1.48-.5,2.64-.74,3.63-.74,1.92,0,3.16,1.23,3.16,3.13,0,1.23-.49,2.22-1.38,2.75-.46.27-1.12.43-1.84.43s-1.37-.06-1.53-.17c-.16-.09-.18-.13-.21-.49-.03-.42-.12-.78-.3-1.22.62.23,1.12.32,1.71.32,1.17,0,1.83-.6,1.83-1.67s-.63-1.67-1.63-1.67c-.95,0-2.14.3-3.43.86q0,.06.01.64.01.99.01,1.2c.02.27.02.54.02.67,0,1.21-.46,1.8-1.46,1.8s-1.94-.51-2.54-1.29c-.24-.33-.36-.67-.36-1.08,0-.97.87-1.86,2.76-2.83v-2.37ZM161.68,26.34c-.87.53-1.23.87-1.23,1.18,0,.35.5.72.95.72.21,0,.29-.14.29-.48v-1.42ZM170.05,22.93c-.76-.81-1.81-1.48-2.8-1.8-.12-.04-.18-.1-.18-.18,0-.09.15-.33.57-.9.17-.22.18-.24.33-.24.15.01.72.21,1.11.39.94.43,2.17,1.37,2.17,1.65,0,.27-.75,1.21-.97,1.21-.08,0-.14-.03-.23-.14Z"/>
        <path d="M177.04,22.54c-.55,0-1,.01-1.41.06v-.69c-.76.48-1.39.79-2.34,1.2-.34-.77-.46-.96-.84-1.5,2.7-.95,4.84-2.49,5.89-4.21h1.77c.58.84,1.2,1.47,2.22,2.23,1.18.87,2.26,1.41,3.83,1.92-.36.56-.57.99-.78,1.61-1.17-.5-1.63-.74-2.54-1.29v.73c-.38-.04-.79-.06-1.41-.06h-1.45v1.39h3.64c.76,0,1.17-.01,1.56-.07v1.59c-.39-.06-.9-.09-1.57-.09h-3.63v3.22h3.91c.74,0,1.21-.03,1.7-.09v1.65c-.54-.06-1.12-.09-1.74-.09h-9.09c-.66,0-1.23.03-1.8.09v-1.65c.53.06,1.04.09,1.79.09h3.63v-3.22h-3.4c-.62,0-1.14.03-1.58.09v-1.59c.42.06.84.07,1.58.07h3.4v-1.39h-1.33ZM176.02,25.48c.5.87.75,1.4,1.15,2.4l-1.44.57c-.3-.9-.67-1.67-1.14-2.38l1.42-.59ZM177.01,21.19h4.82c-1.08-.77-1.84-1.47-2.58-2.42-.74.96-1.38,1.58-2.54,2.42h.3ZM183.88,26.08q-.18.33-.71,1.38c-.06.1-.1.2-.6,1.02l-1.35-.51c.44-.71.79-1.47,1.14-2.47l1.51.58Z"/>
        <path d="M193.59,25.87c-1.48.87-1.91,1.3-1.91,1.96,0,.27.11.45.33.58.33.2,1.07.3,2.01.3.81,0,1.93-.08,2.7-.18.32-.04.5-.09,1.09-.24h.08c.11,0,.18.08.23.18.09.32.15.77.15,1.31,0,.22-.08.31-.27.36-.36.08-2.03.17-3.12.17-1.83,0-2.8-.12-3.52-.42-.87-.36-1.31-1.04-1.31-1.98,0-.87.41-1.63,1.21-2.28.65-.51.79-.62,2.18-1.39-.12-.5-.35-.71-.81-.71-.62,0-1.26.24-1.96.71-.43.3-.95.72-1.26,1.03-.45.47-.5.5-.62.5-.15,0-.46-.34-.78-.87-.15-.25-.24-.45-.24-.55,0-.13.03-.17.39-.39,1.23-.83,2.25-1.88,2.87-2.96-1.07.08-1.62.09-2.21.09-.23,0-.27-.04-.34-.3-.05-.2-.12-.99-.14-1.39.51.07.81.09,1.53.09.58,0,1.23-.02,1.91-.04.31-.86.42-1.4.43-2.1,1.33.23,1.95.45,1.95.71,0,.06-.02.09-.06.18-.1.19-.22.43-.42.9q-.03.06-.04.11c.86-.12,1.61-.27,2.13-.39.33-.09.41-.1.48-.1.12,0,.18.04.21.13.06.27.15.96.15,1.17,0,.17-.06.24-.25.29-.48.13-2.13.39-3.51.52-.45.83-.76,1.31-1.23,1.82.67-.32,1.18-.43,1.78-.43.68,0,1.12.39,1.43,1.23,1.48-.81,2.28-1.25,2.37-1.3.69-.41.98-.63,1.31-1,.61.63,1.27,1.57,1.27,1.83,0,.09-.06.15-.25.2-.74.2-2.1.78-4.38,1.89.01.27.04.96.04,1.44v.72c0,.18-.03.27-.1.32-.08.08-.48.12-.93.12-.51,0-.6-.04-.6-.29v-.06c.03-.43.04-1,.04-1.36v-.08Z"/>
        <path d="M203.22,18.94c0-.71-.03-1.16-.09-1.59h1.68c-.07.46-.09.82-.09,1.6v1.94h.17c.46,0,.71-.02,1-.05v1.49c-.31-.03-.66-.04-.99-.04h-.18v3.88c.65-.22.78-.29,1.4-.55l.06,1.39c-1.3.62-2.16.98-3.66,1.54-.22.09-.49.2-.67.29l-.31-1.68q.34-.06,1.69-.46v-4.41h-.36c-.42,0-.77.01-1.17.08v-1.54c.36.04.75.08,1.18.08h.34v-1.95ZM208.03,18.91c-.29-.57-.45-.85-.86-1.39l1.52-.38c.36.57.69,1.21.93,1.77h1.44c.35-.54.54-.96.84-1.75l1.52.39c-.35.68-.51.96-.78,1.37h.63c.53,0,1.02-.01,1.33-.04-.04.39-.06.72-.06,1.32v2.62c0,.61.01.93.06,1.32-.34-.03-.69-.04-1.32-.04h-5.81c-.64,0-.99.01-1.29.04.03-.39.04-.66.04-1.27v-2.7c0-.63,0-.75-.04-1.29.31.03.76.04,1.29.04h.56ZM206.79,25.8c0-.58-.01-.79-.04-1.11.38.03.72.05,1.3.05h4.6c.6,0,.96-.02,1.31-.05-.04.33-.06.65-.06,1.22v3.13c0,.75.02,1.08.08,1.47h-1.58v-.57h-4.14v.57h-1.54c.06-.38.08-.72.08-1.46v-3.25ZM207.64,20.97h1.98v-.85h-1.98v.85ZM207.64,22.96h1.98v-.9h-1.98v.9ZM208.26,26.74h4.14v-.83h-4.14v.83ZM208.26,28.69h4.14v-.85h-4.14v.85ZM211,20.97h2.08v-.85h-2.08v.85ZM211,22.96h2.08v-.9h-2.08v.9Z"/>
        <path d="M225.73,19.59c2.03,0,3.3,1.21,3.3,3.17s-1.41,3.09-3.75,3.09c-.51,0-1.04-.06-1.23-.13-.12-.04-.18-.12-.21-.25-.1-.5-.3-.98-.66-1.58.93.22,1.5.32,2.13.32,1.21,0,1.94-.56,1.94-1.52,0-.38-.11-.75-.25-.96-.27-.38-.86-.61-1.53-.61-.86,0-2.04.38-4.51,1.44q.94,2.35,1.47,3.79c.63,1.7,1.16,3.22,1.16,3.36,0,.12-.09.2-.39.33-.43.2-.99.38-1.18.38-.15,0-.17-.03-.32-.58-.69-2.52-1.3-4.35-2.22-6.58-1.14.52-1.68.82-2,1.12-.09.07-.18.12-.28.12-.2,0-.38-.15-.66-.55-.3-.42-.42-.64-.67-1.12.96-.27,1.57-.48,2.98-1.06-.78-1.79-.88-2-1.47-2.75.96-.38,1.5-.54,1.84-.54.32,0,.39.09.43.5.05.42.08.57.26.99.01.03.15.34.46,1.15,1.32-.54,1.78-.72,2.77-1.04-.06-.03-.08-.04-.12-.1-.51-.66-.82-.99-1.48-1.54-.03-.06-.04-.09-.04-.13q0-.09.51-.54c.2-.18.5-.36.58-.36.08,0,.15.03.24.09.92.69,1.54,1.32,1.54,1.58,0,.12-.45.62-.81.88.83-.22,1.54-.33,2.17-.33Z"/>
        <path d="M237,21.16c-3.29.21-4.56.34-5.5.6-.06.02-.12.03-.17.03-.11,0-.2-.08-.24-.2-.13-.38-.21-.87-.25-1.62h.36c.48,0,.93-.02,2.37-.11,1.11-.06,2.05-.1,3.4-.15-.01-1.35-.03-1.56-.17-2.23,1.16.03,1.74.08,1.95.17.09.04.13.12.13.27,0,.03-.01.09-.04.17-.13.33-.18.66-.21,1.59,2.19-.06,2.52-.06,4.02-.06.41,0,.46,0,.51.04.06.06.09.29.09.79,0,.69-.02.76-.21.76h-.06c-.64-.06-2.25-.12-3.3-.12q-.34,0-1.09.01l-.03,2.46c.23.5.3.92.3,1.63,0,1.88-.69,3.31-2.14,4.38-.6.45-1.37.84-1.63.84-.13,0-.21-.04-.33-.17-.42-.48-.74-.72-1.28-1.02.9-.25,1.37-.46,1.95-.83.44-.29.83-.6,1.11-.92.19-.24.34-.46.57-.95-.43.45-.79.62-1.35.62-1.26,0-2.08-.96-2.08-2.42,0-1.53.97-2.64,2.33-2.64.43,0,.71.06,1,.2v-1.16ZM235.18,24.67c0,.63.36,1.07.9,1.07.57,0,.92-.41.92-1.1s-.33-1.11-.9-1.11c-.54,0-.92.46-.92,1.14Z"/>
        <path d="M244.93,21.42c.77-.39,1.07-.75,1.16-1.42-.13.03-.25.04-.3.04-.6,0-1.07-.48-1.07-1.09,0-.66.47-1.12,1.11-1.12.79,0,1.26.57,1.26,1.54,0,1.29-.46,2.12-1.56,2.71l-.6-.66ZM247.83,21.42c.76-.39,1.06-.75,1.16-1.42-.14.03-.26.04-.3.04-.6,0-1.06-.48-1.06-1.09,0-.66.46-1.12,1.11-1.12.79,0,1.26.57,1.26,1.54,0,1.29-.47,2.12-1.56,2.71l-.6-.66Z"/>
        <path d="M22.04,48.05c.03,1.12.06,1.71.21,3.21,1.26.41,1.86.66,2.75,1.14,1.18.67,1.79,1.12,1.79,1.33,0,.18-.2.53-.54,1.02-.22.33-.39.48-.51.48-.08,0-.14-.03-.24-.13-1.07-1.02-1.92-1.58-3.18-2.08-.03.92-.2,1.39-.63,1.84-.53.53-1.44.81-2.62.81-1.96,0-3.17-.87-3.17-2.29,0-1.52,1.32-2.48,3.38-2.48.5,0,.93.03,1.3.08-.15-2.46-.2-3.64-.21-5.85-.01-.87-.04-1.39-.13-2.1.69.01,1.38.09,1.79.19.24.08.33.15.33.32,0,.08-.01.12-.06.24-.17.39-.22.96-.25,2.62q.12,0,.58-.03c.72-.04,1.74-.23,2.88-.54.04-.01.08-.01.12-.01.09,0,.12.03.18.18.15.36.32,1.09.32,1.35,0,.12-.06.17-.2.21-1.16.27-2.78.5-3.66.5h-.21ZM19.1,52.37c-1.02,0-1.63.34-1.63.91,0,.53.51.8,1.46.8,1.15,0,1.66-.41,1.66-1.35v-.12c-.49-.18-.92-.24-1.48-.24Z"/>
        <path d="M34.01,48.4q.07-.12.73-1.23c.09.25.18.42.36.66.1.17.15.25.15.34s-.03.17-.39.75c-.25.45-.69,1.38-.87,1.83-.15.42-.21.45-.71.45s-.88-.06-.94-.15c-.09-.12-.15-.93-.15-2.04,0-1.47.11-2.5.5-5.11.04-.3.06-.45.06-.78,1.17.21,1.94.55,1.94.84,0,.08-.02.12-.12.25-.2.29-.32.67-.46,1.47-.18,1-.32,2.33-.32,3.12q.13-.24.23-.41ZM39.45,44.02v.25c.01.06.01.18.03.35q.01.24.04.61,0,.17.03.72c.04.72.07,1.44.07,1.8,0,2.82-.73,5.01-2.29,6.85-.6.71-1.12,1.11-1.42,1.11-.18,0-.19,0-.51-.24-.29-.22-.67-.42-1.06-.53,1.05-.75,1.62-1.27,2.17-2.07.93-1.33,1.38-2.92,1.38-4.86,0-2.05-.14-3.31-.48-4.23.63-.08,1.09-.11,1.53-.11s.51.03.51.29v.04Z"/>
        <path d="M44.22,52.21c.27-.24.34-.3.45-.3.19,0,1.09.66,1.75,1.29.75.69,1.59,1.7,1.59,1.91,0,.13-.03.17-.46.55-.57.53-.69.62-.79.62-.09,0-.18-.06-.25-.21-.53-.93-1.73-2.16-2.79-2.85-.12-.09-.18-.15-.18-.24,0-.11.03-.15.69-.76Z"/>
        <path d="M60.2,43.9c-.76.39-1.05.75-1.15,1.42.13-.03.27-.04.31-.04.6,0,1.05.48,1.05,1.09,0,.66-.46,1.12-1.11,1.12-.79,0-1.26-.58-1.26-1.59,0-.6.18-1.28.44-1.7.25-.39.58-.67,1.12-.97l.6.66ZM63.09,43.9c-.77.39-1.05.75-1.16,1.42.13-.03.27-.04.31-.04.6,0,1.05.48,1.05,1.09,0,.66-.47,1.12-1.11,1.12-.79,0-1.26-.58-1.26-1.54,0-1.29.46-2.12,1.56-2.71l.6.66Z"/>
        <path d="M67.28,47.47c-.96.6-1.29.78-2.31,1.25-.25-.58-.48-.97-.84-1.49,1.53-.6,2.54-1.15,3.62-2,.96-.73,1.68-1.51,2.28-2.43h1.7c.76,1.07,1.35,1.63,2.45,2.4,1.21.87,2.4,1.48,3.7,1.95-.4.62-.6,1.02-.81,1.62-.9-.39-1.46-.69-2.45-1.32v1.12c-.39-.04-.75-.06-1.29-.06h-4.82c-.41,0-.84.02-1.23.06v-1.11ZM66.48,51.17c-.75,0-1.23.03-1.7.09v-1.67c.45.04,1.02.08,1.7.08h8.95c.72,0,1.21-.03,1.7-.08v1.67c-.48-.06-.96-.09-1.7-.09h-4.93c-.48,1.09-.93,1.93-1.5,2.79q2.49-.14,4.56-.36c-.46-.51-.72-.78-1.51-1.59l1.42-.63c1.54,1.56,2.17,2.29,3.33,3.82l-1.39.92c-.41-.61-.53-.79-.86-1.24-1.2.15-2.05.25-2.59.3-1.5.15-4.23.4-4.84.45-.81.04-1.53.12-1.86.19l-.22-1.75c.43.03.62.04.81.04.12,0,.56-.01,1.29-.06.71-1.08,1.16-1.94,1.53-2.88h-2.17ZM73.31,47.02c.2,0,.33,0,.63-.01-1.3-.87-2.14-1.65-3.01-2.8-.75,1.02-1.62,1.84-2.98,2.8.24.01.36.01.58.01h4.78Z"/>
        <path d="M82.47,54.58c0,.68.02,1.05.09,1.47h-1.74c.06-.44.09-.83.09-1.5v-3.62c-.58.53-.88.75-1.6,1.23-.18-.56-.44-1.08-.74-1.5,1-.58,1.69-1.12,2.47-1.95.67-.71,1.09-1.3,1.56-2.22h-2.34c-.51,0-.85.01-1.2.06v-1.6c.38.04.66.06,1.12.06h.73v-1.2c0-.39-.03-.76-.09-1.09h1.72c-.06.32-.07.66-.07,1.11v1.18h.6c.43,0,.6-.01.83-.04l.69.75c-.12.2-.21.38-.31.62-.48,1.05-.74,1.48-1.44,2.46.67.76,1.33,1.29,2.28,1.81-.33.46-.54.86-.78,1.42-.76-.48-1.21-.88-1.88-1.62v4.17ZM88.59,53.89h1.72c.72,0,1.21-.03,1.65-.08v1.72c-.51-.06-1.07-.09-1.65-.09h-4.92c-.6,0-1.12.03-1.62.09v-1.72c.45.04.96.08,1.63.08h1.58v-5.62h-1.08c-.48,0-.96.03-1.41.08v-1.63c.41.06.81.08,1.41.08h1.08v-2.54c0-.6-.03-.95-.09-1.5h1.79c-.08.57-.09.85-.09,1.5v2.54h1.51c.66,0,1.04-.02,1.42-.08v1.63c-.46-.04-.92-.08-1.42-.08h-1.51v5.62Z"/>
        <path d="M102.9,45.1c2.03,0,3.3,1.21,3.3,3.17s-1.41,3.09-3.75,3.09c-.51,0-1.04-.06-1.23-.13-.12-.04-.18-.12-.21-.25-.1-.5-.3-.98-.66-1.58.93.22,1.5.32,2.13.32,1.21,0,1.94-.56,1.94-1.52,0-.38-.11-.75-.25-.96-.27-.38-.86-.61-1.53-.61-.86,0-2.04.38-4.51,1.44q.94,2.35,1.47,3.79c.63,1.7,1.16,3.22,1.16,3.36,0,.12-.09.2-.39.33-.43.2-.99.38-1.18.38-.15,0-.17-.03-.32-.58-.69-2.52-1.3-4.35-2.22-6.58-1.14.52-1.68.82-2,1.12-.09.07-.18.12-.28.12-.2,0-.38-.15-.66-.55-.3-.42-.42-.64-.67-1.12.96-.27,1.57-.48,2.98-1.06-.78-1.79-.88-2-1.47-2.75.96-.38,1.5-.54,1.84-.54.32,0,.39.09.43.5.05.42.08.57.26.99.01.03.15.34.46,1.15,1.32-.54,1.78-.72,2.77-1.04-.06-.03-.08-.04-.12-.1-.51-.66-.82-.99-1.48-1.54-.03-.06-.04-.09-.04-.13q0-.09.51-.54c.2-.18.5-.36.58-.36.08,0,.15.03.24.09.92.69,1.54,1.32,1.54,1.58,0,.12-.45.62-.81.88.83-.22,1.54-.33,2.17-.33Z"/>
        <path d="M115.19,42.94c-.04.24-.09.94-.09,1.48,0,2.34.38,3.84,1.41,5.68.6,1.07,1.25,1.83,2.26,2.73.86.73,1.29,1.05,2.22,1.54-.54.57-.78.92-1.11,1.6-1.74-1.21-2.64-2.05-3.66-3.39-.88-1.17-1.42-2.29-1.91-3.95-.28,1.16-.54,1.82-1.14,2.91-.57,1.05-1.2,1.83-2.21,2.76-.76.69-1.23,1.05-2.23,1.67-.33-.67-.62-1.04-1.12-1.48,1.48-.79,2.25-1.37,3.15-2.42,1.86-2.13,2.64-4.49,2.64-7.93,0-.56-.01-.83-.07-1.21h1.86Z"/>
        <path d="M126.69,47.78c-.19-.66-.25-1.07-.43-2.91-.06-.72-.12-1.08-.27-1.59.91.01,1.5.06,1.9.17.23.06.33.17.33.33,0,.06-.01.13-.04.25-.1.36-.15.63-.15,1.02,0,.74.15,1.94.32,2.46.09.29.18.39.34.39.36,0,1.68-.69,2.4-1.24.19-.15.22-.17.3-.17.13,0,.27.1.5.39.38.51.67,1.07.67,1.28,0,.17-.11.27-.36.34-.93.25-2.46.85-3.49,1.35-1.83.9-2.66,1.73-2.66,2.66s.76,1.29,2.7,1.29c1.12,0,2.14-.11,3.52-.33.06-.02.17-.03.2-.03.12,0,.19.06.25.18.04.15.15,1.07.15,1.43,0,.21-.06.28-.26.34-.33.08-2.14.18-3.28.18-1.92,0-3.2-.25-3.99-.79-.67-.46-1.04-1.2-1.04-2.1,0-.69.2-1.31.6-1.91.52-.78,1.09-1.27,2.35-2.02-.31-.29-.43-.5-.57-.96Z"/>
        <path d="M142.46,52.39c-.72,1.25-1.71,1.93-2.73,1.93-1.56,0-2.67-1.53-2.67-3.66,0-2.37,1.2-4.41,3.25-5.49,1-.54,2.08-.78,3.51-.78,3.14,0,5.46,2.22,5.46,5.19,0,2.62-1.29,4.51-3.78,5.58-.5.21-.89.33-1.08.33-.18,0-.25-.06-.45-.34-.25-.39-.54-.67-.95-.95,3.09-.79,4.49-2.25,4.49-4.68,0-1.25-.53-2.29-1.46-2.96-.53-.36-.95-.51-1.77-.64-.42,3.17-.92,4.89-1.83,6.46ZM140.3,47.08c-1,.88-1.58,2.14-1.58,3.55,0,1.16.38,1.83,1,1.83.75,0,1.52-1.04,2.08-2.82.36-1.12.54-1.98.77-3.64-1.07.22-1.59.48-2.28,1.08Z"/>
        <path d="M154.08,46.06c2.49-.71,3.78-.93,5.19-.93,1.51,0,2.7.41,3.5,1.18.66.68,1.02,1.61,1.02,2.7,0,1.92-1.03,3.54-2.83,4.47-.96.48-1.93.81-3.27,1.07-.58.12-.88.17-1.11.17-.18,0-.27-.06-.36-.23-.34-.69-.48-.9-.93-1.36,2.23-.27,3.45-.57,4.62-1.16,1.28-.63,1.98-1.67,1.98-2.92,0-1.41-.96-2.33-2.43-2.33-1.78,0-3.76.51-6.04,1.56-.41.18-.62.29-.77.38-.27.15-.34.18-.43.18-.29,0-.79-.92-1.14-2.07.69-.09,1.38-.25,3.01-.71Z"/>
        <path d="M167.31,47.21c-.27.01-.43.03-.61.04-.14.01-.15.01-.17.01-.12,0-.18-.04-.23-.19-.08-.24-.18-1.04-.19-1.49.17.01.6.03,1.14.03.17,0,1.35-.08,1.88-.12.25-1.21.34-1.84.34-2.66,1.54.21,2.1.39,2.1.68,0,.1-.01.13-.24.48-.12.18-.17.34-.42,1.28.7-.12,1.12-.23,1.68-.41.1-.03.15-.04.22-.04.11,0,.13.08.23.51.07.38.12.69.12.85,0,.18-.04.21-.43.3-.51.12-1.38.27-2.31.39-.56,1.68-.93,2.58-1.62,3.99-.53,1.05-.83,1.6-1.23,2.23-.12.18-.19.24-.3.24-.15,0-.57-.22-1.09-.62-.24-.17-.3-.24-.3-.34s.06-.2.25-.46c.43-.54,1-1.47,1.5-2.46.42-.83.57-1.17,1-2.36-.58.04-.63.06-1.32.11ZM172.25,55.85c-1.64,0-2.75-.9-2.75-2.24s1.15-2.41,2.7-2.41c.36,0,.53.01,1.14.1-.06-.72-.06-1-.12-2.4,0-.29-.03-.68-.06-1.16.77.08,1.35.17,1.64.29.12.04.18.12.18.24,0,.08-.01.14-.03.24-.08.32-.09.54-.09.95,0,.55.04,1.5.09,2.23,1.07.48,1.5.72,2.25,1.31.33.25.45.39.45.51,0,.15-.08.29-.5.96-.18.3-.31.43-.42.43q-.09,0-.51-.39c-.33-.33-.71-.58-1.23-.9,0,1.4-1.02,2.24-2.74,2.24ZM172.22,52.64c-.72,0-1.21.34-1.21.87,0,.5.45.81,1.12.81.79,0,1.21-.4,1.21-1.2,0-.12,0-.24-.02-.24-.3-.15-.7-.24-1.11-.24ZM177.83,48.38c-.18.25-.27.33-.38.33-.08,0-.13-.03-.24-.13-.38-.36-.9-.75-1.46-1.1q-.36-.22-1.02-.52c-.21-.09-.29-.15-.29-.27,0-.1.08-.24.3-.58.36-.52.45-.61.58-.61.28,0,1.39.57,2.19,1.11.65.44.84.62.84.78,0,.12-.24.57-.54,1Z"/>
        <path d="M181.43,48.67c-.12.03-.18.06-.27.1-.08.04-.12.06-.18.06-.33,0-.57-.57-.75-1.68h.29c.63,0,2.24-.19,3.2-.39.31-1.3.48-2.31.48-3.01,0-.06,0-.15-.01-.25.64.06,1.26.19,1.68.38.24.09.36.21.36.36,0,.08-.02.14-.09.26q-.23.39-.69,2.04c.36-.04.76-.07,1.02-.07.62,0,1.1.12,1.44.36.6.44.9,1.32.9,2.69,0,2.23-.41,4.15-1.1,5.1-.48.66-1.11.97-2,.97-.54,0-1.05-.08-1.2-.17q-.12-.08-.17-.63c-.04-.41-.13-.76-.32-1.18.78.27.98.31,1.46.31.72,0,1.02-.34,1.35-1.56.23-.79.35-1.82.35-2.92,0-1.17-.29-1.59-1.08-1.59-.27,0-.71.04-1.05.09-.04.18-.06.19-.12.39-.42,1.54-1.19,3.55-1.95,5.17-.79,1.63-.99,1.96-1.18,1.96-.12,0-.53-.21-.96-.5-.35-.21-.44-.3-.44-.42q0-.07.62-1.05c.83-1.27,1.91-3.76,2.28-5.25-1.11.25-1.73.39-1.86.44ZM190.85,45.59c-.24.18-.41.25-.48.25-.04,0-.09-.03-.13-.1-.32-.51-.84-1.1-1.28-1.47-.03-.03-.04-.06-.04-.09,0-.06.11-.17.36-.36.25-.18.33-.23.43-.23.24,0,1.56,1.33,1.56,1.58,0,.09-.12.2-.42.42ZM189.26,47.18c0-.1.13-.24.57-.58.3-.22.45-.31.57-.31.2,0,.87.72,1.5,1.6.52.75,1.09,1.82,1.09,2.07,0,.15-.04.19-.52.58-.3.24-.65.43-.77.43-.1,0-.15-.04-.25-.3-.29-.72-.54-1.21-.95-1.86-.4-.64-.43-.67-1.15-1.45-.06-.08-.09-.12-.09-.18ZM191.22,42.58c.25,0,1.53,1.27,1.53,1.53,0,.07-.09.16-.39.38-.27.21-.41.28-.46.28q-.08,0-.38-.42c-.25-.34-.74-.85-1-1.08-.04-.04-.08-.07-.08-.12,0-.12.62-.57.78-.57Z"/>
        <path d="M199.08,48.4q.07-.12.73-1.23c.09.25.18.42.36.66.1.17.15.25.15.34s-.03.17-.39.75c-.25.45-.69,1.38-.87,1.83-.15.42-.21.45-.71.45s-.88-.06-.94-.15c-.09-.12-.15-.93-.15-2.04,0-1.47.11-2.5.5-5.11.04-.3.06-.45.06-.78,1.17.21,1.94.55,1.94.84,0,.08-.02.12-.12.25-.2.29-.32.67-.46,1.47-.18,1-.32,2.33-.32,3.12q.13-.24.23-.41ZM204.53,44.02v.25c.01.06.01.18.03.35q.01.24.04.61,0,.17.03.72c.04.72.07,1.44.07,1.8,0,2.82-.73,5.01-2.29,6.85-.6.71-1.12,1.11-1.42,1.11-.18,0-.19,0-.51-.24-.29-.22-.67-.42-1.06-.53,1.05-.75,1.62-1.27,2.17-2.07.93-1.33,1.38-2.92,1.38-4.86,0-2.05-.14-3.31-.48-4.23.63-.08,1.09-.11,1.53-.11s.51.03.51.29v.04Z"/>
        <path d="M215.36,51.38c-1.48.87-1.91,1.3-1.91,1.96,0,.27.11.45.33.58.33.2,1.07.3,2.01.3.81,0,1.93-.08,2.7-.18.32-.04.5-.09,1.09-.24h.08c.11,0,.18.08.23.18.09.32.15.77.15,1.31,0,.22-.08.31-.27.36-.36.08-2.03.17-3.12.17-1.83,0-2.8-.12-3.52-.42-.87-.36-1.31-1.04-1.31-1.98,0-.87.41-1.63,1.21-2.28.65-.51.79-.62,2.18-1.39-.12-.5-.35-.71-.81-.71-.62,0-1.26.24-1.96.71-.43.3-.95.72-1.26,1.03-.45.47-.5.5-.62.5-.15,0-.46-.34-.78-.87-.15-.25-.24-.45-.24-.55,0-.13.03-.17.39-.39,1.23-.83,2.25-1.88,2.87-2.96-1.07.08-1.62.09-2.21.09-.23,0-.27-.04-.34-.3-.05-.2-.12-.99-.14-1.39.51.07.81.09,1.53.09.58,0,1.23-.02,1.91-.04.31-.86.42-1.4.43-2.1,1.33.23,1.95.45,1.95.71,0,.06-.02.09-.06.18-.1.19-.22.43-.42.9q-.03.06-.04.11c.86-.12,1.61-.27,2.13-.39.33-.09.41-.1.48-.1.12,0,.18.04.21.13.06.27.15.96.15,1.17,0,.17-.06.24-.25.29-.48.13-2.13.39-3.51.52-.45.83-.76,1.31-1.23,1.82.67-.32,1.18-.43,1.78-.43.68,0,1.12.39,1.43,1.23,1.48-.81,2.28-1.25,2.37-1.3.69-.41.98-.63,1.31-1,.61.63,1.27,1.57,1.27,1.83,0,.09-.06.15-.25.2-.74.2-2.1.78-4.38,1.89.01.27.04.96.04,1.44v.72c0,.18-.03.27-.1.32-.08.08-.48.12-.93.12-.51,0-.6-.04-.6-.29v-.06c.03-.43.04-1,.04-1.36v-.08Z"/>
        <path d="M224.1,46.34c.96.55,1.56.97,2.58,1.82l-.92,1.32c-1.05-.94-1.47-1.27-2.59-1.95l.93-1.18ZM226.61,51.2c-.43,1.47-.85,2.52-1.53,3.78-.14.27-.2.39-.29.55s-.09.17-.17.33l-1.4-1.2c.75-.81,1.42-2.24,2.08-4.37l1.29.9ZM224.7,42.79c1.02.66,1.57,1.11,2.32,1.86l-.97,1.32c-.72-.88-1.35-1.42-2.34-2.02l.99-1.16ZM234.95,49.52c.54,0,1.05-.03,1.53-.09v1.59c-.46-.04-1-.08-1.52-.08h-2.1c.93,1.19,2.42,2.22,3.97,2.76-.38.54-.45.7-.72,1.56-1.68-.78-3.08-1.93-3.96-3.32.03.62.03.77.03,1.14v1.47c0,.62.03,1.05.08,1.44h-1.62c.06-.42.08-.83.08-1.46v-1.46c0-.2.01-.57.04-1.12-.87,1.42-1.96,2.42-3.66,3.29-.27-.65-.39-.86-.88-1.4,1.59-.6,2.92-1.63,3.78-2.91h-1.56c-.55,0-1.04.03-1.53.08v-1.58c.45.05.93.08,1.53.08h2.28v-.39c0-.39-.02-.65-.06-.95h1.59c-.04.3-.06.53-.06.95v.39h2.76ZM231.23,44.66c-.12,1.12-.3,1.75-.66,2.38-.54.9-1.35,1.5-2.71,2.01-.24-.58-.34-.75-.81-1.29,1.9-.54,2.58-1.32,2.74-3.1h-1.23v1.5h-1.5c.04-.3.06-.62.06-.95v-1.05c0-.38-.01-.72-.04-.99q.14.02.39.03c.1.01.79.03,1.09.03h6.18c.81,0,1.2-.02,1.59-.06-.03.29-.04.57-.04,1.04v.76c0,.39.01.63.06.95h-1.53v-1.26h-1.38v2.1c0,.29.12.33.79.33.84,0,.87-.03.88-1.02.54.22.71.27,1.35.38-.07,1.02-.17,1.35-.4,1.6-.29.25-.81.36-1.98.36-1.58,0-2.07-.23-2.07-.95v-2.8h-.78Z"/>
        <path d="M21.87,71.56c.23-1.23.3-1.75.3-2.25,0-.06,0-.15-.02-.25,1.26.18,1.98.46,1.98.79,0,.12-.02.13-.18.43-.12.21-.22.57-.43,1.37,1.02.18,1.88.63,2.55,1.3.83.83,1.23,1.85,1.23,3.09,0,2.08-1.14,3.71-3.16,4.53-.41.17-1.2.38-1.4.38-.12,0-.2-.06-.3-.21-.24-.39-.6-.78-1.04-1.09,1.51-.26,2.24-.53,2.99-1.14.79-.64,1.2-1.48,1.2-2.5,0-1.51-.97-2.74-2.41-3.03-.5,1.56-1.04,2.8-1.7,3.94.22.23.36.36.6.58.17.15.23.24.23.34,0,.26-.84,1.08-1.08,1.08-.12,0-.32-.13-.75-.57-.92,1.09-1.82,1.63-2.71,1.63-1.25,0-2.07-1.05-2.07-2.66,0-1.44.6-2.77,1.75-3.9-.21-.54-.24-.67-.57-1.71-.12-.39-.25-.81-.44-1.25.54-.12,1.25-.22,1.61-.22.15,0,.24.04.29.15q.04.08.06.44c.01.31.15.88.38,1.57.97-.55,2.07-.87,3.1-.85ZM18.09,74.92c-.56.74-.86,1.52-.86,2.22s.29,1.12.72,1.12c.46,0,.9-.32,1.51-1.07-.55-.74-.93-1.37-1.38-2.28ZM21.53,72.91c-.83.12-1.47.36-2.24.87.39.78.69,1.29,1.16,1.91.51-.99.81-1.75,1.08-2.78Z"/>
        <path d="M37.53,73.55c2.12,0,3.62,1.44,3.62,3.48,0,1.39-.74,2.66-1.96,3.39-.86.51-1.91.77-3.09.77-1.91,0-3.02-.77-3.02-2.07,0-1.18.99-2.02,2.4-2.02,1.27,0,2.19.64,2.8,1.96.76-.56,1.08-1.14,1.08-1.95,0-1.29-.92-2.13-2.36-2.13s-3.04.73-4.35,2.04c-.24.24-.46.5-.73.84-.11.15-.18.21-.27.21-.27,0-1.33-1.05-1.33-1.32,0-.13.06-.21.39-.45.34-.27.84-.7,1.47-1.3,1.46-1.38,2.52-2.54,4.09-4.46-1.88.24-3.13.45-3.6.62-.08.02-.12.03-.17.03-.12,0-.2-.08-.29-.3-.18-.45-.27-.95-.32-1.61.41.06.69.08,1.02.08.72,0,1.93-.1,3.51-.29.55-.06.73-.1,1.16-.27.13-.06.21-.08.3-.08.21,0,.42.18.81.78.29.39.38.58.38.71,0,.19-.04.25-.38.46-.27.17-.43.3-.78.63-.75.72-.76.72-1.69,1.67-.66.67-.74.75-1.33,1.35.97-.54,1.74-.76,2.64-.76ZM36.09,78.74c-.23-.15-.48-.22-.77-.22-.46,0-.76.22-.76.58,0,.43.46.71,1.18.71.33,0,.62-.03.99-.14-.18-.5-.33-.72-.64-.93Z"/>
        <path d="M43.79,72.44c.77-.39,1.07-.75,1.16-1.42-.13.03-.25.04-.3.04-.6,0-1.07-.48-1.07-1.09,0-.66.47-1.12,1.11-1.12.79,0,1.26.57,1.26,1.54,0,1.29-.46,2.12-1.56,2.71l-.6-.66ZM46.68,72.44c.76-.39,1.06-.75,1.16-1.42-.14.03-.26.04-.3.04-.6,0-1.06-.48-1.06-1.09,0-.66.46-1.12,1.11-1.12.79,0,1.26.57,1.26,1.54,0,1.29-.47,2.12-1.56,2.71l-.6-.66Z"/>
        <path d="M57.26,80.45c.86-.93,1.22-1.5,1.59-2.54l1.4.58c-.46,1.17-.83,1.8-1.67,2.87l-1.32-.92ZM63.05,69.02c0-.31-.01-.58-.08-.92h1.77c-.04.3-.08.57-.08.92v.13h3.39c.71,0,1.08-.01,1.53-.09v1.4c-.44-.04-.78-.06-1.53-.06h-.81c-.13.32-.25.53-.42.86h1.95c.86,0,1.25-.02,1.67-.08v1.39c-.42-.06-.84-.07-1.68-.07h-9.6c-.81,0-1.23.01-1.65.07v-1.39c.4.06.85.08,1.71.08h1.79c-.12-.33-.18-.48-.38-.86h-.79c-.72,0-1.08.02-1.47.06v-1.4c.39.06.83.09,1.53.09h3.15v-.13ZM60.44,77.63c-.62,0-.96.02-1.4.03.03-.29.04-.52.04-1.06v-2.28c0-.58-.01-.92-.06-1.29.38.03.76.04,1.56.04h6.69c.87,0,1.2-.01,1.58-.04-.04.33-.06.67-.06,1.29v2.16c0,.46.01.75.06,1.18-.19,0-.22,0-.48-.01h-.39c-.18-.02-.31-.02-.39-.02h-3.29c.44.29.65.45,1.42,1.12l-1.18.95c-.66-.75-.72-.79-1.63-1.53l.72-.54h-3.19ZM60.59,74.83h6.71v-.6h-6.71v.6ZM60.59,76.48h6.71v-.58h-6.71v.58ZM66.21,78.82v-.15c.51.23.79.3,1.47.39-.04,1.08-.15,1.53-.42,1.83-.39.44-1,.53-3.48.53s-2.99-.17-2.99-1.02v-1.26c0-.48-.01-.78-.08-1.06h1.65c-.04.36-.06.55-.06,1.06v.63c0,.17.04.23.22.27.17.04.76.09,1.29.09,1.29,0,1.84-.04,2.08-.15.13-.06.19-.17.24-.39.03-.15.06-.46.06-.62v-.15ZM65.21,71.26c.18-.35.25-.51.41-.86h-3.39c.15.32.2.42.38.86h2.61ZM69.32,81.19c-.71-1.17-1.14-1.77-1.96-2.7l1.26-.72c.9.96,1.4,1.57,2.01,2.52l-1.31.9Z"/>
        <path d="M74.93,78.89v-.71h-1.3v1.48h-1.51c.04-.43.08-.96.08-1.74v-7.14c0-.63-.02-1.11-.06-1.49.38.04.67.06,1.29.06h1.7c.54,0,.88-.01,1.24-.06-.01.25-.03.69-.03,1.44v6.57c0,.6.01.97.04,1.44,1.23-1.03,2.23-2.31,2.91-3.7h-1.46c-.51,0-.86.01-1.2.06v-1.59c.46.04.62.06,1.21.06h1.95v-1.89h-1.2c-.64,0-1.14.01-1.58.06v-1.56c.44.04.93.08,1.58.08h1.2v-.85c0-.51-.02-.8-.06-1.14h1.65c-.06.34-.08.62-.08,1.14v.85h1.58c.72,0,1.18-.03,1.6-.09v1.59c-.46-.04-.99-.08-1.63-.08h-1.54v1.89h1.98c.75,0,1.26-.03,1.71-.07v1.62c-.4-.04-1-.07-1.71-.07h-1.6c.79,1.67,1.95,2.91,3.75,4.05-.38.55-.6.97-.86,1.56-1.75-1.37-2.73-2.55-3.31-4.06.03.61.04.87.04,1.42v2.07c0,.58.01.99.08,1.46h-1.67c.04-.45.08-.88.08-1.46v-2.1c0-.51.01-.87.03-1.47-.43.99-.81,1.58-1.51,2.42-.66.79-1.26,1.33-2.04,1.88-.33-.5-.61-.81-1.09-1.23.54-.33.74-.46,1.02-.69h-1.26ZM73.62,76.79h1.3v-5.94h-1.3v5.94Z"/>
        <path d="M89.16,73.03c-.92.57-1.3.78-2.29,1.23-.25-.62-.42-.92-.84-1.47,1.35-.52,2.56-1.23,3.66-2.08,1.01-.79,1.68-1.51,2.27-2.41h1.72c.62.91,1.26,1.57,2.42,2.44,1.12.86,2.21,1.42,3.66,1.96-.38.62-.51.88-.78,1.59-1.02-.45-1.49-.71-2.35-1.26v1c-.38-.04-.72-.06-1.29-.06h-4.94c-.45,0-.84.01-1.23.06v-1ZM87.99,81.44c.06-.45.09-.88.09-1.52v-3.36c0-.62-.01-.97-.08-1.41.35.03.67.04,1.26.04h7.17c.58,0,.9-.01,1.26-.04-.06.39-.07.78-.07,1.41v3.38c0,.67.01,1.05.09,1.5h-1.73v-.72h-6.27v.72h-1.72ZM89.72,79.31h6.27v-2.71h-6.27v2.71ZM95.31,72.47h.5c-1.3-.93-2.07-1.65-2.97-2.82-.87,1.25-1.49,1.86-2.82,2.82h5.29Z"/>
        <path d="M101.73,71.45c0-.43-.02-1.02-.04-1.35.69.08,1.2.18,1.6.33.36.13.48.22.48.39q0,.09-.06.24c-.2.51-.25,1.08-.25,2.45,0,1.92.12,3.12.42,4.03.22.71.57,1.11.97,1.11.62,0,1.12-.72,1.68-2.38.28.76.39.99.81,1.53.08.11.12.21.12.32,0,.24-.22.75-.53,1.18-.58.86-1.33,1.32-2.13,1.32-1.15,0-2.02-.93-2.56-2.78-.34-1.2-.51-2.71-.51-4.81v-1.58ZM110.66,71.69c.09,0,.17.04.29.15.75.72,1.53,1.92,2.03,3.09.33.79.64,1.86.64,2.17,0,.15-.08.22-.39.39-.34.18-1.05.42-1.23.42-.13,0-.19-.08-.24-.34-.2-1.16-.46-2-.93-2.97-.42-.87-.45-.92-1.47-2.17.63-.46,1.12-.74,1.3-.74Z"/>
        <path d="M116.63,74.18c-.12.03-.18.06-.27.1-.08.04-.12.06-.18.06-.33,0-.57-.57-.75-1.68h.29c.63,0,2.24-.19,3.2-.39.31-1.3.48-2.31.48-3.01,0-.06,0-.15-.01-.25.64.06,1.26.19,1.68.38.24.09.36.21.36.36,0,.08-.02.14-.09.26q-.23.39-.69,2.04c.36-.04.76-.07,1.02-.07.62,0,1.1.12,1.44.36.6.44.9,1.32.9,2.69,0,2.23-.41,4.15-1.1,5.1-.48.66-1.11.97-2,.97-.54,0-1.05-.08-1.2-.17q-.12-.08-.17-.63c-.04-.41-.13-.76-.32-1.18.78.27.98.31,1.46.31.72,0,1.02-.34,1.35-1.56.23-.79.35-1.82.35-2.92,0-1.17-.29-1.59-1.08-1.59-.27,0-.71.04-1.05.09-.04.18-.06.19-.12.39-.42,1.54-1.19,3.55-1.95,5.17-.79,1.63-.99,1.96-1.18,1.96-.12,0-.53-.21-.96-.5-.35-.21-.44-.3-.44-.42q0-.07.62-1.05c.83-1.27,1.91-3.76,2.28-5.25-1.11.25-1.73.39-1.86.44ZM126.05,71.11c-.24.18-.41.25-.48.25-.04,0-.09-.03-.13-.1-.32-.51-.84-1.1-1.28-1.47-.03-.03-.04-.06-.04-.09,0-.06.11-.17.36-.36.25-.18.33-.23.43-.23.24,0,1.56,1.33,1.56,1.58,0,.09-.12.2-.42.42ZM124.46,72.7c0-.1.13-.24.57-.58.3-.22.45-.31.57-.31.2,0,.87.72,1.5,1.6.52.75,1.09,1.82,1.09,2.07,0,.15-.04.19-.52.58-.3.24-.65.43-.77.43-.1,0-.15-.04-.25-.3-.29-.72-.54-1.21-.95-1.86-.4-.64-.43-.67-1.15-1.45-.06-.08-.09-.12-.09-.18ZM126.42,68.09c.25,0,1.53,1.27,1.53,1.53,0,.07-.09.16-.39.38-.27.21-.41.28-.46.28q-.08,0-.38-.42c-.25-.34-.74-.85-1-1.08-.04-.04-.08-.07-.08-.12,0-.12.62-.57.78-.57Z"/>
        <path d="M133.08,75.11c.5,0,.78-.01,1-.04q-.01.34-.09,1.95c-.04,1.17-.23,2.38-.45,3.07-.18.58-.48.95-.95,1.12-.25.09-.61.14-1.15.14-.42,0-.83-.02-1.25-.05-.06-.66-.12-.94-.3-1.59.52.09,1.06.14,1.42.14.52,0,.71-.08.81-.36.24-.62.36-1.56.39-3.01h-1.67c-.41,0-.57,0-.99.03.24-1.21.41-2.95.42-4.57.34.04.5.04,1.21.04h1.09v-1.75h-1.42c-.57,0-.93.01-1.26.06v-1.53c.32.06.71.07,1.35.07h1.75c.48,0,.77-.01,1.11-.04-.03.42-.04.66-.04,1.1v2.16c0,.44.01.83.04,1.33-.27-.03-.57-.04-1.02-.04h-1.37q-.11,1.23-.18,1.79h1.51ZM137.72,72.32c-1.92.11-2.96.18-3.13.2l-.15-1.5c.21.01.48.03.74.03h.42c.63-1.04,1.02-1.86,1.33-2.79l1.65.31q-.17.3-.52.99c-.27.53-.48.87-.86,1.44q1.75-.09,3.06-.18c-.33-.43-.54-.69-1.12-1.33l1.18-.64c1,1.04,1.79,2.02,2.62,3.29l-1.25.87c-.29-.49-.39-.67-.58-.96-.73.08-1.17.12-1.96.18v1.21h1.95c.52,0,.79-.02,1.15-.06-.04.33-.06.58-.06,1.02v2.14c0,.46.01.74.06,1.09-.38-.03-.78-.04-1.2-.04h-1.91v1.71q.79-.09,1.51-.19c-.13-.25-.24-.45-.5-.86l1.25-.5c.87,1.37,1.11,1.85,1.71,3.27l-1.36.55c-.23-.64-.33-.9-.5-1.28-1.68.29-4.23.63-5.96.79-.67.08-.71.08-.96.12l-.25-1.63c.18.02.25.02.43.02.63,0,1.75-.06,3.2-.17v-1.85h-1.72c-.53,0-.86.02-1.23.06.03-.34.04-.72.04-1.14v-2.04c0-.39-.01-.72-.04-1.08.34.03.67.04,1.2.04h1.75v-1.11ZM136.17,74.71v1.61h1.54v-1.61h-1.54ZM139.14,76.31h1.65v-1.61h-1.65v1.61Z"/>
        <path d="M145.11,71.45c0-.43-.02-1.02-.04-1.35.69.08,1.2.18,1.6.33.36.13.48.22.48.39q0,.09-.06.24c-.2.51-.25,1.08-.25,2.45,0,1.92.12,3.12.42,4.03.22.71.57,1.11.97,1.11.62,0,1.12-.72,1.68-2.38.28.76.39.99.81,1.53.08.11.12.21.12.32,0,.24-.22.75-.53,1.18-.58.86-1.33,1.32-2.13,1.32-1.15,0-2.02-.93-2.56-2.78-.34-1.2-.51-2.71-.51-4.81v-1.58ZM154.04,71.69c.09,0,.17.04.29.15.75.72,1.53,1.92,2.03,3.09.33.79.64,1.86.64,2.17,0,.15-.08.22-.39.39-.34.18-1.05.42-1.23.42-.13,0-.19-.08-.24-.34-.2-1.16-.46-2-.93-2.97-.42-.87-.45-.92-1.47-2.17.63-.46,1.12-.74,1.3-.74Z"/>
        <path d="M164.42,77.9c-.72,1.25-1.71,1.93-2.73,1.93-1.56,0-2.67-1.53-2.67-3.66,0-2.37,1.2-4.41,3.25-5.49,1-.54,2.08-.78,3.51-.78,3.14,0,5.46,2.22,5.46,5.19,0,2.62-1.29,4.51-3.78,5.58-.5.21-.89.33-1.08.33-.18,0-.25-.06-.45-.34-.25-.39-.54-.67-.95-.95,3.09-.79,4.49-2.25,4.49-4.68,0-1.25-.53-2.29-1.46-2.96-.53-.36-.95-.51-1.77-.64-.42,3.17-.92,4.89-1.83,6.46ZM162.26,72.59c-1,.88-1.58,2.14-1.58,3.55,0,1.16.38,1.83,1,1.83.75,0,1.52-1.04,2.08-2.82.36-1.12.54-1.98.77-3.64-1.07.22-1.59.48-2.28,1.08Z"/>
        <path d="M180.15,73.57c.03,1.12.06,1.71.21,3.21,1.26.41,1.86.66,2.75,1.14,1.18.67,1.79,1.12,1.79,1.33,0,.18-.2.53-.54,1.02-.23.33-.39.48-.51.48-.08,0-.14-.03-.24-.13-1.07-1.02-1.92-1.58-3.18-2.08-.03.92-.2,1.39-.63,1.84-.53.53-1.44.81-2.62.81-1.96,0-3.17-.87-3.17-2.29,0-1.52,1.32-2.48,3.38-2.48.5,0,.93.03,1.3.08-.15-2.46-.2-3.64-.21-5.85-.01-.87-.04-1.39-.13-2.1.69.01,1.38.09,1.79.19.24.08.33.15.33.32,0,.08-.01.12-.06.24-.17.39-.22.96-.25,2.62q.12,0,.58-.03c.72-.04,1.74-.23,2.88-.54.04-.01.08-.01.12-.01.09,0,.12.03.18.18.15.36.32,1.09.32,1.35,0,.12-.06.17-.2.21-1.16.27-2.77.5-3.66.5h-.21ZM177.21,77.89c-1.02,0-1.63.34-1.63.91,0,.53.51.8,1.46.8,1.15,0,1.66-.41,1.66-1.35v-.12c-.49-.18-.92-.24-1.48-.24Z"/>
        <path d="M192.27,79.22c0,1.41-1.14,2.55-2.54,2.55s-2.53-1.14-2.53-2.55,1.14-2.54,2.53-2.54,2.54,1.14,2.54,2.54ZM188.37,79.22c0,.76.62,1.38,1.36,1.38s1.37-.62,1.37-1.38-.62-1.37-1.37-1.37-1.36.62-1.36,1.37Z"/>
        <path d="M203.78,69.73c0-.69-.01-1-.09-1.47h1.73c-.08.45-.09.79-.09,1.46v1.18h.79c.32,0,.5-.01.72-.04v1.49c-.25-.03-.48-.04-.75-.04h-.77v2.19c.44-.15.65-.22,1.26-.46v1.41q-.84.33-1.26.48v4.18c0,.63-.22,1.05-.64,1.19-.3.1-.86.17-1.39.17-.26,0-.45-.02-.87-.04-.06-.63-.12-.92-.35-1.5.54.08.93.1,1.28.1s.43-.08.43-.43v-3.13q-1.32.42-1.59.54l-.31-1.61c.61-.08.71-.09,1.9-.42v-2.65h-.73c-.36,0-.62.01-1.02.06v-1.53c.33.06.6.08,1.04.08h.72v-1.17ZM214.25,75.19q-.1.13-.38.58c-.75,1.25-1.3,1.98-2.1,2.75,1.11.71,2.07,1.08,3.55,1.36-.39.48-.67.99-.9,1.56-1.77-.54-2.82-1.04-3.93-1.86-1.17.86-2.38,1.41-4.05,1.89-.31-.64-.51-.97-.88-1.44,1.5-.32,2.45-.71,3.76-1.53-.84-.9-1.23-1.5-1.8-2.8-.27.01-.45.03-.69.06v-1.52c.31.06.66.08,1.15.08h4.54c.39,0,.66-.01.87-.06l.84.93ZM215.19,71.15c-.17,2.16-.33,2.34-2.22,2.34-.69,0-1.04-.03-1.26-.1-.44-.15-.57-.41-.57-1.08v-2.19h-1.74c-.06,2.12-.62,3.24-2.05,4.19-.34-.45-.63-.71-1.16-1.08,1.31-.72,1.73-1.67,1.73-3.92,0-.22-.02-.41-.04-.72.27.03.61.04.94.04h2.97c.32,0,.63-.02.9-.04-.03.18-.04.51-.04.92v2.2c0,.23.01.29.12.32.06.03.24.04.39.04.21,0,.42-.03.48-.08.13-.1.18-.39.18-1.17v-.17c0-.1,0-.27-.02-.48.83.45.96.51,1.41.66v.31ZM209.12,75.7c.38.74.83,1.33,1.44,1.91.69-.58,1.04-.99,1.6-1.91h-3.04Z"/>
        <path d="M222.18,70.45c-.42.45-.79.78-1.37,1.21-.33-.45-.58-.69-.97-.96,1.14-.75,2-1.72,2.31-2.58l1.51.27q-.1.15-.25.41c-.07.13-.18.29-.31.46h4.23c.62,0,.95-.01,1.2-.06l.85.68c-.12.15-.15.19-.25.36-.54.78-.73,1.04-1.33,1.62-.43-.24-.81-.39-1.33-.55.46-.32.63-.46.96-.86h-2.22c.45,1.42,1.95,2.21,4.54,2.34-.3.51-.43.83-.58,1.41-.6-.1-.83-.15-1.32-.27-.01.42-.01.81-.01,1.23v2.67q.01,1.28.06,1.53c-.31-.03-.91-.04-1.53-.04h-.67c1.15.54,2.13.78,3.99.96-.36.42-.52.67-.9,1.32-2.13-.36-3.17-.72-4.7-1.65l.84-.63h-3.94l.88.63c-1.5.92-2.46,1.26-4.56,1.65-.33-.6-.45-.76-.88-1.27,1.9-.23,2.86-.48,3.84-1h-.58c-.68,0-1.19.01-1.53.04.03-.27.06-.86.06-1.44v-2.85c0-.66-.01-1.07-.06-1.47.29.01.83.03,1.47.03h.75c-.17-.36-.33-.6-.6-.93-.77.36-.98.45-2.08.9-.21.09-.36.15-.62.29l-.57-1.49c.96-.18,2.24-.64,3.53-1.29l.43,1.26-.51.25c1-.13,1.63-.28,2.17-.52.9-.41,1.33-.87,1.53-1.65h-1.46ZM219.12,70.91c-.83-.66-1.33-.97-2.28-1.41l.93-1.1c1.07.5,1.49.74,2.34,1.32l-.99,1.18ZM219.69,75.22h6.63v-.54h-6.63v.54ZM219.69,76.72h6.63v-.57h-6.63v.57ZM219.69,78.19h6.63v-.54h-6.63v.54ZM226.41,73.63h.5c-1.2-.43-1.89-.99-2.46-1.9-.38.62-.71.93-1.33,1.3-.45.27-.88.44-1.62.6h4.92Z"/>
        <path d="M237.32,76.9c-1.48.87-1.91,1.3-1.91,1.96,0,.27.11.45.33.58.33.2,1.07.3,2.01.3.81,0,1.93-.08,2.7-.18.32-.04.5-.09,1.09-.24h.08c.11,0,.18.08.23.18.09.32.15.77.15,1.31,0,.22-.08.31-.27.36-.36.08-2.03.17-3.12.17-1.83,0-2.8-.12-3.52-.42-.87-.36-1.31-1.04-1.31-1.98,0-.87.41-1.63,1.21-2.28.65-.51.79-.62,2.17-1.39-.12-.5-.34-.71-.81-.71-.62,0-1.26.24-1.96.71-.43.3-.95.72-1.26,1.03-.45.47-.5.5-.62.5-.15,0-.46-.34-.78-.87-.15-.25-.24-.45-.24-.55,0-.13.03-.17.39-.39,1.23-.83,2.25-1.88,2.87-2.96-1.07.08-1.62.09-2.21.09-.23,0-.27-.04-.34-.3-.05-.2-.12-.99-.14-1.39.51.07.81.09,1.53.09.58,0,1.23-.02,1.91-.04.31-.86.42-1.4.43-2.1,1.33.23,1.95.45,1.95.71,0,.06-.02.09-.06.18-.1.19-.22.43-.42.9q-.03.06-.04.11c.86-.12,1.61-.27,2.13-.39.33-.09.41-.1.48-.1.12,0,.18.04.21.13.06.27.15.96.15,1.17,0,.17-.06.24-.25.29-.48.13-2.13.39-3.51.52-.45.83-.76,1.31-1.23,1.82.67-.32,1.18-.43,1.78-.43.68,0,1.12.39,1.43,1.23,1.48-.81,2.28-1.25,2.37-1.3.69-.41.98-.63,1.31-1,.61.63,1.27,1.57,1.27,1.83,0,.09-.06.15-.25.2-.74.2-2.1.78-4.38,1.89.01.27.04.96.04,1.44v.72c0,.18-.03.27-.1.32-.08.08-.48.12-.93.12-.51,0-.6-.04-.6-.29v-.06c.03-.43.04-1,.04-1.36v-.08Z"/>
        <path d="M16.91,99.08c-.78,0-1.38.03-1.86.09v-1.58c.38.06.96.09,1.84.09h3.17v-1.17h-1.96c-.83,0-1.17.01-1.63.06v-1.56c.4.06.87.09,1.62.09h1.98v-.15c0-.54-.02-.81-.09-1.2h1.72c-.08.33-.09.63-.09,1.2v.15h1.11c.75,0,1.22-.03,1.64-.09v1.09c.79-.81,1.29-1.46,1.6-2.05l1.41.96c-.09.09-.11.1-.2.22-.83.93-1.71,1.82-2.49,2.45h1.54c.84,0,1.36-.03,1.74-.09v1.58c-.45-.06-1.04-.09-1.75-.09h-3.33c-.73.53-1.3.88-2.14,1.35v.08c2.49-.24,2.94-.29,4-.5.63-.12,1.08-.25,1.38-.39l1.02,1.33q-.13.03-.33.06c-.18.03-.57.11-1.12.21-1.16.23-3.77.51-5.37.6-.01.04-.09.24-.21.57h4.75c.9,0,1.12-.01,1.5-.06q0,.06-.03.2c-.01.08-.06.43-.09.67-.17,1.6-.32,2.34-.62,2.92-.34.66-.92.87-2.37.87-.42,0-1.29-.04-1.96-.11-.04-.64-.12-.97-.38-1.56,1.21.15,1.83.21,2.4.21.54,0,.75-.08.92-.32.17-.25.25-.64.36-1.45h-5.01c-.15.33-.22.49-.48.97l-1.62-.27c.55-1,.81-1.59,1.37-3.06-.96.46-1.25.58-3.24,1.38-.27-.57-.48-.92-.87-1.35,1.92-.55,4.09-1.46,5.71-2.37h-3.54ZM22.53,97.68c.54-.42.97-.78,1.37-1.14-.36-.03-.51-.03-1.04-.03h-1.26v1.17h.93Z"/>
        <path d="M35.3,101.63c.34-.1.6-.15.85-.15,1.04,0,1.51.61,1.71,2.16.1.89.15,1.05.36,1.23.18.18.46.24.99.24.71,0,1.05-.06,2.28-.39.04-.01.08-.01.1-.01.09,0,.14.03.2.13.11.24.23,1.04.23,1.47,0,.14-.03.2-.17.23-.41.1-1.83.22-2.7.22-1.3,0-2-.24-2.4-.85-.25-.41-.38-.86-.46-1.79-.1-1.16-.29-1.44-.88-1.44-.54,0-.96.27-1.84,1.16-.86.85-1.59,1.75-2.08,2.54-.09.15-.2.24-.29.24-.1,0-.21-.09-.67-.58-.45-.49-.62-.69-.62-.78,0-.11.03-.13.3-.38q.36-.3,5.94-6.24c-2.42.44-3.95.75-4.3.88-.17.06-.23.08-.3.08-.13,0-.17-.04-.25-.34-.15-.5-.22-.88-.29-1.49.32.02.42.02.53.02.66,0,2.5-.18,4.17-.42,1.26-.17,1.46-.21,1.79-.38.09-.04.18-.08.24-.08.38,0,1.23.97,1.23,1.41,0,.18-.06.25-.25.36-.23.09-.54.3-.81.53-.15.12-.6.54-.81.74l-1.77,1.69ZM33.51,94.13c.06-.18.1-.25.18-.24.08.01.12.01.15.03.61.21,1.18.35,1.83.47.93.18,1.06.19,2.67.27.18.01.2.06.2.42,0,.45-.06,1-.13,1.12-.04.09-.11.13-.18.13s-1.7-.18-1.94-.21c-1.08-.17-2.02-.39-2.86-.69-.14-.06-.18-.11-.18-.21,0-.14.11-.58.27-1.1Z"/>
        <path d="M51.99,99.06c2.12,0,3.62,1.44,3.62,3.48,0,1.39-.74,2.66-1.96,3.39-.86.51-1.91.77-3.09.77-1.91,0-3.02-.77-3.02-2.07,0-1.18.99-2.02,2.4-2.02,1.27,0,2.19.64,2.8,1.96.76-.56,1.08-1.14,1.08-1.95,0-1.29-.92-2.13-2.36-2.13s-3.04.73-4.35,2.04c-.24.24-.46.5-.73.84-.11.15-.18.21-.27.21-.27,0-1.33-1.05-1.33-1.32,0-.13.06-.21.39-.45.34-.27.84-.7,1.47-1.3,1.46-1.38,2.52-2.54,4.09-4.46-1.88.24-3.13.45-3.6.62-.08.02-.12.03-.17.03-.12,0-.2-.08-.29-.3-.18-.45-.27-.95-.32-1.61.41.06.69.08,1.02.08.72,0,1.93-.1,3.51-.29.55-.06.73-.1,1.15-.27.14-.06.21-.08.3-.08.21,0,.42.18.81.78.29.39.38.58.38.71,0,.19-.04.25-.38.46-.27.17-.43.3-.78.63-.75.72-.76.72-1.69,1.67-.66.67-.74.75-1.33,1.35.97-.54,1.74-.76,2.64-.76ZM50.55,104.25c-.23-.15-.48-.22-.77-.22-.46,0-.76.22-.76.58,0,.43.46.71,1.18.71.33,0,.62-.03.99-.14-.18-.5-.33-.72-.64-.93Z"/>
        <path d="M60.08,98.24c-.27.01-.43.03-.61.04-.14.01-.15.01-.17.01-.12,0-.18-.04-.23-.19-.08-.24-.18-1.04-.19-1.49.17.01.6.03,1.14.03.17,0,1.35-.08,1.88-.12.25-1.21.34-1.84.34-2.66,1.54.21,2.1.39,2.1.68,0,.1-.01.13-.24.48-.12.18-.17.34-.42,1.28.7-.12,1.12-.23,1.68-.41.1-.03.15-.04.22-.04.11,0,.13.08.23.51.07.38.12.69.12.85,0,.18-.04.21-.43.3-.51.12-1.38.27-2.31.39-.56,1.68-.93,2.58-1.62,3.99-.53,1.05-.83,1.6-1.23,2.23-.12.18-.19.24-.3.24-.15,0-.57-.22-1.09-.62-.24-.17-.3-.24-.3-.34s.06-.2.25-.46c.43-.54,1-1.47,1.5-2.46.42-.83.57-1.17,1-2.36-.58.04-.63.06-1.32.11ZM65.01,106.88c-1.64,0-2.75-.9-2.75-2.24s1.15-2.41,2.7-2.41c.36,0,.53.01,1.14.1-.06-.72-.06-1-.12-2.4,0-.29-.03-.68-.06-1.16.77.08,1.35.17,1.64.29.12.04.18.12.18.24,0,.08-.01.14-.03.24-.08.32-.09.54-.09.95,0,.55.04,1.5.09,2.23,1.07.48,1.5.72,2.25,1.31.33.25.45.39.45.51,0,.15-.08.29-.5.96-.18.3-.31.43-.42.43q-.09,0-.51-.39c-.33-.33-.71-.58-1.23-.9,0,1.4-1.02,2.24-2.74,2.24ZM64.98,103.67c-.72,0-1.21.34-1.21.87,0,.5.45.81,1.12.81.79,0,1.21-.4,1.21-1.2,0-.12,0-.24-.02-.24-.3-.15-.7-.24-1.11-.24ZM70.59,99.41c-.18.25-.27.33-.38.33-.08,0-.13-.03-.24-.13-.38-.36-.9-.75-1.46-1.1q-.36-.22-1.02-.52c-.21-.09-.29-.15-.29-.27,0-.1.08-.24.3-.58.36-.52.45-.61.58-.61.28,0,1.39.57,2.19,1.11.65.44.84.62.84.78,0,.12-.24.57-.54,1Z"/>
        <path d="M81.21,99.39c2.05,0,3.39,1.21,3.39,3.06s-1.12,3.01-3.37,3.73c-.81.26-2.15.5-2.75.5-.32,0-.39-.08-.6-.51-.16-.34-.34-.55-.79-.87,3.77-.3,5.62-1.26,5.62-2.89,0-.92-.64-1.46-1.72-1.46-1.37,0-2.78.71-3.93,1.95-.21.21-.41.46-.54.69-.13.23-.23.3-.36.3-.22,0-.75-.22-1.11-.49-.18-.14-.24-.24-.24-.48q0-.12.04-.48s0-.15.01-.32c.08-.96.12-1.37.3-2.71q.03-.17.14-.87s.04-.33.12-.88c.01-.13.03-.25.03-.5.72.11,1.4.27,1.68.43.12.06.18.14.17.23,0,.06-.03.1-.07.2-.17.25-.21.39-.35.96-.13.57-.34,1.89-.38,2.38,1.53-1.41,2.87-1.96,4.71-1.96ZM80.94,95.12c.58.34.76.51.76.67,0,.14-.24.58-.5.96-.24.35-.33.42-.45.42-.07,0-.12-.03-.3-.17-1-.76-1.8-1.2-2.92-1.59-.22-.09-.27-.12-.27-.24,0-.15.12-.41.39-.79.24-.36.34-.45.51-.45.36,0,1.83.63,2.78,1.18Z"/>
        <path d="M87.6,103.23c.27-.24.34-.3.45-.3.19,0,1.09.66,1.75,1.29.75.69,1.59,1.7,1.59,1.91,0,.13-.03.17-.46.55-.57.53-.69.62-.79.62-.09,0-.18-.06-.25-.21-.53-.93-1.73-2.16-2.79-2.85-.12-.09-.18-.15-.18-.24,0-.11.03-.15.69-.76Z"/>
        <path d="M108.81,104.13c1.23,0,2.59-.18,3.94-.52.08-.03.12-.03.17-.03.09,0,.13.06.17.2.04.33.08.81.08,1.3,0,.3-.03.39-.17.45-.45.24-2.47.46-4.21.46-2.26,0-3.55-.38-4.59-1.35-.5-.46-.99-1.27-.99-1.6,0-.22.13-.32,1.37-1.02.54,1.49,1.79,2.12,4.25,2.12ZM108.95,95.51c.87,0,1.38-.03,2.4-.18h.11c.12,0,.17.04.2.13.03.18.06.63.06,1.17,0,.35-.03.47-.12.53-.12.08-1.42.17-2.43.17-1.33,0-2.45-.11-3.69-.34-.85-.17-.9-.21-.9-.74,0-.34.03-.92.08-1.33,1.3.41,2.73.6,4.3.6Z"/>
        <path d="M120.9,97.89c.97-.25,1.62-.35,2.33-.35,2.13,0,3.36,1.26,3.36,3.42,0,1.88-.81,3.39-2.45,4.59-.87.65-2.19,1.29-2.62,1.29-.2,0-.24-.04-.56-.5-.22-.34-.45-.55-.82-.82,1.72-.58,2.44-.96,3.22-1.64.9-.79,1.35-1.75,1.35-2.89,0-1.21-.57-1.91-1.58-1.91-.81,0-1.86.32-3.22.98-.2.09-.3.17-.55.34-.06.03-.12.06-.18.06-.29,0-.77-.84-1.1-1.96.56-.04.84-.12,2.82-.61ZM121.91,94.23c.54.17,1.35.32,2.08.41.3.03.41.04,1.17.07.22,0,.29.06.29.23,0,.5-.11,1.3-.2,1.46-.03.09-.1.12-.21.12-.34,0-1.56-.17-2.26-.32-1.19-.24-2.22-.54-2.43-.71-.05-.04-.08-.1-.08-.17,0-.12.31-.93.46-1.21.08-.12.12-.15.21-.15q.08,0,.96.27Z"/>
        <path d="M135.56,94.46c.38.11.48.18.48.35,0,.1-.01.15-.09.36-.17.44-.29,1.2-.34,2.25-.12,2.42-.18,4.29-.18,5.78,0,.48.04.84.12,1.08.17.5.69.75,1.53.75,1.35,0,2.62-.55,3.79-1.65.54-.51.87-.92,1.42-1.74.09.48.21.79.54,1.47.04.12.08.21.08.35,0,.27-.29.63-1.04,1.3-1.49,1.33-3.13,2.02-4.86,2.02-1.14,0-1.98-.28-2.52-.82-.57-.6-.79-1.38-.79-2.87,0-1.17.01-2.07.13-5.56.02-.53.03-.84.03-.98,0-1.27-.01-1.65-.11-2.29.77.03,1.35.09,1.8.21Z"/>
        <path d="M146.19,98.61h-.09c-.08.01-.14.01-.17.01-.13,0-.21-.06-.25-.25-.09-.38-.15-.84-.18-1.41.21.02.38.02.48.02.81,0,1.75-.06,2.55-.17.15-.99.22-1.75.22-2.37v-.34c1.74.22,2.07.33,2.06.6,0,.08-.03.12-.09.25-.18.34-.19.39-.43,1.58.58-.11,1.33-.3,1.63-.41.06-.03.08-.03.12-.03.13,0,.17.06.29.58.06.3.12.72.12.84,0,.1-.04.17-.18.19q-.27.09-2.32.45c-.69,3.04-1.41,5.29-2.57,8-.08.19-.15.27-.24.27-.2,0-.72-.21-1.23-.5-.25-.13-.33-.21-.33-.29,0-.06.04-.16.12-.31,1.14-2.16,1.96-4.46,2.54-6.93-.66.09-1.12.13-2.04.21ZM152.6,104.31c.44.29,1.07.42,1.95.42.97,0,1.82-.09,2.29-.24.12-.03.15-.04.21-.04.13,0,.2.04.24.18.1.32.18.93.18,1.39,0,.2-.06.27-.25.32-.5.11-1.33.17-2.22.17-1.88,0-2.92-.3-3.62-1.02-.25-.27-.46-.62-.58-.99-.09-.21-.15-.46-.15-.56,0-.25.45-.52,1.23-.78.17.63.34.9.72,1.15ZM156.81,99.95c-.3-.04-.93-.08-1.46-.08-1.11,0-1.57.04-2.89.27-.03.01-.08.01-.1.01-.09,0-.14-.03-.17-.12-.04-.1-.11-.84-.11-1.16,0-.19.03-.28.15-.33.06-.03.15-.04.46-.1,1.02-.18,1.88-.25,2.92-.25.87,0,1.32.03,1.42.1.08.06.09.18.09.68,0,.43-.03.82-.06.91-.02.05-.08.08-.15.08-.03,0-.08,0-.12-.01Z"/>
        <path d="M166.94,93.9c.62.96,1.33,1.71,2.45,2.57,1.11.84,2.31,1.51,3.63,2.05-.33.46-.54.88-.79,1.59-1.23-.55-2.54-1.35-3.54-2.17-1.14-.92-1.74-1.53-2.54-2.58-.78,1.06-1.33,1.63-2.37,2.52-1.11.95-2.29,1.73-3.58,2.36-.25-.66-.42-.98-.81-1.53,1.25-.54,2.45-1.27,3.54-2.19,1-.81,1.74-1.64,2.36-2.61h1.66ZM167.25,105.06h3.58c.79,0,1.37-.03,1.81-.09v1.71c-.46-.06-1.05-.09-1.81-.09h-9.36c-.81,0-1.4.03-1.86.09v-1.71c.39.06.93.09,1.71.09h.64v-3.45c0-.67-.01-1.12-.07-1.65h1.75c-.06.44-.09.93-.09,1.65v3.45h2.08v-5.86c0-.72-.02-1.11-.09-1.61h1.79c-.06.44-.09.84-.09,1.56v1.42h2.38c.67,0,1.17-.03,1.58-.08v1.68c-.45-.06-.88-.07-1.56-.07h-2.4v2.95Z"/>
        <path d="M176.1,99.54c-.68,0-.99.02-1.47.06v-1.37c.41.04.77.06,1.47.06h1.75c-.24-.54-.38-.79-.54-1.08h-1.54c-.69,0-1.26.03-1.71.08v-1.44c.45.06.9.09,1.63.09h.46c-.27-.5-.45-.74-.97-1.33l1.44-.54c.48.66.67.99,1.11,1.88h.81v-1c0-.44-.03-.84-.08-1.12h1.56c-.03.27-.04.58-.04,1.06v1.07h1.06v-1.07c0-.45-.01-.76-.06-1.06h1.57c-.04.27-.07.67-.07,1.12v1h.9c.5-.69.78-1.21,1.04-1.91l1.47.54c-.31.54-.58.96-.88,1.37h.41c.75,0,1.2-.03,1.63-.09v1.44c-.45-.04-1.02-.08-1.71-.08h-1.46c-.24.54-.34.77-.52,1.08h1.66c.71,0,1.07-.01,1.49-.06v1.37c-.46-.04-.79-.06-1.49-.06h-3.76v.69h3.03c.63,0,1.08-.02,1.47-.06v1.26c-.38-.04-.84-.06-1.47-.06h-3.03v.72h4.04c.81,0,1.32-.03,1.72-.09v1.44c-.52-.06-1.05-.09-1.71-.09h-2.89c.48.42,1.14.8,1.95,1.16.92.38,1.69.6,3,.83-.4.54-.58.85-.82,1.47-2.42-.66-4.05-1.53-5.33-2.87.03.51.03.69.03,1.02v.72c0,.62.03,1.05.09,1.46h-1.7c.06-.42.09-.88.09-1.47v-.69c0-.33,0-.45.03-.99-.66.7-1.18,1.11-2.07,1.59-.92.51-1.82.88-2.94,1.21-.21-.5-.5-.93-.87-1.4,2.08-.43,3.54-1.06,4.71-2.04h-2.67c-.71,0-1.21.03-1.75.09v-1.44c.45.06.95.09,1.74.09h3.81v-.72h-2.85c-.63,0-1.09.01-1.47.06v-1.26c.39.04.82.06,1.47.06h2.85v-.69h-3.61ZM181.76,98.3c.21-.39.34-.69.48-1.08h-3.29c.2.42.3.69.43,1.08h2.37Z"/>
        <path d="M194.28,103.41c-.72,1.25-1.71,1.93-2.73,1.93-1.56,0-2.67-1.53-2.67-3.66,0-2.37,1.2-4.41,3.25-5.49,1-.54,2.08-.78,3.51-.78,3.14,0,5.46,2.22,5.46,5.19,0,2.62-1.29,4.51-3.78,5.58-.5.21-.89.33-1.08.33-.18,0-.25-.06-.45-.34-.25-.39-.54-.67-.95-.95,3.09-.79,4.49-2.25,4.49-4.68,0-1.25-.53-2.29-1.46-2.96-.53-.36-.95-.51-1.77-.64-.42,3.17-.92,4.89-1.83,6.46ZM192.12,98.1c-1,.88-1.58,2.14-1.58,3.55,0,1.16.38,1.83,1,1.83.75,0,1.52-1.04,2.08-2.82.36-1.12.54-1.98.77-3.64-1.07.22-1.59.48-2.28,1.08Z"/>
        <path d="M212.36,99.36h2.13c.68,0,1.1-.03,1.54-.09v1.63c-.48-.04-.93-.08-1.56-.08h-1.62c.86,1.5,2.1,2.75,3.58,3.58-.48.48-.69.78-.99,1.5-.61-.43-1.05-.86-1.62-1.5-.74-.85-1.05-1.32-1.53-2.22.03.54.04,1,.04,1.44v1.82c0,.67.03,1.2.09,1.67h-1.67c.06-.46.09-1,.09-1.68v-1.71c0-.4.02-.88.04-1.48-.91,1.65-1.93,2.76-3.39,3.73-.38-.71-.58-1-.9-1.36,1.54-.89,2.8-2.17,3.67-3.78h-.95c-.64,0-1.11.03-1.58.09v-.6c-.25.36-.43.69-.61,1.21-.38-.58-.6-1.05-.89-1.8.03.46.06,1.27.06,1.91v3.69c0,.76.03,1.32.09,1.77h-1.67c.06-.46.09-1.02.09-1.77v-3.1c0-.57.02-.93.11-1.86-.44,1.46-.87,2.43-1.52,3.41-.18-.68-.37-1.11-.67-1.61.72-.92,1.47-2.61,1.92-4.35h-.57c-.44,0-.69.01-.96.06v-1.53c.24.04.51.06.96.06h.72v-1.16c0-.76-.01-1.14-.08-1.5h1.65c-.06.39-.08.8-.08,1.5v1.16h.43c.36,0,.54-.01.78-.06v1.42c.57-1.02,1.05-2.52,1.09-3.5l1.46.38c-.06.17-.1.34-.21.79-.08.27-.1.41-.18.69h1.15v-.99c0-.62-.03-.99-.09-1.37h1.68c-.06.36-.09.77-.09,1.37v.99h1.7c.72,0,1.14-.03,1.54-.09v1.58c-.42-.04-.9-.08-1.54-.08h-1.7v1.82ZM209.22,97.55c-.25.62-.39.9-.81,1.61q-.36-.38-1.17-.95c.12-.17.17-.24.24-.34-.2-.03-.44-.04-.71-.04h-.38c.34.79.71,1.39,1.36,2.28v-.82c.45.06.87.09,1.56.09h1.53v-1.82h-1.63Z"/>
        <path d="M223.2,103.41c-.72,1.25-1.71,1.93-2.73,1.93-1.56,0-2.67-1.53-2.67-3.66,0-2.37,1.2-4.41,3.25-5.49,1-.54,2.08-.78,3.51-.78,3.14,0,5.46,2.22,5.46,5.19,0,2.62-1.29,4.51-3.78,5.58-.5.21-.89.33-1.08.33-.18,0-.25-.06-.45-.34-.25-.39-.54-.67-.95-.95,3.09-.79,4.49-2.25,4.49-4.68,0-1.25-.53-2.29-1.46-2.96-.53-.36-.95-.51-1.77-.64-.42,3.17-.92,4.89-1.83,6.46ZM221.04,98.1c-1,.88-1.58,2.14-1.58,3.55,0,1.16.38,1.83,1,1.83.75,0,1.52-1.04,2.08-2.82.36-1.12.54-1.98.77-3.64-1.07.22-1.59.48-2.28,1.08Z"/>
        <path d="M233.46,101.31c0-.69,0-1,.03-1.62-.45.73-.66,1.02-1.29,1.69-.17-.63-.2-.72-.65-1.72.89-.92,1.62-2.01,2.25-3.3.51-1.08.83-2,.95-2.73l1.63.48q-.1.29-.45,1.2c-.24.67-.34.92-.88,2.04v7.99c0,.6.03,1.1.08,1.67h-1.75c.06-.57.09-1,.09-1.68v-4.02ZM239.3,95.46c0-.67-.03-1.11-.09-1.53h1.81c-.08.45-.09.83-.09,1.56v2.55h2.47c.69,0,1.19-.03,1.65-.09v1.72c-.55-.06-1.11-.09-1.63-.09h-2.49v5.38h2.13c.63,0,1.12-.03,1.61-.09v1.65c-.44-.06-1.02-.09-1.64-.09h-5.46c-.62,0-1.2.03-1.64.09v-1.65c.47.06,1,.09,1.62.09h1.74v-5.38h-2.01c-.53,0-1.08.03-1.63.09v-1.72c.48.06.99.09,1.68.09h1.96v-2.58Z"/>
        <path d="M16.85,127.51c-.21,2.22-.34,2.96-.76,4.25l-1.26-.58c.45-1.11.68-2.22.77-3.86l1.26.2ZM16.35,125.4q.36-.46.65-.87c-.71-.93-1.43-1.73-2.08-2.28l.73-1.3c.3.29.36.34.63.63.5-.78,1.02-1.86,1.14-2.37l1.47.53c-.11.17-.15.24-.27.46-.71,1.3-.76,1.38-1.42,2.37.25.28.38.42.63.75.78-1.19,1.26-2.04,1.5-2.66l1.3.72c-.12.15-.21.29-.39.58-.83,1.29-1.72,2.59-2.35,3.38.67-.04.69-.04,1.6-.13-.18-.42-.25-.58-.5-1.04l1.1-.5c.61,1.17.91,1.92,1.2,2.92l-1.17.54c-.09-.34-.12-.46-.19-.73-.33.03-.72.07-1.17.12v4.52c0,.75.01,1.09.09,1.54h-1.65c.08-.47.09-.84.09-1.54v-4.38c-1.8.12-1.86.13-2.08.18l-.18-1.49c.21.03.46.04.86.04h.48ZM20.22,127.33c.24.88.34,1.5.5,2.76l-1.19.24c-.1-1.21-.19-1.89-.4-2.73l1.09-.27ZM27.36,130.62c.34,0,.63-.03.88-.08v1.62c-.41-.06-.96-.09-1.49-.09h-5.34c-.56,0-1.07.03-1.47.09v-1.62c.3.04.6.08,1,.08h.42v-9.32c0-.55-.01-1-.06-1.47.42.03.84.04,1.44.04h3.03c.72,0,1.08-.01,1.5-.06-.03.46-.04.85-.04,1.59v9.21h.12ZM22.88,123.36h2.9v-2.03h-2.9v2.03ZM22.88,126.88h2.9v-2.1h-2.9v2.1ZM22.88,130.62h2.9v-2.31h-2.9v2.31Z"/>
        <path d="M35.22,126.67c-.54,1-1.16,2-1.71,2.8-.62.88-1.32,1.33-2.05,1.33-1.08,0-1.82-.88-1.82-2.21,0-1.14.57-2.11,1.63-2.74.71-.41,1.77-.69,2.62-.69h.15c.76-1.56.96-1.98,1.47-3.15-1.38.06-2.22.18-2.83.39-.03.01-.08.01-.11.01-.25,0-.49-.78-.57-1.9.33.06.64.09,1.05.09.51,0,1.38-.04,2.29-.13q.85-.08,1.05-.2c.12-.06.2-.09.27-.09.19,0,.49.24.82.64.24.32.39.57.39.67,0,.12-.06.23-.24.41-.22.24-.92,1.53-1.79,3.36,1.42.28,1.96.45,3,.9.08-.52.13-1.14.13-1.56,0-.2-.01-.42-.04-.67.65.09,1.19.19,1.62.3.27.08.36.15.36.27,0,.11-.03.21-.12.39-.13.28-.18.48-.29,1.09-.04.31-.09.52-.18.96.76.48,1.42.94,1.72,1.23.08.08.12.15.12.23,0,.42-.65,1.39-.92,1.39-.08,0-.15-.04-.27-.13-.4-.36-.9-.78-1.2-1-.51,1.08-1.04,1.77-1.86,2.47-.71.58-1.68,1.12-2.04,1.12-.12,0-.25-.06-.36-.15-.04-.04-.04-.06-.24-.33-.23-.35-.42-.51-.78-.68,1.2-.42,1.79-.72,2.43-1.27.65-.57,1.14-1.26,1.47-2.07-1.02-.55-2.03-.9-3.21-1.09ZM31.17,128.47c0,.36.13.58.38.58.33,0,.92-.73,1.86-2.35-1.42.15-2.23.79-2.23,1.77Z"/>
        <path d="M48.02,124.05c-1.07-.21-1.88-.52-2.43-.92-.27-.18-.33-.25-.33-.39,0-.17.12-.46.54-1.3.73.46,1.56.79,2.5.99.21-1.05.3-1.92.31-2.89.77.13,1.44.36,1.82.57.17.09.22.18.21.3,0,.06-.03.12-.11.27-.22.46-.24.51-.55,1.98.15.01.34.01.46.01h.11c.36-.01.63-.01.76-.01h.04c.13,0,.18.06.18.25,0,.66-.04,1.2-.1,1.3-.04.08-.24.11-.87.11-.29,0-.51-.02-.93-.03q-.32,1.54-.45,2.35c.51.04.62.04.87.04h.84c.15-.01.22.02.27.09.06.09.11.57.11,1.11,0,.27-.02.34-.11.39-.07.03-.4.05-.97.05-.27,0-.67-.02-1.2-.05-.01.27-.01.45-.01.57,0,1.38.64,2.01,2.05,2.01,1.58,0,2.52-.76,2.52-2.05,0-.46-.1-.88-.34-1.35-.3-.57-.58-.9-1.3-1.47h.13c.24,0,.75-.07,1.2-.16.24-.05.33-.06.41-.06.22,0,.38.11.67.48.69.84,1.04,1.72,1.04,2.65,0,2.12-1.71,3.51-4.31,3.51-2.43,0-3.64-1.21-3.64-3.67,0-.21,0-.38.03-.63-1.49-.31-2.29-1.05-2.29-2.12,0-.55.17-.96.58-1.38.04-.06.1-.07.17-.07.09,0,.19.07.54.36.27.23.31.27.31.35q0,.06-.09.19c-.06.11-.12.27-.12.36,0,.19.12.36.35.46.21.1.27.12.75.22l.39-2.43Z"/>
        <path d="M60.65,122.55c-.42.83-.69,1.25-1.26,1.95-.36-.45-.69-.74-1.23-1.08.92-.99,1.44-1.95,1.85-3.38.1-.38.16-.64.18-.9l1.62.33c-.08.16-.14.31-.25.75-.08.29-.17.53-.3.9h2.17c.68,0,1.04-.01,1.43-.08v1.56c-.44-.04-.89-.06-1.43-.06h-.54v.98c-.02.4-.03.7-.08,1.27h.85c.65,0,.96-.01,1.37-.08v1.59c-.39-.06-.76-.07-1.4-.07h-.97c-.03.21-.04.27-.09.49.34.58.45.75.75,1.12.57.74,1,1.16,1.89,1.83-.38.46-.61.88-.9,1.56-1.04-.95-1.75-1.83-2.22-2.71-.55,1.45-1.23,2.34-2.77,3.63-.33-.57-.62-.87-1.2-1.29,1.14-.71,1.89-1.53,2.42-2.61.27-.57.46-1.2.6-2.02h-1.11c-.78,0-1.16.01-1.58.09v-1.62c.42.08.76.09,1.61.09h1.23q.04-.67.08-2.25h-.71ZM66.9,132.1h-1.62c.06-.45.09-1.08.09-1.65v-8.49c0-.6-.03-1.02-.08-1.53.41.06.71.07,1.32.07h3.04c.57,0,.92-.01,1.32-.07-.04.46-.06.85-.06,1.53v8.34c0,.66.03,1.26.09,1.8h-1.63v-.97h-2.47v.97ZM66.92,129.69h2.46v-7.74h-2.46v7.74Z"/>
        <path d="M76.38,124.84c1.89-.52,3.25-.76,4.27-.76,2.12,0,3.42,1.16,3.42,3.03,0,1.12-.46,2.12-1.35,2.87-.58.5-1.46.92-2.61,1.26-.64.18-1.33.32-1.63.32-.18,0-.27-.04-.33-.2-.21-.52-.45-.9-.76-1.21,3.3-.34,4.98-1.39,4.98-3.1,0-.87-.72-1.54-1.65-1.54-1.62,0-3.39.54-5.25,1.57-.15.08-.24.12-.3.12-.25,0-.67-.75-1.02-1.83.74-.1.99-.17,2.24-.51Z"/>
        <path d="M89.85,123.42c-.39.09-.53.13-1.07.33-.19.08-.3.1-.39.1-.33,0-.63-.61-.9-1.9.96-.04,1.31-.09,2.97-.34,1.8-.27,4.08-.62,5.28-.77,1.35-.18,2.43-.36,3-.48.1-.03.15-.03.22-.03.2,0,.27.09.41.46.12.32.21.76.21.97,0,.18-.06.24-.27.24-.32,0-.6.03-.89.08-2.53.42-4.56,2.64-4.56,4.98,0,1.75,1.38,2.91,3.72,3.12.21.01.29.09.29.27,0,.38-.15,1.09-.29,1.42-.08.17-.19.24-.39.24s-.65-.09-1.11-.22c-2.55-.75-3.88-2.37-3.88-4.67,0-1.25.41-2.4,1.19-3.39.42-.54.78-.84,1.63-1.42-1.96.33-4.04.72-5.17,1Z"/>
        <path d="M105.14,124.36c-1.19.12-1.49.13-2.16.13-.46,0-.54-.2-.65-1.53h.58c.74,0,1.4-.04,2.22-.13v-.32c0-.97-.06-1.74-.21-2.55,1.14.06,1.59.12,1.9.21.15.04.21.12.21.27,0,.09-.01.15-.09.3-.13.29-.21.83-.22,1.84.5-.09,1.29-.29,1.89-.46.04-.01.08-.01.1-.01.12,0,.2.06.23.17.08.3.17.9.17,1.12,0,.12-.08.22-.2.27-.18.08-1.27.3-2.23.46v1.94c1.48-.5,2.64-.74,3.63-.74,1.92,0,3.16,1.23,3.16,3.13,0,1.23-.49,2.22-1.38,2.75-.46.27-1.12.43-1.84.43s-1.37-.06-1.53-.17c-.16-.09-.18-.13-.21-.49-.03-.42-.12-.78-.3-1.22.62.23,1.12.32,1.71.32,1.17,0,1.83-.6,1.83-1.67s-.63-1.67-1.63-1.67c-.95,0-2.15.3-3.43.86q0,.06.01.64.01.99.01,1.2c.02.27.02.54.02.67,0,1.21-.46,1.8-1.46,1.8s-1.94-.51-2.54-1.29c-.24-.33-.36-.67-.36-1.08,0-.97.87-1.86,2.76-2.83v-2.37ZM105.14,128.38c-.87.53-1.23.87-1.23,1.18,0,.35.5.72.95.72.21,0,.29-.14.29-.48v-1.42ZM113.51,124.98c-.76-.81-1.81-1.48-2.8-1.8-.12-.04-.18-.1-.18-.18,0-.09.15-.33.57-.9.17-.22.18-.24.33-.24.15.01.72.21,1.11.39.94.43,2.17,1.37,2.17,1.65,0,.27-.75,1.21-.98,1.21-.07,0-.13-.03-.22-.14Z"/>
        <path d="M125.4,120.78c0,.13-.06.18-.32.33-.1.06-.24.18-.38.34-.93,1.08-2.26,2.54-3.45,3.73-.25.26-.36.45-.36.63,0,.16.12.34.41.6.88.81,2.32,2.28,3.39,3.5.75.84.94,1.11.94,1.26,0,.17-.25.42-.87.9-.29.23-.47.33-.56.33-.13,0-.19-.06-.34-.3-.64-1.02-2.22-2.92-3.42-4.14-.67-.67-.81-.83-1.02-1.12-.25-.36-.36-.66-.36-1,0-.3.09-.62.27-.92q.17-.27,1.08-1.25c.87-.9,1.8-2.04,2.38-2.88.39-.55.58-.92.78-1.42,1.17.64,1.82,1.14,1.82,1.41Z"/>
        <path d="M135.14,124.32c-.19-.66-.25-1.07-.43-2.91-.06-.72-.12-1.08-.27-1.59.91.01,1.5.06,1.9.17.23.06.33.17.33.33,0,.06-.01.13-.04.25-.1.36-.15.63-.15,1.02,0,.74.15,1.94.32,2.46.09.29.18.39.34.39.36,0,1.68-.69,2.4-1.24.19-.15.22-.17.3-.17.13,0,.27.1.5.39.38.51.67,1.07.67,1.28,0,.17-.11.27-.36.34-.93.25-2.46.85-3.49,1.35-1.83.9-2.66,1.73-2.66,2.66s.76,1.29,2.7,1.29c1.12,0,2.14-.11,3.52-.33.06-.02.17-.03.2-.03.12,0,.19.06.25.18.04.15.15,1.07.15,1.43,0,.21-.06.28-.26.34-.33.08-2.14.18-3.28.18-1.92,0-3.2-.25-3.99-.79-.67-.46-1.04-1.2-1.04-2.1,0-.69.2-1.31.6-1.91.52-.78,1.09-1.27,2.35-2.02-.31-.29-.43-.5-.57-.96Z"/>
        <path d="M146.06,122.47c0-.43-.02-1.02-.04-1.35.69.08,1.2.18,1.6.33.36.13.48.22.48.39q0,.09-.06.24c-.2.51-.25,1.08-.25,2.45,0,1.92.12,3.12.42,4.03.22.71.57,1.11.97,1.11.62,0,1.12-.72,1.68-2.38.28.76.39.99.81,1.53.08.11.12.21.12.32,0,.24-.22.75-.53,1.18-.58.86-1.33,1.32-2.13,1.32-1.15,0-2.02-.93-2.56-2.78-.34-1.2-.51-2.71-.51-4.81v-1.58ZM154.98,122.71c.09,0,.17.04.29.15.75.72,1.53,1.92,2.03,3.09.33.79.64,1.86.64,2.17,0,.15-.08.22-.39.39-.34.18-1.05.42-1.23.42-.13,0-.19-.08-.24-.34-.2-1.16-.46-2-.93-2.97-.42-.87-.45-.92-1.47-2.17.63-.46,1.12-.74,1.3-.74Z"/>
        <path d="M160.52,122.47c0-.43-.02-1.02-.04-1.35.69.08,1.2.18,1.6.33.36.13.48.22.48.39q0,.09-.06.24c-.2.51-.25,1.08-.25,2.45,0,1.92.12,3.12.42,4.03.22.71.57,1.11.97,1.11.62,0,1.12-.72,1.68-2.38.28.76.39.99.81,1.53.08.11.12.21.12.32,0,.24-.22.75-.53,1.18-.58.86-1.33,1.32-2.13,1.32-1.15,0-2.02-.93-2.56-2.78-.34-1.2-.51-2.71-.51-4.81v-1.58ZM169.44,122.71c.09,0,.17.04.29.15.75.72,1.53,1.92,2.03,3.09.33.79.64,1.86.64,2.17,0,.15-.08.22-.39.39-.34.18-1.05.42-1.23.42-.13,0-.19-.08-.24-.34-.2-1.16-.46-2-.93-2.97-.42-.87-.45-.92-1.47-2.17.63-.46,1.12-.74,1.3-.74Z"/>
        <path d="M177.06,130q0-1.63.01-2.34c-.75.82-1.26,1.48-1.51,1.95-.08.15-.18.24-.27.24-.15,0-.51-.31-.99-.85-.19-.24-.28-.38-.28-.44q0-.1.76-.85c.64-.65,1.51-1.67,2.33-2.75,0-.09,0-.43.01-1.04-.74.13-1.68.39-1.93.53-.15.08-.18.09-.25.09-.26,0-.47-.58-.66-1.75.79-.01,1.79-.12,2.88-.3,0-.54.01-1.31.01-1.73,0-.45-.03-.81-.09-1.11.95.06,1.41.12,1.83.22.22.06.31.15.31.32,0,.08-.03.15-.09.3-.15.3-.17.41-.29,1.59.36.22.71.6.71.79q0,.13-.46.71c-.04.06-.18.25-.41.54q-.01.48-.01.58c1.47-1.25,2.71-1.77,4.18-1.77,2.34,0,3.81,1.48,3.81,3.87,0,1.83-.84,3.2-2.57,4.12-.66.38-1.79.78-2.12.78-.09,0-.19-.03-.24-.09t-.23-.3c-.25-.36-.54-.64-.84-.85,2.99-.81,4.17-1.86,4.17-3.71,0-1.44-.85-2.37-2.21-2.37-.88,0-1.69.29-2.65.92q-.48.32-1.33,1.04.01.12.01.32c0,1.6,0,1.74.09,4.89.02.17.02.29.02.31,0,.29-.21.35-1.31.35-.39,0-.42-.04-.42-.47l.02-1.74Z"/>
        <path d="M191.22,123.9c-1.06.18-1.3.22-1.56.3-.15.04-.27.06-.36.06-.27,0-.4-.48-.46-1.65.87,0,1.35-.04,2.42-.24,0-.48.01-1.04.01-1.23,0-.58-.03-1.09-.09-1.47,1.58.08,2.04.18,2.04.46q0,.08-.13.39t-.2,1.62c.48.38.74.68.72.87,0,.04-.03.08-.09.14-.22.19-.25.22-.52.61q-.06.08-.15.2l-.06.09c0,.23,0,.25-.02.54.45-.51.87-.93,1.28-1.26,1.32-1.08,2.31-1.53,3.39-1.53s1.77.44,2.29,1.33c.45.78.69,1.88.69,3.17,0,.78-.06,1.38-.23,2.5.72.51,1.5,1.3,1.5,1.51,0,.24-.84,1.08-1.09,1.08-.11,0-.12-.01-.32-.31-.12-.17-.28-.36-.61-.72-.21.39-.33.56-.54.75-.56.51-1.3.78-2.19.78-1.56,0-2.56-.79-2.56-2,0-1.27,1.04-2.23,2.4-2.23.78,0,1.35.1,1.86.33.06-.56.08-.83.08-1.31,0-2.37-.45-3.3-1.59-3.3-.81,0-1.89.57-3.03,1.59-.41.38-.72.69-1.37,1.4v.87c0,1.99.04,4,.11,4.53v.06c0,.27-.21.34-.93.34-.66,0-.79-.06-.79-.34v-.12c.03-.44.04-.96.04-1.62q0-.99.01-2.17s-.03.04-.06.08c-.33.4-.87,1.14-1.22,1.63-.17.24-.25.31-.36.31-.15,0-.42-.27-.88-.87-.18-.23-.29-.42-.29-.5s.08-.17.45-.5c.27-.25,1.29-1.5,1.81-2.19.27-.38.46-.64.58-.84v-1.15ZM196.97,129.04c-.69,0-1.11.29-1.11.75s.32.69.89.69c.5,0,.9-.15,1.17-.45.13-.14.34-.51.34-.57v-.02c-.51-.31-.81-.4-1.29-.4Z"/>
        <path d="M207.68,130.24c0,1.41-1.14,2.55-2.54,2.55s-2.53-1.14-2.53-2.55,1.14-2.54,2.53-2.54,2.54,1.14,2.54,2.54ZM203.78,130.24c0,.76.62,1.38,1.36,1.38s1.37-.62,1.37-1.38-.62-1.37-1.37-1.37-1.36.62-1.36,1.37Z"/>
      </g>
      <g>
        <g>
          <path class="cls-4" d="M317.18,150.8l2.44-1.25,1.46-4.73.45-7.2-1.46-6.87-4.68-6.99-5.39-2.36-6.79-.22-6.1,3.81-4.7,6.93-3.53,4.99-1.3,4.93,1.86,3.93,6.11,3.68c3.93,2.14,16.2,3.55,21.64,1.34Z"/>
          <path class="cls-7" d="M288.35,138.47c4.13.27,6.52,4.64,4.99,9.32-4.03-2.19-6.28-4.42-4.99-9.32Z"/>
          <path class="cls-1" d="M323.18,127.57c1.96.16,1.33,2.31.37,3.56-.2.26-.59.3-.84.08-1.7-1.45-1.1-3.77.47-3.64Z"/>
          <path class="cls-1" d="M323.07,128.41c-.33,0-.6-.27-.6-.6v-3.87l-.98-1.36c-.19-.27-.13-.64.14-.83.27-.19.64-.13.83.14l1.09,1.52c.07.1.11.22.11.35v4.07c0,.33-.27.6-.6.6Z"/>
          <ellipse class="cls-1" cx="299.34" cy="137.38" rx="1.67" ry="1.55" transform="translate(117.07 411.71) rotate(-81.05)"/>
          <ellipse class="cls-1" cx="308.84" cy="139.05" rx="1.55" ry="1.67" transform="translate(-6.63 15.79) rotate(-2.9)"/>
          <path class="cls-1" d="M298.49,136.83c-.06,0-.13-.02-.19-.06-.7-.55-1.05-1.12-1.32-2.09-.04-.16.05-.32.21-.37.16-.04.32.05.37.21.26.96.59,1.37,1.11,1.78.13.1.15.29.05.42-.06.07-.15.11-.23.11Z"/>
          <path class="cls-1" d="M298.32,137.37c-.74,0-1.53-.42-2.16-1.16-.11-.13-.09-.31.03-.42.13-.11.31-.09.42.03.55.65,1.26,1.01,1.85.95.16-.02.31.1.33.26.02.16-.1.31-.26.33-.07,0-.14.01-.21.01Z"/>
          <path class="cls-1" d="M309.93,138.62c-.15,0-.27-.11-.3-.26-.02-.16.09-.31.26-.34.49-.07,1.22-.49,1.67-1.25.08-.14.27-.19.41-.1.14.08.19.27.1.41-.48.82-1.33,1.44-2.11,1.54-.01,0-.03,0-.04,0Z"/>
          <path class="cls-1" d="M310.91,139.76c-.34,0-.7-.06-1.04-.22-.15-.07-.22-.25-.15-.4.07-.15.25-.22.4-.15.77.35,1.64.08,2.24-.22.15-.07.33-.01.4.14.07.15.01.33-.14.4-.46.23-1.07.45-1.71.45Z"/>
          <polygon class="cls-3" points="319.44 117.29 313.44 116.73 316.11 122.13 322.22 122.78 319.44 117.29"/>
          <polygon class="cls-3" points="317.83 125.35 312.55 121.33 314.46 118.61 319.57 122.67 317.83 125.35"/>
          <path class="cls-7" d="M321.71,141.47c-5.72-.79-10.1,4.13-9.2,10.53,6.07-1.7,9.72-3.92,9.2-10.53Z"/>
          <path class="cls-1" d="M302.88,132.72c-1.73-.3-2.63-1.6-2.54-3.04.02-.34.41-.4.6-.09.59.98,1.31,1.72,2.13,2.48.27.25.15.71-.18.65Z"/>
          <path class="cls-1" d="M308.61,133.22c1.54.83,3.06.36,3.88-.82.19-.28-.08-.57-.41-.44-1.07.4-2.09.55-3.2.64-.37.03-.55.46-.26.62Z"/>
          <path class="cls-1" d="M310.41,152.5c-2.36,0-4.28-.24-4.41-.25-.33-.04-.56-.34-.52-.67s.34-.56.67-.52c.06,0,5.61.69,9.39-.29,5.98-1.55,5.72-6.95,5.57-10.19-.01-.26-.02-.5-.03-.71-.07-2.22-.44-6.51-2.13-10.33-2.12-4.8-5.64-7.39-10.45-7.72-9.35-.63-12.53,5.04-14.64,8.79-.48.86-.9,1.6-1.33,2.17-.17.23-.38.49-.61.78-1.72,2.17-4.59,5.8-3.56,9.3.77,2.6,3.63,4.77,8.5,6.43.31.11.48.45.37.76-.11.31-.45.48-.76.37-5.26-1.79-8.37-4.22-9.26-7.22-1.21-4.09,2.03-8.18,3.77-10.38.22-.28.42-.54.59-.76.38-.51.78-1.22,1.24-2.04,2.12-3.77,5.66-10.08,15.76-9.4,5.29.36,9.15,3.19,11.46,8.43,1.77,4.01,2.16,8.47,2.23,10.77,0,.21.02.44.03.69.15,3.12.45,9.61-6.46,11.4-1.7.44-3.69.57-5.43.57Z"/>
          <path class="cls-1" d="M317.83,125.94c-.13,0-.26-.04-.37-.13-.26-.2-.3-.58-.1-.84l2.2-2.79c.13-.16.33-.25.53-.22l1.09.12-2.14-4.21-4.6-.43.65,1.31c.1.2.08.44-.06.62l-1.77,2.35c-.2.26-.57.32-.84.12-.26-.2-.32-.57-.12-.84l1.55-2.06-.96-1.94c-.1-.19-.08-.42.04-.6.12-.18.33-.28.55-.26l6,.56c.2.02.38.14.48.32l2.78,5.49c.1.2.08.43-.04.61-.12.18-.34.28-.55.25l-1.86-.2-2,2.54c-.12.15-.29.23-.47.23Z"/>
          <g>
            <path class="cls-2" d="M307.56,143.44c-.54-1.83-3.33-3.94-4.82-3.82-1.49.12-4.72,1.72-5.69,1.6-.97-.12-1.6-.82-1.86,1.44-.26,2.26,1.44,3.53,3.87,2.85,3.18,2.08,9.43,1.07,8.5-2.07Z"/>
            <path class="cls-2" d="M307.66,144.94c-.96,3.55-5.93,6.02-7.13,5.41-1.2-.61-3.89-1.63-2.34-4.67,2.41.67,7.43.52,7.63-.95.21-1.47,1.84.22,1.84.22Z"/>
            <path class="cls-1" d="M302.81,147.18c-1.13,0-2.33-.39-3.55-1.18-2.28.5-3.5-.18-4.12-.86-.78-.85-1.02-2.14-.61-3.38.41-1.25,1.01-1.32,1.88-1.29.63.02,1.59.06,3.19-.65,3.58-1.6,5.53-.43,7.38,1.82.18.22.15.55-.07.73-.22.18-.55.15-.73-.07-1.62-1.98-3.15-2.87-6.14-1.53-1.83.82-2.97.77-3.66.75q-.65-.02-.84.57c-.28.86-.13,1.78.38,2.34.65.7,1.8.87,3.33.5.14-.03.29,0,.42.07,1.8,1.22,4.44,2.05,6.76-.92.15-.19.42-.25.64-.15,0,0,.68.33,1.29.5.28.08.44.37.36.65s-.37.44-.65.36c-.39-.11-.8-.28-1.08-.4-1.22,1.42-2.63,2.13-4.16,2.13Z"/>
            <path class="cls-1" d="M301.35,150.59c-.84,0-1.62-.2-2.27-.61-2.95-1.84-1.53-4.57-1.52-4.59.14-.25.45-.35.71-.21.25.14.35.45.21.71-.1.19-.92,1.92,1.15,3.21.99.62,2.52.59,3.97-.09,1.83-.85,3.09-2.45,3.35-4.27.04-.29.31-.48.59-.44.29.04.48.31.44.59-.32,2.17-1.79,4.06-3.95,5.06-.91.42-1.83.63-2.69.63Z"/>
          </g>
        </g>
        <g>
          <polygon class="cls-6" points="288.06 124.96 285.85 127.42 288.18 130.01 290.3 127.38 288.06 124.96"/>
          <path class="cls-1" d="M291.31,127.66c-1.55,0-2.71-.89-3.25-2.38-.54,1.49-1.7,2.38-3.25,2.38-.19,0-.34-.15-.34-.34s.15-.34.34-.34c1.79,0,2.91-1.46,2.91-3.82,0-.19.15-.34.34-.34s.34.15.34.34c0,2.32,1.14,3.82,2.91,3.82.19,0,.34.15.34.34s-.15.34-.34.34Z"/>
          <path class="cls-1" d="M288.2,132.13c-.19,0-.34-.15-.34-.34,0-2.33-1.28-4.02-3.05-4.02-.19,0-.34-.15-.34-.34s.15-.34.34-.34c1.53,0,2.77,1,3.35,2.55.51-1.6,1.64-2.55,3.14-2.55.19,0,.34.15.34.34s-.15.34-.34.34c-1.71,0-2.77,1.54-2.77,4.02,0,.19-.15.34-.34.34Z"/>
        </g>
      </g>
    </g>
  </g>
</svg>