<?xml version="1.0" encoding="UTF-8"?>
<svg id="_レイヤー_2" data-name="レイヤー 2" xmlns="http://www.w3.org/2000/svg" width="374" height="77.36" viewBox="0 0 374 77.36">
  <defs>
    <style>
      .cls-1 {
        fill: #fff;
      }

      .cls-2 {
        fill: #9abbbd;
      }

      .cls-3 {
        fill: #739b9e;
      }
    </style>
  </defs>
  <g id="_レイヤー_2-2" data-name="レイヤー 2">
    <g>
      <rect class="cls-2" x="0" y="0" width="374" height="77.36"/>
      <rect class="cls-1" x="7.58" y="14.39" width="358.85" height="51.32" rx="25.57" ry="25.57"/>
      <g>
        <path class="cls-3" d="M115.81,37.03c-.8,0-1.18.02-1.55.06v-1.66c.42.06.77.08,1.55.08h2.71v-.48c0-.72-.03-1.15-.11-1.71h1.84c-.06.43-.06.74-.06,1.78v4.16c0,.51-.03,1.28-.08,1.73l.9-.27v1.55c-.35.11-.62.19-.8.24-.18.05-.22.06-.29.08-.43,2.19-1.5,3.51-4.15,5.03-.34-.54-.67-.98-1.17-1.47,1.15-.56,1.73-.93,2.35-1.47.53-.48.83-.93,1.09-1.57q-.9.22-1.76.43c-1.49.37-1.71.43-2.05.54l-.35-1.78c.22-.02.59-.05.88-.08,1.12-.18,2.13-.37,3.01-.58.38-.1.58-.14.61-.16.08-.77.1-.88.11-1.38h-2.29c-.77,0-1.14.02-1.57.06v-1.58c.37.05.74.06,1.57.06h2.32v-1.62h-2.71ZM123.49,45.54c0,1.01.02,1.39.08,1.9h-1.83c.06-.51.1-.9.1-1.9v-10.36c0-.96-.02-1.31-.1-1.87h1.83c-.06.48-.08.93-.08,1.87v.35h2.74c.82,0,1.15-.02,1.57-.08v1.66c-.37-.05-.8-.06-1.57-.06h-2.74v1.84h2.43c.82,0,1.2-.02,1.57-.06v1.62c-.42-.05-.82-.06-1.57-.06h-2.43v2.03h2.88c.8,0,1.2-.02,1.6-.08v1.7c-.45-.06-.86-.08-1.6-.08h-2.88v1.58Z"/>
        <path class="cls-3" d="M137.1,45.19h4.45c.78,0,1.5-.03,2.06-.1v1.86c-.64-.08-1.28-.11-2.05-.11h-9.76c-.72,0-1.42.03-2.11.11v-1.86c.59.06,1.25.1,2.11.1h3.51v-9.92c0-.7-.03-1.15-.1-1.78h1.98c-.06.58-.1,1.09-.1,1.78v2.62h3.62c.67,0,1.25-.03,1.79-.1v1.84c-.58-.06-1.15-.1-1.79-.1h-3.62v5.65Z"/>
        <path class="cls-3" d="M151.36,42.71c-.61.54-.98.8-1.87,1.31-.19-.34-.26-.45-.59-.82-.96.58-1.57.9-3.06,1.62-.02.02-.1.05-.21.11l-.14.08-.38-1.79c.4-.1.95-.29,1.73-.62v-4.05h-.45c-.45,0-.79.02-1.19.08v-1.63c.35.05.71.06,1.2.06h.43v-1.9c0-.8-.03-1.26-.1-1.71h1.79c-.08.5-.1.91-.1,1.71v1.9h.29c.5,0,.79-.02,1.07-.05v1.58c-.34-.03-.64-.05-1.07-.05h-.29v3.3c.35-.19.53-.29,1.04-.58v1.07c.83-.51,1.36-.98,1.83-1.57h-.35c-.64,0-1.07.03-1.41.08v-1.54c.34.06.72.08,1.43.08h6.72c.74,0,1.22-.03,1.6-.08v1.52c-.46-.05-.9-.06-1.58-.06h-4.71c-.13.22-.21.35-.42.64h4.88c.75,0,1.02-.02,1.5-.05-.03.26-.05.48-.06.91-.08,1.89-.3,3.47-.62,4.16-.32.7-.82.91-2.16.91-.38,0-.67-.02-1.3-.05-.06-.56-.18-.98-.42-1.41-.82.72-1.47,1.15-2.53,1.68-.35-.5-.59-.77-1.11-1.17,1.33-.58,1.99-.96,2.8-1.65.62-.54,1.12-1.18,1.58-2.05h-.91c-.96,1.44-2.27,2.46-4.27,3.36-.26-.48-.48-.74-.96-1.15,1.74-.67,2.75-1.28,3.55-2.21h-1.2ZM151.82,38.74c-.62,0-1.09.02-1.41.05.05-.43.06-.85.06-1.47v-2.24c0-.64-.02-.93-.06-1.39.48.06.82.08,1.55.08h4.48c.8,0,1.17-.02,1.65-.08-.05.4-.06.74-.06,1.52v2.13c0,.66.02,1.14.06,1.44-.37-.02-.75-.03-1.39-.03h-4.88ZM152.06,35.77h4.35v-.66h-4.35v.66ZM152.06,37.51h4.35v-.62h-4.35v.62ZM156.74,42.71c-.59,1.28-1.2,2.15-2.14,3.01.66.1,1.14.13,1.58.13.56,0,.72-.16.87-.82.11-.54.19-1.22.27-2.32h-.58Z"/>
        <path class="cls-3" d="M168.69,33.43c.66,1.02,1.42,1.82,2.61,2.74,1.18.9,2.46,1.62,3.87,2.19-.35.5-.58.94-.85,1.7-1.31-.59-2.71-1.44-3.78-2.32-1.22-.98-1.86-1.63-2.71-2.75-.83,1.14-1.42,1.74-2.53,2.69-1.18,1.01-2.45,1.84-3.83,2.51-.27-.7-.45-1.04-.87-1.63,1.33-.58,2.61-1.36,3.78-2.34,1.07-.86,1.86-1.74,2.51-2.79h1.78ZM169.02,45.34h3.83c.85,0,1.46-.03,1.94-.1v1.82c-.5-.06-1.12-.1-1.94-.1h-9.99c-.86,0-1.49.03-1.99.1v-1.82c.42.06.99.1,1.83.1h.69v-3.68c0-.72-.02-1.2-.08-1.76h1.87c-.06.46-.1.99-.1,1.76v3.68h2.22v-6.26c0-.77-.02-1.18-.1-1.71h1.9c-.06.46-.1.9-.1,1.66v1.52h2.54c.72,0,1.25-.03,1.68-.08v1.79c-.48-.06-.94-.08-1.66-.08h-2.56v3.15Z"/>
        <path class="cls-3" d="M178.64,39.45c-.72,0-1.06.02-1.57.06v-1.46c.43.05.82.06,1.57.06h1.87c-.26-.58-.4-.85-.58-1.15h-1.65c-.74,0-1.35.03-1.83.08v-1.54c.48.06.96.1,1.75.1h.5c-.29-.53-.48-.78-1.04-1.42l1.54-.58c.51.7.72,1.06,1.18,2h.87v-1.07c0-.46-.03-.9-.08-1.2h1.66c-.03.29-.05.62-.05,1.14v1.14h1.14v-1.14c0-.48-.02-.82-.06-1.14h1.68c-.05.29-.08.72-.08,1.2v1.07h.96c.53-.74.83-1.3,1.1-2.03l1.57.58c-.34.58-.62,1.02-.94,1.46h.43c.8,0,1.28-.03,1.75-.1v1.54c-.48-.05-1.09-.08-1.83-.08h-1.55c-.26.58-.37.82-.56,1.15h1.78c.75,0,1.14-.02,1.58-.06v1.46c-.5-.05-.85-.06-1.58-.06h-4.02v.74h3.23c.67,0,1.15-.02,1.57-.06v1.34c-.4-.05-.9-.06-1.57-.06h-3.23v.77h4.31c.86,0,1.41-.03,1.84-.1v1.54c-.56-.06-1.12-.1-1.82-.1h-3.09c.51.45,1.22.85,2.08,1.23.98.4,1.81.64,3.2.88-.43.58-.62.91-.88,1.57-2.58-.7-4.32-1.63-5.68-3.06.03.54.03.74.03,1.09v.77c0,.66.03,1.12.1,1.55h-1.81c.06-.45.1-.94.1-1.57v-.74c0-.35,0-.48.03-1.06-.7.75-1.26,1.18-2.21,1.7-.98.54-1.94.94-3.14,1.3-.22-.53-.53-.99-.93-1.49,2.22-.46,3.78-1.14,5.03-2.18h-2.85c-.75,0-1.3.03-1.87.1v-1.54c.48.06,1.01.1,1.86.1h4.07v-.77h-3.04c-.67,0-1.17.02-1.57.06v-1.34c.42.05.88.06,1.57.06h3.04v-.74h-3.86ZM184.67,38.12c.22-.42.37-.74.51-1.15h-3.51c.21.45.32.74.46,1.15h2.53Z"/>
        <path class="cls-3" d="M198.21,43.58c-.77,1.33-1.83,2.06-2.91,2.06-1.66,0-2.85-1.63-2.85-3.91,0-2.53,1.28-4.71,3.47-5.86,1.07-.58,2.22-.83,3.75-.83,3.34,0,5.83,2.37,5.83,5.54,0,2.8-1.38,4.82-4.03,5.95-.53.22-.94.35-1.15.35-.19,0-.27-.06-.48-.37-.27-.42-.58-.72-1.01-1.01,3.3-.85,4.79-2.4,4.79-4.99,0-1.33-.56-2.45-1.55-3.15-.56-.38-1.01-.54-1.89-.69-.45,3.38-.98,5.22-1.95,6.9ZM195.9,37.91c-1.07.94-1.68,2.29-1.68,3.79,0,1.23.4,1.95,1.07,1.95.8,0,1.62-1.1,2.22-3.01.38-1.2.58-2.11.82-3.89-1.14.24-1.7.51-2.43,1.15Z"/>
        <path class="cls-3" d="M217.66,39.25h2.27c.72,0,1.17-.03,1.65-.1v1.74c-.51-.05-.99-.08-1.67-.08h-1.73c.91,1.6,2.24,2.93,3.83,3.83-.51.51-.74.83-1.06,1.6-.66-.46-1.12-.91-1.73-1.6-.78-.91-1.12-1.41-1.63-2.37.03.58.05,1.07.05,1.54v1.94c0,.72.03,1.28.1,1.78h-1.78c.06-.5.1-1.07.1-1.79v-1.82c0-.43.02-.94.05-1.58-.98,1.76-2.06,2.95-3.62,3.99-.4-.75-.62-1.07-.96-1.46,1.65-.94,2.99-2.32,3.92-4.03h-1.01c-.69,0-1.19.03-1.68.1v-.64c-.27.38-.46.74-.66,1.3-.4-.62-.64-1.12-.94-1.92.03.5.06,1.36.06,2.03v3.94c0,.82.03,1.41.1,1.89h-1.78c.06-.5.1-1.09.1-1.89v-3.31c0-.61.02-.99.11-1.98-.46,1.55-.93,2.59-1.62,3.63-.19-.72-.4-1.18-.72-1.71.77-.98,1.57-2.79,2.05-4.64h-.61c-.46,0-.74.02-1.02.06v-1.63c.26.05.54.06,1.02.06h.77v-1.23c0-.82-.02-1.22-.08-1.6h1.76c-.06.42-.08.85-.08,1.6v1.23h.46c.38,0,.58-.02.83-.06v1.52c.61-1.09,1.12-2.69,1.17-3.73l1.55.4c-.06.18-.11.37-.22.85-.08.29-.11.43-.19.74h1.23v-1.06c0-.66-.03-1.06-.1-1.46h1.79c-.06.38-.1.82-.1,1.46v1.06h1.81c.77,0,1.22-.03,1.65-.1v1.68c-.45-.05-.96-.08-1.65-.08h-1.81v1.94ZM214.32,37.32c-.27.66-.42.96-.86,1.71q-.38-.4-1.25-1.01c.13-.18.18-.26.26-.37-.21-.03-.46-.05-.75-.05h-.4c.37.85.75,1.49,1.46,2.43v-.88c.48.06.93.1,1.67.1h1.63v-1.94h-1.75Z"/>
        <path class="cls-3" d="M229.41,43.58c-.77,1.33-1.82,2.06-2.91,2.06-1.67,0-2.85-1.63-2.85-3.91,0-2.53,1.28-4.71,3.47-5.86,1.07-.58,2.22-.83,3.75-.83,3.35,0,5.83,2.37,5.83,5.54,0,2.8-1.38,4.82-4.03,5.95-.53.22-.95.35-1.15.35-.19,0-.27-.06-.48-.37-.27-.42-.58-.72-1.01-1.01,3.3-.85,4.79-2.4,4.79-4.99,0-1.33-.56-2.45-1.55-3.15-.56-.38-1.01-.54-1.89-.69-.45,3.38-.98,5.22-1.95,6.9ZM227.1,37.91c-1.07.94-1.68,2.29-1.68,3.79,0,1.23.4,1.95,1.07,1.95.8,0,1.62-1.1,2.23-3.01.38-1.2.58-2.11.82-3.89-1.14.24-1.7.51-2.43,1.15Z"/>
        <path class="cls-3" d="M240.53,41.34c0-.74,0-1.07.03-1.73-.48.78-.71,1.09-1.38,1.81-.18-.67-.21-.77-.69-1.84.94-.98,1.73-2.15,2.4-3.52.54-1.15.88-2.13,1.01-2.91l1.75.51q-.11.3-.48,1.28c-.26.72-.37.98-.95,2.18v8.53c0,.64.03,1.17.08,1.78h-1.87c.06-.61.1-1.07.1-1.79v-4.29ZM246.75,35.09c0-.72-.03-1.18-.1-1.63h1.94c-.08.48-.1.88-.1,1.67v2.72h2.64c.74,0,1.26-.03,1.76-.1v1.84c-.59-.06-1.18-.1-1.75-.1h-2.66v5.75h2.27c.67,0,1.2-.03,1.71-.1v1.76c-.46-.06-1.09-.1-1.74-.1h-5.83c-.66,0-1.28.03-1.74.1v-1.76c.5.06,1.07.1,1.73.1h1.86v-5.75h-2.15c-.56,0-1.15.03-1.74.1v-1.84c.51.06,1.06.1,1.79.1h2.1v-2.75Z"/>
        <path class="cls-3" d="M256.43,42.07c-.22,2.37-.37,3.15-.82,4.53l-1.34-.62c.48-1.18.72-2.37.82-4.11l1.34.21ZM255.9,39.81q.38-.5.69-.93c-.75-.99-1.52-1.84-2.22-2.43l.79-1.39c.32.3.38.37.67.67.53-.83,1.09-1.98,1.22-2.53l1.57.56c-.11.18-.16.26-.29.5-.75,1.39-.82,1.47-1.52,2.53.27.3.4.45.67.8.83-1.26,1.34-2.18,1.6-2.83l1.39.77c-.13.16-.22.3-.42.62-.88,1.38-1.84,2.77-2.51,3.6.72-.05.74-.05,1.71-.14-.19-.45-.27-.62-.53-1.1l1.17-.53c.66,1.25.98,2.05,1.28,3.12l-1.25.58c-.1-.37-.13-.5-.21-.78-.35.03-.77.08-1.25.13v4.82c0,.8.02,1.17.1,1.65h-1.76c.08-.5.1-.9.1-1.65v-4.67c-1.92.13-1.98.14-2.22.19l-.19-1.58c.22.03.5.05.91.05h.51ZM260.03,41.88c.26.94.37,1.6.53,2.95l-1.27.26c-.11-1.3-.21-2.02-.43-2.91l1.17-.29ZM267.65,45.38c.37,0,.67-.03.95-.08v1.73c-.43-.06-1.03-.1-1.58-.1h-5.7c-.59,0-1.14.03-1.57.1v-1.73c.32.05.64.08,1.07.08h.45v-9.94c0-.59-.02-1.07-.06-1.57.45.03.9.05,1.54.05h3.23c.77,0,1.15-.02,1.6-.06-.03.5-.05.91-.05,1.7v9.83h.13ZM262.86,37.64h3.09v-2.16h-3.09v2.16ZM262.86,41.4h3.09v-2.24h-3.09v2.24ZM262.86,45.38h3.09v-2.46h-3.09v2.46Z"/>
        <path class="cls-3" d="M276.21,41.18c-.58,1.07-1.23,2.13-1.83,2.99-.66.94-1.41,1.42-2.19,1.42-1.15,0-1.94-.94-1.94-2.35,0-1.22.61-2.26,1.74-2.93.75-.43,1.89-.74,2.8-.74h.16c.82-1.66,1.02-2.11,1.57-3.36-1.47.06-2.37.19-3.02.42-.03.02-.08.02-.11.02-.27,0-.53-.83-.61-2.03.35.06.69.1,1.12.1.54,0,1.47-.05,2.45-.14q.91-.08,1.12-.21c.13-.06.21-.1.29-.1.21,0,.53.26.88.69.26.34.42.61.42.72,0,.13-.06.24-.26.43-.24.26-.98,1.63-1.9,3.59,1.52.3,2.1.48,3.2.96.08-.56.14-1.22.14-1.66,0-.21-.02-.45-.05-.72.69.1,1.27.21,1.73.32.29.08.38.16.38.29,0,.11-.03.22-.13.42-.14.3-.19.51-.3,1.17-.05.34-.1.56-.19,1.02.82.51,1.52,1.01,1.84,1.31.08.08.13.16.13.24,0,.45-.69,1.49-.98,1.49-.08,0-.16-.05-.29-.14-.43-.38-.96-.83-1.28-1.07-.54,1.15-1.1,1.89-1.99,2.64-.75.62-1.79,1.2-2.18,1.2-.13,0-.27-.06-.38-.16-.05-.05-.05-.06-.26-.35-.24-.37-.45-.54-.83-.72,1.28-.45,1.9-.77,2.59-1.36.69-.61,1.22-1.34,1.57-2.21-1.09-.59-2.16-.96-3.42-1.17ZM271.89,43.1c0,.38.14.62.4.62.35,0,.98-.78,1.98-2.51-1.52.16-2.38.85-2.38,1.89Z"/>
      </g>
      <g>
        <g>
          <path class="cls-3" d="M43.15,35.58c.02-1.97.63-3.49,1.83-4.55,1.13-1.05,2.47-1.58,4.03-1.58s2.98.53,4.11,1.58c1.15,1.06,1.74,2.58,1.77,4.56v9.42c-.04,1.96-.63,3.48-1.77,4.54-1.13,1.05-2.5,1.59-4.11,1.61-1.56-.02-2.91-.56-4.03-1.61-1.2-1.06-1.81-2.57-1.83-4.53v-9.44ZM51.94,35.77c-.06-2.14-1.03-3.23-2.92-3.27-1.9.04-2.87,1.13-2.91,3.27v9.07c.04,2.16,1.01,3.25,2.91,3.27,1.89-.02,2.87-1.11,2.92-3.27v-9.07Z"/>
          <path class="cls-3" d="M58.06,29.63h11.03v3.05h-8.25v4.87c.97-.78,2.07-1.17,3.32-1.17.8.02,1.53.17,2.19.44.63.3,1.13.67,1.52,1.11.58.59.99,1.26,1.24,2.04.13.42.23.93.28,1.54.06.61.08,1.37.08,2.27,0,1.39-.09,2.45-.28,3.19-.2.73-.53,1.38-.99,1.95-.41.55-1,1.06-1.77,1.52-.76.48-1.66.72-2.7.74-1.4,0-2.68-.43-3.85-1.29-1.18-.88-1.92-2.29-2.2-4.25h2.97c.32,1.64,1.31,2.48,2.97,2.5.71,0,1.28-.15,1.71-.44.41-.28.69-.66.85-1.12.17-.46.28-.96.31-1.5.02-.53.03-1.04.03-1.54.02-1.22-.17-2.22-.56-2.98-.21-.36-.52-.65-.93-.87-.41-.18-.92-.26-1.53-.26-.54,0-1.04.13-1.48.38-.45.26-.85.72-1.2,1.38h-2.78v-11.54Z"/>
        </g>
        <path class="cls-3" d="M33.72,42.84c-.76.79-1.8,1.41-3.01,1.81-.17-.32-.31-.52-.56-.82,1.2-.29,2.21-.79,2.94-1.47h-1.5c-.05.18-.06.22-.13.43l-1.01-.02c.24-.56.38-1.02.49-1.58.08-.39.14-.77.14-.95.17.02.4.03.82.03h1.78l-.02-.58h-1.93c-.34,0-.56,0-.8.04v-.83c-.1.08-.13.12-.26.23-.17-.29-.35-.5-.56-.69.74-.57,1.16-1.12,1.35-1.76l.93.17c-.11.23-.14.29-.25.47h1.11c.41,0,.64-.02.85-.04v.7c.34-.4.55-.78.7-1.3l.92.16q-.07.17-.22.49h1.65c.46,0,.67,0,.95-.05v.9c-.26-.04-.52-.05-.9-.05h-.68c.23.33.23.35.38.59l-.71.2h.41c.43,0,.59,0,.81-.03-.03.16-.04.3-.04.61v.91c0,.31,0,.45.04.63-.2-.02-.47-.03-.81-.03h-1.99v.57h2.47c.33,0,.52,0,.74-.03-.02.11-.02.17-.03.26t-.03.26s-.02.22-.05.55c-.09.86-.14,1.07-.31,1.27-.17.2-.43.26-1.02.26-.25,0-.43,0-.8-.03-.05-.36-.11-.56-.22-.85.33.04.74.08.95.08.47,0,.49-.05.55-1.01h-2.22l.02,1.45c0,.46.02.68.06.95h-1.02c.04-.25.05-.4.05-.75v-.22l-.02-.96ZM32.48,38.94c-.11-.29-.22-.5-.39-.8h-.48c-.21.29-.4.5-.68.77.21.03.38.04.79.04h.75ZM33.69,41.04h-1.77c-.03.19-.04.21-.12.57h1.9v-.57ZM34.18,38.94c-.13-.16-.31-.33-.56-.51.15-.12.2-.15.32-.27-.15,0-.32-.02-.49-.02h-.48c.11.17.17.26.34.58l-.71.22h1.58ZM36.01,38.94c-.1-.22-.26-.51-.44-.79h-.53c-.23.33-.42.55-.69.79h1.67ZM34.59,40.28h1.87v-.58h-1.88v.58Z"/>
        <path class="cls-3" d="M79.8,44.74v-.47h-5.38v.47h-1.01c.04-.28.05-.64.05-1.12v-5.46c0-.42-.02-.69-.05-1.04.32.04.59.05,1.02.05h5.36c.42,0,.7,0,1.02-.05-.04.32-.04.6-.04,1.04v5.47c0,.47.02.89.04,1.11h-1ZM74.42,43.42h5.38v-5.39h-5.38v5.39ZM78.02,39.01c.38,0,.6,0,.83-.03-.02.21-.03.41-.03.68v2.06c0,.29,0,.47.03.68-.26-.02-.47-.03-.83-.03h-1.85c-.43,0-.57,0-.84.03.03-.23.04-.42.04-.68v-2.06c0-.25,0-.45-.04-.68.22.02.46.03.84.03h1.85ZM76.28,41.58h1.63v-1.76h-1.63v1.76Z"/>
      </g>
      <rect class="cls-2" x="95.06" y="32.52" width="1.42" height="15.06"/>
    </g>
  </g>
</svg>